<?xml version="1.0" encoding="UTF-8" standalone="no"?>
<!-- Created with CurveBenchmark -->
<svg
	xmlns:dc="http://purl.org/dc/elements/1.1/"
	xmlns:cc="http://creativecommons.org/ns#"
	xmlns:rdf="http://www.w3.org/1999/02/22-rdf-syntax-ns#"
	xmlns:svg="http://www.w3.org/2000/svg"
	xmlns="http://www.w3.org/2000/svg"
	xmlns:sodipodi="http://sodipodi.sourceforge.net/DTD/sodipodi-0.dtd"
	xmlns:inkscape="http://www.inkscape.org/namespaces/inkscape"
	width="1000"
	height="1000"
	id="svg2"
	version="1.1"
	sodipodi:docname="test">
<defs
	id="defs4" />
<metadata
	id="metadata7">
	<rdf:RDF>
		<cc:Work
			rdf:about="">
			<dc:format>image/svg+xml</dc:format>
			<dc:type
				rdf:resource="http://purl.org/dc/dcmitype/StillImage" />
			<dc:title></dc:title>
		</cc:Work>
	</rdf:RDF>
</metadata>
<g
	inkscape:label="Layer 1"
	inkscape:groupmode="layer"
	id="layer1">
	<path style="fill:none;stroke:red;stroke-width:1px;stroke-linecap:butt;stroke-linejoin:miter;stroke-opacity:1" d="M 38.6449,144.889 52.5029,109.09 z" id="boundary" inkscape:connector-curvature="0" />
	<path style="fill:none;stroke:red;stroke-width:1px;stroke-linecap:butt;stroke-linejoin:miter;stroke-opacity:1" d="M 38.6449,144.889 4,223.418 z" id="boundary" inkscape:connector-curvature="0" />
	<path style="fill:none;stroke:red;stroke-width:1px;stroke-linecap:butt;stroke-linejoin:miter;stroke-opacity:1" d="M 52.5029,109.09 135.651,39.7998 z" id="boundary" inkscape:connector-curvature="0" />
	<path style="fill:none;stroke:red;stroke-width:1px;stroke-linecap:butt;stroke-linejoin:miter;stroke-opacity:1" d="M 156.438,164.522 146.044,146.044 z" id="boundary" inkscape:connector-curvature="0" />
	<path style="fill:none;stroke:red;stroke-width:1px;stroke-linecap:butt;stroke-linejoin:miter;stroke-opacity:1" d="M 146.044,146.044 129.877,154.128 z" id="boundary" inkscape:connector-curvature="0" />
	<path style="fill:none;stroke:red;stroke-width:1px;stroke-linecap:butt;stroke-linejoin:miter;stroke-opacity:1" d="M 73.2899,180.689 112.554,174.915 z" id="boundary" inkscape:connector-curvature="0" />
	<path style="fill:none;stroke:red;stroke-width:1px;stroke-linecap:butt;stroke-linejoin:miter;stroke-opacity:1" d="M 112.554,174.915 129.877,154.128 z" id="boundary" inkscape:connector-curvature="0" />
	<path style="fill:none;stroke:red;stroke-width:1px;stroke-linecap:butt;stroke-linejoin:miter;stroke-opacity:1" d="M 156.438,164.522 158.747,185.309 z" id="boundary" inkscape:connector-curvature="0" />
	<path style="fill:none;stroke:red;stroke-width:1px;stroke-linecap:butt;stroke-linejoin:miter;stroke-opacity:1" d="M 135.651,39.7998 211.87,17.858 z" id="boundary" inkscape:connector-curvature="0" />
	<path style="fill:none;stroke:red;stroke-width:1px;stroke-linecap:butt;stroke-linejoin:miter;stroke-opacity:1" d="M 73.2899,180.689 55.9674,188.773 z" id="boundary" inkscape:connector-curvature="0" />
	<path style="fill:none;stroke:red;stroke-width:1px;stroke-linecap:butt;stroke-linejoin:miter;stroke-opacity:1" d="M 252.289,152.973 223.418,166.831 z" id="boundary" inkscape:connector-curvature="0" />
	<path style="fill:none;stroke:red;stroke-width:1px;stroke-linecap:butt;stroke-linejoin:miter;stroke-opacity:1" d="M 281.159,143.735 252.289,152.973 z" id="boundary" inkscape:connector-curvature="0" />
	<path style="fill:none;stroke:red;stroke-width:1px;stroke-linecap:butt;stroke-linejoin:miter;stroke-opacity:1" d="M 283.469,166.831 281.159,143.735 z" id="boundary" inkscape:connector-curvature="0" />
	<path style="fill:none;stroke:red;stroke-width:1px;stroke-linecap:butt;stroke-linejoin:miter;stroke-opacity:1" d="M 211.87,17.858 312.34,4 z" id="boundary" inkscape:connector-curvature="0" />
	<path style="fill:none;stroke:red;stroke-width:1px;stroke-linecap:butt;stroke-linejoin:miter;stroke-opacity:1" d="M 210.715,176.07 207.25,187.618 z" id="boundary" inkscape:connector-curvature="0" />
	<path style="fill:none;stroke:red;stroke-width:1px;stroke-linecap:butt;stroke-linejoin:miter;stroke-opacity:1" d="M 283.469,166.831 283.469,192.237 z" id="boundary" inkscape:connector-curvature="0" />
	<path style="fill:none;stroke:red;stroke-width:1px;stroke-linecap:butt;stroke-linejoin:miter;stroke-opacity:1" d="M 345.83,154.128 342.366,173.76 z" id="boundary" inkscape:connector-curvature="0" />
	<path style="fill:none;stroke:red;stroke-width:1px;stroke-linecap:butt;stroke-linejoin:miter;stroke-opacity:1" d="M 210.715,176.07 223.418,166.831 z" id="boundary" inkscape:connector-curvature="0" />
	<path style="fill:none;stroke:red;stroke-width:1px;stroke-linecap:butt;stroke-linejoin:miter;stroke-opacity:1" d="M 158.747,185.309 167.986,200.321 z" id="boundary" inkscape:connector-curvature="0" />
	<path style="fill:none;stroke:red;stroke-width:1px;stroke-linecap:butt;stroke-linejoin:miter;stroke-opacity:1" d="M 167.986,200.321 188.773,226.882 z" id="boundary" inkscape:connector-curvature="0" />
	<path style="fill:none;stroke:red;stroke-width:1px;stroke-linecap:butt;stroke-linejoin:miter;stroke-opacity:1" d="M 207.25,187.618 196.857,208.405 z" id="boundary" inkscape:connector-curvature="0" />
	<path style="fill:none;stroke:red;stroke-width:1px;stroke-linecap:butt;stroke-linejoin:miter;stroke-opacity:1" d="M 283.469,192.237 283.469,203.786 z" id="boundary" inkscape:connector-curvature="0" />
	<path style="fill:none;stroke:red;stroke-width:1px;stroke-linecap:butt;stroke-linejoin:miter;stroke-opacity:1" d="M 4,223.418 22.4773,213.024 z" id="boundary" inkscape:connector-curvature="0" />
	<path style="fill:none;stroke:red;stroke-width:1px;stroke-linecap:butt;stroke-linejoin:miter;stroke-opacity:1" d="M 188.773,226.882 196.857,208.405 z" id="boundary" inkscape:connector-curvature="0" />
	<path style="fill:none;stroke:red;stroke-width:1px;stroke-linecap:butt;stroke-linejoin:miter;stroke-opacity:1" d="M 22.4773,213.024 55.9674,188.773 z" id="boundary" inkscape:connector-curvature="0" />
	<path style="fill:none;stroke:red;stroke-width:1px;stroke-linecap:butt;stroke-linejoin:miter;stroke-opacity:1" d="M 283.469,203.786 285.779,225.728 z" id="boundary" inkscape:connector-curvature="0" />
	<path style="fill:none;stroke:red;stroke-width:1px;stroke-linecap:butt;stroke-linejoin:miter;stroke-opacity:1" d="M 288.088,256.908 288.088,291.553 z" id="boundary" inkscape:connector-curvature="0" />
	<path style="fill:none;stroke:red;stroke-width:1px;stroke-linecap:butt;stroke-linejoin:miter;stroke-opacity:1" d="M 288.088,256.908 285.779,225.728 z" id="boundary" inkscape:connector-curvature="0" />
	<path style="fill:none;stroke:red;stroke-width:1px;stroke-linecap:butt;stroke-linejoin:miter;stroke-opacity:1" d="M 337.746,216.489 340.056,193.392 z" id="boundary" inkscape:connector-curvature="0" />
	<path style="fill:none;stroke:red;stroke-width:1px;stroke-linecap:butt;stroke-linejoin:miter;stroke-opacity:1" d="M 288.088,480.945 285.779,525.984 z" id="boundary" inkscape:connector-curvature="0" />
	<path style="fill:none;stroke:red;stroke-width:1px;stroke-linecap:butt;stroke-linejoin:miter;stroke-opacity:1" d="M 286.889,424.403 288.088,480.945 z" id="boundary" inkscape:connector-curvature="0" />
	<path style="fill:none;stroke:red;stroke-width:1px;stroke-linecap:butt;stroke-linejoin:miter;stroke-opacity:1" d="M 286.889,424.403 292.663,341.643 z" id="boundary" inkscape:connector-curvature="0" />
	<path style="fill:none;stroke:red;stroke-width:1px;stroke-linecap:butt;stroke-linejoin:miter;stroke-opacity:1" d="M 292.663,341.643 288.088,291.553 z" id="boundary" inkscape:connector-curvature="0" />
	<path style="fill:none;stroke:red;stroke-width:1px;stroke-linecap:butt;stroke-linejoin:miter;stroke-opacity:1" d="M 337.746,216.489 343.52,234.966 z" id="boundary" inkscape:connector-curvature="0" />
	<path style="fill:none;stroke:red;stroke-width:1px;stroke-linecap:butt;stroke-linejoin:miter;stroke-opacity:1" d="M 342.366,173.76 340.056,193.392 z" id="boundary" inkscape:connector-curvature="0" />
	<path style="fill:none;stroke:red;stroke-width:1px;stroke-linecap:butt;stroke-linejoin:miter;stroke-opacity:1" d="M 351.604,143.735 379.32,146.044 z" id="boundary" inkscape:connector-curvature="0" />
	<path style="fill:none;stroke:red;stroke-width:1px;stroke-linecap:butt;stroke-linejoin:miter;stroke-opacity:1" d="M 345.83,154.128 351.604,143.735 z" id="boundary" inkscape:connector-curvature="0" />
	<path style="fill:none;stroke:red;stroke-width:1px;stroke-linecap:butt;stroke-linejoin:miter;stroke-opacity:1" d="M 467.087,144.889 442.836,156.438 z" id="boundary" inkscape:connector-curvature="0" />
	<path style="fill:none;stroke:red;stroke-width:1px;stroke-linecap:butt;stroke-linejoin:miter;stroke-opacity:1" d="M 400.107,147.199 379.32,146.044 z" id="boundary" inkscape:connector-curvature="0" />
	<path style="fill:none;stroke:red;stroke-width:1px;stroke-linecap:butt;stroke-linejoin:miter;stroke-opacity:1" d="M 400.107,147.199 413.965,166.831 z" id="boundary" inkscape:connector-curvature="0" />
	<path style="fill:none;stroke:red;stroke-width:1px;stroke-linecap:butt;stroke-linejoin:miter;stroke-opacity:1" d="M 413.965,166.831 416.275,186.463 z" id="boundary" inkscape:connector-curvature="0" />
	<path style="fill:none;stroke:red;stroke-width:1px;stroke-linecap:butt;stroke-linejoin:miter;stroke-opacity:1" d="M 439.371,172.605 442.836,156.438 z" id="boundary" inkscape:connector-curvature="0" />
	<path style="fill:none;stroke:red;stroke-width:1px;stroke-linecap:butt;stroke-linejoin:miter;stroke-opacity:1" d="M 312.34,4 403.572,19.0128 z" id="boundary" inkscape:connector-curvature="0" />
	<path style="fill:none;stroke:red;stroke-width:1px;stroke-linecap:butt;stroke-linejoin:miter;stroke-opacity:1" d="M 495.958,51.3481 543.306,99.851 z" id="boundary" inkscape:connector-curvature="0" />
	<path style="fill:none;stroke:red;stroke-width:1px;stroke-linecap:butt;stroke-linejoin:miter;stroke-opacity:1" d="M 941.723,103.315 950.962,60.5867 z" id="boundary" inkscape:connector-curvature="0" />
	<path style="fill:none;stroke:red;stroke-width:1px;stroke-linecap:butt;stroke-linejoin:miter;stroke-opacity:1" d="M 950.962,60.5867 961.355,109.09 z" id="boundary" inkscape:connector-curvature="0" />
	<path style="fill:none;stroke:red;stroke-width:1px;stroke-linecap:butt;stroke-linejoin:miter;stroke-opacity:1" d="M 495.958,51.3481 403.572,19.0128 z" id="boundary" inkscape:connector-curvature="0" />
	<path style="fill:none;stroke:red;stroke-width:1px;stroke-linecap:butt;stroke-linejoin:miter;stroke-opacity:1" d="M 941.723,103.315 927.865,142.58 z" id="boundary" inkscape:connector-curvature="0" />
	<path style="fill:none;stroke:red;stroke-width:1px;stroke-linecap:butt;stroke-linejoin:miter;stroke-opacity:1" d="M 437.062,187.618 439.371,172.605 z" id="boundary" inkscape:connector-curvature="0" />
	<path style="fill:none;stroke:red;stroke-width:1px;stroke-linecap:butt;stroke-linejoin:miter;stroke-opacity:1" d="M 507.506,151.818 467.087,144.889 z" id="boundary" inkscape:connector-curvature="0" />
	<path style="fill:none;stroke:red;stroke-width:1px;stroke-linecap:butt;stroke-linejoin:miter;stroke-opacity:1" d="M 543.306,99.851 574.487,180.689 z" id="boundary" inkscape:connector-curvature="0" />
	<path style="fill:none;stroke:red;stroke-width:1px;stroke-linecap:butt;stroke-linejoin:miter;stroke-opacity:1" d="M 574.487,180.689 545.616,163.367 z" id="boundary" inkscape:connector-curvature="0" />
	<path style="fill:none;stroke:red;stroke-width:1px;stroke-linecap:butt;stroke-linejoin:miter;stroke-opacity:1" d="M 545.616,163.367 507.506,151.818 z" id="boundary" inkscape:connector-curvature="0" />
	<path style="fill:none;stroke:red;stroke-width:1px;stroke-linecap:butt;stroke-linejoin:miter;stroke-opacity:1" d="M 961.355,109.09 964.82,176.07 z" id="boundary" inkscape:connector-curvature="0" />
	<path style="fill:none;stroke:red;stroke-width:1px;stroke-linecap:butt;stroke-linejoin:miter;stroke-opacity:1" d="M 345.83,258.063 343.52,284.624 z" id="boundary" inkscape:connector-curvature="0" />
	<path style="fill:none;stroke:red;stroke-width:1px;stroke-linecap:butt;stroke-linejoin:miter;stroke-opacity:1" d="M 345.83,258.063 343.52,234.966 z" id="boundary" inkscape:connector-curvature="0" />
	<path style="fill:none;stroke:red;stroke-width:1px;stroke-linecap:butt;stroke-linejoin:miter;stroke-opacity:1" d="M 416.275,186.463 427.823,204.941 z" id="boundary" inkscape:connector-curvature="0" />
	<path style="fill:none;stroke:red;stroke-width:1px;stroke-linecap:butt;stroke-linejoin:miter;stroke-opacity:1" d="M 437.062,187.618 427.823,204.941 z" id="boundary" inkscape:connector-curvature="0" />
	<path style="fill:none;stroke:red;stroke-width:1px;stroke-linecap:butt;stroke-linejoin:miter;stroke-opacity:1" d="M 343.52,284.624 345.83,320.424 z" id="boundary" inkscape:connector-curvature="0" />
	<path style="fill:none;stroke:red;stroke-width:1px;stroke-linecap:butt;stroke-linejoin:miter;stroke-opacity:1" d="M 360.843,491.339 360.843,525.984 z" id="boundary" inkscape:connector-curvature="0" />
	<path style="fill:none;stroke:red;stroke-width:1px;stroke-linecap:butt;stroke-linejoin:miter;stroke-opacity:1" d="M 360.843,525.984 285.779,525.984 z" id="boundary" inkscape:connector-curvature="0" />
	<path style="fill:none;stroke:red;stroke-width:1px;stroke-linecap:butt;stroke-linejoin:miter;stroke-opacity:1" d="M 350.36,373.501 345.83,320.424 z" id="boundary" inkscape:connector-curvature="0" />
	<path style="fill:none;stroke:red;stroke-width:1px;stroke-linecap:butt;stroke-linejoin:miter;stroke-opacity:1" d="M 350.36,373.501 360.843,491.339 z" id="boundary" inkscape:connector-curvature="0" />
	<path style="fill:none;stroke:red;stroke-width:1px;stroke-linecap:butt;stroke-linejoin:miter;stroke-opacity:1" d="M 917.471,173.716 927.865,142.58 z" id="boundary" inkscape:connector-curvature="0" />
	<path style="fill:none;stroke:red;stroke-width:1px;stroke-linecap:butt;stroke-linejoin:miter;stroke-opacity:1" d="M 907.033,207.206 917.471,173.716 z" id="boundary" inkscape:connector-curvature="0" />
	<path style="fill:none;stroke:red;stroke-width:1px;stroke-linecap:butt;stroke-linejoin:miter;stroke-opacity:1" d="M 875.898,218.799 907.033,207.206 z" id="boundary" inkscape:connector-curvature="0" />
	<path style="fill:none;stroke:red;stroke-width:1px;stroke-linecap:butt;stroke-linejoin:miter;stroke-opacity:1" d="M 983.297,233.811 972.903,213.024 z" id="boundary" inkscape:connector-curvature="0" />
	<path style="fill:none;stroke:red;stroke-width:1px;stroke-linecap:butt;stroke-linejoin:miter;stroke-opacity:1" d="M 972.903,213.024 964.82,176.07 z" id="boundary" inkscape:connector-curvature="0" />
	<path style="fill:none;stroke:red;stroke-width:1px;stroke-linecap:butt;stroke-linejoin:miter;stroke-opacity:1" d="M 983.297,233.811 996,258.063 z" id="boundary" inkscape:connector-curvature="0" />
	<circle cx="4" cy="223.418" r="4" fill="#0" id="circle0"/>
	<circle cx="38.6449" cy="144.889" r="4" fill="#0" id="circle1"/>
	<circle cx="52.5029" cy="109.09" r="4" fill="#0" id="circle2"/>
	<circle cx="135.651" cy="39.7998" r="4" fill="#0" id="circle3"/>
	<circle cx="211.87" cy="17.858" r="4" fill="#0" id="circle4"/>
	<circle cx="312.34" cy="4" r="4" fill="#0" id="circle5"/>
	<circle cx="403.572" cy="19.0128" r="4" fill="#0" id="circle6"/>
	<circle cx="495.958" cy="51.3481" r="4" fill="#0" id="circle7"/>
	<circle cx="543.306" cy="99.851" r="4" fill="#0" id="circle8"/>
	<circle cx="574.487" cy="180.689" r="4" fill="#0" id="circle9"/>
	<circle cx="545.616" cy="163.367" r="4" fill="#0" id="circle10"/>
	<circle cx="507.506" cy="151.818" r="4" fill="#0" id="circle11"/>
	<circle cx="467.087" cy="144.889" r="4" fill="#0" id="circle12"/>
	<circle cx="442.836" cy="156.438" r="4" fill="#0" id="circle13"/>
	<circle cx="439.371" cy="172.605" r="4" fill="#0" id="circle14"/>
	<circle cx="437.062" cy="187.618" r="4" fill="#0" id="circle15"/>
	<circle cx="427.823" cy="204.941" r="4" fill="#0" id="circle16"/>
	<circle cx="416.275" cy="186.463" r="4" fill="#0" id="circle17"/>
	<circle cx="413.965" cy="166.831" r="4" fill="#0" id="circle18"/>
	<circle cx="400.107" cy="147.199" r="4" fill="#0" id="circle19"/>
	<circle cx="379.32" cy="146.044" r="4" fill="#0" id="circle20"/>
	<circle cx="351.604" cy="143.735" r="4" fill="#0" id="circle21"/>
	<circle cx="345.83" cy="154.128" r="4" fill="#0" id="circle22"/>
	<circle cx="342.366" cy="173.76" r="4" fill="#0" id="circle23"/>
	<circle cx="340.056" cy="193.392" r="4" fill="#0" id="circle24"/>
	<circle cx="337.746" cy="216.489" r="4" fill="#0" id="circle25"/>
	<circle cx="343.52" cy="234.966" r="4" fill="#0" id="circle26"/>
	<circle cx="345.83" cy="258.063" r="4" fill="#0" id="circle27"/>
	<circle cx="343.52" cy="284.624" r="4" fill="#0" id="circle28"/>
	<circle cx="345.83" cy="320.424" r="4" fill="#0" id="circle29"/>
	<circle cx="350.36" cy="373.501" r="4" fill="#0" id="circle30"/>
	<circle cx="360.843" cy="491.339" r="4" fill="#0" id="circle31"/>
	<circle cx="360.843" cy="525.984" r="4" fill="#0" id="circle32"/>
	<circle cx="285.779" cy="525.984" r="4" fill="#0" id="circle33"/>
	<circle cx="288.088" cy="480.945" r="4" fill="#0" id="circle34"/>
	<circle cx="286.889" cy="424.403" r="4" fill="#0" id="circle35"/>
	<circle cx="292.663" cy="341.643" r="4" fill="#0" id="circle36"/>
	<circle cx="288.088" cy="291.553" r="4" fill="#0" id="circle37"/>
	<circle cx="288.088" cy="256.908" r="4" fill="#0" id="circle38"/>
	<circle cx="285.779" cy="225.728" r="4" fill="#0" id="circle39"/>
	<circle cx="283.469" cy="203.786" r="4" fill="#0" id="circle40"/>
	<circle cx="283.469" cy="192.237" r="4" fill="#0" id="circle41"/>
	<circle cx="283.469" cy="166.831" r="4" fill="#0" id="circle42"/>
	<circle cx="281.159" cy="143.735" r="4" fill="#0" id="circle43"/>
	<circle cx="252.289" cy="152.973" r="4" fill="#0" id="circle44"/>
	<circle cx="223.418" cy="166.831" r="4" fill="#0" id="circle45"/>
	<circle cx="210.715" cy="176.07" r="4" fill="#0" id="circle46"/>
	<circle cx="207.25" cy="187.618" r="4" fill="#0" id="circle47"/>
	<circle cx="196.857" cy="208.405" r="4" fill="#0" id="circle48"/>
	<circle cx="188.773" cy="226.882" r="4" fill="#0" id="circle49"/>
	<circle cx="167.986" cy="200.321" r="4" fill="#0" id="circle50"/>
	<circle cx="158.747" cy="185.309" r="4" fill="#0" id="circle51"/>
	<circle cx="156.438" cy="164.522" r="4" fill="#0" id="circle52"/>
	<circle cx="146.044" cy="146.044" r="4" fill="#0" id="circle53"/>
	<circle cx="129.877" cy="154.128" r="4" fill="#0" id="circle54"/>
	<circle cx="112.554" cy="174.915" r="4" fill="#0" id="circle55"/>
	<circle cx="73.2899" cy="180.689" r="4" fill="#0" id="circle56"/>
	<circle cx="55.9674" cy="188.773" r="4" fill="#0" id="circle57"/>
	<circle cx="22.4773" cy="213.024" r="4" fill="#0" id="circle58"/>
	<circle cx="875.898" cy="218.799" r="4" fill="#0" id="circle59"/>
	<circle cx="907.033" cy="207.206" r="4" fill="#0" id="circle60"/>
	<circle cx="917.471" cy="173.716" r="4" fill="#0" id="circle61"/>
	<circle cx="927.865" cy="142.58" r="4" fill="#0" id="circle62"/>
	<circle cx="941.723" cy="103.315" r="4" fill="#0" id="circle63"/>
	<circle cx="950.962" cy="60.5867" r="4" fill="#0" id="circle64"/>
	<circle cx="961.355" cy="109.09" r="4" fill="#0" id="circle65"/>
	<circle cx="964.82" cy="176.07" r="4" fill="#0" id="circle66"/>
	<circle cx="972.903" cy="213.024" r="4" fill="#0" id="circle67"/>
	<circle cx="983.297" cy="233.811" r="4" fill="#0" id="circle68"/>
	<circle cx="996" cy="258.063" r="4" fill="#0" id="circle69"/>
	</g>
</svg>