<?xml version="1.0" encoding="UTF-8" standalone="no"?>
<!-- Created with CurveBenchmark -->
<svg
	xmlns:dc="http://purl.org/dc/elements/1.1/"
	xmlns:cc="http://creativecommons.org/ns#"
	xmlns:rdf="http://www.w3.org/1999/02/22-rdf-syntax-ns#"
	xmlns:svg="http://www.w3.org/2000/svg"
	xmlns="http://www.w3.org/2000/svg"
	xmlns:sodipodi="http://sodipodi.sourceforge.net/DTD/sodipodi-0.dtd"
	xmlns:inkscape="http://www.inkscape.org/namespaces/inkscape"
	width="1000"
	height="1000"
	id="svg2"
	version="1.1"
	sodipodi:docname="mc45">
<defs
	id="defs4" />
<metadata
	id="metadata7">
	<rdf:RDF>
		<cc:Work
			rdf:about="">
			<dc:format>image/svg+xml</dc:format>
			<dc:type
				rdf:resource="http://purl.org/dc/dcmitype/StillImage" />
			<dc:title></dc:title>
		</cc:Work>
	</rdf:RDF>
</metadata>
<g
	inkscape:label="Layer 1"
	inkscape:groupmode="layer"
	id="layer1">
	<path style="fill:none;stroke:#000000;stroke-width:1px;stroke-linecap:butt;stroke-linejoin:miter;stroke-opacity:1" d="M 26.1814,149.855 12.6261,121.808 z" id="boundary" inkscape:connector-curvature="0" />
	<path style="fill:none;stroke:#000000;stroke-width:1px;stroke-linecap:butt;stroke-linejoin:miter;stroke-opacity:1" d="M 4,78.8005 11.3938,32.9097 z" id="boundary" inkscape:connector-curvature="0" />
	<path style="fill:none;stroke:#000000;stroke-width:1px;stroke-linecap:butt;stroke-linejoin:miter;stroke-opacity:1" d="M 11.3938,32.9097 22.4845,4 z" id="boundary" inkscape:connector-curvature="0" />
	<path style="fill:none;stroke:#000000;stroke-width:1px;stroke-linecap:butt;stroke-linejoin:miter;stroke-opacity:1" d="M 4,78.8005 12.6261,121.808 z" id="boundary" inkscape:connector-curvature="0" />
	<path style="fill:none;stroke:#000000;stroke-width:1px;stroke-linecap:butt;stroke-linejoin:miter;stroke-opacity:1" d="M 43.4335,178 63.1503,206.96 z" id="boundary" inkscape:connector-curvature="0" />
	<path style="fill:none;stroke:#000000;stroke-width:1px;stroke-linecap:butt;stroke-linejoin:miter;stroke-opacity:1" d="M 174.476,438.434 185.148,479.026 z" id="boundary" inkscape:connector-curvature="0" />
	<path style="fill:none;stroke:#000000;stroke-width:1px;stroke-linecap:butt;stroke-linejoin:miter;stroke-opacity:1" d="M 26.1814,149.855 43.4335,178 z" id="boundary" inkscape:connector-curvature="0" />
	<path style="fill:none;stroke:#000000;stroke-width:1px;stroke-linecap:butt;stroke-linejoin:miter;stroke-opacity:1" d="M 82.8671,234.538 63.1503,206.96 z" id="boundary" inkscape:connector-curvature="0" />
	<path style="fill:none;stroke:#000000;stroke-width:1px;stroke-linecap:butt;stroke-linejoin:miter;stroke-opacity:1" d="M 103.816,260.836 82.8671,234.538 z" id="boundary" inkscape:connector-curvature="0" />
	<path style="fill:none;stroke:#000000;stroke-width:1px;stroke-linecap:butt;stroke-linejoin:miter;stroke-opacity:1" d="M 125.998,286.714 103.816,260.836 z" id="boundary" inkscape:connector-curvature="0" />
	<path style="fill:none;stroke:#000000;stroke-width:1px;stroke-linecap:butt;stroke-linejoin:miter;stroke-opacity:1" d="M 328.094,564.942 347.811,592.718 z" id="boundary" inkscape:connector-curvature="0" />
	<path style="fill:none;stroke:#000000;stroke-width:1px;stroke-linecap:butt;stroke-linejoin:miter;stroke-opacity:1" d="M 149.411,312.691 125.998,286.714 z" id="boundary" inkscape:connector-curvature="0" />
	<path style="fill:none;stroke:#000000;stroke-width:1px;stroke-linecap:butt;stroke-linejoin:miter;stroke-opacity:1" d="M 128.462,204.766 155.573,200.749 z" id="boundary" inkscape:connector-curvature="0" />
	<path style="fill:none;stroke:#000000;stroke-width:1px;stroke-linecap:butt;stroke-linejoin:miter;stroke-opacity:1" d="M 174.057,339.062 149.411,312.691 z" id="boundary" inkscape:connector-curvature="0" />
	<path style="fill:none;stroke:#000000;stroke-width:1px;stroke-linecap:butt;stroke-linejoin:miter;stroke-opacity:1" d="M 155.573,200.749 182.683,193.207 z" id="boundary" inkscape:connector-curvature="0" />
	<path style="fill:none;stroke:#000000;stroke-width:1px;stroke-linecap:butt;stroke-linejoin:miter;stroke-opacity:1" d="M 236.904,222.486 209.794,195.056 z" id="boundary" inkscape:connector-curvature="0" />
	<path style="fill:none;stroke:#000000;stroke-width:1px;stroke-linecap:butt;stroke-linejoin:miter;stroke-opacity:1" d="M 209.794,195.056 182.683,193.207 z" id="boundary" inkscape:connector-curvature="0" />
	<path style="fill:none;stroke:#000000;stroke-width:1px;stroke-linecap:butt;stroke-linejoin:miter;stroke-opacity:1" d="M 181.451,397.35 174.476,438.434 z" id="boundary" inkscape:connector-curvature="0" />
	<path style="fill:none;stroke:#000000;stroke-width:1px;stroke-linecap:butt;stroke-linejoin:miter;stroke-opacity:1" d="M 181.451,397.35 190.57,366.517 z" id="boundary" inkscape:connector-curvature="0" />
	<path style="fill:none;stroke:#000000;stroke-width:1px;stroke-linecap:butt;stroke-linejoin:miter;stroke-opacity:1" d="M 190.57,366.517 174.057,339.062 z" id="boundary" inkscape:connector-curvature="0" />
	<path style="fill:none;stroke:#000000;stroke-width:1px;stroke-linecap:butt;stroke-linejoin:miter;stroke-opacity:1" d="M 318.236,533.321 328.094,564.942 z" id="boundary" inkscape:connector-curvature="0" />
	<path style="fill:none;stroke:#000000;stroke-width:1px;stroke-linecap:butt;stroke-linejoin:miter;stroke-opacity:1" d="M 254.157,173.416 227.539,156.189 z" id="boundary" inkscape:connector-curvature="0" />
	<path style="fill:none;stroke:#000000;stroke-width:1px;stroke-linecap:butt;stroke-linejoin:miter;stroke-opacity:1" d="M 264.015,239.837 236.904,222.486 z" id="boundary" inkscape:connector-curvature="0" />
	<path style="fill:none;stroke:#000000;stroke-width:1px;stroke-linecap:butt;stroke-linejoin:miter;stroke-opacity:1" d="M 222.117,135.93 218.42,112.689 z" id="boundary" inkscape:connector-curvature="0" />
	<path style="fill:none;stroke:#000000;stroke-width:1px;stroke-linecap:butt;stroke-linejoin:miter;stroke-opacity:1" d="M 227.539,156.189 222.117,135.93 z" id="boundary" inkscape:connector-curvature="0" />
	<path style="fill:none;stroke:#000000;stroke-width:1px;stroke-linecap:butt;stroke-linejoin:miter;stroke-opacity:1" d="M 185.148,479.026 207.329,501.306 z" id="boundary" inkscape:connector-curvature="0" />
	<path style="fill:none;stroke:#000000;stroke-width:1px;stroke-linecap:butt;stroke-linejoin:miter;stroke-opacity:1" d="M 311.656,496.747 318.236,533.321 z" id="boundary" inkscape:connector-curvature="0" />
	<path style="fill:none;stroke:#000000;stroke-width:1px;stroke-linecap:butt;stroke-linejoin:miter;stroke-opacity:1" d="M 291.125,257.656 264.015,239.837 z" id="boundary" inkscape:connector-curvature="0" />
	<path style="fill:none;stroke:#000000;stroke-width:1px;stroke-linecap:butt;stroke-linejoin:miter;stroke-opacity:1" d="M 254.157,173.416 281.267,193.799 z" id="boundary" inkscape:connector-curvature="0" />
	<path style="fill:none;stroke:#000000;stroke-width:1px;stroke-linecap:butt;stroke-linejoin:miter;stroke-opacity:1" d="M 207.329,501.306 234.44,507.246 z" id="boundary" inkscape:connector-curvature="0" />
	<path style="fill:none;stroke:#000000;stroke-width:1px;stroke-linecap:butt;stroke-linejoin:miter;stroke-opacity:1" d="M 234.44,507.246 256.621,491.177 z" id="boundary" inkscape:connector-curvature="0" />
	<path style="fill:none;stroke:#000000;stroke-width:1px;stroke-linecap:butt;stroke-linejoin:miter;stroke-opacity:1" d="M 270.176,460.517 288.661,440.603 z" id="boundary" inkscape:connector-curvature="0" />
	<path style="fill:none;stroke:#000000;stroke-width:1px;stroke-linecap:butt;stroke-linejoin:miter;stroke-opacity:1" d="M 288.661,440.603 305.913,455.268 z" id="boundary" inkscape:connector-curvature="0" />
	<path style="fill:none;stroke:#000000;stroke-width:1px;stroke-linecap:butt;stroke-linejoin:miter;stroke-opacity:1" d="M 305.913,455.268 311.656,496.747 z" id="boundary" inkscape:connector-curvature="0" />
	<path style="fill:none;stroke:#000000;stroke-width:1px;stroke-linecap:butt;stroke-linejoin:miter;stroke-opacity:1" d="M 256.621,491.177 270.176,460.517 z" id="boundary" inkscape:connector-curvature="0" />
	<path style="fill:none;stroke:#000000;stroke-width:1px;stroke-linecap:butt;stroke-linejoin:miter;stroke-opacity:1" d="M 281.267,193.799 308.378,214.526 z" id="boundary" inkscape:connector-curvature="0" />
	<path style="fill:none;stroke:#000000;stroke-width:1px;stroke-linecap:butt;stroke-linejoin:miter;stroke-opacity:1" d="M 308.378,214.526 335.488,235.697 z" id="boundary" inkscape:connector-curvature="0" />
	<path style="fill:none;stroke:#000000;stroke-width:1px;stroke-linecap:butt;stroke-linejoin:miter;stroke-opacity:1" d="M 291.125,257.656 318.236,275.796 z" id="boundary" inkscape:connector-curvature="0" />
	<path style="fill:none;stroke:#000000;stroke-width:1px;stroke-linecap:butt;stroke-linejoin:miter;stroke-opacity:1" d="M 345.347,294.058 318.236,275.796 z" id="boundary" inkscape:connector-curvature="0" />
	<path style="fill:none;stroke:#000000;stroke-width:1px;stroke-linecap:butt;stroke-linejoin:miter;stroke-opacity:1" d="M 335.488,235.697 362.599,256.991 z" id="boundary" inkscape:connector-curvature="0" />
	<path style="fill:none;stroke:#000000;stroke-width:1px;stroke-linecap:butt;stroke-linejoin:miter;stroke-opacity:1" d="M 325.63,117.396 352.74,135.757 z" id="boundary" inkscape:connector-curvature="0" />
	<path style="fill:none;stroke:#000000;stroke-width:1px;stroke-linecap:butt;stroke-linejoin:miter;stroke-opacity:1" d="M 372.457,313.43 345.347,294.058 z" id="boundary" inkscape:connector-curvature="0" />
	<path style="fill:none;stroke:#000000;stroke-width:1px;stroke-linecap:butt;stroke-linejoin:miter;stroke-opacity:1" d="M 372.457,313.43 399.568,333.936 z" id="boundary" inkscape:connector-curvature="0" />
	<path style="fill:none;stroke:#000000;stroke-width:1px;stroke-linecap:butt;stroke-linejoin:miter;stroke-opacity:1" d="M 453.789,377.189 480.899,399.814 z" id="boundary" inkscape:connector-curvature="0" />
	<path style="fill:none;stroke:#000000;stroke-width:1px;stroke-linecap:butt;stroke-linejoin:miter;stroke-opacity:1" d="M 347.811,592.718 374.922,612.114 z" id="boundary" inkscape:connector-curvature="0" />
	<path style="fill:none;stroke:#000000;stroke-width:1px;stroke-linecap:butt;stroke-linejoin:miter;stroke-opacity:1" d="M 379.851,155.942 352.74,135.757 z" id="boundary" inkscape:connector-curvature="0" />
	<path style="fill:none;stroke:#000000;stroke-width:1px;stroke-linecap:butt;stroke-linejoin:miter;stroke-opacity:1" d="M 362.599,256.991 389.709,278.605 z" id="boundary" inkscape:connector-curvature="0" />
	<path style="fill:none;stroke:#000000;stroke-width:1px;stroke-linecap:butt;stroke-linejoin:miter;stroke-opacity:1" d="M 402.032,619.385 429.143,615.466 z" id="boundary" inkscape:connector-curvature="0" />
	<path style="fill:none;stroke:#000000;stroke-width:1px;stroke-linecap:butt;stroke-linejoin:miter;stroke-opacity:1" d="M 426.678,355.23 399.568,333.936 z" id="boundary" inkscape:connector-curvature="0" />
	<path style="fill:none;stroke:#000000;stroke-width:1px;stroke-linecap:butt;stroke-linejoin:miter;stroke-opacity:1" d="M 406.961,176.201 379.851,155.942 z" id="boundary" inkscape:connector-curvature="0" />
	<path style="fill:none;stroke:#000000;stroke-width:1px;stroke-linecap:butt;stroke-linejoin:miter;stroke-opacity:1" d="M 389.709,278.605 416.82,300.565 z" id="boundary" inkscape:connector-curvature="0" />
	<path style="fill:none;stroke:#000000;stroke-width:1px;stroke-linecap:butt;stroke-linejoin:miter;stroke-opacity:1" d="M 685.461,642.035 663.28,616.156 z" id="boundary" inkscape:connector-curvature="0" />
	<path style="fill:none;stroke:#000000;stroke-width:1px;stroke-linecap:butt;stroke-linejoin:miter;stroke-opacity:1" d="M 453.789,377.189 426.678,355.23 z" id="boundary" inkscape:connector-curvature="0" />
	<path style="fill:none;stroke:#000000;stroke-width:1px;stroke-linecap:butt;stroke-linejoin:miter;stroke-opacity:1" d="M 434.072,196.14 406.961,176.201 z" id="boundary" inkscape:connector-curvature="0" />
	<path style="fill:none;stroke:#000000;stroke-width:1px;stroke-linecap:butt;stroke-linejoin:miter;stroke-opacity:1" d="M 416.82,300.565 443.93,322.524 z" id="boundary" inkscape:connector-curvature="0" />
	<path style="fill:none;stroke:#000000;stroke-width:1px;stroke-linecap:butt;stroke-linejoin:miter;stroke-opacity:1" d="M 663.28,616.156 639.866,590.081 z" id="boundary" inkscape:connector-curvature="0" />
	<path style="fill:none;stroke:#000000;stroke-width:1px;stroke-linecap:butt;stroke-linejoin:miter;stroke-opacity:1" d="M 461.183,216.547 434.072,196.14 z" id="boundary" inkscape:connector-curvature="0" />
	<path style="fill:none;stroke:#000000;stroke-width:1px;stroke-linecap:butt;stroke-linejoin:miter;stroke-opacity:1" d="M 374.922,612.114 402.032,619.385 z" id="boundary" inkscape:connector-curvature="0" />
	<path style="fill:none;stroke:#000000;stroke-width:1px;stroke-linecap:butt;stroke-linejoin:miter;stroke-opacity:1" d="M 443.93,322.524 471.041,344.361 z" id="boundary" inkscape:connector-curvature="0" />
	<path style="fill:none;stroke:#000000;stroke-width:1px;stroke-linecap:butt;stroke-linejoin:miter;stroke-opacity:1" d="M 480.899,582.884 494.455,556.932 z" id="boundary" inkscape:connector-curvature="0" />
	<path style="fill:none;stroke:#000000;stroke-width:1px;stroke-linecap:butt;stroke-linejoin:miter;stroke-opacity:1" d="M 488.293,236.485 461.183,216.547 z" id="boundary" inkscape:connector-curvature="0" />
	<path style="fill:none;stroke:#000000;stroke-width:1px;stroke-linecap:butt;stroke-linejoin:miter;stroke-opacity:1" d="M 429.143,615.466 456.253,603.267 z" id="boundary" inkscape:connector-curvature="0" />
	<path style="fill:none;stroke:#000000;stroke-width:1px;stroke-linecap:butt;stroke-linejoin:miter;stroke-opacity:1" d="M 471.041,344.361 498.152,366.197 z" id="boundary" inkscape:connector-curvature="0" />
	<path style="fill:none;stroke:#000000;stroke-width:1px;stroke-linecap:butt;stroke-linejoin:miter;stroke-opacity:1" d="M 494.775,509.02 505.545,488.54 z" id="boundary" inkscape:connector-curvature="0" />
	<path style="fill:none;stroke:#000000;stroke-width:1px;stroke-linecap:butt;stroke-linejoin:miter;stroke-opacity:1" d="M 505.545,488.54 532.656,504.56 z" id="boundary" inkscape:connector-curvature="0" />
	<path style="fill:none;stroke:#000000;stroke-width:1px;stroke-linecap:butt;stroke-linejoin:miter;stroke-opacity:1" d="M 515.404,256.744 488.293,236.485 z" id="boundary" inkscape:connector-curvature="0" />
	<path style="fill:none;stroke:#000000;stroke-width:1px;stroke-linecap:butt;stroke-linejoin:miter;stroke-opacity:1" d="M 494.455,556.932 494.775,509.02 z" id="boundary" inkscape:connector-curvature="0" />
	<path style="fill:none;stroke:#000000;stroke-width:1px;stroke-linecap:butt;stroke-linejoin:miter;stroke-opacity:1" d="M 532.656,504.56 559.766,521.59 z" id="boundary" inkscape:connector-curvature="0" />
	<path style="fill:none;stroke:#000000;stroke-width:1px;stroke-linecap:butt;stroke-linejoin:miter;stroke-opacity:1" d="M 498.152,366.197 525.262,388.157 z" id="boundary" inkscape:connector-curvature="0" />
	<path style="fill:none;stroke:#000000;stroke-width:1px;stroke-linecap:butt;stroke-linejoin:miter;stroke-opacity:1" d="M 559.766,521.59 586.877,540.641 z" id="boundary" inkscape:connector-curvature="0" />
	<path style="fill:none;stroke:#000000;stroke-width:1px;stroke-linecap:butt;stroke-linejoin:miter;stroke-opacity:1" d="M 508.01,422.784 480.899,399.814 z" id="boundary" inkscape:connector-curvature="0" />
	<path style="fill:none;stroke:#000000;stroke-width:1px;stroke-linecap:butt;stroke-linejoin:miter;stroke-opacity:1" d="M 456.253,603.267 480.899,582.884 z" id="boundary" inkscape:connector-curvature="0" />
	<path style="fill:none;stroke:#000000;stroke-width:1px;stroke-linecap:butt;stroke-linejoin:miter;stroke-opacity:1" d="M 535.12,445.976 508.01,422.784 z" id="boundary" inkscape:connector-curvature="0" />
	<path style="fill:none;stroke:#000000;stroke-width:1px;stroke-linecap:butt;stroke-linejoin:miter;stroke-opacity:1" d="M 542.514,274.908 515.404,256.744 z" id="boundary" inkscape:connector-curvature="0" />
	<path style="fill:none;stroke:#000000;stroke-width:1px;stroke-linecap:butt;stroke-linejoin:miter;stroke-opacity:1" d="M 525.262,388.157 552.373,409.894 z" id="boundary" inkscape:connector-curvature="0" />
	<path style="fill:none;stroke:#000000;stroke-width:1px;stroke-linecap:butt;stroke-linejoin:miter;stroke-opacity:1" d="M 586.877,540.641 613.988,563.833 z" id="boundary" inkscape:connector-curvature="0" />
	<path style="fill:none;stroke:#000000;stroke-width:1px;stroke-linecap:butt;stroke-linejoin:miter;stroke-opacity:1" d="M 542.514,274.908 569.625,264.261 z" id="boundary" inkscape:connector-curvature="0" />
	<path style="fill:none;stroke:#000000;stroke-width:1px;stroke-linecap:butt;stroke-linejoin:miter;stroke-opacity:1" d="M 552.373,409.894 569.625,423.647 z" id="boundary" inkscape:connector-curvature="0" />
	<path style="fill:none;stroke:#000000;stroke-width:1px;stroke-linecap:butt;stroke-linejoin:miter;stroke-opacity:1" d="M 613.988,563.833 639.866,590.081 z" id="boundary" inkscape:connector-curvature="0" />
	<path style="fill:none;stroke:#000000;stroke-width:1px;stroke-linecap:butt;stroke-linejoin:miter;stroke-opacity:1" d="M 535.12,445.976 562.231,469.488 z" id="boundary" inkscape:connector-curvature="0" />
	<path style="fill:none;stroke:#000000;stroke-width:1px;stroke-linecap:butt;stroke-linejoin:miter;stroke-opacity:1" d="M 562.231,469.488 589.342,493.346 z" id="boundary" inkscape:connector-curvature="0" />
	<path style="fill:none;stroke:#000000;stroke-width:1px;stroke-linecap:butt;stroke-linejoin:miter;stroke-opacity:1" d="M 589.342,493.346 616.452,517.326 z" id="boundary" inkscape:connector-curvature="0" />
	<path style="fill:none;stroke:#000000;stroke-width:1px;stroke-linecap:butt;stroke-linejoin:miter;stroke-opacity:1" d="M 596.735,246.886 569.625,264.261 z" id="boundary" inkscape:connector-curvature="0" />
	<path style="fill:none;stroke:#000000;stroke-width:1px;stroke-linecap:butt;stroke-linejoin:miter;stroke-opacity:1" d="M 623.846,233.454 596.735,246.886 z" id="boundary" inkscape:connector-curvature="0" />
	<path style="fill:none;stroke:#000000;stroke-width:1px;stroke-linecap:butt;stroke-linejoin:miter;stroke-opacity:1" d="M 616.452,517.326 643.563,541.528 z" id="boundary" inkscape:connector-curvature="0" />
	<path style="fill:none;stroke:#000000;stroke-width:1px;stroke-linecap:butt;stroke-linejoin:miter;stroke-opacity:1" d="M 708.875,668.948 685.461,642.035 z" id="boundary" inkscape:connector-curvature="0" />
	<path style="fill:none;stroke:#000000;stroke-width:1px;stroke-linecap:butt;stroke-linejoin:miter;stroke-opacity:1" d="M 678.067,231.556 650.957,227.071 z" id="boundary" inkscape:connector-curvature="0" />
	<path style="fill:none;stroke:#000000;stroke-width:1px;stroke-linecap:butt;stroke-linejoin:miter;stroke-opacity:1" d="M 650.957,227.071 623.846,233.454 z" id="boundary" inkscape:connector-curvature="0" />
	<path style="fill:none;stroke:#000000;stroke-width:1px;stroke-linecap:butt;stroke-linejoin:miter;stroke-opacity:1" d="M 682.996,431.977 658.005,399.371 z" id="boundary" inkscape:connector-curvature="0" />
	<path style="fill:none;stroke:#000000;stroke-width:1px;stroke-linecap:butt;stroke-linejoin:miter;stroke-opacity:1" d="M 710.107,456.056 682.996,431.977 z" id="boundary" inkscape:connector-curvature="0" />
	<path style="fill:none;stroke:#000000;stroke-width:1px;stroke-linecap:butt;stroke-linejoin:miter;stroke-opacity:1" d="M 708.875,668.948 733.52,695.073 z" id="boundary" inkscape:connector-curvature="0" />
	<path style="fill:none;stroke:#000000;stroke-width:1px;stroke-linecap:butt;stroke-linejoin:miter;stroke-opacity:1" d="M 643.563,541.528 670.673,565.953 z" id="boundary" inkscape:connector-curvature="0" />
	<path style="fill:none;stroke:#000000;stroke-width:1px;stroke-linecap:butt;stroke-linejoin:miter;stroke-opacity:1" d="M 670.673,565.953 697.784,590.599 z" id="boundary" inkscape:connector-curvature="0" />
	<path style="fill:none;stroke:#000000;stroke-width:1px;stroke-linecap:butt;stroke-linejoin:miter;stroke-opacity:1" d="M 658.005,399.371 682.996,383.227 z" id="boundary" inkscape:connector-curvature="0" />
	<path style="fill:none;stroke:#000000;stroke-width:1px;stroke-linecap:butt;stroke-linejoin:miter;stroke-opacity:1" d="M 733.52,695.073 756.934,720.631 z" id="boundary" inkscape:connector-curvature="0" />
	<path style="fill:none;stroke:#000000;stroke-width:1px;stroke-linecap:butt;stroke-linejoin:miter;stroke-opacity:1" d="M 697.784,590.599 724.894,615.343 z" id="boundary" inkscape:connector-curvature="0" />
	<path style="fill:none;stroke:#000000;stroke-width:1px;stroke-linecap:butt;stroke-linejoin:miter;stroke-opacity:1" d="M 710.107,456.056 737.217,477.449 z" id="boundary" inkscape:connector-curvature="0" />
	<path style="fill:none;stroke:#000000;stroke-width:1px;stroke-linecap:butt;stroke-linejoin:miter;stroke-opacity:1" d="M 728.591,267.49 705.178,244.988 z" id="boundary" inkscape:connector-curvature="0" />
	<path style="fill:none;stroke:#000000;stroke-width:1px;stroke-linecap:butt;stroke-linejoin:miter;stroke-opacity:1" d="M 705.178,244.988 678.067,231.556 z" id="boundary" inkscape:connector-curvature="0" />
	<path style="fill:none;stroke:#000000;stroke-width:1px;stroke-linecap:butt;stroke-linejoin:miter;stroke-opacity:1" d="M 682.996,383.227 710.107,380.319 z" id="boundary" inkscape:connector-curvature="0" />
	<path style="fill:none;stroke:#000000;stroke-width:1px;stroke-linecap:butt;stroke-linejoin:miter;stroke-opacity:1" d="M 756.934,720.631 779.116,747.174 z" id="boundary" inkscape:connector-curvature="0" />
	<path style="fill:none;stroke:#000000;stroke-width:1px;stroke-linecap:butt;stroke-linejoin:miter;stroke-opacity:1" d="M 745.843,293.639 728.591,267.49 z" id="boundary" inkscape:connector-curvature="0" />
	<path style="fill:none;stroke:#000000;stroke-width:1px;stroke-linecap:butt;stroke-linejoin:miter;stroke-opacity:1" d="M 737.217,477.449 764.328,494.356 z" id="boundary" inkscape:connector-curvature="0" />
	<path style="fill:none;stroke:#000000;stroke-width:1px;stroke-linecap:butt;stroke-linejoin:miter;stroke-opacity:1" d="M 724.894,615.343 749.54,638.19 z" id="boundary" inkscape:connector-curvature="0" />
	<path style="fill:none;stroke:#000000;stroke-width:1px;stroke-linecap:butt;stroke-linejoin:miter;stroke-opacity:1" d="M 710.107,380.319 737.217,370.362 z" id="boundary" inkscape:connector-curvature="0" />
	<path style="fill:none;stroke:#000000;stroke-width:1px;stroke-linecap:butt;stroke-linejoin:miter;stroke-opacity:1" d="M 737.217,370.362 755.702,346.53 z" id="boundary" inkscape:connector-curvature="0" />
	<path style="fill:none;stroke:#000000;stroke-width:1px;stroke-linecap:butt;stroke-linejoin:miter;stroke-opacity:1" d="M 779.116,747.174 803.761,771.845 z" id="boundary" inkscape:connector-curvature="0" />
	<path style="fill:none;stroke:#000000;stroke-width:1px;stroke-linecap:butt;stroke-linejoin:miter;stroke-opacity:1" d="M 755.702,314.786 745.843,293.639 z" id="boundary" inkscape:connector-curvature="0" />
	<path style="fill:none;stroke:#000000;stroke-width:1px;stroke-linecap:butt;stroke-linejoin:miter;stroke-opacity:1" d="M 791.439,504.905 764.328,494.356 z" id="boundary" inkscape:connector-curvature="0" />
	<path style="fill:none;stroke:#000000;stroke-width:1px;stroke-linecap:butt;stroke-linejoin:miter;stroke-opacity:1" d="M 803.761,771.845 830.872,787.421 z" id="boundary" inkscape:connector-curvature="0" />
	<path style="fill:none;stroke:#000000;stroke-width:1px;stroke-linecap:butt;stroke-linejoin:miter;stroke-opacity:1" d="M 755.702,346.53 755.702,314.786 z" id="boundary" inkscape:connector-curvature="0" />
	<path style="fill:none;stroke:#000000;stroke-width:1px;stroke-linecap:butt;stroke-linejoin:miter;stroke-opacity:1" d="M 791.439,504.905 818.549,512.077 z" id="boundary" inkscape:connector-curvature="0" />
	<path style="fill:none;stroke:#000000;stroke-width:1px;stroke-linecap:butt;stroke-linejoin:miter;stroke-opacity:1" d="M 818.549,512.077 845.66,517.104 z" id="boundary" inkscape:connector-curvature="0" />
	<path style="fill:none;stroke:#000000;stroke-width:1px;stroke-linecap:butt;stroke-linejoin:miter;stroke-opacity:1" d="M 845.66,517.104 872.77,521.812 z" id="boundary" inkscape:connector-curvature="0" />
	<path style="fill:none;stroke:#000000;stroke-width:1px;stroke-linecap:butt;stroke-linejoin:miter;stroke-opacity:1" d="M 830.872,787.421 857.983,790.329 z" id="boundary" inkscape:connector-curvature="0" />
	<path style="fill:none;stroke:#000000;stroke-width:1px;stroke-linecap:butt;stroke-linejoin:miter;stroke-opacity:1" d="M 872.77,521.812 899.881,527.308 z" id="boundary" inkscape:connector-curvature="0" />
	<path style="fill:none;stroke:#000000;stroke-width:1px;stroke-linecap:butt;stroke-linejoin:miter;stroke-opacity:1" d="M 857.983,790.329 885.093,785.178 z" id="boundary" inkscape:connector-curvature="0" />
	<path style="fill:none;stroke:#000000;stroke-width:1px;stroke-linecap:butt;stroke-linejoin:miter;stroke-opacity:1" d="M 885.093,785.178 912.204,772.855 z" id="boundary" inkscape:connector-curvature="0" />
	<path style="fill:none;stroke:#000000;stroke-width:1px;stroke-linecap:butt;stroke-linejoin:miter;stroke-opacity:1" d="M 899.881,527.308 926.991,535.244 z" id="boundary" inkscape:connector-curvature="0" />
	<path style="fill:none;stroke:#000000;stroke-width:1px;stroke-linecap:butt;stroke-linejoin:miter;stroke-opacity:1" d="M 912.204,772.855 939.314,752.596 z" id="boundary" inkscape:connector-curvature="0" />
	<path style="fill:none;stroke:#000000;stroke-width:1px;stroke-linecap:butt;stroke-linejoin:miter;stroke-opacity:1" d="M 991.071,593.285 996,617.931 z" id="boundary" inkscape:connector-curvature="0" />
	<path style="fill:none;stroke:#000000;stroke-width:1px;stroke-linecap:butt;stroke-linejoin:miter;stroke-opacity:1" d="M 991.071,593.285 977.516,569.107 z" id="boundary" inkscape:connector-curvature="0" />
	<path style="fill:none;stroke:#000000;stroke-width:1px;stroke-linecap:butt;stroke-linejoin:miter;stroke-opacity:1" d="M 926.991,535.244 954.102,548.257 z" id="boundary" inkscape:connector-curvature="0" />
	<path style="fill:none;stroke:#000000;stroke-width:1px;stroke-linecap:butt;stroke-linejoin:miter;stroke-opacity:1" d="M 939.314,752.596 962.728,726.225 z" id="boundary" inkscape:connector-curvature="0" />
	<path style="fill:none;stroke:#000000;stroke-width:1px;stroke-linecap:butt;stroke-linejoin:miter;stroke-opacity:1" d="M 954.102,548.257 977.516,569.107 z" id="boundary" inkscape:connector-curvature="0" />
	<path style="fill:none;stroke:#000000;stroke-width:1px;stroke-linecap:butt;stroke-linejoin:miter;stroke-opacity:1" d="M 962.728,726.225 978.748,699.263 z" id="boundary" inkscape:connector-curvature="0" />
	<path style="fill:none;stroke:#000000;stroke-width:1px;stroke-linecap:butt;stroke-linejoin:miter;stroke-opacity:1" d="M 988.606,674.198 978.748,699.263 z" id="boundary" inkscape:connector-curvature="0" />
	<path style="fill:none;stroke:#000000;stroke-width:1px;stroke-linecap:butt;stroke-linejoin:miter;stroke-opacity:1" d="M 994.768,648.738 988.606,674.198 z" id="boundary" inkscape:connector-curvature="0" />
	<path style="fill:none;stroke:#000000;stroke-width:1px;stroke-linecap:butt;stroke-linejoin:miter;stroke-opacity:1" d="M 996,617.931 994.768,648.738 z" id="boundary" inkscape:connector-curvature="0" />
	<circle cx="4" cy="78.8005" r="4" fill="#0" id="circle0"/>
	<circle cx="11.3938" cy="32.9097" r="4" fill="#0" id="circle1"/>
	<circle cx="12.6261" cy="121.808" r="4" fill="#0" id="circle2"/>
	<circle cx="22.4845" cy="4" r="4" fill="#0" id="circle3"/>
	<circle cx="26.1814" cy="149.855" r="4" fill="#0" id="circle4"/>
	<circle cx="43.4335" cy="178" r="4" fill="#0" id="circle5"/>
	<circle cx="63.1503" cy="206.96" r="4" fill="#0" id="circle6"/>
	<circle cx="82.8671" cy="234.538" r="4" fill="#0" id="circle7"/>
	<circle cx="103.816" cy="260.836" r="4" fill="#0" id="circle8"/>
	<circle cx="128.462" cy="204.766" r="4" fill="#0" id="circle9"/>
	<circle cx="125.998" cy="286.714" r="4" fill="#0" id="circle10"/>
	<circle cx="149.411" cy="312.691" r="4" fill="#0" id="circle11"/>
	<circle cx="155.573" cy="200.749" r="4" fill="#0" id="circle12"/>
	<circle cx="174.057" cy="339.062" r="4" fill="#0" id="circle13"/>
	<circle cx="182.683" cy="193.207" r="4" fill="#0" id="circle14"/>
	<circle cx="174.476" cy="438.434" r="4" fill="#0" id="circle15"/>
	<circle cx="181.451" cy="397.35" r="4" fill="#0" id="circle16"/>
	<circle cx="185.148" cy="479.026" r="4" fill="#0" id="circle17"/>
	<circle cx="190.57" cy="366.517" r="4" fill="#0" id="circle18"/>
	<circle cx="207.329" cy="501.306" r="4" fill="#0" id="circle19"/>
	<circle cx="209.794" cy="195.056" r="4" fill="#0" id="circle20"/>
	<circle cx="227.539" cy="156.189" r="4" fill="#0" id="circle21"/>
	<circle cx="218.42" cy="112.689" r="4" fill="#0" id="circle22"/>
	<circle cx="222.117" cy="135.93" r="4" fill="#0" id="circle23"/>
	<circle cx="234.44" cy="507.246" r="4" fill="#0" id="circle24"/>
	<circle cx="236.904" cy="222.486" r="4" fill="#0" id="circle25"/>
	<circle cx="254.157" cy="173.416" r="4" fill="#0" id="circle26"/>
	<circle cx="256.621" cy="491.177" r="4" fill="#0" id="circle27"/>
	<circle cx="264.015" cy="239.837" r="4" fill="#0" id="circle28"/>
	<circle cx="270.176" cy="460.517" r="4" fill="#0" id="circle29"/>
	<circle cx="281.267" cy="193.799" r="4" fill="#0" id="circle30"/>
	<circle cx="288.661" cy="440.603" r="4" fill="#0" id="circle31"/>
	<circle cx="291.125" cy="257.656" r="4" fill="#0" id="circle32"/>
	<circle cx="308.378" cy="214.526" r="4" fill="#0" id="circle33"/>
	<circle cx="305.913" cy="455.268" r="4" fill="#0" id="circle34"/>
	<circle cx="318.236" cy="275.796" r="4" fill="#0" id="circle35"/>
	<circle cx="311.656" cy="496.747" r="4" fill="#0" id="circle36"/>
	<circle cx="325.63" cy="117.396" r="4" fill="#0" id="circle37"/>
	<circle cx="318.236" cy="533.321" r="4" fill="#0" id="circle38"/>
	<circle cx="335.488" cy="235.697" r="4" fill="#0" id="circle39"/>
	<circle cx="328.094" cy="564.942" r="4" fill="#0" id="circle40"/>
	<circle cx="345.347" cy="294.058" r="4" fill="#0" id="circle41"/>
	<circle cx="347.811" cy="592.718" r="4" fill="#0" id="circle42"/>
	<circle cx="352.74" cy="135.757" r="4" fill="#0" id="circle43"/>
	<circle cx="362.599" cy="256.991" r="4" fill="#0" id="circle44"/>
	<circle cx="372.457" cy="313.43" r="4" fill="#0" id="circle45"/>
	<circle cx="374.922" cy="612.114" r="4" fill="#0" id="circle46"/>
	<circle cx="379.851" cy="155.942" r="4" fill="#0" id="circle47"/>
	<circle cx="389.709" cy="278.605" r="4" fill="#0" id="circle48"/>
	<circle cx="399.568" cy="333.936" r="4" fill="#0" id="circle49"/>
	<circle cx="402.032" cy="619.385" r="4" fill="#0" id="circle50"/>
	<circle cx="406.961" cy="176.201" r="4" fill="#0" id="circle51"/>
	<circle cx="416.82" cy="300.565" r="4" fill="#0" id="circle52"/>
	<circle cx="426.678" cy="355.23" r="4" fill="#0" id="circle53"/>
	<circle cx="429.143" cy="615.466" r="4" fill="#0" id="circle54"/>
	<circle cx="434.072" cy="196.14" r="4" fill="#0" id="circle55"/>
	<circle cx="443.93" cy="322.524" r="4" fill="#0" id="circle56"/>
	<circle cx="453.789" cy="377.189" r="4" fill="#0" id="circle57"/>
	<circle cx="456.253" cy="603.267" r="4" fill="#0" id="circle58"/>
	<circle cx="461.183" cy="216.547" r="4" fill="#0" id="circle59"/>
	<circle cx="471.041" cy="344.361" r="4" fill="#0" id="circle60"/>
	<circle cx="480.899" cy="399.814" r="4" fill="#0" id="circle61"/>
	<circle cx="480.899" cy="582.884" r="4" fill="#0" id="circle62"/>
	<circle cx="488.293" cy="236.485" r="4" fill="#0" id="circle63"/>
	<circle cx="494.775" cy="509.02" r="4" fill="#0" id="circle64"/>
	<circle cx="498.152" cy="366.197" r="4" fill="#0" id="circle65"/>
	<circle cx="505.545" cy="488.54" r="4" fill="#0" id="circle66"/>
	<circle cx="494.455" cy="556.932" r="4" fill="#0" id="circle67"/>
	<circle cx="508.01" cy="422.784" r="4" fill="#0" id="circle68"/>
	<circle cx="515.404" cy="256.744" r="4" fill="#0" id="circle69"/>
	<circle cx="525.262" cy="388.157" r="4" fill="#0" id="circle70"/>
	<circle cx="532.656" cy="504.56" r="4" fill="#0" id="circle71"/>
	<circle cx="535.12" cy="445.976" r="4" fill="#0" id="circle72"/>
	<circle cx="542.514" cy="274.908" r="4" fill="#0" id="circle73"/>
	<circle cx="552.373" cy="409.894" r="4" fill="#0" id="circle74"/>
	<circle cx="559.766" cy="521.59" r="4" fill="#0" id="circle75"/>
	<circle cx="562.231" cy="469.488" r="4" fill="#0" id="circle76"/>
	<circle cx="569.625" cy="264.261" r="4" fill="#0" id="circle77"/>
	<circle cx="569.625" cy="423.647" r="4" fill="#0" id="circle78"/>
	<circle cx="586.877" cy="540.641" r="4" fill="#0" id="circle79"/>
	<circle cx="589.342" cy="493.346" r="4" fill="#0" id="circle80"/>
	<circle cx="596.735" cy="246.886" r="4" fill="#0" id="circle81"/>
	<circle cx="613.988" cy="563.833" r="4" fill="#0" id="circle82"/>
	<circle cx="616.452" cy="517.326" r="4" fill="#0" id="circle83"/>
	<circle cx="623.846" cy="233.454" r="4" fill="#0" id="circle84"/>
	<circle cx="639.866" cy="590.081" r="4" fill="#0" id="circle85"/>
	<circle cx="643.563" cy="541.528" r="4" fill="#0" id="circle86"/>
	<circle cx="650.957" cy="227.071" r="4" fill="#0" id="circle87"/>
	<circle cx="658.005" cy="399.371" r="4" fill="#0" id="circle88"/>
	<circle cx="663.28" cy="616.156" r="4" fill="#0" id="circle89"/>
	<circle cx="670.673" cy="565.953" r="4" fill="#0" id="circle90"/>
	<circle cx="678.067" cy="231.556" r="4" fill="#0" id="circle91"/>
	<circle cx="682.996" cy="383.227" r="4" fill="#0" id="circle92"/>
	<circle cx="682.996" cy="431.977" r="4" fill="#0" id="circle93"/>
	<circle cx="685.461" cy="642.035" r="4" fill="#0" id="circle94"/>
	<circle cx="697.784" cy="590.599" r="4" fill="#0" id="circle95"/>
	<circle cx="705.178" cy="244.988" r="4" fill="#0" id="circle96"/>
	<circle cx="710.107" cy="380.319" r="4" fill="#0" id="circle97"/>
	<circle cx="710.107" cy="456.056" r="4" fill="#0" id="circle98"/>
	<circle cx="708.875" cy="668.948" r="4" fill="#0" id="circle99"/>
	<circle cx="724.894" cy="615.343" r="4" fill="#0" id="circle100"/>
	<circle cx="728.591" cy="267.49" r="4" fill="#0" id="circle101"/>
	<circle cx="733.52" cy="695.073" r="4" fill="#0" id="circle102"/>
	<circle cx="737.217" cy="370.362" r="4" fill="#0" id="circle103"/>
	<circle cx="737.217" cy="477.449" r="4" fill="#0" id="circle104"/>
	<circle cx="745.843" cy="293.639" r="4" fill="#0" id="circle105"/>
	<circle cx="749.54" cy="638.19" r="4" fill="#0" id="circle106"/>
	<circle cx="756.934" cy="720.631" r="4" fill="#0" id="circle107"/>
	<circle cx="755.702" cy="346.53" r="4" fill="#0" id="circle108"/>
	<circle cx="764.328" cy="494.356" r="4" fill="#0" id="circle109"/>
	<circle cx="755.702" cy="314.786" r="4" fill="#0" id="circle110"/>
	<circle cx="779.116" cy="747.174" r="4" fill="#0" id="circle111"/>
	<circle cx="791.439" cy="504.905" r="4" fill="#0" id="circle112"/>
	<circle cx="803.761" cy="771.845" r="4" fill="#0" id="circle113"/>
	<circle cx="818.549" cy="512.077" r="4" fill="#0" id="circle114"/>
	<circle cx="830.872" cy="787.421" r="4" fill="#0" id="circle115"/>
	<circle cx="845.66" cy="517.104" r="4" fill="#0" id="circle116"/>
	<circle cx="857.983" cy="790.329" r="4" fill="#0" id="circle117"/>
	<circle cx="872.77" cy="521.812" r="4" fill="#0" id="circle118"/>
	<circle cx="885.093" cy="785.178" r="4" fill="#0" id="circle119"/>
	<circle cx="899.881" cy="527.308" r="4" fill="#0" id="circle120"/>
	<circle cx="912.204" cy="772.855" r="4" fill="#0" id="circle121"/>
	<circle cx="926.991" cy="535.244" r="4" fill="#0" id="circle122"/>
	<circle cx="939.314" cy="752.596" r="4" fill="#0" id="circle123"/>
	<circle cx="954.102" cy="548.257" r="4" fill="#0" id="circle124"/>
	<circle cx="962.728" cy="726.225" r="4" fill="#0" id="circle125"/>
	<circle cx="977.516" cy="569.107" r="4" fill="#0" id="circle126"/>
	<circle cx="978.748" cy="699.263" r="4" fill="#0" id="circle127"/>
	<circle cx="988.606" cy="674.198" r="4" fill="#0" id="circle128"/>
	<circle cx="991.071" cy="593.285" r="4" fill="#0" id="circle129"/>
	<circle cx="994.768" cy="648.738" r="4" fill="#0" id="circle130"/>
	<circle cx="996" cy="617.931" r="4" fill="#0" id="circle131"/>
	</g>
</svg>