<?xml version="1.0" encoding="UTF-8" standalone="no"?>
<!-- Created with CurveBenchmark -->
<svg
	xmlns:dc="http://purl.org/dc/elements/1.1/"
	xmlns:cc="http://creativecommons.org/ns#"
	xmlns:rdf="http://www.w3.org/1999/02/22-rdf-syntax-ns#"
	xmlns:svg="http://www.w3.org/2000/svg"
	xmlns="http://www.w3.org/2000/svg"
	xmlns:sodipodi="http://sodipodi.sourceforge.net/DTD/sodipodi-0.dtd"
	xmlns:inkscape="http://www.inkscape.org/namespaces/inkscape"
	width="1000"
	height="1000"
	id="svg2"
	version="1.1"
	sodipodi:docname="mc49">
<defs
	id="defs4" />
<metadata
	id="metadata7">
	<rdf:RDF>
		<cc:Work
			rdf:about="">
			<dc:format>image/svg+xml</dc:format>
			<dc:type
				rdf:resource="http://purl.org/dc/dcmitype/StillImage" />
			<dc:title></dc:title>
		</cc:Work>
	</rdf:RDF>
</metadata>
<g
	inkscape:label="Layer 1"
	inkscape:groupmode="layer"
	id="layer1">
	<path style="fill:none;stroke:#000000;stroke-width:1px;stroke-linecap:butt;stroke-linejoin:miter;stroke-opacity:1" d="M 71.1035,75.2229 32.7009,75.816 z" id="boundary" inkscape:connector-curvature="0" />
	<path style="fill:none;stroke:#000000;stroke-width:1px;stroke-linecap:butt;stroke-linejoin:miter;stroke-opacity:1" d="M 32.7009,75.816 12.4579,93.2352 z" id="boundary" inkscape:connector-curvature="0" />
	<path style="fill:none;stroke:#000000;stroke-width:1px;stroke-linecap:butt;stroke-linejoin:miter;stroke-opacity:1" d="M 4,133.683 12.4579,93.2352 z" id="boundary" inkscape:connector-curvature="0" />
	<path style="fill:none;stroke:#000000;stroke-width:1px;stroke-linecap:butt;stroke-linejoin:miter;stroke-opacity:1" d="M 4,133.683 23.4034,188.602 z" id="boundary" inkscape:connector-curvature="0" />
	<path style="fill:none;stroke:#000000;stroke-width:1px;stroke-linecap:butt;stroke-linejoin:miter;stroke-opacity:1" d="M 84.0391,253.684 119.612,302.52 z" id="boundary" inkscape:connector-curvature="0" />
	<path style="fill:none;stroke:#000000;stroke-width:1px;stroke-linecap:butt;stroke-linejoin:miter;stroke-opacity:1" d="M 84.0391,253.684 45.2323,231.932 z" id="boundary" inkscape:connector-curvature="0" />
	<path style="fill:none;stroke:#000000;stroke-width:1px;stroke-linecap:butt;stroke-linejoin:miter;stroke-opacity:1" d="M 136.59,121.422 106.676,82.3452 z" id="boundary" inkscape:connector-curvature="0" />
	<path style="fill:none;stroke:#000000;stroke-width:1px;stroke-linecap:butt;stroke-linejoin:miter;stroke-opacity:1" d="M 106.676,82.3452 71.1035,75.2229 z" id="boundary" inkscape:connector-curvature="0" />
	<path style="fill:none;stroke:#000000;stroke-width:1px;stroke-linecap:butt;stroke-linejoin:miter;stroke-opacity:1" d="M 23.4034,188.602 45.2323,231.932 z" id="boundary" inkscape:connector-curvature="0" />
	<path style="fill:none;stroke:#000000;stroke-width:1px;stroke-linecap:butt;stroke-linejoin:miter;stroke-opacity:1" d="M 119.612,302.52 143.866,340.615 z" id="boundary" inkscape:connector-curvature="0" />
	<path style="fill:none;stroke:#000000;stroke-width:1px;stroke-linecap:butt;stroke-linejoin:miter;stroke-opacity:1" d="M 143.866,340.615 160.844,395.437 z" id="boundary" inkscape:connector-curvature="0" />
	<path style="fill:none;stroke:#000000;stroke-width:1px;stroke-linecap:butt;stroke-linejoin:miter;stroke-opacity:1" d="M 426.024,623.158 457.555,661.676 z" id="boundary" inkscape:connector-curvature="0" />
	<path style="fill:none;stroke:#000000;stroke-width:1px;stroke-linecap:butt;stroke-linejoin:miter;stroke-opacity:1" d="M 163.27,139.651 136.59,121.422 z" id="boundary" inkscape:connector-curvature="0" />
	<path style="fill:none;stroke:#000000;stroke-width:1px;stroke-linecap:butt;stroke-linejoin:miter;stroke-opacity:1" d="M 181.865,167.447 163.27,139.651 z" id="boundary" inkscape:connector-curvature="0" />
	<path style="fill:none;stroke:#000000;stroke-width:1px;stroke-linecap:butt;stroke-linejoin:miter;stroke-opacity:1" d="M 163.27,432.492 177.822,475.611 z" id="boundary" inkscape:connector-curvature="0" />
	<path style="fill:none;stroke:#000000;stroke-width:1px;stroke-linecap:butt;stroke-linejoin:miter;stroke-opacity:1" d="M 160.844,395.437 163.27,432.492 z" id="boundary" inkscape:connector-curvature="0" />
	<path style="fill:none;stroke:#000000;stroke-width:1px;stroke-linecap:butt;stroke-linejoin:miter;stroke-opacity:1" d="M 210.161,142.981 181.865,167.447 z" id="boundary" inkscape:connector-curvature="0" />
	<path style="fill:none;stroke:#000000;stroke-width:1px;stroke-linecap:butt;stroke-linejoin:miter;stroke-opacity:1" d="M 210.161,142.981 240.075,118.13 z" id="boundary" inkscape:connector-curvature="0" />
	<path style="fill:none;stroke:#000000;stroke-width:1px;stroke-linecap:butt;stroke-linejoin:miter;stroke-opacity:1" d="M 276.456,356.534 257.053,295.013 z" id="boundary" inkscape:connector-curvature="0" />
	<path style="fill:none;stroke:#000000;stroke-width:1px;stroke-linecap:butt;stroke-linejoin:miter;stroke-opacity:1" d="M 303.509,387.07 276.456,356.534 z" id="boundary" inkscape:connector-curvature="0" />
	<path style="fill:none;stroke:#000000;stroke-width:1px;stroke-linecap:butt;stroke-linejoin:miter;stroke-opacity:1" d="M 257.053,295.013 264.329,256.668 z" id="boundary" inkscape:connector-curvature="0" />
	<path style="fill:none;stroke:#000000;stroke-width:1px;stroke-linecap:butt;stroke-linejoin:miter;stroke-opacity:1" d="M 264.329,256.668 290.2,226.408 z" id="boundary" inkscape:connector-curvature="0" />
	<path style="fill:none;stroke:#000000;stroke-width:1px;stroke-linecap:butt;stroke-linejoin:miter;stroke-opacity:1" d="M 210.161,523.369 177.822,475.611 z" id="boundary" inkscape:connector-curvature="0" />
	<path style="fill:none;stroke:#000000;stroke-width:1px;stroke-linecap:butt;stroke-linejoin:miter;stroke-opacity:1" d="M 281.307,568.412 312.838,577.517 z" id="boundary" inkscape:connector-curvature="0" />
	<path style="fill:none;stroke:#000000;stroke-width:1px;stroke-linecap:butt;stroke-linejoin:miter;stroke-opacity:1" d="M 240.075,118.13 265.138,100.709 z" id="boundary" inkscape:connector-curvature="0" />
	<path style="fill:none;stroke:#000000;stroke-width:1px;stroke-linecap:butt;stroke-linejoin:miter;stroke-opacity:1" d="M 290.2,71.758 320.114,63.4037 z" id="boundary" inkscape:connector-curvature="0" />
	<path style="fill:none;stroke:#000000;stroke-width:1px;stroke-linecap:butt;stroke-linejoin:miter;stroke-opacity:1" d="M 303.509,387.07 323.752,403.198 z" id="boundary" inkscape:connector-curvature="0" />
	<path style="fill:none;stroke:#000000;stroke-width:1px;stroke-linecap:butt;stroke-linejoin:miter;stroke-opacity:1" d="M 265.138,100.709 290.2,71.758 z" id="boundary" inkscape:connector-curvature="0" />
	<path style="fill:none;stroke:#000000;stroke-width:1px;stroke-linecap:butt;stroke-linejoin:miter;stroke-opacity:1" d="M 419.504,209.849 398.839,191.824 z" id="boundary" inkscape:connector-curvature="0" />
	<path style="fill:none;stroke:#000000;stroke-width:1px;stroke-linecap:butt;stroke-linejoin:miter;stroke-opacity:1" d="M 367.006,448.412 341.943,432.627 z" id="boundary" inkscape:connector-curvature="0" />
	<path style="fill:none;stroke:#000000;stroke-width:1px;stroke-linecap:butt;stroke-linejoin:miter;stroke-opacity:1" d="M 341.943,432.627 323.752,403.198 z" id="boundary" inkscape:connector-curvature="0" />
	<path style="fill:none;stroke:#000000;stroke-width:1px;stroke-linecap:butt;stroke-linejoin:miter;stroke-opacity:1" d="M 244.926,555.708 210.161,523.369 z" id="boundary" inkscape:connector-curvature="0" />
	<path style="fill:none;stroke:#000000;stroke-width:1px;stroke-linecap:butt;stroke-linejoin:miter;stroke-opacity:1" d="M 330.624,176.282 290.2,226.408 z" id="boundary" inkscape:connector-curvature="0" />
	<path style="fill:none;stroke:#000000;stroke-width:1px;stroke-linecap:butt;stroke-linejoin:miter;stroke-opacity:1" d="M 398.839,191.824 362.155,180.229 z" id="boundary" inkscape:connector-curvature="0" />
	<path style="fill:none;stroke:#000000;stroke-width:1px;stroke-linecap:butt;stroke-linejoin:miter;stroke-opacity:1" d="M 281.307,568.412 244.926,555.708 z" id="boundary" inkscape:connector-curvature="0" />
	<path style="fill:none;stroke:#000000;stroke-width:1px;stroke-linecap:butt;stroke-linejoin:miter;stroke-opacity:1" d="M 348.411,571.165 381.558,581.233 z" id="boundary" inkscape:connector-curvature="0" />
	<path style="fill:none;stroke:#000000;stroke-width:1px;stroke-linecap:butt;stroke-linejoin:miter;stroke-opacity:1" d="M 348.411,571.165 312.838,577.517 z" id="boundary" inkscape:connector-curvature="0" />
	<path style="fill:none;stroke:#000000;stroke-width:1px;stroke-linecap:butt;stroke-linejoin:miter;stroke-opacity:1" d="M 330.624,176.282 362.155,180.229 z" id="boundary" inkscape:connector-curvature="0" />
	<path style="fill:none;stroke:#000000;stroke-width:1px;stroke-linecap:butt;stroke-linejoin:miter;stroke-opacity:1" d="M 320.114,63.4037 361.346,46.1562 z" id="boundary" inkscape:connector-curvature="0" />
	<path style="fill:none;stroke:#000000;stroke-width:1px;stroke-linecap:butt;stroke-linejoin:miter;stroke-opacity:1" d="M 381.558,581.233 408.238,596.709 z" id="boundary" inkscape:connector-curvature="0" />
	<path style="fill:none;stroke:#000000;stroke-width:1px;stroke-linecap:butt;stroke-linejoin:miter;stroke-opacity:1" d="M 408.238,596.709 426.024,623.158 z" id="boundary" inkscape:connector-curvature="0" />
	<path style="fill:none;stroke:#000000;stroke-width:1px;stroke-linecap:butt;stroke-linejoin:miter;stroke-opacity:1" d="M 367.006,448.412 405.004,466.583 z" id="boundary" inkscape:connector-curvature="0" />
	<path style="fill:none;stroke:#000000;stroke-width:1px;stroke-linecap:butt;stroke-linejoin:miter;stroke-opacity:1" d="M 452.704,366.929 452.3,312.582 z" id="boundary" inkscape:connector-curvature="0" />
	<path style="fill:none;stroke:#000000;stroke-width:1px;stroke-linecap:butt;stroke-linejoin:miter;stroke-opacity:1" d="M 361.346,46.1562 401.77,29.8712 z" id="boundary" inkscape:connector-curvature="0" />
	<path style="fill:none;stroke:#000000;stroke-width:1px;stroke-linecap:butt;stroke-linejoin:miter;stroke-opacity:1" d="M 401.77,29.8712 433.301,12.8547 z" id="boundary" inkscape:connector-curvature="0" />
	<path style="fill:none;stroke:#000000;stroke-width:1px;stroke-linecap:butt;stroke-linejoin:miter;stroke-opacity:1" d="M 405.004,466.583 430.067,452.589 z" id="boundary" inkscape:connector-curvature="0" />
	<path style="fill:none;stroke:#000000;stroke-width:1px;stroke-linecap:butt;stroke-linejoin:miter;stroke-opacity:1" d="M 430.067,452.589 456.747,402.174 z" id="boundary" inkscape:connector-curvature="0" />
	<path style="fill:none;stroke:#000000;stroke-width:1px;stroke-linecap:butt;stroke-linejoin:miter;stroke-opacity:1" d="M 433.301,12.8547 472.108,7.3494 z" id="boundary" inkscape:connector-curvature="0" />
	<path style="fill:none;stroke:#000000;stroke-width:1px;stroke-linecap:butt;stroke-linejoin:miter;stroke-opacity:1" d="M 457.555,661.676 492.319,679.636 z" id="boundary" inkscape:connector-curvature="0" />
	<path style="fill:none;stroke:#000000;stroke-width:1px;stroke-linecap:butt;stroke-linejoin:miter;stroke-opacity:1" d="M 456.747,402.174 452.704,366.929 z" id="boundary" inkscape:connector-curvature="0" />
	<path style="fill:none;stroke:#000000;stroke-width:1px;stroke-linecap:butt;stroke-linejoin:miter;stroke-opacity:1" d="M 452.704,268.603 452.3,312.582 z" id="boundary" inkscape:connector-curvature="0" />
	<path style="fill:none;stroke:#000000;stroke-width:1px;stroke-linecap:butt;stroke-linejoin:miter;stroke-opacity:1" d="M 444.215,233.039 419.504,209.849 z" id="boundary" inkscape:connector-curvature="0" />
	<path style="fill:none;stroke:#000000;stroke-width:1px;stroke-linecap:butt;stroke-linejoin:miter;stroke-opacity:1" d="M 569.125,422.213 565.891,370.99 z" id="boundary" inkscape:connector-curvature="0" />
	<path style="fill:none;stroke:#000000;stroke-width:1px;stroke-linecap:butt;stroke-linejoin:miter;stroke-opacity:1" d="M 444.215,233.039 452.704,268.603 z" id="boundary" inkscape:connector-curvature="0" />
	<path style="fill:none;stroke:#000000;stroke-width:1px;stroke-linecap:butt;stroke-linejoin:miter;stroke-opacity:1" d="M 505.255,4 552.147,21.748 z" id="boundary" inkscape:connector-curvature="0" />
	<path style="fill:none;stroke:#000000;stroke-width:1px;stroke-linecap:butt;stroke-linejoin:miter;stroke-opacity:1" d="M 505.255,4 472.108,7.3494 z" id="boundary" inkscape:connector-curvature="0" />
	<path style="fill:none;stroke:#000000;stroke-width:1px;stroke-linecap:butt;stroke-linejoin:miter;stroke-opacity:1" d="M 492.319,679.636 524.659,664.621 z" id="boundary" inkscape:connector-curvature="0" />
	<path style="fill:none;stroke:#000000;stroke-width:1px;stroke-linecap:butt;stroke-linejoin:miter;stroke-opacity:1" d="M 544.062,638.48 572.359,614.977 z" id="boundary" inkscape:connector-curvature="0" />
	<path style="fill:none;stroke:#000000;stroke-width:1px;stroke-linecap:butt;stroke-linejoin:miter;stroke-opacity:1" d="M 544.062,638.48 524.659,664.621 z" id="boundary" inkscape:connector-curvature="0" />
	<path style="fill:none;stroke:#000000;stroke-width:1px;stroke-linecap:butt;stroke-linejoin:miter;stroke-opacity:1" d="M 569.125,422.213 588.528,459.364 z" id="boundary" inkscape:connector-curvature="0" />
	<path style="fill:none;stroke:#000000;stroke-width:1px;stroke-linecap:butt;stroke-linejoin:miter;stroke-opacity:1" d="M 565.891,370.99 557.806,328.295 z" id="boundary" inkscape:connector-curvature="0" />
	<path style="fill:none;stroke:#000000;stroke-width:1px;stroke-linecap:butt;stroke-linejoin:miter;stroke-opacity:1" d="M 557.806,328.295 567.508,285.754 z" id="boundary" inkscape:connector-curvature="0" />
	<path style="fill:none;stroke:#000000;stroke-width:1px;stroke-linecap:butt;stroke-linejoin:miter;stroke-opacity:1" d="M 607.527,584.506 572.359,614.977 z" id="boundary" inkscape:connector-curvature="0" />
	<path style="fill:none;stroke:#000000;stroke-width:1px;stroke-linecap:butt;stroke-linejoin:miter;stroke-opacity:1" d="M 607.527,189.749 648.355,179.651 z" id="boundary" inkscape:connector-curvature="0" />
	<path style="fill:none;stroke:#000000;stroke-width:1px;stroke-linecap:butt;stroke-linejoin:miter;stroke-opacity:1" d="M 607.527,189.749 586.911,214.531 z" id="boundary" inkscape:connector-curvature="0" />
	<path style="fill:none;stroke:#000000;stroke-width:1px;stroke-linecap:butt;stroke-linejoin:miter;stroke-opacity:1" d="M 664.525,580.116 637.037,573.398 z" id="boundary" inkscape:connector-curvature="0" />
	<path style="fill:none;stroke:#000000;stroke-width:1px;stroke-linecap:butt;stroke-linejoin:miter;stroke-opacity:1" d="M 637.037,573.398 607.527,584.506 z" id="boundary" inkscape:connector-curvature="0" />
	<path style="fill:none;stroke:#000000;stroke-width:1px;stroke-linecap:butt;stroke-linejoin:miter;stroke-opacity:1" d="M 648.355,179.651 693.63,191.951 z" id="boundary" inkscape:connector-curvature="0" />
	<path style="fill:none;stroke:#000000;stroke-width:1px;stroke-linecap:butt;stroke-linejoin:miter;stroke-opacity:1" d="M 567.508,285.754 572.359,248.121 z" id="boundary" inkscape:connector-curvature="0" />
	<path style="fill:none;stroke:#000000;stroke-width:1px;stroke-linecap:butt;stroke-linejoin:miter;stroke-opacity:1" d="M 586.911,214.531 572.359,248.121 z" id="boundary" inkscape:connector-curvature="0" />
	<path style="fill:none;stroke:#000000;stroke-width:1px;stroke-linecap:butt;stroke-linejoin:miter;stroke-opacity:1" d="M 552.147,21.748 579.635,15.0492 z" id="boundary" inkscape:connector-curvature="0" />
	<path style="fill:none;stroke:#000000;stroke-width:1px;stroke-linecap:butt;stroke-linejoin:miter;stroke-opacity:1" d="M 579.635,15.0492 612.782,27.1956 z" id="boundary" inkscape:connector-curvature="0" />
	<path style="fill:none;stroke:#000000;stroke-width:1px;stroke-linecap:butt;stroke-linejoin:miter;stroke-opacity:1" d="M 588.528,459.364 635.42,462.136 z" id="boundary" inkscape:connector-curvature="0" />
	<path style="fill:none;stroke:#000000;stroke-width:1px;stroke-linecap:butt;stroke-linejoin:miter;stroke-opacity:1" d="M 640.675,50.6729 612.782,27.1956 z" id="boundary" inkscape:connector-curvature="0" />
	<path style="fill:none;stroke:#000000;stroke-width:1px;stroke-linecap:butt;stroke-linejoin:miter;stroke-opacity:1" d="M 664.525,580.116 701.715,573.494 z" id="boundary" inkscape:connector-curvature="0" />
	<path style="fill:none;stroke:#000000;stroke-width:1px;stroke-linecap:butt;stroke-linejoin:miter;stroke-opacity:1" d="M 635.42,462.136 675.844,433.262 z" id="boundary" inkscape:connector-curvature="0" />
	<path style="fill:none;stroke:#000000;stroke-width:1px;stroke-linecap:butt;stroke-linejoin:miter;stroke-opacity:1" d="M 640.675,50.6729 673.418,62.345 z" id="boundary" inkscape:connector-curvature="0" />
	<path style="fill:none;stroke:#000000;stroke-width:1px;stroke-linecap:butt;stroke-linejoin:miter;stroke-opacity:1" d="M 673.418,62.345 708.991,74.3759 z" id="boundary" inkscape:connector-curvature="0" />
	<path style="fill:none;stroke:#000000;stroke-width:1px;stroke-linecap:butt;stroke-linejoin:miter;stroke-opacity:1" d="M 701.715,573.494 741.734,560.601 z" id="boundary" inkscape:connector-curvature="0" />
	<path style="fill:none;stroke:#000000;stroke-width:1px;stroke-linecap:butt;stroke-linejoin:miter;stroke-opacity:1" d="M 743.756,248.243 723.544,205.792 z" id="boundary" inkscape:connector-curvature="0" />
	<path style="fill:none;stroke:#000000;stroke-width:1px;stroke-linecap:butt;stroke-linejoin:miter;stroke-opacity:1" d="M 723.544,205.792 693.63,191.951 z" id="boundary" inkscape:connector-curvature="0" />
	<path style="fill:none;stroke:#000000;stroke-width:1px;stroke-linecap:butt;stroke-linejoin:miter;stroke-opacity:1" d="M 675.844,433.262 719.501,394.378 z" id="boundary" inkscape:connector-curvature="0" />
	<path style="fill:none;stroke:#000000;stroke-width:1px;stroke-linecap:butt;stroke-linejoin:miter;stroke-opacity:1" d="M 737.85,109.035 708.991,74.3759 z" id="boundary" inkscape:connector-curvature="0" />
	<path style="fill:none;stroke:#000000;stroke-width:1px;stroke-linecap:butt;stroke-linejoin:miter;stroke-opacity:1" d="M 760.733,126.246 737.85,109.035 z" id="boundary" inkscape:connector-curvature="0" />
	<path style="fill:none;stroke:#000000;stroke-width:1px;stroke-linecap:butt;stroke-linejoin:miter;stroke-opacity:1" d="M 905.451,263.925 878.717,308.699 z" id="boundary" inkscape:connector-curvature="0" />
	<path style="fill:none;stroke:#000000;stroke-width:1px;stroke-linecap:butt;stroke-linejoin:miter;stroke-opacity:1" d="M 743.756,248.243 751.032,280.499 z" id="boundary" inkscape:connector-curvature="0" />
	<path style="fill:none;stroke:#000000;stroke-width:1px;stroke-linecap:butt;stroke-linejoin:miter;stroke-opacity:1" d="M 780.137,525.044 741.734,560.601 z" id="boundary" inkscape:connector-curvature="0" />
	<path style="fill:none;stroke:#000000;stroke-width:1px;stroke-linecap:butt;stroke-linejoin:miter;stroke-opacity:1" d="M 733.772,364.373 756.691,343.218 z" id="boundary" inkscape:connector-curvature="0" />
	<path style="fill:none;stroke:#000000;stroke-width:1px;stroke-linecap:butt;stroke-linejoin:miter;stroke-opacity:1" d="M 756.691,343.218 751.032,280.499 z" id="boundary" inkscape:connector-curvature="0" />
	<path style="fill:none;stroke:#000000;stroke-width:1px;stroke-linecap:butt;stroke-linejoin:miter;stroke-opacity:1" d="M 787.413,146.677 760.733,126.246 z" id="boundary" inkscape:connector-curvature="0" />
	<path style="fill:none;stroke:#000000;stroke-width:1px;stroke-linecap:butt;stroke-linejoin:miter;stroke-opacity:1" d="M 719.501,394.378 733.772,364.373 z" id="boundary" inkscape:connector-curvature="0" />
	<path style="fill:none;stroke:#000000;stroke-width:1px;stroke-linecap:butt;stroke-linejoin:miter;stroke-opacity:1" d="M 787.413,146.677 814.093,161.942 z" id="boundary" inkscape:connector-curvature="0" />
	<path style="fill:none;stroke:#000000;stroke-width:1px;stroke-linecap:butt;stroke-linejoin:miter;stroke-opacity:1" d="M 780.137,525.044 806.008,484.177 z" id="boundary" inkscape:connector-curvature="0" />
	<path style="fill:none;stroke:#000000;stroke-width:1px;stroke-linecap:butt;stroke-linejoin:miter;stroke-opacity:1" d="M 822.582,438.172 839.156,399.248 z" id="boundary" inkscape:connector-curvature="0" />
	<path style="fill:none;stroke:#000000;stroke-width:1px;stroke-linecap:butt;stroke-linejoin:miter;stroke-opacity:1" d="M 822.582,438.172 806.008,484.177 z" id="boundary" inkscape:connector-curvature="0" />
	<path style="fill:none;stroke:#000000;stroke-width:1px;stroke-linecap:butt;stroke-linejoin:miter;stroke-opacity:1" d="M 926.471,236.456 954.768,216.417 z" id="boundary" inkscape:connector-curvature="0" />
	<path style="fill:none;stroke:#000000;stroke-width:1px;stroke-linecap:butt;stroke-linejoin:miter;stroke-opacity:1" d="M 926.471,236.456 905.451,263.925 z" id="boundary" inkscape:connector-curvature="0" />
	<path style="fill:none;stroke:#000000;stroke-width:1px;stroke-linecap:butt;stroke-linejoin:miter;stroke-opacity:1" d="M 814.093,161.942 839.156,139.708 z" id="boundary" inkscape:connector-curvature="0" />
	<path style="fill:none;stroke:#000000;stroke-width:1px;stroke-linecap:butt;stroke-linejoin:miter;stroke-opacity:1" d="M 848.049,367.408 859.936,327.743 z" id="boundary" inkscape:connector-curvature="0" />
	<path style="fill:none;stroke:#000000;stroke-width:1px;stroke-linecap:butt;stroke-linejoin:miter;stroke-opacity:1" d="M 859.936,327.743 878.717,308.699 z" id="boundary" inkscape:connector-curvature="0" />
	<path style="fill:none;stroke:#000000;stroke-width:1px;stroke-linecap:butt;stroke-linejoin:miter;stroke-opacity:1" d="M 848.049,367.408 839.156,399.248 z" id="boundary" inkscape:connector-curvature="0" />
	<path style="fill:none;stroke:#000000;stroke-width:1px;stroke-linecap:butt;stroke-linejoin:miter;stroke-opacity:1" d="M 839.156,139.708 869.069,95.0883 z" id="boundary" inkscape:connector-curvature="0" />
	<path style="fill:none;stroke:#000000;stroke-width:1px;stroke-linecap:butt;stroke-linejoin:miter;stroke-opacity:1" d="M 869.069,95.0883 902.217,84.0584 z" id="boundary" inkscape:connector-curvature="0" />
	<path style="fill:none;stroke:#000000;stroke-width:1px;stroke-linecap:butt;stroke-linejoin:miter;stroke-opacity:1" d="M 954.768,216.417 980.235,185.468 z" id="boundary" inkscape:connector-curvature="0" />
	<path style="fill:none;stroke:#000000;stroke-width:1px;stroke-linecap:butt;stroke-linejoin:miter;stroke-opacity:1" d="M 902.217,84.0584 936.981,65.5019 z" id="boundary" inkscape:connector-curvature="0" />
	<path style="fill:none;stroke:#000000;stroke-width:1px;stroke-linecap:butt;stroke-linejoin:miter;stroke-opacity:1" d="M 936.981,65.5019 964.065,76.195 z" id="boundary" inkscape:connector-curvature="0" />
	<path style="fill:none;stroke:#000000;stroke-width:1px;stroke-linecap:butt;stroke-linejoin:miter;stroke-opacity:1" d="M 964.065,76.195 980.639,107.042 z" id="boundary" inkscape:connector-curvature="0" />
	<path style="fill:none;stroke:#000000;stroke-width:1px;stroke-linecap:butt;stroke-linejoin:miter;stroke-opacity:1" d="M 980.639,107.042 996,155.262 z" id="boundary" inkscape:connector-curvature="0" />
	<path style="fill:none;stroke:#000000;stroke-width:1px;stroke-linecap:butt;stroke-linejoin:miter;stroke-opacity:1" d="M 996,155.262 980.235,185.468 z" id="boundary" inkscape:connector-curvature="0" />
	<circle cx="4" cy="133.683" r="4" fill="#0" id="circle0"/>
	<circle cx="12.4579" cy="93.2352" r="4" fill="#0" id="circle1"/>
	<circle cx="23.4034" cy="188.602" r="4" fill="#0" id="circle2"/>
	<circle cx="32.7009" cy="75.816" r="4" fill="#0" id="circle3"/>
	<circle cx="45.2323" cy="231.932" r="4" fill="#0" id="circle4"/>
	<circle cx="71.1035" cy="75.2229" r="4" fill="#0" id="circle5"/>
	<circle cx="84.0391" cy="253.684" r="4" fill="#0" id="circle6"/>
	<circle cx="106.676" cy="82.3452" r="4" fill="#0" id="circle7"/>
	<circle cx="119.612" cy="302.52" r="4" fill="#0" id="circle8"/>
	<circle cx="136.59" cy="121.422" r="4" fill="#0" id="circle9"/>
	<circle cx="143.866" cy="340.615" r="4" fill="#0" id="circle10"/>
	<circle cx="160.844" cy="395.437" r="4" fill="#0" id="circle11"/>
	<circle cx="163.27" cy="139.651" r="4" fill="#0" id="circle12"/>
	<circle cx="163.27" cy="432.492" r="4" fill="#0" id="circle13"/>
	<circle cx="177.822" cy="475.611" r="4" fill="#0" id="circle14"/>
	<circle cx="181.865" cy="167.447" r="4" fill="#0" id="circle15"/>
	<circle cx="210.161" cy="142.981" r="4" fill="#0" id="circle16"/>
	<circle cx="210.161" cy="523.369" r="4" fill="#0" id="circle17"/>
	<circle cx="240.075" cy="118.13" r="4" fill="#0" id="circle18"/>
	<circle cx="244.926" cy="555.708" r="4" fill="#0" id="circle19"/>
	<circle cx="257.053" cy="295.013" r="4" fill="#0" id="circle20"/>
	<circle cx="264.329" cy="256.668" r="4" fill="#0" id="circle21"/>
	<circle cx="265.138" cy="100.709" r="4" fill="#0" id="circle22"/>
	<circle cx="276.456" cy="356.534" r="4" fill="#0" id="circle23"/>
	<circle cx="281.307" cy="568.412" r="4" fill="#0" id="circle24"/>
	<circle cx="290.2" cy="71.758" r="4" fill="#0" id="circle25"/>
	<circle cx="290.2" cy="226.408" r="4" fill="#0" id="circle26"/>
	<circle cx="303.509" cy="387.07" r="4" fill="#0" id="circle27"/>
	<circle cx="312.838" cy="577.517" r="4" fill="#0" id="circle28"/>
	<circle cx="320.114" cy="63.4037" r="4" fill="#0" id="circle29"/>
	<circle cx="323.752" cy="403.198" r="4" fill="#0" id="circle30"/>
	<circle cx="330.624" cy="176.282" r="4" fill="#0" id="circle31"/>
	<circle cx="341.943" cy="432.627" r="4" fill="#0" id="circle32"/>
	<circle cx="348.411" cy="571.165" r="4" fill="#0" id="circle33"/>
	<circle cx="361.346" cy="46.1562" r="4" fill="#0" id="circle34"/>
	<circle cx="362.155" cy="180.229" r="4" fill="#0" id="circle35"/>
	<circle cx="367.006" cy="448.412" r="4" fill="#0" id="circle36"/>
	<circle cx="381.558" cy="581.233" r="4" fill="#0" id="circle37"/>
	<circle cx="398.839" cy="191.824" r="4" fill="#0" id="circle38"/>
	<circle cx="401.77" cy="29.8712" r="4" fill="#0" id="circle39"/>
	<circle cx="405.004" cy="466.583" r="4" fill="#0" id="circle40"/>
	<circle cx="408.238" cy="596.709" r="4" fill="#0" id="circle41"/>
	<circle cx="426.024" cy="623.158" r="4" fill="#0" id="circle42"/>
	<circle cx="430.067" cy="452.589" r="4" fill="#0" id="circle43"/>
	<circle cx="433.301" cy="12.8547" r="4" fill="#0" id="circle44"/>
	<circle cx="444.215" cy="233.039" r="4" fill="#0" id="circle45"/>
	<circle cx="452.3" cy="312.582" r="4" fill="#0" id="circle46"/>
	<circle cx="452.704" cy="268.603" r="4" fill="#0" id="circle47"/>
	<circle cx="452.704" cy="366.929" r="4" fill="#0" id="circle48"/>
	<circle cx="456.747" cy="402.174" r="4" fill="#0" id="circle49"/>
	<circle cx="457.555" cy="661.676" r="4" fill="#0" id="circle50"/>
	<circle cx="472.108" cy="7.3494" r="4" fill="#0" id="circle51"/>
	<circle cx="492.319" cy="679.636" r="4" fill="#0" id="circle52"/>
	<circle cx="505.255" cy="4" r="4" fill="#0" id="circle53"/>
	<circle cx="524.659" cy="664.621" r="4" fill="#0" id="circle54"/>
	<circle cx="544.062" cy="638.48" r="4" fill="#0" id="circle55"/>
	<circle cx="552.147" cy="21.748" r="4" fill="#0" id="circle56"/>
	<circle cx="557.806" cy="328.295" r="4" fill="#0" id="circle57"/>
	<circle cx="565.891" cy="370.99" r="4" fill="#0" id="circle58"/>
	<circle cx="567.508" cy="285.754" r="4" fill="#0" id="circle59"/>
	<circle cx="569.125" cy="422.213" r="4" fill="#0" id="circle60"/>
	<circle cx="572.359" cy="248.121" r="4" fill="#0" id="circle61"/>
	<circle cx="572.359" cy="614.977" r="4" fill="#0" id="circle62"/>
	<circle cx="579.635" cy="15.0492" r="4" fill="#0" id="circle63"/>
	<circle cx="586.911" cy="214.531" r="4" fill="#0" id="circle64"/>
	<circle cx="588.528" cy="459.364" r="4" fill="#0" id="circle65"/>
	<circle cx="607.527" cy="189.749" r="4" fill="#0" id="circle66"/>
	<circle cx="607.527" cy="584.506" r="4" fill="#0" id="circle67"/>
	<circle cx="612.782" cy="27.1956" r="4" fill="#0" id="circle68"/>
	<circle cx="635.42" cy="462.136" r="4" fill="#0" id="circle69"/>
	<circle cx="637.037" cy="573.398" r="4" fill="#0" id="circle70"/>
	<circle cx="640.675" cy="50.6729" r="4" fill="#0" id="circle71"/>
	<circle cx="648.355" cy="179.651" r="4" fill="#0" id="circle72"/>
	<circle cx="664.525" cy="580.116" r="4" fill="#0" id="circle73"/>
	<circle cx="673.418" cy="62.345" r="4" fill="#0" id="circle74"/>
	<circle cx="675.844" cy="433.262" r="4" fill="#0" id="circle75"/>
	<circle cx="693.63" cy="191.951" r="4" fill="#0" id="circle76"/>
	<circle cx="701.715" cy="573.494" r="4" fill="#0" id="circle77"/>
	<circle cx="708.991" cy="74.3759" r="4" fill="#0" id="circle78"/>
	<circle cx="719.501" cy="394.378" r="4" fill="#0" id="circle79"/>
	<circle cx="723.544" cy="205.792" r="4" fill="#0" id="circle80"/>
	<circle cx="737.85" cy="109.035" r="4" fill="#0" id="circle81"/>
	<circle cx="741.734" cy="560.601" r="4" fill="#0" id="circle82"/>
	<circle cx="743.756" cy="248.243" r="4" fill="#0" id="circle83"/>
	<circle cx="751.032" cy="280.499" r="4" fill="#0" id="circle84"/>
	<circle cx="756.691" cy="343.218" r="4" fill="#0" id="circle85"/>
	<circle cx="760.733" cy="126.246" r="4" fill="#0" id="circle86"/>
	<circle cx="780.137" cy="525.044" r="4" fill="#0" id="circle87"/>
	<circle cx="787.413" cy="146.677" r="4" fill="#0" id="circle88"/>
	<circle cx="806.008" cy="484.177" r="4" fill="#0" id="circle89"/>
	<circle cx="814.093" cy="161.942" r="4" fill="#0" id="circle90"/>
	<circle cx="822.582" cy="438.172" r="4" fill="#0" id="circle91"/>
	<circle cx="839.156" cy="139.708" r="4" fill="#0" id="circle92"/>
	<circle cx="839.156" cy="399.248" r="4" fill="#0" id="circle93"/>
	<circle cx="848.049" cy="367.408" r="4" fill="#0" id="circle94"/>
	<circle cx="859.936" cy="327.743" r="4" fill="#0" id="circle95"/>
	<circle cx="869.069" cy="95.0883" r="4" fill="#0" id="circle96"/>
	<circle cx="878.717" cy="308.699" r="4" fill="#0" id="circle97"/>
	<circle cx="902.217" cy="84.0584" r="4" fill="#0" id="circle98"/>
	<circle cx="905.451" cy="263.925" r="4" fill="#0" id="circle99"/>
	<circle cx="926.471" cy="236.456" r="4" fill="#0" id="circle100"/>
	<circle cx="936.981" cy="65.5019" r="4" fill="#0" id="circle101"/>
	<circle cx="954.768" cy="216.417" r="4" fill="#0" id="circle102"/>
	<circle cx="964.065" cy="76.195" r="4" fill="#0" id="circle103"/>
	<circle cx="980.235" cy="185.468" r="4" fill="#0" id="circle104"/>
	<circle cx="980.639" cy="107.042" r="4" fill="#0" id="circle105"/>
	<circle cx="996" cy="155.262" r="4" fill="#0" id="circle106"/>
	<circle cx="419.504" cy="209.849" r="4" fill="#0" id="circle107"/>
	<circle cx="733.772" cy="364.373" r="4" fill="#0" id="circle108"/>
	</g>
</svg>