<?xml version="1.0" encoding="UTF-8" standalone="no"?>
<!-- Created with CurveBenchmark -->
<svg
	xmlns:dc="http://purl.org/dc/elements/1.1/"
	xmlns:cc="http://creativecommons.org/ns#"
	xmlns:rdf="http://www.w3.org/1999/02/22-rdf-syntax-ns#"
	xmlns:svg="http://www.w3.org/2000/svg"
	xmlns="http://www.w3.org/2000/svg"
	xmlns:sodipodi="http://sodipodi.sourceforge.net/DTD/sodipodi-0.dtd"
	xmlns:inkscape="http://www.inkscape.org/namespaces/inkscape"
	width="1000"
	height="1000"
	id="svg2"
	version="1.1"
	sodipodi:docname="oc17">
<defs
	id="defs4" />
<metadata
	id="metadata7">
	<rdf:RDF>
		<cc:Work
			rdf:about="">
			<dc:format>image/svg+xml</dc:format>
			<dc:type
				rdf:resource="http://purl.org/dc/dcmitype/StillImage" />
			<dc:title></dc:title>
		</cc:Work>
	</rdf:RDF>
</metadata>
<g
	inkscape:label="Layer 1"
	inkscape:groupmode="layer"
	id="layer1">
	<path style="fill:none;stroke:#000000;stroke-width:1px;stroke-linecap:butt;stroke-linejoin:miter;stroke-opacity:1" d="M 4,597.966 25.5439,595.577 z" id="boundary" inkscape:connector-curvature="0" />
	<path style="fill:none;stroke:#000000;stroke-width:1px;stroke-linecap:butt;stroke-linejoin:miter;stroke-opacity:1" d="M 25.5439,595.577 47.0879,593.559 z" id="boundary" inkscape:connector-curvature="0" />
	<path style="fill:none;stroke:#000000;stroke-width:1px;stroke-linecap:butt;stroke-linejoin:miter;stroke-opacity:1" d="M 47.0879,593.559 69.376,588.369 z" id="boundary" inkscape:connector-curvature="0" />
	<path style="fill:none;stroke:#000000;stroke-width:1px;stroke-linecap:butt;stroke-linejoin:miter;stroke-opacity:1" d="M 69.376,588.369 83.5754,584.668 z" id="boundary" inkscape:connector-curvature="0" />
	<path style="fill:none;stroke:#000000;stroke-width:1px;stroke-linecap:butt;stroke-linejoin:miter;stroke-opacity:1" d="M 80.383,182.501 77.4452,205.142 z" id="boundary" inkscape:connector-curvature="0" />
	<path style="fill:none;stroke:#000000;stroke-width:1px;stroke-linecap:butt;stroke-linejoin:miter;stroke-opacity:1" d="M 80.383,182.501 101.927,178.506 z" id="boundary" inkscape:connector-curvature="0" />
	<path style="fill:none;stroke:#000000;stroke-width:1px;stroke-linecap:butt;stroke-linejoin:miter;stroke-opacity:1" d="M 75.8784,235.852 77.4452,205.142 z" id="boundary" inkscape:connector-curvature="0" />
	<path style="fill:none;stroke:#000000;stroke-width:1px;stroke-linecap:butt;stroke-linejoin:miter;stroke-opacity:1" d="M 75.8784,235.852 79.0708,268.207 z" id="boundary" inkscape:connector-curvature="0" />
	<path style="fill:none;stroke:#000000;stroke-width:1px;stroke-linecap:butt;stroke-linejoin:miter;stroke-opacity:1" d="M 76.9556,311.06 77.0535,347.645 z" id="boundary" inkscape:connector-curvature="0" />
	<path style="fill:none;stroke:#000000;stroke-width:1px;stroke-linecap:butt;stroke-linejoin:miter;stroke-opacity:1" d="M 76.9556,311.06 79.0708,268.207 z" id="boundary" inkscape:connector-curvature="0" />
	<path style="fill:none;stroke:#000000;stroke-width:1px;stroke-linecap:butt;stroke-linejoin:miter;stroke-opacity:1" d="M 77.3277,417.585 80.383,446.277 z" id="boundary" inkscape:connector-curvature="0" />
	<path style="fill:none;stroke:#000000;stroke-width:1px;stroke-linecap:butt;stroke-linejoin:miter;stroke-opacity:1" d="M 77.3277,417.585 82.3416,401.231 z" id="boundary" inkscape:connector-curvature="0" />
	<path style="fill:none;stroke:#000000;stroke-width:1px;stroke-linecap:butt;stroke-linejoin:miter;stroke-opacity:1" d="M 77.6998,477.32 77.6411,506.404 z" id="boundary" inkscape:connector-curvature="0" />
	<path style="fill:none;stroke:#000000;stroke-width:1px;stroke-linecap:butt;stroke-linejoin:miter;stroke-opacity:1" d="M 77.6998,477.32 80.383,446.277 z" id="boundary" inkscape:connector-curvature="0" />
	<path style="fill:none;stroke:#000000;stroke-width:1px;stroke-linecap:butt;stroke-linejoin:miter;stroke-opacity:1" d="M 78.9141,545.849 79.7367,528.869 z" id="boundary" inkscape:connector-curvature="0" />
	<path style="fill:none;stroke:#000000;stroke-width:1px;stroke-linecap:butt;stroke-linejoin:miter;stroke-opacity:1" d="M 78.9141,545.849 83.5754,584.668 z" id="boundary" inkscape:connector-curvature="0" />
	<path style="fill:none;stroke:#000000;stroke-width:1px;stroke-linecap:butt;stroke-linejoin:miter;stroke-opacity:1" d="M 77.0535,347.645 79.2079,371.461 z" id="boundary" inkscape:connector-curvature="0" />
	<path style="fill:none;stroke:#000000;stroke-width:1px;stroke-linecap:butt;stroke-linejoin:miter;stroke-opacity:1" d="M 77.6411,506.404 79.7367,528.869 z" id="boundary" inkscape:connector-curvature="0" />
	<path style="fill:none;stroke:#000000;stroke-width:1px;stroke-linecap:butt;stroke-linejoin:miter;stroke-opacity:1" d="M 79.2079,371.461 82.3416,401.231 z" id="boundary" inkscape:connector-curvature="0" />
	<path style="fill:none;stroke:#000000;stroke-width:1px;stroke-linecap:butt;stroke-linejoin:miter;stroke-opacity:1" d="M 101.927,178.506 123.471,177.448 z" id="boundary" inkscape:connector-curvature="0" />
	<path style="fill:none;stroke:#000000;stroke-width:1px;stroke-linecap:butt;stroke-linejoin:miter;stroke-opacity:1" d="M 123.471,177.448 145.015,176.821 z" id="boundary" inkscape:connector-curvature="0" />
	<path style="fill:none;stroke:#000000;stroke-width:1px;stroke-linecap:butt;stroke-linejoin:miter;stroke-opacity:1" d="M 145.015,176.821 166.559,176.41 z" id="boundary" inkscape:connector-curvature="0" />
	<path style="fill:none;stroke:#000000;stroke-width:1px;stroke-linecap:butt;stroke-linejoin:miter;stroke-opacity:1" d="M 166.559,176.41 188.103,175.118 z" id="boundary" inkscape:connector-curvature="0" />
	<path style="fill:none;stroke:#000000;stroke-width:1px;stroke-linecap:butt;stroke-linejoin:miter;stroke-opacity:1" d="M 188.103,175.118 209.647,173.766 z" id="boundary" inkscape:connector-curvature="0" />
	<path style="fill:none;stroke:#000000;stroke-width:1px;stroke-linecap:butt;stroke-linejoin:miter;stroke-opacity:1" d="M 209.647,173.766 231.191,173.042 z" id="boundary" inkscape:connector-curvature="0" />
	<path style="fill:none;stroke:#000000;stroke-width:1px;stroke-linecap:butt;stroke-linejoin:miter;stroke-opacity:1" d="M 231.191,173.042 247.838,176.9 z" id="boundary" inkscape:connector-curvature="0" />
	<path style="fill:none;stroke:#000000;stroke-width:1px;stroke-linecap:butt;stroke-linejoin:miter;stroke-opacity:1" d="M 247.29,263.526 246.526,230.505 z" id="boundary" inkscape:connector-curvature="0" />
	<path style="fill:none;stroke:#000000;stroke-width:1px;stroke-linecap:butt;stroke-linejoin:miter;stroke-opacity:1" d="M 247.29,263.526 245.547,285.148 z" id="boundary" inkscape:connector-curvature="0" />
	<path style="fill:none;stroke:#000000;stroke-width:1px;stroke-linecap:butt;stroke-linejoin:miter;stroke-opacity:1" d="M 247.603,316.034 245.547,285.148 z" id="boundary" inkscape:connector-curvature="0" />
	<path style="fill:none;stroke:#000000;stroke-width:1px;stroke-linecap:butt;stroke-linejoin:miter;stroke-opacity:1" d="M 247.603,316.034 251.266,341.495 z" id="boundary" inkscape:connector-curvature="0" />
	<path style="fill:none;stroke:#000000;stroke-width:1px;stroke-linecap:butt;stroke-linejoin:miter;stroke-opacity:1" d="M 247.838,176.9 246.859,200.481 z" id="boundary" inkscape:connector-curvature="0" />
	<path style="fill:none;stroke:#000000;stroke-width:1px;stroke-linecap:butt;stroke-linejoin:miter;stroke-opacity:1" d="M 246.859,200.481 250.776,214.19 z" id="boundary" inkscape:connector-curvature="0" />
	<path style="fill:none;stroke:#000000;stroke-width:1px;stroke-linecap:butt;stroke-linejoin:miter;stroke-opacity:1" d="M 246.526,230.505 250.776,214.19 z" id="boundary" inkscape:connector-curvature="0" />
	<path style="fill:none;stroke:#000000;stroke-width:1px;stroke-linecap:butt;stroke-linejoin:miter;stroke-opacity:1" d="M 249.248,376.867 252.989,423.323 z" id="boundary" inkscape:connector-curvature="0" />
	<path style="fill:none;stroke:#000000;stroke-width:1px;stroke-linecap:butt;stroke-linejoin:miter;stroke-opacity:1" d="M 249.248,376.867 248.817,351.621 z" id="boundary" inkscape:connector-curvature="0" />
	<path style="fill:none;stroke:#000000;stroke-width:1px;stroke-linecap:butt;stroke-linejoin:miter;stroke-opacity:1" d="M 252.989,423.323 274.278,431.941 z" id="boundary" inkscape:connector-curvature="0" />
	<path style="fill:none;stroke:#000000;stroke-width:1px;stroke-linecap:butt;stroke-linejoin:miter;stroke-opacity:1" d="M 251.266,341.495 248.817,351.621 z" id="boundary" inkscape:connector-curvature="0" />
	<path style="fill:none;stroke:#000000;stroke-width:1px;stroke-linecap:butt;stroke-linejoin:miter;stroke-opacity:1" d="M 274.278,431.941 295.822,431.49 z" id="boundary" inkscape:connector-curvature="0" />
	<path style="fill:none;stroke:#000000;stroke-width:1px;stroke-linecap:butt;stroke-linejoin:miter;stroke-opacity:1" d="M 295.822,431.49 317.366,429.532 z" id="boundary" inkscape:connector-curvature="0" />
	<path style="fill:none;stroke:#000000;stroke-width:1px;stroke-linecap:butt;stroke-linejoin:miter;stroke-opacity:1" d="M 317.366,429.532 331.076,429.963 z" id="boundary" inkscape:connector-curvature="0" />
	<path style="fill:none;stroke:#000000;stroke-width:1px;stroke-linecap:butt;stroke-linejoin:miter;stroke-opacity:1" d="M 331.076,296.077 331.644,323.457 z" id="boundary" inkscape:connector-curvature="0" />
	<path style="fill:none;stroke:#000000;stroke-width:1px;stroke-linecap:butt;stroke-linejoin:miter;stroke-opacity:1" d="M 331.076,296.077 336.952,260.882 z" id="boundary" inkscape:connector-curvature="0" />
	<path style="fill:none;stroke:#000000;stroke-width:1px;stroke-linecap:butt;stroke-linejoin:miter;stroke-opacity:1" d="M 331.644,323.457 334.425,355.44 z" id="boundary" inkscape:connector-curvature="0" />
	<path style="fill:none;stroke:#000000;stroke-width:1px;stroke-linecap:butt;stroke-linejoin:miter;stroke-opacity:1" d="M 336.952,260.882 358.496,259.139 z" id="boundary" inkscape:connector-curvature="0" />
	<path style="fill:none;stroke:#000000;stroke-width:1px;stroke-linecap:butt;stroke-linejoin:miter;stroke-opacity:1" d="M 331.566,389.362 329.117,410.808 z" id="boundary" inkscape:connector-curvature="0" />
	<path style="fill:none;stroke:#000000;stroke-width:1px;stroke-linecap:butt;stroke-linejoin:miter;stroke-opacity:1" d="M 331.566,389.362 334.425,355.44 z" id="boundary" inkscape:connector-curvature="0" />
	<path style="fill:none;stroke:#000000;stroke-width:1px;stroke-linecap:butt;stroke-linejoin:miter;stroke-opacity:1" d="M 329.117,410.808 331.076,429.963 z" id="boundary" inkscape:connector-curvature="0" />
	<path style="fill:none;stroke:#000000;stroke-width:1px;stroke-linecap:butt;stroke-linejoin:miter;stroke-opacity:1" d="M 358.496,259.139 380.039,259.139 z" id="boundary" inkscape:connector-curvature="0" />
	<path style="fill:none;stroke:#000000;stroke-width:1px;stroke-linecap:butt;stroke-linejoin:miter;stroke-opacity:1" d="M 380.039,259.139 401.583,260.079 z" id="boundary" inkscape:connector-curvature="0" />
	<path style="fill:none;stroke:#000000;stroke-width:1px;stroke-linecap:butt;stroke-linejoin:miter;stroke-opacity:1" d="M 401.583,260.079 423.127,260.04 z" id="boundary" inkscape:connector-curvature="0" />
	<path style="fill:none;stroke:#000000;stroke-width:1px;stroke-linecap:butt;stroke-linejoin:miter;stroke-opacity:1" d="M 423.127,260.04 444.671,260.118 z" id="boundary" inkscape:connector-curvature="0" />
	<path style="fill:none;stroke:#000000;stroke-width:1px;stroke-linecap:butt;stroke-linejoin:miter;stroke-opacity:1" d="M 444.671,260.118 466.215,260.099 z" id="boundary" inkscape:connector-curvature="0" />
	<path style="fill:none;stroke:#000000;stroke-width:1px;stroke-linecap:butt;stroke-linejoin:miter;stroke-opacity:1" d="M 466.215,260.099 487.759,260.216 z" id="boundary" inkscape:connector-curvature="0" />
	<path style="fill:none;stroke:#000000;stroke-width:1px;stroke-linecap:butt;stroke-linejoin:miter;stroke-opacity:1" d="M 487.759,260.216 503.427,261.195 z" id="boundary" inkscape:connector-curvature="0" />
	<path style="fill:none;stroke:#000000;stroke-width:1px;stroke-linecap:butt;stroke-linejoin:miter;stroke-opacity:1" d="M 500.881,495.867 499.51,462.337 z" id="boundary" inkscape:connector-curvature="0" />
	<path style="fill:none;stroke:#000000;stroke-width:1px;stroke-linecap:butt;stroke-linejoin:miter;stroke-opacity:1" d="M 500.881,495.867 499.51,529.515 z" id="boundary" inkscape:connector-curvature="0" />
	<path style="fill:none;stroke:#000000;stroke-width:1px;stroke-linecap:butt;stroke-linejoin:miter;stroke-opacity:1" d="M 500.979,280.33 503.427,261.195 z" id="boundary" inkscape:connector-curvature="0" />
	<path style="fill:none;stroke:#000000;stroke-width:1px;stroke-linecap:butt;stroke-linejoin:miter;stroke-opacity:1" d="M 500.979,280.33 502.448,309.18 z" id="boundary" inkscape:connector-curvature="0" />
	<path style="fill:none;stroke:#000000;stroke-width:1px;stroke-linecap:butt;stroke-linejoin:miter;stroke-opacity:1" d="M 503.78,408.771 503.427,437.346 z" id="boundary" inkscape:connector-curvature="0" />
	<path style="fill:none;stroke:#000000;stroke-width:1px;stroke-linecap:butt;stroke-linejoin:miter;stroke-opacity:1" d="M 503.78,408.771 505.386,383.604 z" id="boundary" inkscape:connector-curvature="0" />
	<path style="fill:none;stroke:#000000;stroke-width:1px;stroke-linecap:butt;stroke-linejoin:miter;stroke-opacity:1" d="M 499.51,462.337 503.427,437.346 z" id="boundary" inkscape:connector-curvature="0" />
	<path style="fill:none;stroke:#000000;stroke-width:1px;stroke-linecap:butt;stroke-linejoin:miter;stroke-opacity:1" d="M 499.51,529.515 502.448,546.163 z" id="boundary" inkscape:connector-curvature="0" />
	<path style="fill:none;stroke:#000000;stroke-width:1px;stroke-linecap:butt;stroke-linejoin:miter;stroke-opacity:1" d="M 502.056,600.551 502.448,561.988 z" id="boundary" inkscape:connector-curvature="0" />
	<path style="fill:none;stroke:#000000;stroke-width:1px;stroke-linecap:butt;stroke-linejoin:miter;stroke-opacity:1" d="M 502.056,600.551 502.448,631.947 z" id="boundary" inkscape:connector-curvature="0" />
	<path style="fill:none;stroke:#000000;stroke-width:1px;stroke-linecap:butt;stroke-linejoin:miter;stroke-opacity:1" d="M 502.859,328.765 500.901,363.039 z" id="boundary" inkscape:connector-curvature="0" />
	<path style="fill:none;stroke:#000000;stroke-width:1px;stroke-linecap:butt;stroke-linejoin:miter;stroke-opacity:1" d="M 502.859,328.765 502.448,309.18 z" id="boundary" inkscape:connector-curvature="0" />
	<path style="fill:none;stroke:#000000;stroke-width:1px;stroke-linecap:butt;stroke-linejoin:miter;stroke-opacity:1" d="M 500.901,363.039 505.386,383.604 z" id="boundary" inkscape:connector-curvature="0" />
	<path style="fill:none;stroke:#000000;stroke-width:1px;stroke-linecap:butt;stroke-linejoin:miter;stroke-opacity:1" d="M 502.448,561.988 502.448,546.163 z" id="boundary" inkscape:connector-curvature="0" />
	<path style="fill:none;stroke:#000000;stroke-width:1px;stroke-linecap:butt;stroke-linejoin:miter;stroke-opacity:1" d="M 506.091,687.373 505.386,654.568 z" id="boundary" inkscape:connector-curvature="0" />
	<path style="fill:none;stroke:#000000;stroke-width:1px;stroke-linecap:butt;stroke-linejoin:miter;stroke-opacity:1" d="M 506.091,687.373 528.888,688.686 z" id="boundary" inkscape:connector-curvature="0" />
	<path style="fill:none;stroke:#000000;stroke-width:1px;stroke-linecap:butt;stroke-linejoin:miter;stroke-opacity:1" d="M 502.448,631.947 505.386,654.568 z" id="boundary" inkscape:connector-curvature="0" />
	<path style="fill:none;stroke:#000000;stroke-width:1px;stroke-linecap:butt;stroke-linejoin:miter;stroke-opacity:1" d="M 528.888,688.686 550.432,688.431 z" id="boundary" inkscape:connector-curvature="0" />
	<path style="fill:none;stroke:#000000;stroke-width:1px;stroke-linecap:butt;stroke-linejoin:miter;stroke-opacity:1" d="M 550.432,688.431 573.328,686.198 z" id="boundary" inkscape:connector-curvature="0" />
	<path style="fill:none;stroke:#000000;stroke-width:1px;stroke-linecap:butt;stroke-linejoin:miter;stroke-opacity:1" d="M 573.328,686.198 586.078,683.26 z" id="boundary" inkscape:connector-curvature="0" />
	<path style="fill:none;stroke:#000000;stroke-width:1px;stroke-linecap:butt;stroke-linejoin:miter;stroke-opacity:1" d="M 586.509,610.462 588.213,651.278 z" id="boundary" inkscape:connector-curvature="0" />
	<path style="fill:none;stroke:#000000;stroke-width:1px;stroke-linecap:butt;stroke-linejoin:miter;stroke-opacity:1" d="M 586.509,610.462 588.624,577.989 z" id="boundary" inkscape:connector-curvature="0" />
	<path style="fill:none;stroke:#000000;stroke-width:1px;stroke-linecap:butt;stroke-linejoin:miter;stroke-opacity:1" d="M 592.208,434.291 588.82,469.388 z" id="boundary" inkscape:connector-curvature="0" />
	<path style="fill:none;stroke:#000000;stroke-width:1px;stroke-linecap:butt;stroke-linejoin:miter;stroke-opacity:1" d="M 592.208,434.291 613.106,428.925 z" id="boundary" inkscape:connector-curvature="0" />
	<path style="fill:none;stroke:#000000;stroke-width:1px;stroke-linecap:butt;stroke-linejoin:miter;stroke-opacity:1" d="M 588.291,503.917 588.82,469.388 z" id="boundary" inkscape:connector-curvature="0" />
	<path style="fill:none;stroke:#000000;stroke-width:1px;stroke-linecap:butt;stroke-linejoin:miter;stroke-opacity:1" d="M 588.291,503.917 587.645,530.494 z" id="boundary" inkscape:connector-curvature="0" />
	<path style="fill:none;stroke:#000000;stroke-width:1px;stroke-linecap:butt;stroke-linejoin:miter;stroke-opacity:1" d="M 587.077,550.589 588.624,577.989 z" id="boundary" inkscape:connector-curvature="0" />
	<path style="fill:none;stroke:#000000;stroke-width:1px;stroke-linecap:butt;stroke-linejoin:miter;stroke-opacity:1" d="M 587.077,550.589 587.645,530.494 z" id="boundary" inkscape:connector-curvature="0" />
	<path style="fill:none;stroke:#000000;stroke-width:1px;stroke-linecap:butt;stroke-linejoin:miter;stroke-opacity:1" d="M 588.213,651.278 586.078,683.26 z" id="boundary" inkscape:connector-curvature="0" />
	<path style="fill:none;stroke:#000000;stroke-width:1px;stroke-linecap:butt;stroke-linejoin:miter;stroke-opacity:1" d="M 613.106,428.925 634.65,429.963 z" id="boundary" inkscape:connector-curvature="0" />
	<path style="fill:none;stroke:#000000;stroke-width:1px;stroke-linecap:butt;stroke-linejoin:miter;stroke-opacity:1" d="M 634.65,429.963 656.193,431.921 z" id="boundary" inkscape:connector-curvature="0" />
	<path style="fill:none;stroke:#000000;stroke-width:1px;stroke-linecap:butt;stroke-linejoin:miter;stroke-opacity:1" d="M 656.193,431.921 670.55,430.276 z" id="boundary" inkscape:connector-curvature="0" />
	<path style="fill:none;stroke:#000000;stroke-width:1px;stroke-linecap:butt;stroke-linejoin:miter;stroke-opacity:1" d="M 672.195,12.0104 670.883,41.6235 z" id="boundary" inkscape:connector-curvature="0" />
	<path style="fill:none;stroke:#000000;stroke-width:1px;stroke-linecap:butt;stroke-linejoin:miter;stroke-opacity:1" d="M 672.195,12.0104 693.406,7.03574 z" id="boundary" inkscape:connector-curvature="0" />
	<path style="fill:none;stroke:#000000;stroke-width:1px;stroke-linecap:butt;stroke-linejoin:miter;stroke-opacity:1" d="M 669.414,87.375 669.257,59.1329 z" id="boundary" inkscape:connector-curvature="0" />
	<path style="fill:none;stroke:#000000;stroke-width:1px;stroke-linecap:butt;stroke-linejoin:miter;stroke-opacity:1" d="M 669.414,87.375 672.508,121.081 z" id="boundary" inkscape:connector-curvature="0" />
	<path style="fill:none;stroke:#000000;stroke-width:1px;stroke-linecap:butt;stroke-linejoin:miter;stroke-opacity:1" d="M 669.316,171.788 670.236,206.356 z" id="boundary" inkscape:connector-curvature="0" />
	<path style="fill:none;stroke:#000000;stroke-width:1px;stroke-linecap:butt;stroke-linejoin:miter;stroke-opacity:1" d="M 669.316,171.788 666.965,144.662 z" id="boundary" inkscape:connector-curvature="0" />
	<path style="fill:none;stroke:#000000;stroke-width:1px;stroke-linecap:butt;stroke-linejoin:miter;stroke-opacity:1" d="M 670.236,206.356 669.903,232.992 z" id="boundary" inkscape:connector-curvature="0" />
	<path style="fill:none;stroke:#000000;stroke-width:1px;stroke-linecap:butt;stroke-linejoin:miter;stroke-opacity:1" d="M 669.903,396.844 670.55,430.276 z" id="boundary" inkscape:connector-curvature="0" />
	<path style="fill:none;stroke:#000000;stroke-width:1px;stroke-linecap:butt;stroke-linejoin:miter;stroke-opacity:1" d="M 669.903,396.844 673.82,367.603 z" id="boundary" inkscape:connector-curvature="0" />
	<path style="fill:none;stroke:#000000;stroke-width:1px;stroke-linecap:butt;stroke-linejoin:miter;stroke-opacity:1" d="M 670.883,41.6235 669.257,59.1329 z" id="boundary" inkscape:connector-curvature="0" />
	<path style="fill:none;stroke:#000000;stroke-width:1px;stroke-linecap:butt;stroke-linejoin:miter;stroke-opacity:1" d="M 672.508,121.081 666.965,144.662 z" id="boundary" inkscape:connector-curvature="0" />
	<path style="fill:none;stroke:#000000;stroke-width:1px;stroke-linecap:butt;stroke-linejoin:miter;stroke-opacity:1" d="M 669.903,232.992 667.945,252.382 z" id="boundary" inkscape:connector-curvature="0" />
	<path style="fill:none;stroke:#000000;stroke-width:1px;stroke-linecap:butt;stroke-linejoin:miter;stroke-opacity:1" d="M 672.606,275.277 668.336,304.224 z" id="boundary" inkscape:connector-curvature="0" />
	<path style="fill:none;stroke:#000000;stroke-width:1px;stroke-linecap:butt;stroke-linejoin:miter;stroke-opacity:1" d="M 672.606,275.277 667.945,252.382 z" id="boundary" inkscape:connector-curvature="0" />
	<path style="fill:none;stroke:#000000;stroke-width:1px;stroke-linecap:butt;stroke-linejoin:miter;stroke-opacity:1" d="M 668.336,304.224 667.945,317.014 z" id="boundary" inkscape:connector-curvature="0" />
	<path style="fill:none;stroke:#000000;stroke-width:1px;stroke-linecap:butt;stroke-linejoin:miter;stroke-opacity:1" d="M 670.765,345.53 667.945,317.014 z" id="boundary" inkscape:connector-curvature="0" />
	<path style="fill:none;stroke:#000000;stroke-width:1px;stroke-linecap:butt;stroke-linejoin:miter;stroke-opacity:1" d="M 670.765,345.53 673.82,367.603 z" id="boundary" inkscape:connector-curvature="0" />
	<path style="fill:none;stroke:#000000;stroke-width:1px;stroke-linecap:butt;stroke-linejoin:miter;stroke-opacity:1" d="M 693.406,7.03574 714.95,4 z" id="boundary" inkscape:connector-curvature="0" />
	<path style="fill:none;stroke:#000000;stroke-width:1px;stroke-linecap:butt;stroke-linejoin:miter;stroke-opacity:1" d="M 714.95,4 736.827,4.37212 z" id="boundary" inkscape:connector-curvature="0" />
	<path style="fill:none;stroke:#000000;stroke-width:1px;stroke-linecap:butt;stroke-linejoin:miter;stroke-opacity:1" d="M 736.827,4.37212 754.12,6.91822 z" id="boundary" inkscape:connector-curvature="0" />
	<path style="fill:none;stroke:#000000;stroke-width:1px;stroke-linecap:butt;stroke-linejoin:miter;stroke-opacity:1" d="M 752.945,26.817 749.557,59.0937 z" id="boundary" inkscape:connector-curvature="0" />
	<path style="fill:none;stroke:#000000;stroke-width:1px;stroke-linecap:butt;stroke-linejoin:miter;stroke-opacity:1" d="M 752.945,26.817 754.12,6.91822 z" id="boundary" inkscape:connector-curvature="0" />
	<path style="fill:none;stroke:#000000;stroke-width:1px;stroke-linecap:butt;stroke-linejoin:miter;stroke-opacity:1" d="M 749.557,59.0937 748.813,85.2598 z" id="boundary" inkscape:connector-curvature="0" />
	<path style="fill:none;stroke:#000000;stroke-width:1px;stroke-linecap:butt;stroke-linejoin:miter;stroke-opacity:1" d="M 748.813,85.2598 753.474,122.942 z" id="boundary" inkscape:connector-curvature="0" />
	<path style="fill:none;stroke:#000000;stroke-width:1px;stroke-linecap:butt;stroke-linejoin:miter;stroke-opacity:1" d="M 753.474,122.942 749.224,151.517 z" id="boundary" inkscape:connector-curvature="0" />
	<path style="fill:none;stroke:#000000;stroke-width:1px;stroke-linecap:butt;stroke-linejoin:miter;stroke-opacity:1" d="M 755.158,175.529 749.224,151.517 z" id="boundary" inkscape:connector-curvature="0" />
	<path style="fill:none;stroke:#000000;stroke-width:1px;stroke-linecap:butt;stroke-linejoin:miter;stroke-opacity:1" d="M 755.158,175.529 777.623,175.666 z" id="boundary" inkscape:connector-curvature="0" />
	<path style="fill:none;stroke:#000000;stroke-width:1px;stroke-linecap:butt;stroke-linejoin:miter;stroke-opacity:1" d="M 777.623,175.666 799.167,176.038 z" id="boundary" inkscape:connector-curvature="0" />
	<path style="fill:none;stroke:#000000;stroke-width:1px;stroke-linecap:butt;stroke-linejoin:miter;stroke-opacity:1" d="M 799.167,176.038 820.711,174.138 z" id="boundary" inkscape:connector-curvature="0" />
	<path style="fill:none;stroke:#000000;stroke-width:1px;stroke-linecap:butt;stroke-linejoin:miter;stroke-opacity:1" d="M 820.711,174.138 838.338,174.55 z" id="boundary" inkscape:connector-curvature="0" />
	<path style="fill:none;stroke:#000000;stroke-width:1px;stroke-linecap:butt;stroke-linejoin:miter;stroke-opacity:1" d="M 838.338,174.55 841.863,196.368 z" id="boundary" inkscape:connector-curvature="0" />
	<path style="fill:none;stroke:#000000;stroke-width:1px;stroke-linecap:butt;stroke-linejoin:miter;stroke-opacity:1" d="M 841.51,509.93 841.08,484.332 z" id="boundary" inkscape:connector-curvature="0" />
	<path style="fill:none;stroke:#000000;stroke-width:1px;stroke-linecap:butt;stroke-linejoin:miter;stroke-opacity:1" d="M 841.51,509.93 863.799,513.631 z" id="boundary" inkscape:connector-curvature="0" />
	<path style="fill:none;stroke:#000000;stroke-width:1px;stroke-linecap:butt;stroke-linejoin:miter;stroke-opacity:1" d="M 839.65,235.01 841.863,196.368 z" id="boundary" inkscape:connector-curvature="0" />
	<path style="fill:none;stroke:#000000;stroke-width:1px;stroke-linecap:butt;stroke-linejoin:miter;stroke-opacity:1" d="M 839.65,235.01 839.807,270.263 z" id="boundary" inkscape:connector-curvature="0" />
	<path style="fill:none;stroke:#000000;stroke-width:1px;stroke-linecap:butt;stroke-linejoin:miter;stroke-opacity:1" d="M 839.807,270.263 841.275,292.042 z" id="boundary" inkscape:connector-curvature="0" />
	<path style="fill:none;stroke:#000000;stroke-width:1px;stroke-linecap:butt;stroke-linejoin:miter;stroke-opacity:1" d="M 841.275,292.042 837.358,307.221 z" id="boundary" inkscape:connector-curvature="0" />
	<path style="fill:none;stroke:#000000;stroke-width:1px;stroke-linecap:butt;stroke-linejoin:miter;stroke-opacity:1" d="M 837.358,307.221 838.338,328.765 z" id="boundary" inkscape:connector-curvature="0" />
	<path style="fill:none;stroke:#000000;stroke-width:1px;stroke-linecap:butt;stroke-linejoin:miter;stroke-opacity:1" d="M 838.338,328.765 842.646,353.443 z" id="boundary" inkscape:connector-curvature="0" />
	<path style="fill:none;stroke:#000000;stroke-width:1px;stroke-linecap:butt;stroke-linejoin:miter;stroke-opacity:1" d="M 842.646,353.443 840.296,377.337 z" id="boundary" inkscape:connector-curvature="0" />
	<path style="fill:none;stroke:#000000;stroke-width:1px;stroke-linecap:butt;stroke-linejoin:miter;stroke-opacity:1" d="M 840.296,377.337 842.255,399.605 z" id="boundary" inkscape:connector-curvature="0" />
	<path style="fill:none;stroke:#000000;stroke-width:1px;stroke-linecap:butt;stroke-linejoin:miter;stroke-opacity:1" d="M 842.255,399.605 841.275,420.816 z" id="boundary" inkscape:connector-curvature="0" />
	<path style="fill:none;stroke:#000000;stroke-width:1px;stroke-linecap:butt;stroke-linejoin:miter;stroke-opacity:1" d="M 841.275,420.816 839.317,438.698 z" id="boundary" inkscape:connector-curvature="0" />
	<path style="fill:none;stroke:#000000;stroke-width:1px;stroke-linecap:butt;stroke-linejoin:miter;stroke-opacity:1" d="M 839.317,438.698 841.863,459.204 z" id="boundary" inkscape:connector-curvature="0" />
	<path style="fill:none;stroke:#000000;stroke-width:1px;stroke-linecap:butt;stroke-linejoin:miter;stroke-opacity:1" d="M 841.863,459.204 841.08,484.332 z" id="boundary" inkscape:connector-curvature="0" />
	<path style="fill:none;stroke:#000000;stroke-width:1px;stroke-linecap:butt;stroke-linejoin:miter;stroke-opacity:1" d="M 863.799,513.631 885.343,514.65 z" id="boundary" inkscape:connector-curvature="0" />
	<path style="fill:none;stroke:#000000;stroke-width:1px;stroke-linecap:butt;stroke-linejoin:miter;stroke-opacity:1" d="M 885.343,514.65 906.886,516.883 z" id="boundary" inkscape:connector-curvature="0" />
	<path style="fill:none;stroke:#000000;stroke-width:1px;stroke-linecap:butt;stroke-linejoin:miter;stroke-opacity:1" d="M 906.886,516.883 925.493,521.975 z" id="boundary" inkscape:connector-curvature="0" />
	<path style="fill:none;stroke:#000000;stroke-width:1px;stroke-linecap:butt;stroke-linejoin:miter;stroke-opacity:1" d="M 925.493,521.975 927.725,560.323 z" id="boundary" inkscape:connector-curvature="0" />
	<path style="fill:none;stroke:#000000;stroke-width:1px;stroke-linecap:butt;stroke-linejoin:miter;stroke-opacity:1" d="M 927.725,560.323 924.513,592.717 z" id="boundary" inkscape:connector-curvature="0" />
	<path style="fill:none;stroke:#000000;stroke-width:1px;stroke-linecap:butt;stroke-linejoin:miter;stroke-opacity:1" d="M 924.513,592.717 926.687,624.132 z" id="boundary" inkscape:connector-curvature="0" />
	<path style="fill:none;stroke:#000000;stroke-width:1px;stroke-linecap:butt;stroke-linejoin:miter;stroke-opacity:1" d="M 926.687,624.132 926.805,658.328 z" id="boundary" inkscape:connector-curvature="0" />
	<path style="fill:none;stroke:#000000;stroke-width:1px;stroke-linecap:butt;stroke-linejoin:miter;stroke-opacity:1" d="M 926.805,658.328 931.603,686.198 z" id="boundary" inkscape:connector-curvature="0" />
	<path style="fill:none;stroke:#000000;stroke-width:1px;stroke-linecap:butt;stroke-linejoin:miter;stroke-opacity:1" d="M 931.603,686.198 953.891,685.748 z" id="boundary" inkscape:connector-curvature="0" />
	<path style="fill:none;stroke:#000000;stroke-width:1px;stroke-linecap:butt;stroke-linejoin:miter;stroke-opacity:1" d="M 953.891,685.748 975.435,683.084 z" id="boundary" inkscape:connector-curvature="0" />
	<path style="fill:none;stroke:#000000;stroke-width:1px;stroke-linecap:butt;stroke-linejoin:miter;stroke-opacity:1" d="M 975.435,683.084 996,681.4 z" id="boundary" inkscape:connector-curvature="0" />
	<circle cx="4" cy="597.966" r="4" fill="#0" id="circle0"/>
	<circle cx="25.5439" cy="595.577" r="4" fill="#0" id="circle1"/>
	<circle cx="47.0879" cy="593.559" r="4" fill="#0" id="circle2"/>
	<circle cx="69.376" cy="588.369" r="4" fill="#0" id="circle3"/>
	<circle cx="80.383" cy="182.501" r="4" fill="#0" id="circle4"/>
	<circle cx="75.8784" cy="235.852" r="4" fill="#0" id="circle5"/>
	<circle cx="76.9556" cy="311.06" r="4" fill="#0" id="circle6"/>
	<circle cx="77.3277" cy="417.585" r="4" fill="#0" id="circle7"/>
	<circle cx="77.6998" cy="477.32" r="4" fill="#0" id="circle8"/>
	<circle cx="78.9141" cy="545.849" r="4" fill="#0" id="circle9"/>
	<circle cx="77.0535" cy="347.645" r="4" fill="#0" id="circle10"/>
	<circle cx="77.6411" cy="506.404" r="4" fill="#0" id="circle11"/>
	<circle cx="77.4452" cy="205.142" r="4" fill="#0" id="circle12"/>
	<circle cx="79.0708" cy="268.207" r="4" fill="#0" id="circle13"/>
	<circle cx="79.7367" cy="528.869" r="4" fill="#0" id="circle14"/>
	<circle cx="79.2079" cy="371.461" r="4" fill="#0" id="circle15"/>
	<circle cx="80.383" cy="446.277" r="4" fill="#0" id="circle16"/>
	<circle cx="82.3416" cy="401.231" r="4" fill="#0" id="circle17"/>
	<circle cx="83.5754" cy="584.668" r="4" fill="#0" id="circle18"/>
	<circle cx="101.927" cy="178.506" r="4" fill="#0" id="circle19"/>
	<circle cx="123.471" cy="177.448" r="4" fill="#0" id="circle20"/>
	<circle cx="145.015" cy="176.821" r="4" fill="#0" id="circle21"/>
	<circle cx="166.559" cy="176.41" r="4" fill="#0" id="circle22"/>
	<circle cx="188.103" cy="175.118" r="4" fill="#0" id="circle23"/>
	<circle cx="209.647" cy="173.766" r="4" fill="#0" id="circle24"/>
	<circle cx="231.191" cy="173.042" r="4" fill="#0" id="circle25"/>
	<circle cx="247.29" cy="263.526" r="4" fill="#0" id="circle26"/>
	<circle cx="247.603" cy="316.034" r="4" fill="#0" id="circle27"/>
	<circle cx="247.838" cy="176.9" r="4" fill="#0" id="circle28"/>
	<circle cx="246.859" cy="200.481" r="4" fill="#0" id="circle29"/>
	<circle cx="246.526" cy="230.505" r="4" fill="#0" id="circle30"/>
	<circle cx="245.547" cy="285.148" r="4" fill="#0" id="circle31"/>
	<circle cx="249.248" cy="376.867" r="4" fill="#0" id="circle32"/>
	<circle cx="252.989" cy="423.323" r="4" fill="#0" id="circle33"/>
	<circle cx="251.266" cy="341.495" r="4" fill="#0" id="circle34"/>
	<circle cx="248.817" cy="351.621" r="4" fill="#0" id="circle35"/>
	<circle cx="250.776" cy="214.19" r="4" fill="#0" id="circle36"/>
	<circle cx="274.278" cy="431.941" r="4" fill="#0" id="circle37"/>
	<circle cx="295.822" cy="431.49" r="4" fill="#0" id="circle38"/>
	<circle cx="317.366" cy="429.532" r="4" fill="#0" id="circle39"/>
	<circle cx="331.076" cy="296.077" r="4" fill="#0" id="circle40"/>
	<circle cx="331.644" cy="323.457" r="4" fill="#0" id="circle41"/>
	<circle cx="336.952" cy="260.882" r="4" fill="#0" id="circle42"/>
	<circle cx="331.566" cy="389.362" r="4" fill="#0" id="circle43"/>
	<circle cx="329.117" cy="410.808" r="4" fill="#0" id="circle44"/>
	<circle cx="334.425" cy="355.44" r="4" fill="#0" id="circle45"/>
	<circle cx="331.076" cy="429.963" r="4" fill="#0" id="circle46"/>
	<circle cx="358.496" cy="259.139" r="4" fill="#0" id="circle47"/>
	<circle cx="380.039" cy="259.139" r="4" fill="#0" id="circle48"/>
	<circle cx="401.583" cy="260.079" r="4" fill="#0" id="circle49"/>
	<circle cx="423.127" cy="260.04" r="4" fill="#0" id="circle50"/>
	<circle cx="444.671" cy="260.118" r="4" fill="#0" id="circle51"/>
	<circle cx="466.215" cy="260.099" r="4" fill="#0" id="circle52"/>
	<circle cx="487.759" cy="260.216" r="4" fill="#0" id="circle53"/>
	<circle cx="500.881" cy="495.867" r="4" fill="#0" id="circle54"/>
	<circle cx="500.979" cy="280.33" r="4" fill="#0" id="circle55"/>
	<circle cx="503.78" cy="408.771" r="4" fill="#0" id="circle56"/>
	<circle cx="499.51" cy="462.337" r="4" fill="#0" id="circle57"/>
	<circle cx="499.51" cy="529.515" r="4" fill="#0" id="circle58"/>
	<circle cx="502.056" cy="600.551" r="4" fill="#0" id="circle59"/>
	<circle cx="502.859" cy="328.765" r="4" fill="#0" id="circle60"/>
	<circle cx="500.901" cy="363.039" r="4" fill="#0" id="circle61"/>
	<circle cx="502.448" cy="561.988" r="4" fill="#0" id="circle62"/>
	<circle cx="506.091" cy="687.373" r="4" fill="#0" id="circle63"/>
	<circle cx="503.427" cy="261.195" r="4" fill="#0" id="circle64"/>
	<circle cx="502.448" cy="631.947" r="4" fill="#0" id="circle65"/>
	<circle cx="502.448" cy="309.18" r="4" fill="#0" id="circle66"/>
	<circle cx="503.427" cy="437.346" r="4" fill="#0" id="circle67"/>
	<circle cx="502.448" cy="546.163" r="4" fill="#0" id="circle68"/>
	<circle cx="505.386" cy="654.568" r="4" fill="#0" id="circle69"/>
	<circle cx="505.386" cy="383.604" r="4" fill="#0" id="circle70"/>
	<circle cx="528.888" cy="688.686" r="4" fill="#0" id="circle71"/>
	<circle cx="550.432" cy="688.431" r="4" fill="#0" id="circle72"/>
	<circle cx="573.328" cy="686.198" r="4" fill="#0" id="circle73"/>
	<circle cx="586.509" cy="610.462" r="4" fill="#0" id="circle74"/>
	<circle cx="592.208" cy="434.291" r="4" fill="#0" id="circle75"/>
	<circle cx="588.291" cy="503.917" r="4" fill="#0" id="circle76"/>
	<circle cx="587.077" cy="550.589" r="4" fill="#0" id="circle77"/>
	<circle cx="588.82" cy="469.388" r="4" fill="#0" id="circle78"/>
	<circle cx="588.213" cy="651.278" r="4" fill="#0" id="circle79"/>
	<circle cx="586.078" cy="683.26" r="4" fill="#0" id="circle80"/>
	<circle cx="588.624" cy="577.989" r="4" fill="#0" id="circle81"/>
	<circle cx="587.645" cy="530.494" r="4" fill="#0" id="circle82"/>
	<circle cx="613.106" cy="428.925" r="4" fill="#0" id="circle83"/>
	<circle cx="634.65" cy="429.963" r="4" fill="#0" id="circle84"/>
	<circle cx="656.193" cy="431.921" r="4" fill="#0" id="circle85"/>
	<circle cx="672.195" cy="12.0104" r="4" fill="#0" id="circle86"/>
	<circle cx="669.414" cy="87.375" r="4" fill="#0" id="circle87"/>
	<circle cx="669.316" cy="171.788" r="4" fill="#0" id="circle88"/>
	<circle cx="670.236" cy="206.356" r="4" fill="#0" id="circle89"/>
	<circle cx="669.903" cy="396.844" r="4" fill="#0" id="circle90"/>
	<circle cx="670.883" cy="41.6235" r="4" fill="#0" id="circle91"/>
	<circle cx="669.257" cy="59.1329" r="4" fill="#0" id="circle92"/>
	<circle cx="672.508" cy="121.081" r="4" fill="#0" id="circle93"/>
	<circle cx="666.965" cy="144.662" r="4" fill="#0" id="circle94"/>
	<circle cx="669.903" cy="232.992" r="4" fill="#0" id="circle95"/>
	<circle cx="672.606" cy="275.277" r="4" fill="#0" id="circle96"/>
	<circle cx="668.336" cy="304.224" r="4" fill="#0" id="circle97"/>
	<circle cx="670.765" cy="345.53" r="4" fill="#0" id="circle98"/>
	<circle cx="667.945" cy="252.382" r="4" fill="#0" id="circle99"/>
	<circle cx="667.945" cy="317.014" r="4" fill="#0" id="circle100"/>
	<circle cx="670.55" cy="430.276" r="4" fill="#0" id="circle101"/>
	<circle cx="673.82" cy="367.603" r="4" fill="#0" id="circle102"/>
	<circle cx="693.406" cy="7.03574" r="4" fill="#0" id="circle103"/>
	<circle cx="714.95" cy="4" r="4" fill="#0" id="circle104"/>
	<circle cx="736.827" cy="4.37212" r="4" fill="#0" id="circle105"/>
	<circle cx="752.945" cy="26.817" r="4" fill="#0" id="circle106"/>
	<circle cx="749.557" cy="59.0937" r="4" fill="#0" id="circle107"/>
	<circle cx="748.813" cy="85.2598" r="4" fill="#0" id="circle108"/>
	<circle cx="753.474" cy="122.942" r="4" fill="#0" id="circle109"/>
	<circle cx="755.158" cy="175.529" r="4" fill="#0" id="circle110"/>
	<circle cx="749.224" cy="151.517" r="4" fill="#0" id="circle111"/>
	<circle cx="754.12" cy="6.91822" r="4" fill="#0" id="circle112"/>
	<circle cx="777.623" cy="175.666" r="4" fill="#0" id="circle113"/>
	<circle cx="799.167" cy="176.038" r="4" fill="#0" id="circle114"/>
	<circle cx="820.711" cy="174.138" r="4" fill="#0" id="circle115"/>
	<circle cx="838.338" cy="174.55" r="4" fill="#0" id="circle116"/>
	<circle cx="841.51" cy="509.93" r="4" fill="#0" id="circle117"/>
	<circle cx="839.65" cy="235.01" r="4" fill="#0" id="circle118"/>
	<circle cx="841.863" cy="196.368" r="4" fill="#0" id="circle119"/>
	<circle cx="839.807" cy="270.263" r="4" fill="#0" id="circle120"/>
	<circle cx="841.275" cy="292.042" r="4" fill="#0" id="circle121"/>
	<circle cx="837.358" cy="307.221" r="4" fill="#0" id="circle122"/>
	<circle cx="838.338" cy="328.765" r="4" fill="#0" id="circle123"/>
	<circle cx="842.646" cy="353.443" r="4" fill="#0" id="circle124"/>
	<circle cx="840.296" cy="377.337" r="4" fill="#0" id="circle125"/>
	<circle cx="842.255" cy="399.605" r="4" fill="#0" id="circle126"/>
	<circle cx="841.275" cy="420.816" r="4" fill="#0" id="circle127"/>
	<circle cx="839.317" cy="438.698" r="4" fill="#0" id="circle128"/>
	<circle cx="841.863" cy="459.204" r="4" fill="#0" id="circle129"/>
	<circle cx="841.08" cy="484.332" r="4" fill="#0" id="circle130"/>
	<circle cx="863.799" cy="513.631" r="4" fill="#0" id="circle131"/>
	<circle cx="885.343" cy="514.65" r="4" fill="#0" id="circle132"/>
	<circle cx="906.886" cy="516.883" r="4" fill="#0" id="circle133"/>
	<circle cx="925.493" cy="521.975" r="4" fill="#0" id="circle134"/>
	<circle cx="927.725" cy="560.323" r="4" fill="#0" id="circle135"/>
	<circle cx="924.513" cy="592.717" r="4" fill="#0" id="circle136"/>
	<circle cx="926.687" cy="624.132" r="4" fill="#0" id="circle137"/>
	<circle cx="926.805" cy="658.328" r="4" fill="#0" id="circle138"/>
	<circle cx="931.603" cy="686.198" r="4" fill="#0" id="circle139"/>
	<circle cx="953.891" cy="685.748" r="4" fill="#0" id="circle140"/>
	<circle cx="975.435" cy="683.084" r="4" fill="#0" id="circle141"/>
	<circle cx="996" cy="681.4" r="4" fill="#0" id="circle142"/>
	</g>
</svg>