<?xml version="1.0" encoding="UTF-8" standalone="no"?>
<!-- Created with CurveBenchmark -->
<svg
	xmlns:dc="http://purl.org/dc/elements/1.1/"
	xmlns:cc="http://creativecommons.org/ns#"
	xmlns:rdf="http://www.w3.org/1999/02/22-rdf-syntax-ns#"
	xmlns:svg="http://www.w3.org/2000/svg"
	xmlns="http://www.w3.org/2000/svg"
	xmlns:sodipodi="http://sodipodi.sourceforge.net/DTD/sodipodi-0.dtd"
	xmlns:inkscape="http://www.inkscape.org/namespaces/inkscape"
	width="1000"
	height="1000"
	id="svg2"
	version="1.1"
	sodipodi:docname="mc22">
<defs
	id="defs4" />
<metadata
	id="metadata7">
	<rdf:RDF>
		<cc:Work
			rdf:about="">
			<dc:format>image/svg+xml</dc:format>
			<dc:type
				rdf:resource="http://purl.org/dc/dcmitype/StillImage" />
			<dc:title></dc:title>
		</cc:Work>
	</rdf:RDF>
</metadata>
<g
	inkscape:label="Layer 1"
	inkscape:groupmode="layer"
	id="layer1">
	<path style="fill:none;stroke:#000000;stroke-width:1px;stroke-linecap:butt;stroke-linejoin:miter;stroke-opacity:1" d="M 4,819.785 24.5413,752.292 z" id="boundary" inkscape:connector-curvature="0" />
	<path style="fill:none;stroke:#000000;stroke-width:1px;stroke-linecap:butt;stroke-linejoin:miter;stroke-opacity:1" d="M 4,819.785 36.2792,878.474 z" id="boundary" inkscape:connector-curvature="0" />
	<path style="fill:none;stroke:#000000;stroke-width:1px;stroke-linecap:butt;stroke-linejoin:miter;stroke-opacity:1" d="M 24.5413,752.292 68.5585,687.733 z" id="boundary" inkscape:connector-curvature="0" />
	<path style="fill:none;stroke:#000000;stroke-width:1px;stroke-linecap:butt;stroke-linejoin:miter;stroke-opacity:1" d="M 36.2792,878.474 102.305,900.483 z" id="boundary" inkscape:connector-curvature="0" />
	<path style="fill:none;stroke:#000000;stroke-width:1px;stroke-linecap:butt;stroke-linejoin:miter;stroke-opacity:1" d="M 56.8206,127.248 71.493,65.624 z" id="boundary" inkscape:connector-curvature="0" />
	<path style="fill:none;stroke:#000000;stroke-width:1px;stroke-linecap:butt;stroke-linejoin:miter;stroke-opacity:1" d="M 56.8206,127.248 105.239,152.191 z" id="boundary" inkscape:connector-curvature="0" />
	<path style="fill:none;stroke:#000000;stroke-width:1px;stroke-linecap:butt;stroke-linejoin:miter;stroke-opacity:1" d="M 68.5585,687.733 96.2893,651.727 z" id="boundary" inkscape:connector-curvature="0" />
	<path style="fill:none;stroke:#000000;stroke-width:1px;stroke-linecap:butt;stroke-linejoin:miter;stroke-opacity:1" d="M 71.493,65.624 107.763,26.214 z" id="boundary" inkscape:connector-curvature="0" />
	<path style="fill:none;stroke:#000000;stroke-width:1px;stroke-linecap:butt;stroke-linejoin:miter;stroke-opacity:1" d="M 102.305,900.483 197.675,922.491 z" id="boundary" inkscape:connector-curvature="0" />
	<path style="fill:none;stroke:#000000;stroke-width:1px;stroke-linecap:butt;stroke-linejoin:miter;stroke-opacity:1" d="M 105.239,152.191 150.46,162.491 z" id="boundary" inkscape:connector-curvature="0" />
	<path style="fill:none;stroke:#000000;stroke-width:1px;stroke-linecap:butt;stroke-linejoin:miter;stroke-opacity:1" d="M 138.986,593.096 175.667,538.574 z" id="boundary" inkscape:connector-curvature="0" />
	<path style="fill:none;stroke:#000000;stroke-width:1px;stroke-linecap:butt;stroke-linejoin:miter;stroke-opacity:1" d="M 138.986,593.096 109.406,635.323 z" id="boundary" inkscape:connector-curvature="0" />
	<path style="fill:none;stroke:#000000;stroke-width:1px;stroke-linecap:butt;stroke-linejoin:miter;stroke-opacity:1" d="M 171.265,658.388 200.61,618.773 z" id="boundary" inkscape:connector-curvature="0" />
	<path style="fill:none;stroke:#000000;stroke-width:1px;stroke-linecap:butt;stroke-linejoin:miter;stroke-opacity:1" d="M 175.667,538.574 197.675,466.18 z" id="boundary" inkscape:connector-curvature="0" />
	<path style="fill:none;stroke:#000000;stroke-width:1px;stroke-linecap:butt;stroke-linejoin:miter;stroke-opacity:1" d="M 178.601,815.383 246.094,852.064 z" id="boundary" inkscape:connector-curvature="0" />
	<path style="fill:none;stroke:#000000;stroke-width:1px;stroke-linecap:butt;stroke-linejoin:miter;stroke-opacity:1" d="M 178.601,815.383 183.297,750.238 z" id="boundary" inkscape:connector-curvature="0" />
	<path style="fill:none;stroke:#000000;stroke-width:1px;stroke-linecap:butt;stroke-linejoin:miter;stroke-opacity:1" d="M 197.675,466.18 219.684,408.459 z" id="boundary" inkscape:connector-curvature="0" />
	<path style="fill:none;stroke:#000000;stroke-width:1px;stroke-linecap:butt;stroke-linejoin:miter;stroke-opacity:1" d="M 197.675,922.491 347.334,915.155 z" id="boundary" inkscape:connector-curvature="0" />
	<path style="fill:none;stroke:#000000;stroke-width:1px;stroke-linecap:butt;stroke-linejoin:miter;stroke-opacity:1" d="M 200.61,618.773 297.448,605.568 z" id="boundary" inkscape:connector-curvature="0" />
	<path style="fill:none;stroke:#000000;stroke-width:1px;stroke-linecap:butt;stroke-linejoin:miter;stroke-opacity:1" d="M 219.684,408.459 235.824,329.727 z" id="boundary" inkscape:connector-curvature="0" />
	<path style="fill:none;stroke:#000000;stroke-width:1px;stroke-linecap:butt;stroke-linejoin:miter;stroke-opacity:1" d="M 234.356,718.545 189.87,727.261 z" id="boundary" inkscape:connector-curvature="0" />
	<path style="fill:none;stroke:#000000;stroke-width:1px;stroke-linecap:butt;stroke-linejoin:miter;stroke-opacity:1" d="M 234.356,718.545 288.38,705.927 z" id="boundary" inkscape:connector-curvature="0" />
	<path style="fill:none;stroke:#000000;stroke-width:1px;stroke-linecap:butt;stroke-linejoin:miter;stroke-opacity:1" d="M 235.824,329.727 246.094,289.613 z" id="boundary" inkscape:connector-curvature="0" />
	<path style="fill:none;stroke:#000000;stroke-width:1px;stroke-linecap:butt;stroke-linejoin:miter;stroke-opacity:1" d="M 246.094,289.613 262.087,234.709 z" id="boundary" inkscape:connector-curvature="0" />
	<path style="fill:none;stroke:#000000;stroke-width:1px;stroke-linecap:butt;stroke-linejoin:miter;stroke-opacity:1" d="M 246.094,852.064 308.071,848.748 z" id="boundary" inkscape:connector-curvature="0" />
	<path style="fill:none;stroke:#000000;stroke-width:1px;stroke-linecap:butt;stroke-linejoin:miter;stroke-opacity:1" d="M 297.448,605.568 360.539,630.012 z" id="boundary" inkscape:connector-curvature="0" />
	<path style="fill:none;stroke:#000000;stroke-width:1px;stroke-linecap:butt;stroke-linejoin:miter;stroke-opacity:1" d="M 307.718,273.972 323.858,317.989 z" id="boundary" inkscape:connector-curvature="0" />
	<path style="fill:none;stroke:#000000;stroke-width:1px;stroke-linecap:butt;stroke-linejoin:miter;stroke-opacity:1" d="M 307.718,273.972 296.567,242.925 z" id="boundary" inkscape:connector-curvature="0" />
	<path style="fill:none;stroke:#000000;stroke-width:1px;stroke-linecap:butt;stroke-linejoin:miter;stroke-opacity:1" d="M 323.858,317.989 359.072,419.229 z" id="boundary" inkscape:connector-curvature="0" />
	<path style="fill:none;stroke:#000000;stroke-width:1px;stroke-linecap:butt;stroke-linejoin:miter;stroke-opacity:1" d="M 347.334,915.155 546.878,854.998 z" id="boundary" inkscape:connector-curvature="0" />
	<path style="fill:none;stroke:#000000;stroke-width:1px;stroke-linecap:butt;stroke-linejoin:miter;stroke-opacity:1" d="M 356.137,711.209 385.482,746.423 z" id="boundary" inkscape:connector-curvature="0" />
	<path style="fill:none;stroke:#000000;stroke-width:1px;stroke-linecap:butt;stroke-linejoin:miter;stroke-opacity:1" d="M 356.137,711.209 314.644,707.57 z" id="boundary" inkscape:connector-curvature="0" />
	<path style="fill:none;stroke:#000000;stroke-width:1px;stroke-linecap:butt;stroke-linejoin:miter;stroke-opacity:1" d="M 359.072,419.229 370.81,457.377 z" id="boundary" inkscape:connector-curvature="0" />
	<path style="fill:none;stroke:#000000;stroke-width:1px;stroke-linecap:butt;stroke-linejoin:miter;stroke-opacity:1" d="M 360.539,630.012 401.622,653.987 z" id="boundary" inkscape:connector-curvature="0" />
	<path style="fill:none;stroke:#000000;stroke-width:1px;stroke-linecap:butt;stroke-linejoin:miter;stroke-opacity:1" d="M 370.81,457.377 391.351,505.796 z" id="boundary" inkscape:connector-curvature="0" />
	<path style="fill:none;stroke:#000000;stroke-width:1px;stroke-linecap:butt;stroke-linejoin:miter;stroke-opacity:1" d="M 385.482,746.423 408.958,799.243 z" id="boundary" inkscape:connector-curvature="0" />
	<path style="fill:none;stroke:#000000;stroke-width:1px;stroke-linecap:butt;stroke-linejoin:miter;stroke-opacity:1" d="M 388.417,835.191 408.958,799.243 z" id="boundary" inkscape:connector-curvature="0" />
	<path style="fill:none;stroke:#000000;stroke-width:1px;stroke-linecap:butt;stroke-linejoin:miter;stroke-opacity:1" d="M 388.417,835.191 331.047,843.818 z" id="boundary" inkscape:connector-curvature="0" />
	<path style="fill:none;stroke:#000000;stroke-width:1px;stroke-linecap:butt;stroke-linejoin:miter;stroke-opacity:1" d="M 391.351,505.796 417.761,582.092 z" id="boundary" inkscape:connector-curvature="0" />
	<path style="fill:none;stroke:#000000;stroke-width:1px;stroke-linecap:butt;stroke-linejoin:miter;stroke-opacity:1" d="M 417.761,582.092 431.201,613.96 z" id="boundary" inkscape:connector-curvature="0" />
	<path style="fill:none;stroke:#000000;stroke-width:1px;stroke-linecap:butt;stroke-linejoin:miter;stroke-opacity:1" d="M 476.451,651.052 538.075,685.532 z" id="boundary" inkscape:connector-curvature="0" />
	<path style="fill:none;stroke:#000000;stroke-width:1px;stroke-linecap:butt;stroke-linejoin:miter;stroke-opacity:1" d="M 476.451,651.052 444.348,632.037 z" id="boundary" inkscape:connector-curvature="0" />
	<path style="fill:none;stroke:#000000;stroke-width:1px;stroke-linecap:butt;stroke-linejoin:miter;stroke-opacity:1" d="M 538.075,685.532 579.158,731.75 z" id="boundary" inkscape:connector-curvature="0" />
	<path style="fill:none;stroke:#000000;stroke-width:1px;stroke-linecap:butt;stroke-linejoin:miter;stroke-opacity:1" d="M 546.878,435.368 514.951,412.039 z" id="boundary" inkscape:connector-curvature="0" />
	<path style="fill:none;stroke:#000000;stroke-width:1px;stroke-linecap:butt;stroke-linejoin:miter;stroke-opacity:1" d="M 546.878,435.368 551.045,477.713 z" id="boundary" inkscape:connector-curvature="0" />
	<path style="fill:none;stroke:#000000;stroke-width:1px;stroke-linecap:butt;stroke-linejoin:miter;stroke-opacity:1" d="M 546.878,854.998 587.961,796.309 z" id="boundary" inkscape:connector-curvature="0" />
	<path style="fill:none;stroke:#000000;stroke-width:1px;stroke-linecap:butt;stroke-linejoin:miter;stroke-opacity:1" d="M 579.158,394.285 587.961,350.268 z" id="boundary" inkscape:connector-curvature="0" />
	<path style="fill:none;stroke:#000000;stroke-width:1px;stroke-linecap:butt;stroke-linejoin:miter;stroke-opacity:1" d="M 579.158,520.468 631.978,508.73 z" id="boundary" inkscape:connector-curvature="0" />
	<path style="fill:none;stroke:#000000;stroke-width:1px;stroke-linecap:butt;stroke-linejoin:miter;stroke-opacity:1" d="M 579.158,520.468 546.145,502.333 z" id="boundary" inkscape:connector-curvature="0" />
	<path style="fill:none;stroke:#000000;stroke-width:1px;stroke-linecap:butt;stroke-linejoin:miter;stroke-opacity:1" d="M 579.158,731.75 587.961,796.309 z" id="boundary" inkscape:connector-curvature="0" />
	<path style="fill:none;stroke:#000000;stroke-width:1px;stroke-linecap:butt;stroke-linejoin:miter;stroke-opacity:1" d="M 587.961,350.268 641.368,321.745 z" id="boundary" inkscape:connector-curvature="0" />
	<path style="fill:none;stroke:#000000;stroke-width:1px;stroke-linecap:butt;stroke-linejoin:miter;stroke-opacity:1" d="M 631.978,218.217 673.061,250.496 z" id="boundary" inkscape:connector-curvature="0" />
	<path style="fill:none;stroke:#000000;stroke-width:1px;stroke-linecap:butt;stroke-linejoin:miter;stroke-opacity:1" d="M 631.978,508.73 686.266,479.884 z" id="boundary" inkscape:connector-curvature="0" />
	<path style="fill:none;stroke:#000000;stroke-width:1px;stroke-linecap:butt;stroke-linejoin:miter;stroke-opacity:1" d="M 671.594,317.989 713.586,285.622 z" id="boundary" inkscape:connector-curvature="0" />
	<path style="fill:none;stroke:#000000;stroke-width:1px;stroke-linecap:butt;stroke-linejoin:miter;stroke-opacity:1" d="M 671.594,317.989 641.368,321.745 z" id="boundary" inkscape:connector-curvature="0" />
	<path style="fill:none;stroke:#000000;stroke-width:1px;stroke-linecap:butt;stroke-linejoin:miter;stroke-opacity:1" d="M 686.266,479.884 728.816,457.377 z" id="boundary" inkscape:connector-curvature="0" />
	<path style="fill:none;stroke:#000000;stroke-width:1px;stroke-linecap:butt;stroke-linejoin:miter;stroke-opacity:1" d="M 728.816,457.377 784.189,379.202 z" id="boundary" inkscape:connector-curvature="0" />
	<path style="fill:none;stroke:#000000;stroke-width:1px;stroke-linecap:butt;stroke-linejoin:miter;stroke-opacity:1" d="M 744.955,282.775 802.178,295.98 z" id="boundary" inkscape:connector-curvature="0" />
	<path style="fill:none;stroke:#000000;stroke-width:1px;stroke-linecap:butt;stroke-linejoin:miter;stroke-opacity:1" d="M 744.955,282.775 713.586,285.622 z" id="boundary" inkscape:connector-curvature="0" />
	<path style="fill:none;stroke:#000000;stroke-width:1px;stroke-linecap:butt;stroke-linejoin:miter;stroke-opacity:1" d="M 802.178,295.98 803.909,348.009 z" id="boundary" inkscape:connector-curvature="0" />
	<path style="fill:none;stroke:#000000;stroke-width:1px;stroke-linecap:butt;stroke-linejoin:miter;stroke-opacity:1" d="M 817.026,766.671 838.36,748.594 z" id="boundary" inkscape:connector-curvature="0" />
	<path style="fill:none;stroke:#000000;stroke-width:1px;stroke-linecap:butt;stroke-linejoin:miter;stroke-opacity:1" d="M 838.36,748.594 858.08,758.454 z" id="boundary" inkscape:connector-curvature="0" />
	<path style="fill:none;stroke:#000000;stroke-width:1px;stroke-linecap:butt;stroke-linejoin:miter;stroke-opacity:1" d="M 858.08,758.454 859.723,786.361 z" id="boundary" inkscape:connector-curvature="0" />
	<path style="fill:none;stroke:#000000;stroke-width:1px;stroke-linecap:butt;stroke-linejoin:miter;stroke-opacity:1" d="M 859.723,786.361 835.103,824.128 z" id="boundary" inkscape:connector-curvature="0" />
	<path style="fill:none;stroke:#000000;stroke-width:1px;stroke-linecap:butt;stroke-linejoin:miter;stroke-opacity:1" d="M 835.103,824.128 825.243,853.678 z" id="boundary" inkscape:connector-curvature="0" />
	<path style="fill:none;stroke:#000000;stroke-width:1px;stroke-linecap:butt;stroke-linejoin:miter;stroke-opacity:1" d="M 996,623.82 972.994,595.913 z" id="boundary" inkscape:connector-curvature="0" />
	<path style="fill:none;stroke:#000000;stroke-width:1px;stroke-linecap:butt;stroke-linejoin:miter;stroke-opacity:1" d="M 972.994,595.913 964.777,582.767 z" id="boundary" inkscape:connector-curvature="0" />
	<path style="fill:none;stroke:#000000;stroke-width:1px;stroke-linecap:butt;stroke-linejoin:miter;stroke-opacity:1" d="M 964.777,582.767 945.087,554.86 z" id="boundary" inkscape:connector-curvature="0" />
	<path style="fill:none;stroke:#000000;stroke-width:1px;stroke-linecap:butt;stroke-linejoin:miter;stroke-opacity:1" d="M 945.087,554.86 922.11,536.813 z" id="boundary" inkscape:connector-curvature="0" />
	<path style="fill:none;stroke:#000000;stroke-width:1px;stroke-linecap:butt;stroke-linejoin:miter;stroke-opacity:1" d="M 922.11,536.813 897.49,533.526 z" id="boundary" inkscape:connector-curvature="0" />
	<path style="fill:none;stroke:#000000;stroke-width:1px;stroke-linecap:butt;stroke-linejoin:miter;stroke-opacity:1" d="M 897.49,533.526 885.986,558.147 z" id="boundary" inkscape:connector-curvature="0" />
	<path style="fill:none;stroke:#000000;stroke-width:1px;stroke-linecap:butt;stroke-linejoin:miter;stroke-opacity:1" d="M 885.986,558.147 900.747,586.054 z" id="boundary" inkscape:connector-curvature="0" />
	<path style="fill:none;stroke:#000000;stroke-width:1px;stroke-linecap:butt;stroke-linejoin:miter;stroke-opacity:1" d="M 107.763,26.214 150.46,62.3374 z" id="boundary" inkscape:connector-curvature="0" />
	<path style="fill:none;stroke:#000000;stroke-width:1px;stroke-linecap:butt;stroke-linejoin:miter;stroke-opacity:1" d="M 150.46,162.491 175.08,134.584 z" id="boundary" inkscape:connector-curvature="0" />
	<path style="fill:none;stroke:#000000;stroke-width:1px;stroke-linecap:butt;stroke-linejoin:miter;stroke-opacity:1" d="M 175.08,134.584 181.653,103.361 z" id="boundary" inkscape:connector-curvature="0" />
	<path style="fill:none;stroke:#000000;stroke-width:1px;stroke-linecap:butt;stroke-linejoin:miter;stroke-opacity:1" d="M 181.653,103.361 180.01,82.0277 z" id="boundary" inkscape:connector-curvature="0" />
	<path style="fill:none;stroke:#000000;stroke-width:1px;stroke-linecap:butt;stroke-linejoin:miter;stroke-opacity:1" d="M 180.01,82.0277 150.46,62.3374 z" id="boundary" inkscape:connector-curvature="0" />
	<path style="fill:none;stroke:#000000;stroke-width:1px;stroke-linecap:butt;stroke-linejoin:miter;stroke-opacity:1" d="M 119.266,62.3374 106.12,82.0277 z" id="boundary" inkscape:connector-curvature="0" />
	<path style="fill:none;stroke:#000000;stroke-width:1px;stroke-linecap:butt;stroke-linejoin:miter;stroke-opacity:1" d="M 119.266,62.3374 134.056,85.3144 z" id="boundary" inkscape:connector-curvature="0" />
	<path style="fill:none;stroke:#000000;stroke-width:1px;stroke-linecap:butt;stroke-linejoin:miter;stroke-opacity:1" d="M 106.12,82.0277 97.9326,96.8175 z" id="boundary" inkscape:connector-curvature="0" />
	<path style="fill:none;stroke:#000000;stroke-width:1px;stroke-linecap:butt;stroke-linejoin:miter;stroke-opacity:1" d="M 97.9326,96.8175 106.12,113.221 z" id="boundary" inkscape:connector-curvature="0" />
	<path style="fill:none;stroke:#000000;stroke-width:1px;stroke-linecap:butt;stroke-linejoin:miter;stroke-opacity:1" d="M 106.12,113.221 122.553,116.508 z" id="boundary" inkscape:connector-curvature="0" />
	<path style="fill:none;stroke:#000000;stroke-width:1px;stroke-linecap:butt;stroke-linejoin:miter;stroke-opacity:1" d="M 122.553,116.508 147.173,103.361 z" id="boundary" inkscape:connector-curvature="0" />
	<path style="fill:none;stroke:#000000;stroke-width:1px;stroke-linecap:butt;stroke-linejoin:miter;stroke-opacity:1" d="M 147.173,103.361 134.056,85.3144 z" id="boundary" inkscape:connector-curvature="0" />
	<path style="fill:none;stroke:#000000;stroke-width:1px;stroke-linecap:butt;stroke-linejoin:miter;stroke-opacity:1" d="M 281.807,169.035 285.094,193.685 z" id="boundary" inkscape:connector-curvature="0" />
	<path style="fill:none;stroke:#000000;stroke-width:1px;stroke-linecap:butt;stroke-linejoin:miter;stroke-opacity:1" d="M 281.807,169.035 262.087,234.709 z" id="boundary" inkscape:connector-curvature="0" />
	<path style="fill:none;stroke:#000000;stroke-width:1px;stroke-linecap:butt;stroke-linejoin:miter;stroke-opacity:1" d="M 285.094,193.685 291.667,221.591 z" id="boundary" inkscape:connector-curvature="0" />
	<path style="fill:none;stroke:#000000;stroke-width:1px;stroke-linecap:butt;stroke-linejoin:miter;stroke-opacity:1" d="M 291.667,221.591 296.567,242.925 z" id="boundary" inkscape:connector-curvature="0" />
	<path style="fill:none;stroke:#000000;stroke-width:1px;stroke-linecap:butt;stroke-linejoin:miter;stroke-opacity:1" d="M 109.406,635.323 96.2893,651.727 z" id="boundary" inkscape:connector-curvature="0" />
	<path style="fill:none;stroke:#000000;stroke-width:1px;stroke-linecap:butt;stroke-linejoin:miter;stroke-opacity:1" d="M 431.201,613.96 444.348,632.037 z" id="boundary" inkscape:connector-curvature="0" />
	<path style="fill:none;stroke:#000000;stroke-width:1px;stroke-linecap:butt;stroke-linejoin:miter;stroke-opacity:1" d="M 308.071,848.748 331.047,843.818 z" id="boundary" inkscape:connector-curvature="0" />
	<path style="fill:none;stroke:#000000;stroke-width:1px;stroke-linecap:butt;stroke-linejoin:miter;stroke-opacity:1" d="M 183.297,750.238 189.87,727.261 z" id="boundary" inkscape:connector-curvature="0" />
	<path style="fill:none;stroke:#000000;stroke-width:1px;stroke-linecap:butt;stroke-linejoin:miter;stroke-opacity:1" d="M 288.38,705.927 314.644,707.57 z" id="boundary" inkscape:connector-curvature="0" />
	<path style="fill:none;stroke:#000000;stroke-width:1px;stroke-linecap:butt;stroke-linejoin:miter;stroke-opacity:1" d="M 245.684,776.501 244.04,789.648 z" id="boundary" inkscape:connector-curvature="0" />
	<path style="fill:none;stroke:#000000;stroke-width:1px;stroke-linecap:butt;stroke-linejoin:miter;stroke-opacity:1" d="M 244.04,789.648 281.807,802.794 z" id="boundary" inkscape:connector-curvature="0" />
	<path style="fill:none;stroke:#000000;stroke-width:1px;stroke-linecap:butt;stroke-linejoin:miter;stroke-opacity:1" d="M 281.807,802.794 306.427,806.051 z" id="boundary" inkscape:connector-curvature="0" />
	<path style="fill:none;stroke:#000000;stroke-width:1px;stroke-linecap:butt;stroke-linejoin:miter;stroke-opacity:1" d="M 306.427,806.051 326.118,791.291 z" id="boundary" inkscape:connector-curvature="0" />
	<path style="fill:none;stroke:#000000;stroke-width:1px;stroke-linecap:butt;stroke-linejoin:miter;stroke-opacity:1" d="M 326.118,791.291 321.217,774.858 z" id="boundary" inkscape:connector-curvature="0" />
	<path style="fill:none;stroke:#000000;stroke-width:1px;stroke-linecap:butt;stroke-linejoin:miter;stroke-opacity:1" d="M 487.015,336.506 496.875,362.769 z" id="boundary" inkscape:connector-curvature="0" />
	<path style="fill:none;stroke:#000000;stroke-width:1px;stroke-linecap:butt;stroke-linejoin:miter;stroke-opacity:1" d="M 496.875,362.769 514.951,412.039 z" id="boundary" inkscape:connector-curvature="0" />
	<path style="fill:none;stroke:#000000;stroke-width:1px;stroke-linecap:butt;stroke-linejoin:miter;stroke-opacity:1" d="M 551.045,477.713 546.145,502.333 z" id="boundary" inkscape:connector-curvature="0" />
	<path style="fill:none;stroke:#000000;stroke-width:1px;stroke-linecap:butt;stroke-linejoin:miter;stroke-opacity:1" d="M 784.189,379.202 803.909,348.009 z" id="boundary" inkscape:connector-curvature="0" />
	<path style="fill:none;stroke:#000000;stroke-width:1px;stroke-linecap:butt;stroke-linejoin:miter;stroke-opacity:1" d="M 628.222,405.466 656.129,415.326 z" id="boundary" inkscape:connector-curvature="0" />
	<path style="fill:none;stroke:#000000;stroke-width:1px;stroke-linecap:butt;stroke-linejoin:miter;stroke-opacity:1" d="M 628.222,405.466 628.222,379.202 z" id="boundary" inkscape:connector-curvature="0" />
	<path style="fill:none;stroke:#000000;stroke-width:1px;stroke-linecap:butt;stroke-linejoin:miter;stroke-opacity:1" d="M 656.129,415.326 674.205,398.893 z" id="boundary" inkscape:connector-curvature="0" />
	<path style="fill:none;stroke:#000000;stroke-width:1px;stroke-linecap:butt;stroke-linejoin:miter;stroke-opacity:1" d="M 674.205,398.893 670.919,375.916 z" id="boundary" inkscape:connector-curvature="0" />
	<path style="fill:none;stroke:#000000;stroke-width:1px;stroke-linecap:butt;stroke-linejoin:miter;stroke-opacity:1" d="M 670.919,375.916 649.556,369.342 z" id="boundary" inkscape:connector-curvature="0" />
	<path style="fill:none;stroke:#000000;stroke-width:1px;stroke-linecap:butt;stroke-linejoin:miter;stroke-opacity:1" d="M 649.556,369.342 628.222,379.202 z" id="boundary" inkscape:connector-curvature="0" />
	<circle cx="4" cy="819.785" r="4" fill="#0" id="circle0"/>
	<circle cx="24.5413" cy="752.292" r="4" fill="#0" id="circle1"/>
	<circle cx="36.2792" cy="878.474" r="4" fill="#0" id="circle2"/>
	<circle cx="56.8206" cy="127.248" r="4" fill="#0" id="circle3"/>
	<circle cx="68.5585" cy="687.733" r="4" fill="#0" id="circle4"/>
	<circle cx="71.493" cy="65.624" r="4" fill="#0" id="circle5"/>
	<circle cx="102.305" cy="900.483" r="4" fill="#0" id="circle6"/>
	<circle cx="105.239" cy="152.191" r="4" fill="#0" id="circle7"/>
	<circle cx="138.986" cy="593.096" r="4" fill="#0" id="circle8"/>
	<circle cx="171.265" cy="658.388" r="4" fill="#0" id="circle9"/>
	<circle cx="175.667" cy="538.574" r="4" fill="#0" id="circle10"/>
	<circle cx="178.601" cy="815.383" r="4" fill="#0" id="circle11"/>
	<circle cx="197.675" cy="466.18" r="4" fill="#0" id="circle12"/>
	<circle cx="197.675" cy="922.491" r="4" fill="#0" id="circle13"/>
	<circle cx="200.61" cy="618.773" r="4" fill="#0" id="circle14"/>
	<circle cx="219.684" cy="408.459" r="4" fill="#0" id="circle15"/>
	<circle cx="234.356" cy="718.545" r="4" fill="#0" id="circle16"/>
	<circle cx="235.824" cy="329.727" r="4" fill="#0" id="circle17"/>
	<circle cx="246.094" cy="289.613" r="4" fill="#0" id="circle18"/>
	<circle cx="246.094" cy="852.064" r="4" fill="#0" id="circle19"/>
	<circle cx="297.448" cy="605.568" r="4" fill="#0" id="circle20"/>
	<circle cx="307.718" cy="273.972" r="4" fill="#0" id="circle21"/>
	<circle cx="323.858" cy="317.989" r="4" fill="#0" id="circle22"/>
	<circle cx="347.334" cy="915.155" r="4" fill="#0" id="circle23"/>
	<circle cx="356.137" cy="711.209" r="4" fill="#0" id="circle24"/>
	<circle cx="359.072" cy="419.229" r="4" fill="#0" id="circle25"/>
	<circle cx="360.539" cy="630.012" r="4" fill="#0" id="circle26"/>
	<circle cx="370.81" cy="457.377" r="4" fill="#0" id="circle27"/>
	<circle cx="385.482" cy="746.423" r="4" fill="#0" id="circle28"/>
	<circle cx="388.417" cy="835.191" r="4" fill="#0" id="circle29"/>
	<circle cx="391.351" cy="505.796" r="4" fill="#0" id="circle30"/>
	<circle cx="401.622" cy="653.987" r="4" fill="#0" id="circle31"/>
	<circle cx="408.958" cy="799.243" r="4" fill="#0" id="circle32"/>
	<circle cx="417.761" cy="582.092" r="4" fill="#0" id="circle33"/>
	<circle cx="447.106" cy="4" r="4" fill="#0" id="circle34"/>
	<circle cx="476.451" cy="651.052" r="4" fill="#0" id="circle35"/>
	<circle cx="538.075" cy="685.532" r="4" fill="#0" id="circle36"/>
	<circle cx="546.878" cy="435.368" r="4" fill="#0" id="circle37"/>
	<circle cx="546.878" cy="854.998" r="4" fill="#0" id="circle38"/>
	<circle cx="579.158" cy="394.285" r="4" fill="#0" id="circle39"/>
	<circle cx="579.158" cy="520.468" r="4" fill="#0" id="circle40"/>
	<circle cx="579.158" cy="731.75" r="4" fill="#0" id="circle41"/>
	<circle cx="587.961" cy="350.268" r="4" fill="#0" id="circle42"/>
	<circle cx="587.961" cy="796.309" r="4" fill="#0" id="circle43"/>
	<circle cx="631.978" cy="218.217" r="4" fill="#0" id="circle44"/>
	<circle cx="631.978" cy="508.73" r="4" fill="#0" id="circle45"/>
	<circle cx="645.183" cy="620.24" r="4" fill="#0" id="circle46"/>
	<circle cx="673.061" cy="250.496" r="4" fill="#0" id="circle47"/>
	<circle cx="671.594" cy="317.989" r="4" fill="#0" id="circle48"/>
	<circle cx="686.266" cy="479.884" r="4" fill="#0" id="circle49"/>
	<circle cx="728.816" cy="457.377" r="4" fill="#0" id="circle50"/>
	<circle cx="744.955" cy="282.775" r="4" fill="#0" id="circle51"/>
	<circle cx="802.178" cy="295.98" r="4" fill="#0" id="circle52"/>
	<circle cx="817.026" cy="766.671" r="4" fill="#0" id="circle53"/>
	<circle cx="838.36" cy="748.594" r="4" fill="#0" id="circle54"/>
	<circle cx="858.08" cy="758.454" r="4" fill="#0" id="circle55"/>
	<circle cx="859.723" cy="786.361" r="4" fill="#0" id="circle56"/>
	<circle cx="835.103" cy="824.128" r="4" fill="#0" id="circle57"/>
	<circle cx="825.243" cy="853.678" r="4" fill="#0" id="circle58"/>
	<circle cx="996" cy="623.82" r="4" fill="#0" id="circle59"/>
	<circle cx="972.994" cy="595.913" r="4" fill="#0" id="circle60"/>
	<circle cx="964.777" cy="582.767" r="4" fill="#0" id="circle61"/>
	<circle cx="945.087" cy="554.86" r="4" fill="#0" id="circle62"/>
	<circle cx="922.11" cy="536.813" r="4" fill="#0" id="circle63"/>
	<circle cx="897.49" cy="533.526" r="4" fill="#0" id="circle64"/>
	<circle cx="885.986" cy="558.147" r="4" fill="#0" id="circle65"/>
	<circle cx="900.747" cy="586.054" r="4" fill="#0" id="circle66"/>
	<circle cx="107.763" cy="26.214" r="4" fill="#0" id="circle67"/>
	<circle cx="150.46" cy="162.491" r="4" fill="#0" id="circle68"/>
	<circle cx="175.08" cy="134.584" r="4" fill="#0" id="circle69"/>
	<circle cx="181.653" cy="103.361" r="4" fill="#0" id="circle70"/>
	<circle cx="180.01" cy="82.0277" r="4" fill="#0" id="circle71"/>
	<circle cx="150.46" cy="62.3374" r="4" fill="#0" id="circle72"/>
	<circle cx="119.266" cy="62.3374" r="4" fill="#0" id="circle73"/>
	<circle cx="106.12" cy="82.0277" r="4" fill="#0" id="circle74"/>
	<circle cx="97.9326" cy="96.8175" r="4" fill="#0" id="circle75"/>
	<circle cx="106.12" cy="113.221" r="4" fill="#0" id="circle76"/>
	<circle cx="122.553" cy="116.508" r="4" fill="#0" id="circle77"/>
	<circle cx="147.173" cy="103.361" r="4" fill="#0" id="circle78"/>
	<circle cx="134.056" cy="85.3144" r="4" fill="#0" id="circle79"/>
	<circle cx="76.5696" cy="471.139" r="4" fill="#0" id="circle80"/>
	<circle cx="281.807" cy="169.035" r="4" fill="#0" id="circle81"/>
	<circle cx="285.094" cy="193.685" r="4" fill="#0" id="circle82"/>
	<circle cx="291.667" cy="221.591" r="4" fill="#0" id="circle83"/>
	<circle cx="296.567" cy="242.925" r="4" fill="#0" id="circle84"/>
	<circle cx="262.087" cy="234.709" r="4" fill="#0" id="circle85"/>
	<circle cx="109.406" cy="635.323" r="4" fill="#0" id="circle86"/>
	<circle cx="96.2893" cy="651.727" r="4" fill="#0" id="circle87"/>
	<circle cx="431.201" cy="613.96" r="4" fill="#0" id="circle88"/>
	<circle cx="444.348" cy="632.037" r="4" fill="#0" id="circle89"/>
	<circle cx="308.071" cy="848.748" r="4" fill="#0" id="circle90"/>
	<circle cx="331.047" cy="843.818" r="4" fill="#0" id="circle91"/>
	<circle cx="183.297" cy="750.238" r="4" fill="#0" id="circle92"/>
	<circle cx="189.87" cy="727.261" r="4" fill="#0" id="circle93"/>
	<circle cx="288.38" cy="705.927" r="4" fill="#0" id="circle94"/>
	<circle cx="314.644" cy="707.57" r="4" fill="#0" id="circle95"/>
	<circle cx="245.684" cy="776.501" r="4" fill="#0" id="circle96"/>
	<circle cx="244.04" cy="789.648" r="4" fill="#0" id="circle97"/>
	<circle cx="281.807" cy="802.794" r="4" fill="#0" id="circle98"/>
	<circle cx="306.427" cy="806.051" r="4" fill="#0" id="circle99"/>
	<circle cx="326.118" cy="791.291" r="4" fill="#0" id="circle100"/>
	<circle cx="321.217" cy="774.858" r="4" fill="#0" id="circle101"/>
	<circle cx="487.015" cy="336.506" r="4" fill="#0" id="circle102"/>
	<circle cx="496.875" cy="362.769" r="4" fill="#0" id="circle103"/>
	<circle cx="514.951" cy="412.039" r="4" fill="#0" id="circle104"/>
	<circle cx="551.045" cy="477.713" r="4" fill="#0" id="circle105"/>
	<circle cx="546.145" cy="502.333" r="4" fill="#0" id="circle106"/>
	<circle cx="784.189" cy="379.202" r="4" fill="#0" id="circle107"/>
	<circle cx="803.909" cy="348.009" r="4" fill="#0" id="circle108"/>
	<circle cx="713.586" cy="285.622" r="4" fill="#0" id="circle109"/>
	<circle cx="641.368" cy="321.745" r="4" fill="#0" id="circle110"/>
	<circle cx="628.222" cy="405.466" r="4" fill="#0" id="circle111"/>
	<circle cx="656.129" cy="415.326" r="4" fill="#0" id="circle112"/>
	<circle cx="674.205" cy="398.893" r="4" fill="#0" id="circle113"/>
	<circle cx="670.919" cy="375.916" r="4" fill="#0" id="circle114"/>
	<circle cx="649.556" cy="369.342" r="4" fill="#0" id="circle115"/>
	<circle cx="628.222" cy="379.202" r="4" fill="#0" id="circle116"/>
	</g>
</svg>