<?xml version="1.0" encoding="UTF-8" standalone="no"?>
<!-- Created with CurveBenchmark -->
<svg
	xmlns:dc="http://purl.org/dc/elements/1.1/"
	xmlns:cc="http://creativecommons.org/ns#"
	xmlns:rdf="http://www.w3.org/1999/02/22-rdf-syntax-ns#"
	xmlns:svg="http://www.w3.org/2000/svg"
	xmlns="http://www.w3.org/2000/svg"
	xmlns:sodipodi="http://sodipodi.sourceforge.net/DTD/sodipodi-0.dtd"
	xmlns:inkscape="http://www.inkscape.org/namespaces/inkscape"
	width="1000"
	height="1000"
	id="svg2"
	version="1.1"
	sodipodi:docname="mc6">
<defs
	id="defs4" />
<metadata
	id="metadata7">
	<rdf:RDF>
		<cc:Work
			rdf:about="">
			<dc:format>image/svg+xml</dc:format>
			<dc:type
				rdf:resource="http://purl.org/dc/dcmitype/StillImage" />
			<dc:title></dc:title>
		</cc:Work>
	</rdf:RDF>
</metadata>
<g
	inkscape:label="Layer 1"
	inkscape:groupmode="layer"
	id="layer1">
	<path style="fill:none;stroke:#000000;stroke-width:1px;stroke-linecap:butt;stroke-linejoin:miter;stroke-opacity:1" d="M 343.833,728.848 332.047,736.706 z" id="boundary" inkscape:connector-curvature="0" />
	<path style="fill:none;stroke:#000000;stroke-width:1px;stroke-linecap:butt;stroke-linejoin:miter;stroke-opacity:1" d="M 343.833,728.848 343.833,709.204 z" id="boundary" inkscape:connector-curvature="0" />
	<path style="fill:none;stroke:#000000;stroke-width:1px;stroke-linecap:butt;stroke-linejoin:miter;stroke-opacity:1" d="M 343.833,709.204 341.869,691.524 z" id="boundary" inkscape:connector-curvature="0" />
	<path style="fill:none;stroke:#000000;stroke-width:1px;stroke-linecap:butt;stroke-linejoin:miter;stroke-opacity:1" d="M 341.869,691.524 339.904,671.882 z" id="boundary" inkscape:connector-curvature="0" />
	<path style="fill:none;stroke:#000000;stroke-width:1px;stroke-linecap:butt;stroke-linejoin:miter;stroke-opacity:1" d="M 332.047,736.706 314.367,722.955 z" id="boundary" inkscape:connector-curvature="0" />
	<path style="fill:none;stroke:#000000;stroke-width:1px;stroke-linecap:butt;stroke-linejoin:miter;stroke-opacity:1" d="M 314.367,722.955 296.689,713.133 z" id="boundary" inkscape:connector-curvature="0" />
	<path style="fill:none;stroke:#000000;stroke-width:1px;stroke-linecap:butt;stroke-linejoin:miter;stroke-opacity:1" d="M 296.689,713.133 282.938,703.311 z" id="boundary" inkscape:connector-curvature="0" />
	<path style="fill:none;stroke:#000000;stroke-width:1px;stroke-linecap:butt;stroke-linejoin:miter;stroke-opacity:1" d="M 282.938,703.311 265.259,697.417 z" id="boundary" inkscape:connector-curvature="0" />
	<path style="fill:none;stroke:#000000;stroke-width:1px;stroke-linecap:butt;stroke-linejoin:miter;stroke-opacity:1" d="M 265.259,697.417 249.543,687.597 z" id="boundary" inkscape:connector-curvature="0" />
	<path style="fill:none;stroke:#000000;stroke-width:1px;stroke-linecap:butt;stroke-linejoin:miter;stroke-opacity:1" d="M 249.543,687.597 261.33,673.847 z" id="boundary" inkscape:connector-curvature="0" />
	<path style="fill:none;stroke:#000000;stroke-width:1px;stroke-linecap:butt;stroke-linejoin:miter;stroke-opacity:1" d="M 261.33,673.847 279.01,675.811 z" id="boundary" inkscape:connector-curvature="0" />
	<path style="fill:none;stroke:#000000;stroke-width:1px;stroke-linecap:butt;stroke-linejoin:miter;stroke-opacity:1" d="M 279.01,675.811 296.689,671.882 z" id="boundary" inkscape:connector-curvature="0" />
	<path style="fill:none;stroke:#000000;stroke-width:1px;stroke-linecap:butt;stroke-linejoin:miter;stroke-opacity:1" d="M 339.904,671.882 339.904,648.309 z" id="boundary" inkscape:connector-curvature="0" />
	<path style="fill:none;stroke:#000000;stroke-width:1px;stroke-linecap:butt;stroke-linejoin:miter;stroke-opacity:1" d="M 339.904,648.309 339.904,628.665 z" id="boundary" inkscape:connector-curvature="0" />
	<path style="fill:none;stroke:#000000;stroke-width:1px;stroke-linecap:butt;stroke-linejoin:miter;stroke-opacity:1" d="M 339.904,628.665 332.047,609.023 z" id="boundary" inkscape:connector-curvature="0" />
	<path style="fill:none;stroke:#000000;stroke-width:1px;stroke-linecap:butt;stroke-linejoin:miter;stroke-opacity:1" d="M 332.047,609.023 320.26,593.308 z" id="boundary" inkscape:connector-curvature="0" />
	<path style="fill:none;stroke:#000000;stroke-width:1px;stroke-linecap:butt;stroke-linejoin:miter;stroke-opacity:1" d="M 320.26,593.308 306.509,573.663 z" id="boundary" inkscape:connector-curvature="0" />
	<path style="fill:none;stroke:#000000;stroke-width:1px;stroke-linecap:butt;stroke-linejoin:miter;stroke-opacity:1" d="M 306.509,573.663 286.867,563.841 z" id="boundary" inkscape:connector-curvature="0" />
	<path style="fill:none;stroke:#000000;stroke-width:1px;stroke-linecap:butt;stroke-linejoin:miter;stroke-opacity:1" d="M 286.867,563.841 263.294,557.948 z" id="boundary" inkscape:connector-curvature="0" />
	<path style="fill:none;stroke:#000000;stroke-width:1px;stroke-linecap:butt;stroke-linejoin:miter;stroke-opacity:1" d="M 263.294,557.948 243.65,555.984 z" id="boundary" inkscape:connector-curvature="0" />
	<path style="fill:none;stroke:#000000;stroke-width:1px;stroke-linecap:butt;stroke-linejoin:miter;stroke-opacity:1" d="M 243.65,555.984 229.901,563.841 z" id="boundary" inkscape:connector-curvature="0" />
	<path style="fill:none;stroke:#000000;stroke-width:1px;stroke-linecap:butt;stroke-linejoin:miter;stroke-opacity:1" d="M 229.901,563.841 229.901,581.521 z" id="boundary" inkscape:connector-curvature="0" />
	<path style="fill:none;stroke:#000000;stroke-width:1px;stroke-linecap:butt;stroke-linejoin:miter;stroke-opacity:1" d="M 229.901,581.521 229.901,603.13 z" id="boundary" inkscape:connector-curvature="0" />
	<path style="fill:none;stroke:#000000;stroke-width:1px;stroke-linecap:butt;stroke-linejoin:miter;stroke-opacity:1" d="M 229.901,603.13 235.793,626.701 z" id="boundary" inkscape:connector-curvature="0" />
	<path style="fill:none;stroke:#000000;stroke-width:1px;stroke-linecap:butt;stroke-linejoin:miter;stroke-opacity:1" d="M 235.793,626.701 257.401,636.523 z" id="boundary" inkscape:connector-curvature="0" />
	<path style="fill:none;stroke:#000000;stroke-width:1px;stroke-linecap:butt;stroke-linejoin:miter;stroke-opacity:1" d="M 257.401,636.523 273.116,638.487 z" id="boundary" inkscape:connector-curvature="0" />
	<path style="fill:none;stroke:#000000;stroke-width:1px;stroke-linecap:butt;stroke-linejoin:miter;stroke-opacity:1" d="M 273.116,638.487 298.654,642.416 z" id="boundary" inkscape:connector-curvature="0" />
	<path style="fill:none;stroke:#000000;stroke-width:1px;stroke-linecap:butt;stroke-linejoin:miter;stroke-opacity:1" d="M 298.654,642.416 296.689,671.882 z" id="boundary" inkscape:connector-curvature="0" />
	<path style="fill:none;stroke:#000000;stroke-width:1px;stroke-linecap:butt;stroke-linejoin:miter;stroke-opacity:1" d="M 337.94,499.018 322.225,493.125 z" id="boundary" inkscape:connector-curvature="0" />
	<path style="fill:none;stroke:#000000;stroke-width:1px;stroke-linecap:butt;stroke-linejoin:miter;stroke-opacity:1" d="M 337.94,499.018 355.62,497.053 z" id="boundary" inkscape:connector-curvature="0" />
	<path style="fill:none;stroke:#000000;stroke-width:1px;stroke-linecap:butt;stroke-linejoin:miter;stroke-opacity:1" d="M 322.225,493.125 310.438,479.376 z" id="boundary" inkscape:connector-curvature="0" />
	<path style="fill:none;stroke:#000000;stroke-width:1px;stroke-linecap:butt;stroke-linejoin:miter;stroke-opacity:1" d="M 310.438,479.376 296.689,463.66 z" id="boundary" inkscape:connector-curvature="0" />
	<path style="fill:none;stroke:#000000;stroke-width:1px;stroke-linecap:butt;stroke-linejoin:miter;stroke-opacity:1" d="M 296.689,463.66 282.938,451.874 z" id="boundary" inkscape:connector-curvature="0" />
	<path style="fill:none;stroke:#000000;stroke-width:1px;stroke-linecap:butt;stroke-linejoin:miter;stroke-opacity:1" d="M 282.938,451.874 265.259,451.874 z" id="boundary" inkscape:connector-curvature="0" />
	<path style="fill:none;stroke:#000000;stroke-width:1px;stroke-linecap:butt;stroke-linejoin:miter;stroke-opacity:1" d="M 355.62,497.053 371.335,483.302 z" id="boundary" inkscape:connector-curvature="0" />
	<path style="fill:none;stroke:#000000;stroke-width:1px;stroke-linecap:butt;stroke-linejoin:miter;stroke-opacity:1" d="M 371.335,483.302 363.477,461.696 z" id="boundary" inkscape:connector-curvature="0" />
	<path style="fill:none;stroke:#000000;stroke-width:1px;stroke-linecap:butt;stroke-linejoin:miter;stroke-opacity:1" d="M 363.477,461.696 353.655,442.052 z" id="boundary" inkscape:connector-curvature="0" />
	<path style="fill:none;stroke:#000000;stroke-width:1px;stroke-linecap:butt;stroke-linejoin:miter;stroke-opacity:1" d="M 353.655,442.052 337.94,430.265 z" id="boundary" inkscape:connector-curvature="0" />
	<path style="fill:none;stroke:#000000;stroke-width:1px;stroke-linecap:butt;stroke-linejoin:miter;stroke-opacity:1" d="M 337.94,430.265 318.296,414.55 z" id="boundary" inkscape:connector-curvature="0" />
	<path style="fill:none;stroke:#000000;stroke-width:1px;stroke-linecap:butt;stroke-linejoin:miter;stroke-opacity:1" d="M 318.296,414.55 302.583,402.766 z" id="boundary" inkscape:connector-curvature="0" />
	<path style="fill:none;stroke:#000000;stroke-width:1px;stroke-linecap:butt;stroke-linejoin:miter;stroke-opacity:1" d="M 302.583,402.766 286.867,389.015 z" id="boundary" inkscape:connector-curvature="0" />
	<path style="fill:none;stroke:#000000;stroke-width:1px;stroke-linecap:butt;stroke-linejoin:miter;stroke-opacity:1" d="M 286.867,389.015 271.152,375.264 z" id="boundary" inkscape:connector-curvature="0" />
	<path style="fill:none;stroke:#000000;stroke-width:1px;stroke-linecap:butt;stroke-linejoin:miter;stroke-opacity:1" d="M 271.152,375.264 255.437,361.513 z" id="boundary" inkscape:connector-curvature="0" />
	<path style="fill:none;stroke:#000000;stroke-width:1px;stroke-linecap:butt;stroke-linejoin:miter;stroke-opacity:1" d="M 255.437,361.513 237.757,347.762 z" id="boundary" inkscape:connector-curvature="0" />
	<path style="fill:none;stroke:#000000;stroke-width:1px;stroke-linecap:butt;stroke-linejoin:miter;stroke-opacity:1" d="M 237.757,347.762 224.008,337.942 z" id="boundary" inkscape:connector-curvature="0" />
	<path style="fill:none;stroke:#000000;stroke-width:1px;stroke-linecap:butt;stroke-linejoin:miter;stroke-opacity:1" d="M 224.008,337.942 208.293,322.227 z" id="boundary" inkscape:connector-curvature="0" />
	<path style="fill:none;stroke:#000000;stroke-width:1px;stroke-linecap:butt;stroke-linejoin:miter;stroke-opacity:1" d="M 208.293,322.227 194.542,302.583 z" id="boundary" inkscape:connector-curvature="0" />
	<path style="fill:none;stroke:#000000;stroke-width:1px;stroke-linecap:butt;stroke-linejoin:miter;stroke-opacity:1" d="M 194.542,302.583 174.898,288.832 z" id="boundary" inkscape:connector-curvature="0" />
	<path style="fill:none;stroke:#000000;stroke-width:1px;stroke-linecap:butt;stroke-linejoin:miter;stroke-opacity:1" d="M 174.898,288.832 157.22,275.083 z" id="boundary" inkscape:connector-curvature="0" />
	<path style="fill:none;stroke:#000000;stroke-width:1px;stroke-linecap:butt;stroke-linejoin:miter;stroke-opacity:1" d="M 157.22,275.083 143.469,263.296 z" id="boundary" inkscape:connector-curvature="0" />
	<path style="fill:none;stroke:#000000;stroke-width:1px;stroke-linecap:butt;stroke-linejoin:miter;stroke-opacity:1" d="M 143.469,263.296 127.754,249.546 z" id="boundary" inkscape:connector-curvature="0" />
	<path style="fill:none;stroke:#000000;stroke-width:1px;stroke-linecap:butt;stroke-linejoin:miter;stroke-opacity:1" d="M 127.754,249.546 110.074,233.83 z" id="boundary" inkscape:connector-curvature="0" />
	<path style="fill:none;stroke:#000000;stroke-width:1px;stroke-linecap:butt;stroke-linejoin:miter;stroke-opacity:1" d="M 265.259,451.874 241.686,461.696 z" id="boundary" inkscape:connector-curvature="0" />
	<path style="fill:none;stroke:#000000;stroke-width:1px;stroke-linecap:butt;stroke-linejoin:miter;stroke-opacity:1" d="M 241.686,461.696 224.008,479.376 z" id="boundary" inkscape:connector-curvature="0" />
	<path style="fill:none;stroke:#000000;stroke-width:1px;stroke-linecap:butt;stroke-linejoin:miter;stroke-opacity:1" d="M 224.008,479.376 204.364,481.34 z" id="boundary" inkscape:connector-curvature="0" />
	<path style="fill:none;stroke:#000000;stroke-width:1px;stroke-linecap:butt;stroke-linejoin:miter;stroke-opacity:1" d="M 204.364,481.34 180.791,483.302 z" id="boundary" inkscape:connector-curvature="0" />
	<path style="fill:none;stroke:#000000;stroke-width:1px;stroke-linecap:butt;stroke-linejoin:miter;stroke-opacity:1" d="M 110.074,233.83 90.4321,216.15 z" id="boundary" inkscape:connector-curvature="0" />
	<path style="fill:none;stroke:#000000;stroke-width:1px;stroke-linecap:butt;stroke-linejoin:miter;stroke-opacity:1" d="M 90.4321,216.15 70.788,200.437 z" id="boundary" inkscape:connector-curvature="0" />
	<path style="fill:none;stroke:#000000;stroke-width:1px;stroke-linecap:butt;stroke-linejoin:miter;stroke-opacity:1" d="M 70.788,200.437 53.1083,180.793 z" id="boundary" inkscape:connector-curvature="0" />
	<path style="fill:none;stroke:#000000;stroke-width:1px;stroke-linecap:butt;stroke-linejoin:miter;stroke-opacity:1" d="M 53.1083,180.793 35.4285,163.113 z" id="boundary" inkscape:connector-curvature="0" />
	<path style="fill:none;stroke:#000000;stroke-width:1px;stroke-linecap:butt;stroke-linejoin:miter;stroke-opacity:1" d="M 35.4285,163.113 25.6086,141.505 z" id="boundary" inkscape:connector-curvature="0" />
	<path style="fill:none;stroke:#000000;stroke-width:1px;stroke-linecap:butt;stroke-linejoin:miter;stroke-opacity:1" d="M 180.791,483.302 159.185,499.018 z" id="boundary" inkscape:connector-curvature="0" />
	<path style="fill:none;stroke:#000000;stroke-width:1px;stroke-linecap:butt;stroke-linejoin:miter;stroke-opacity:1" d="M 25.6086,141.505 27.5709,114.005 z" id="boundary" inkscape:connector-curvature="0" />
	<path style="fill:none;stroke:#000000;stroke-width:1px;stroke-linecap:butt;stroke-linejoin:miter;stroke-opacity:1" d="M 27.5709,114.005 45.2506,104.183 z" id="boundary" inkscape:connector-curvature="0" />
	<path style="fill:none;stroke:#000000;stroke-width:1px;stroke-linecap:butt;stroke-linejoin:miter;stroke-opacity:1" d="M 45.2506,104.183 62.9303,110.076 z" id="boundary" inkscape:connector-curvature="0" />
	<path style="fill:none;stroke:#000000;stroke-width:1px;stroke-linecap:butt;stroke-linejoin:miter;stroke-opacity:1" d="M 62.9303,110.076 80.6101,121.863 z" id="boundary" inkscape:connector-curvature="0" />
	<path style="fill:none;stroke:#000000;stroke-width:1px;stroke-linecap:butt;stroke-linejoin:miter;stroke-opacity:1" d="M 80.6101,121.863 98.2877,135.614 z" id="boundary" inkscape:connector-curvature="0" />
	<path style="fill:none;stroke:#000000;stroke-width:1px;stroke-linecap:butt;stroke-linejoin:miter;stroke-opacity:1" d="M 98.2877,135.614 117.932,149.362 z" id="boundary" inkscape:connector-curvature="0" />
	<path style="fill:none;stroke:#000000;stroke-width:1px;stroke-linecap:butt;stroke-linejoin:miter;stroke-opacity:1" d="M 117.932,149.362 133.647,163.113 z" id="boundary" inkscape:connector-curvature="0" />
	<path style="fill:none;stroke:#000000;stroke-width:1px;stroke-linecap:butt;stroke-linejoin:miter;stroke-opacity:1" d="M 133.647,163.113 151.327,174.9 z" id="boundary" inkscape:connector-curvature="0" />
	<path style="fill:none;stroke:#000000;stroke-width:1px;stroke-linecap:butt;stroke-linejoin:miter;stroke-opacity:1" d="M 151.327,174.9 170.969,192.58 z" id="boundary" inkscape:connector-curvature="0" />
	<path style="fill:none;stroke:#000000;stroke-width:1px;stroke-linecap:butt;stroke-linejoin:miter;stroke-opacity:1" d="M 170.969,192.58 190.613,206.328 z" id="boundary" inkscape:connector-curvature="0" />
	<path style="fill:none;stroke:#000000;stroke-width:1px;stroke-linecap:butt;stroke-linejoin:miter;stroke-opacity:1" d="M 190.613,206.328 204.364,218.115 z" id="boundary" inkscape:connector-curvature="0" />
	<path style="fill:none;stroke:#000000;stroke-width:1px;stroke-linecap:butt;stroke-linejoin:miter;stroke-opacity:1" d="M 204.364,218.115 224.008,235.795 z" id="boundary" inkscape:connector-curvature="0" />
	<path style="fill:none;stroke:#000000;stroke-width:1px;stroke-linecap:butt;stroke-linejoin:miter;stroke-opacity:1" d="M 224.008,235.795 245.615,251.51 z" id="boundary" inkscape:connector-curvature="0" />
	<path style="fill:none;stroke:#000000;stroke-width:1px;stroke-linecap:butt;stroke-linejoin:miter;stroke-opacity:1" d="M 245.615,251.51 263.294,267.225 z" id="boundary" inkscape:connector-curvature="0" />
	<path style="fill:none;stroke:#000000;stroke-width:1px;stroke-linecap:butt;stroke-linejoin:miter;stroke-opacity:1" d="M 263.294,267.225 282.938,280.974 z" id="boundary" inkscape:connector-curvature="0" />
	<path style="fill:none;stroke:#000000;stroke-width:1px;stroke-linecap:butt;stroke-linejoin:miter;stroke-opacity:1" d="M 282.938,280.974 298.654,292.761 z" id="boundary" inkscape:connector-curvature="0" />
	<path style="fill:none;stroke:#000000;stroke-width:1px;stroke-linecap:butt;stroke-linejoin:miter;stroke-opacity:1" d="M 298.654,292.761 314.367,306.511 z" id="boundary" inkscape:connector-curvature="0" />
	<path style="fill:none;stroke:#000000;stroke-width:1px;stroke-linecap:butt;stroke-linejoin:miter;stroke-opacity:1" d="M 314.367,306.511 332.047,318.298 z" id="boundary" inkscape:connector-curvature="0" />
	<path style="fill:none;stroke:#000000;stroke-width:1px;stroke-linecap:butt;stroke-linejoin:miter;stroke-opacity:1" d="M 332.047,318.298 349.726,328.12 z" id="boundary" inkscape:connector-curvature="0" />
	<path style="fill:none;stroke:#000000;stroke-width:1px;stroke-linecap:butt;stroke-linejoin:miter;stroke-opacity:1" d="M 349.726,328.12 353.655,302.583 z" id="boundary" inkscape:connector-curvature="0" />
	<path style="fill:none;stroke:#000000;stroke-width:1px;stroke-linecap:butt;stroke-linejoin:miter;stroke-opacity:1" d="M 353.655,302.583 351.691,275.083 z" id="boundary" inkscape:connector-curvature="0" />
	<path style="fill:none;stroke:#000000;stroke-width:1px;stroke-linecap:butt;stroke-linejoin:miter;stroke-opacity:1" d="M 159.185,499.018 153.291,526.52 z" id="boundary" inkscape:connector-curvature="0" />
	<path style="fill:none;stroke:#000000;stroke-width:1px;stroke-linecap:butt;stroke-linejoin:miter;stroke-opacity:1" d="M 351.691,275.083 353.655,245.617 z" id="boundary" inkscape:connector-curvature="0" />
	<path style="fill:none;stroke:#000000;stroke-width:1px;stroke-linecap:butt;stroke-linejoin:miter;stroke-opacity:1" d="M 353.655,245.617 347.762,225.973 z" id="boundary" inkscape:connector-curvature="0" />
	<path style="fill:none;stroke:#000000;stroke-width:1px;stroke-linecap:butt;stroke-linejoin:miter;stroke-opacity:1" d="M 347.762,225.973 339.904,198.473 z" id="boundary" inkscape:connector-curvature="0" />
	<path style="fill:none;stroke:#000000;stroke-width:1px;stroke-linecap:butt;stroke-linejoin:miter;stroke-opacity:1" d="M 339.904,198.473 328.118,170.971 z" id="boundary" inkscape:connector-curvature="0" />
	<path style="fill:none;stroke:#000000;stroke-width:1px;stroke-linecap:butt;stroke-linejoin:miter;stroke-opacity:1" d="M 328.118,170.971 322.225,149.362 z" id="boundary" inkscape:connector-curvature="0" />
	<path style="fill:none;stroke:#000000;stroke-width:1px;stroke-linecap:butt;stroke-linejoin:miter;stroke-opacity:1" d="M 322.225,149.362 316.331,119.898 z" id="boundary" inkscape:connector-curvature="0" />
	<path style="fill:none;stroke:#000000;stroke-width:1px;stroke-linecap:butt;stroke-linejoin:miter;stroke-opacity:1" d="M 316.331,119.898 308.474,90.4321 z" id="boundary" inkscape:connector-curvature="0" />
	<path style="fill:none;stroke:#000000;stroke-width:1px;stroke-linecap:butt;stroke-linejoin:miter;stroke-opacity:1" d="M 308.474,90.4321 302.583,66.8613 z" id="boundary" inkscape:connector-curvature="0" />
	<path style="fill:none;stroke:#000000;stroke-width:1px;stroke-linecap:butt;stroke-linejoin:miter;stroke-opacity:1" d="M 302.583,66.8613 296.689,45.2527 z" id="boundary" inkscape:connector-curvature="0" />
	<path style="fill:none;stroke:#000000;stroke-width:1px;stroke-linecap:butt;stroke-linejoin:miter;stroke-opacity:1" d="M 296.689,45.2527 298.654,23.6442 z" id="boundary" inkscape:connector-curvature="0" />
	<path style="fill:none;stroke:#000000;stroke-width:1px;stroke-linecap:butt;stroke-linejoin:miter;stroke-opacity:1" d="M 298.654,23.6442 310.438,5.96442 z" id="boundary" inkscape:connector-curvature="0" />
	<path style="fill:none;stroke:#000000;stroke-width:1px;stroke-linecap:butt;stroke-linejoin:miter;stroke-opacity:1" d="M 310.438,5.96442 330.082,4 z" id="boundary" inkscape:connector-curvature="0" />
	<path style="fill:none;stroke:#000000;stroke-width:1px;stroke-linecap:butt;stroke-linejoin:miter;stroke-opacity:1" d="M 330.082,4 347.762,19.7153 z" id="boundary" inkscape:connector-curvature="0" />
	<path style="fill:none;stroke:#000000;stroke-width:1px;stroke-linecap:butt;stroke-linejoin:miter;stroke-opacity:1" d="M 347.762,19.7153 357.584,41.3239 z" id="boundary" inkscape:connector-curvature="0" />
	<path style="fill:none;stroke:#000000;stroke-width:1px;stroke-linecap:butt;stroke-linejoin:miter;stroke-opacity:1" d="M 357.584,41.3239 367.406,62.9325 z" id="boundary" inkscape:connector-curvature="0" />
	<path style="fill:none;stroke:#000000;stroke-width:1px;stroke-linecap:butt;stroke-linejoin:miter;stroke-opacity:1" d="M 367.406,62.9325 375.262,90.4321 z" id="boundary" inkscape:connector-curvature="0" />
	<path style="fill:none;stroke:#000000;stroke-width:1px;stroke-linecap:butt;stroke-linejoin:miter;stroke-opacity:1" d="M 375.262,90.4321 381.155,115.97 z" id="boundary" inkscape:connector-curvature="0" />
	<path style="fill:none;stroke:#000000;stroke-width:1px;stroke-linecap:butt;stroke-linejoin:miter;stroke-opacity:1" d="M 381.155,115.97 389.013,135.614 z" id="boundary" inkscape:connector-curvature="0" />
	<path style="fill:none;stroke:#000000;stroke-width:1px;stroke-linecap:butt;stroke-linejoin:miter;stroke-opacity:1" d="M 389.013,135.614 396.87,155.256 z" id="boundary" inkscape:connector-curvature="0" />
	<path style="fill:none;stroke:#000000;stroke-width:1px;stroke-linecap:butt;stroke-linejoin:miter;stroke-opacity:1" d="M 396.87,155.256 404.728,174.9 z" id="boundary" inkscape:connector-curvature="0" />
	<path style="fill:none;stroke:#000000;stroke-width:1px;stroke-linecap:butt;stroke-linejoin:miter;stroke-opacity:1" d="M 404.728,174.9 408.657,192.58 z" id="boundary" inkscape:connector-curvature="0" />
	<path style="fill:none;stroke:#000000;stroke-width:1px;stroke-linecap:butt;stroke-linejoin:miter;stroke-opacity:1" d="M 408.657,192.58 418.479,214.186 z" id="boundary" inkscape:connector-curvature="0" />
	<path style="fill:none;stroke:#000000;stroke-width:1px;stroke-linecap:butt;stroke-linejoin:miter;stroke-opacity:1" d="M 418.479,214.186 422.408,239.723 z" id="boundary" inkscape:connector-curvature="0" />
	<path style="fill:none;stroke:#000000;stroke-width:1px;stroke-linecap:butt;stroke-linejoin:miter;stroke-opacity:1" d="M 422.408,239.723 430.265,265.261 z" id="boundary" inkscape:connector-curvature="0" />
	<path style="fill:none;stroke:#000000;stroke-width:1px;stroke-linecap:butt;stroke-linejoin:miter;stroke-opacity:1" d="M 430.265,265.261 434.194,294.725 z" id="boundary" inkscape:connector-curvature="0" />
	<path style="fill:none;stroke:#000000;stroke-width:1px;stroke-linecap:butt;stroke-linejoin:miter;stroke-opacity:1" d="M 434.194,294.725 434.194,318.298 z" id="boundary" inkscape:connector-curvature="0" />
	<path style="fill:none;stroke:#000000;stroke-width:1px;stroke-linecap:butt;stroke-linejoin:miter;stroke-opacity:1" d="M 434.194,318.298 436.159,349.726 z" id="boundary" inkscape:connector-curvature="0" />
	<path style="fill:none;stroke:#000000;stroke-width:1px;stroke-linecap:butt;stroke-linejoin:miter;stroke-opacity:1" d="M 436.159,349.726 440.087,377.228 z" id="boundary" inkscape:connector-curvature="0" />
	<path style="fill:none;stroke:#000000;stroke-width:1px;stroke-linecap:butt;stroke-linejoin:miter;stroke-opacity:1" d="M 440.087,377.228 440.087,396.872 z" id="boundary" inkscape:connector-curvature="0" />
	<path style="fill:none;stroke:#000000;stroke-width:1px;stroke-linecap:butt;stroke-linejoin:miter;stroke-opacity:1" d="M 440.087,396.872 447.943,420.443 z" id="boundary" inkscape:connector-curvature="0" />
	<path style="fill:none;stroke:#000000;stroke-width:1px;stroke-linecap:butt;stroke-linejoin:miter;stroke-opacity:1" d="M 447.943,420.443 465.623,436.159 z" id="boundary" inkscape:connector-curvature="0" />
	<path style="fill:none;stroke:#000000;stroke-width:1px;stroke-linecap:butt;stroke-linejoin:miter;stroke-opacity:1" d="M 465.623,436.159 479.374,461.696 z" id="boundary" inkscape:connector-curvature="0" />
	<path style="fill:none;stroke:#000000;stroke-width:1px;stroke-linecap:butt;stroke-linejoin:miter;stroke-opacity:1" d="M 479.374,461.696 485.267,487.231 z" id="boundary" inkscape:connector-curvature="0" />
	<path style="fill:none;stroke:#000000;stroke-width:1px;stroke-linecap:butt;stroke-linejoin:miter;stroke-opacity:1" d="M 485.267,487.231 481.338,510.804 z" id="boundary" inkscape:connector-curvature="0" />
	<path style="fill:none;stroke:#000000;stroke-width:1px;stroke-linecap:butt;stroke-linejoin:miter;stroke-opacity:1" d="M 481.338,510.804 481.338,536.342 z" id="boundary" inkscape:connector-curvature="0" />
	<path style="fill:none;stroke:#000000;stroke-width:1px;stroke-linecap:butt;stroke-linejoin:miter;stroke-opacity:1" d="M 481.338,536.342 485.267,565.806 z" id="boundary" inkscape:connector-curvature="0" />
	<path style="fill:none;stroke:#000000;stroke-width:1px;stroke-linecap:butt;stroke-linejoin:miter;stroke-opacity:1" d="M 485.267,565.806 487.231,591.343 z" id="boundary" inkscape:connector-curvature="0" />
	<path style="fill:none;stroke:#000000;stroke-width:1px;stroke-linecap:butt;stroke-linejoin:miter;stroke-opacity:1" d="M 487.231,591.343 487.231,616.881 z" id="boundary" inkscape:connector-curvature="0" />
	<path style="fill:none;stroke:#000000;stroke-width:1px;stroke-linecap:butt;stroke-linejoin:miter;stroke-opacity:1" d="M 487.231,616.881 491.16,650.274 z" id="boundary" inkscape:connector-curvature="0" />
	<path style="fill:none;stroke:#000000;stroke-width:1px;stroke-linecap:butt;stroke-linejoin:miter;stroke-opacity:1" d="M 491.16,650.274 495.089,675.811 z" id="boundary" inkscape:connector-curvature="0" />
	<path style="fill:none;stroke:#000000;stroke-width:1px;stroke-linecap:butt;stroke-linejoin:miter;stroke-opacity:1" d="M 495.089,675.811 497.053,699.382 z" id="boundary" inkscape:connector-curvature="0" />
	<path style="fill:none;stroke:#000000;stroke-width:1px;stroke-linecap:butt;stroke-linejoin:miter;stroke-opacity:1" d="M 497.053,699.382 497.053,720.99 z" id="boundary" inkscape:connector-curvature="0" />
	<path style="fill:none;stroke:#000000;stroke-width:1px;stroke-linecap:butt;stroke-linejoin:miter;stroke-opacity:1" d="M 497.053,720.99 497.053,744.563 z" id="boundary" inkscape:connector-curvature="0" />
	<path style="fill:none;stroke:#000000;stroke-width:1px;stroke-linecap:butt;stroke-linejoin:miter;stroke-opacity:1" d="M 497.053,744.563 497.053,770.099 z" id="boundary" inkscape:connector-curvature="0" />
	<path style="fill:none;stroke:#000000;stroke-width:1px;stroke-linecap:butt;stroke-linejoin:miter;stroke-opacity:1" d="M 497.053,770.099 497.053,793.672 z" id="boundary" inkscape:connector-curvature="0" />
	<path style="fill:none;stroke:#000000;stroke-width:1px;stroke-linecap:butt;stroke-linejoin:miter;stroke-opacity:1" d="M 497.053,793.672 500.982,823.138 z" id="boundary" inkscape:connector-curvature="0" />
	<path style="fill:none;stroke:#000000;stroke-width:1px;stroke-linecap:butt;stroke-linejoin:miter;stroke-opacity:1" d="M 500.982,823.138 514.731,840.815 z" id="boundary" inkscape:connector-curvature="0" />
	<path style="fill:none;stroke:#000000;stroke-width:1px;stroke-linecap:butt;stroke-linejoin:miter;stroke-opacity:1" d="M 514.731,840.815 526.517,860.46 z" id="boundary" inkscape:connector-curvature="0" />
	<path style="fill:none;stroke:#000000;stroke-width:1px;stroke-linecap:butt;stroke-linejoin:miter;stroke-opacity:1" d="M 526.517,860.46 530.446,887.961 z" id="boundary" inkscape:connector-curvature="0" />
	<path style="fill:none;stroke:#000000;stroke-width:1px;stroke-linecap:butt;stroke-linejoin:miter;stroke-opacity:1" d="M 530.446,887.961 526.517,905.639 z" id="boundary" inkscape:connector-curvature="0" />
	<path style="fill:none;stroke:#000000;stroke-width:1px;stroke-linecap:butt;stroke-linejoin:miter;stroke-opacity:1" d="M 526.517,905.639 518.66,927.248 z" id="boundary" inkscape:connector-curvature="0" />
	<path style="fill:none;stroke:#000000;stroke-width:1px;stroke-linecap:butt;stroke-linejoin:miter;stroke-opacity:1" d="M 518.66,927.248 500.982,937.07 z" id="boundary" inkscape:connector-curvature="0" />
	<path style="fill:none;stroke:#000000;stroke-width:1px;stroke-linecap:butt;stroke-linejoin:miter;stroke-opacity:1" d="M 500.982,937.07 493.125,960.643 z" id="boundary" inkscape:connector-curvature="0" />
	<path style="fill:none;stroke:#000000;stroke-width:1px;stroke-linecap:butt;stroke-linejoin:miter;stroke-opacity:1" d="M 493.125,960.643 483.302,976.356 z" id="boundary" inkscape:connector-curvature="0" />
	<path style="fill:none;stroke:#000000;stroke-width:1px;stroke-linecap:butt;stroke-linejoin:miter;stroke-opacity:1" d="M 483.302,976.356 463.658,994.036 z" id="boundary" inkscape:connector-curvature="0" />
	<path style="fill:none;stroke:#000000;stroke-width:1px;stroke-linecap:butt;stroke-linejoin:miter;stroke-opacity:1" d="M 463.658,994.036 444.014,996 z" id="boundary" inkscape:connector-curvature="0" />
	<path style="fill:none;stroke:#000000;stroke-width:1px;stroke-linecap:butt;stroke-linejoin:miter;stroke-opacity:1" d="M 444.014,996 418.479,992.071 z" id="boundary" inkscape:connector-curvature="0" />
	<path style="fill:none;stroke:#000000;stroke-width:1px;stroke-linecap:butt;stroke-linejoin:miter;stroke-opacity:1" d="M 418.479,992.071 396.87,986.178 z" id="boundary" inkscape:connector-curvature="0" />
	<path style="fill:none;stroke:#000000;stroke-width:1px;stroke-linecap:butt;stroke-linejoin:miter;stroke-opacity:1" d="M 396.87,986.178 377.226,976.356 z" id="boundary" inkscape:connector-curvature="0" />
	<path style="fill:none;stroke:#000000;stroke-width:1px;stroke-linecap:butt;stroke-linejoin:miter;stroke-opacity:1" d="M 377.226,976.356 361.513,960.643 z" id="boundary" inkscape:connector-curvature="0" />
	<path style="fill:none;stroke:#000000;stroke-width:1px;stroke-linecap:butt;stroke-linejoin:miter;stroke-opacity:1" d="M 361.513,960.643 347.762,946.892 z" id="boundary" inkscape:connector-curvature="0" />
	<path style="fill:none;stroke:#000000;stroke-width:1px;stroke-linecap:butt;stroke-linejoin:miter;stroke-opacity:1" d="M 347.762,946.892 351.691,919.39 z" id="boundary" inkscape:connector-curvature="0" />
	<path style="fill:none;stroke:#000000;stroke-width:1px;stroke-linecap:butt;stroke-linejoin:miter;stroke-opacity:1" d="M 351.691,919.39 345.798,891.89 z" id="boundary" inkscape:connector-curvature="0" />
	<path style="fill:none;stroke:#000000;stroke-width:1px;stroke-linecap:butt;stroke-linejoin:miter;stroke-opacity:1" d="M 345.798,891.89 328.118,882.068 z" id="boundary" inkscape:connector-curvature="0" />
	<path style="fill:none;stroke:#000000;stroke-width:1px;stroke-linecap:butt;stroke-linejoin:miter;stroke-opacity:1" d="M 328.118,882.068 310.438,866.353 z" id="boundary" inkscape:connector-curvature="0" />
	<path style="fill:none;stroke:#000000;stroke-width:1px;stroke-linecap:butt;stroke-linejoin:miter;stroke-opacity:1" d="M 310.438,866.353 286.867,854.566 z" id="boundary" inkscape:connector-curvature="0" />
	<path style="fill:none;stroke:#000000;stroke-width:1px;stroke-linecap:butt;stroke-linejoin:miter;stroke-opacity:1" d="M 286.867,854.566 269.188,844.744 z" id="boundary" inkscape:connector-curvature="0" />
	<path style="fill:none;stroke:#000000;stroke-width:1px;stroke-linecap:butt;stroke-linejoin:miter;stroke-opacity:1" d="M 269.188,844.744 251.508,834.922 z" id="boundary" inkscape:connector-curvature="0" />
	<path style="fill:none;stroke:#000000;stroke-width:1px;stroke-linecap:butt;stroke-linejoin:miter;stroke-opacity:1" d="M 251.508,834.922 233.828,827.067 z" id="boundary" inkscape:connector-curvature="0" />
	<path style="fill:none;stroke:#000000;stroke-width:1px;stroke-linecap:butt;stroke-linejoin:miter;stroke-opacity:1" d="M 233.828,827.067 218.115,805.458 z" id="boundary" inkscape:connector-curvature="0" />
	<path style="fill:none;stroke:#000000;stroke-width:1px;stroke-linecap:butt;stroke-linejoin:miter;stroke-opacity:1" d="M 218.115,805.458 204.364,791.707 z" id="boundary" inkscape:connector-curvature="0" />
	<path style="fill:none;stroke:#000000;stroke-width:1px;stroke-linecap:butt;stroke-linejoin:miter;stroke-opacity:1" d="M 204.364,791.707 186.684,777.956 z" id="boundary" inkscape:connector-curvature="0" />
	<path style="fill:none;stroke:#000000;stroke-width:1px;stroke-linecap:butt;stroke-linejoin:miter;stroke-opacity:1" d="M 186.684,777.956 167.04,762.241 z" id="boundary" inkscape:connector-curvature="0" />
	<path style="fill:none;stroke:#000000;stroke-width:1px;stroke-linecap:butt;stroke-linejoin:miter;stroke-opacity:1" d="M 167.04,762.241 145.434,748.492 z" id="boundary" inkscape:connector-curvature="0" />
	<path style="fill:none;stroke:#000000;stroke-width:1px;stroke-linecap:butt;stroke-linejoin:miter;stroke-opacity:1" d="M 145.434,748.492 125.79,740.635 z" id="boundary" inkscape:connector-curvature="0" />
	<path style="fill:none;stroke:#000000;stroke-width:1px;stroke-linecap:butt;stroke-linejoin:miter;stroke-opacity:1" d="M 125.79,740.635 108.11,728.848 z" id="boundary" inkscape:connector-curvature="0" />
	<path style="fill:none;stroke:#000000;stroke-width:1px;stroke-linecap:butt;stroke-linejoin:miter;stroke-opacity:1" d="M 108.11,728.848 88.4677,715.097 z" id="boundary" inkscape:connector-curvature="0" />
	<path style="fill:none;stroke:#000000;stroke-width:1px;stroke-linecap:butt;stroke-linejoin:miter;stroke-opacity:1" d="M 88.4677,715.097 70.788,705.275 z" id="boundary" inkscape:connector-curvature="0" />
	<path style="fill:none;stroke:#000000;stroke-width:1px;stroke-linecap:butt;stroke-linejoin:miter;stroke-opacity:1" d="M 70.788,705.275 53.1083,693.489 z" id="boundary" inkscape:connector-curvature="0" />
	<path style="fill:none;stroke:#000000;stroke-width:1px;stroke-linecap:butt;stroke-linejoin:miter;stroke-opacity:1" d="M 53.1083,693.489 27.5709,677.775 z" id="boundary" inkscape:connector-curvature="0" />
	<path style="fill:none;stroke:#000000;stroke-width:1px;stroke-linecap:butt;stroke-linejoin:miter;stroke-opacity:1" d="M 27.5709,677.775 7.92883,662.06 z" id="boundary" inkscape:connector-curvature="0" />
	<path style="fill:none;stroke:#000000;stroke-width:1px;stroke-linecap:butt;stroke-linejoin:miter;stroke-opacity:1" d="M 7.92883,662.06 4,636.523 z" id="boundary" inkscape:connector-curvature="0" />
	<path style="fill:none;stroke:#000000;stroke-width:1px;stroke-linecap:butt;stroke-linejoin:miter;stroke-opacity:1" d="M 4,636.523 15.7865,618.845 z" id="boundary" inkscape:connector-curvature="0" />
	<path style="fill:none;stroke:#000000;stroke-width:1px;stroke-linecap:butt;stroke-linejoin:miter;stroke-opacity:1" d="M 15.7865,618.845 43.2862,607.059 z" id="boundary" inkscape:connector-curvature="0" />
	<path style="fill:none;stroke:#000000;stroke-width:1px;stroke-linecap:butt;stroke-linejoin:miter;stroke-opacity:1" d="M 43.2862,607.059 72.7524,610.987 z" id="boundary" inkscape:connector-curvature="0" />
	<path style="fill:none;stroke:#000000;stroke-width:1px;stroke-linecap:butt;stroke-linejoin:miter;stroke-opacity:1" d="M 72.7524,610.987 102.217,618.845 z" id="boundary" inkscape:connector-curvature="0" />
	<path style="fill:none;stroke:#000000;stroke-width:1px;stroke-linecap:butt;stroke-linejoin:miter;stroke-opacity:1" d="M 102.217,618.845 127.754,628.665 z" id="boundary" inkscape:connector-curvature="0" />
	<path style="fill:none;stroke:#000000;stroke-width:1px;stroke-linecap:butt;stroke-linejoin:miter;stroke-opacity:1" d="M 127.754,628.665 149.362,638.487 z" id="boundary" inkscape:connector-curvature="0" />
	<path style="fill:none;stroke:#000000;stroke-width:1px;stroke-linecap:butt;stroke-linejoin:miter;stroke-opacity:1" d="M 149.362,638.487 169.005,646.345 z" id="boundary" inkscape:connector-curvature="0" />
	<path style="fill:none;stroke:#000000;stroke-width:1px;stroke-linecap:butt;stroke-linejoin:miter;stroke-opacity:1" d="M 169.005,646.345 172.933,622.772 z" id="boundary" inkscape:connector-curvature="0" />
	<path style="fill:none;stroke:#000000;stroke-width:1px;stroke-linecap:butt;stroke-linejoin:miter;stroke-opacity:1" d="M 172.933,622.772 169.005,599.201 z" id="boundary" inkscape:connector-curvature="0" />
	<path style="fill:none;stroke:#000000;stroke-width:1px;stroke-linecap:butt;stroke-linejoin:miter;stroke-opacity:1" d="M 169.005,599.201 161.149,579.557 z" id="boundary" inkscape:connector-curvature="0" />
	<path style="fill:none;stroke:#000000;stroke-width:1px;stroke-linecap:butt;stroke-linejoin:miter;stroke-opacity:1" d="M 161.149,579.557 159.185,559.913 z" id="boundary" inkscape:connector-curvature="0" />
	<path style="fill:none;stroke:#000000;stroke-width:1px;stroke-linecap:butt;stroke-linejoin:miter;stroke-opacity:1" d="M 159.185,559.913 153.291,526.52 z" id="boundary" inkscape:connector-curvature="0" />
	<circle cx="15.7865" cy="618.845" r="4" fill="#0" id="circle0"/>
	<circle cx="43.2862" cy="607.059" r="4" fill="#0" id="circle1"/>
	<circle cx="72.7524" cy="610.987" r="4" fill="#0" id="circle2"/>
	<circle cx="102.217" cy="618.845" r="4" fill="#0" id="circle3"/>
	<circle cx="127.754" cy="628.665" r="4" fill="#0" id="circle4"/>
	<circle cx="149.362" cy="638.487" r="4" fill="#0" id="circle5"/>
	<circle cx="169.005" cy="646.345" r="4" fill="#0" id="circle6"/>
	<circle cx="172.933" cy="622.772" r="4" fill="#0" id="circle7"/>
	<circle cx="169.005" cy="599.201" r="4" fill="#0" id="circle8"/>
	<circle cx="161.149" cy="579.557" r="4" fill="#0" id="circle9"/>
	<circle cx="159.185" cy="559.913" r="4" fill="#0" id="circle10"/>
	<circle cx="153.291" cy="526.52" r="4" fill="#0" id="circle11"/>
	<circle cx="159.185" cy="499.018" r="4" fill="#0" id="circle12"/>
	<circle cx="180.791" cy="483.302" r="4" fill="#0" id="circle13"/>
	<circle cx="204.364" cy="481.34" r="4" fill="#0" id="circle14"/>
	<circle cx="224.008" cy="479.376" r="4" fill="#0" id="circle15"/>
	<circle cx="241.686" cy="461.696" r="4" fill="#0" id="circle16"/>
	<circle cx="265.259" cy="451.874" r="4" fill="#0" id="circle17"/>
	<circle cx="282.938" cy="451.874" r="4" fill="#0" id="circle18"/>
	<circle cx="296.689" cy="463.66" r="4" fill="#0" id="circle19"/>
	<circle cx="310.438" cy="479.376" r="4" fill="#0" id="circle20"/>
	<circle cx="322.225" cy="493.125" r="4" fill="#0" id="circle21"/>
	<circle cx="337.94" cy="499.018" r="4" fill="#0" id="circle22"/>
	<circle cx="355.62" cy="497.053" r="4" fill="#0" id="circle23"/>
	<circle cx="371.335" cy="483.302" r="4" fill="#0" id="circle24"/>
	<circle cx="25.6086" cy="141.505" r="4" fill="#0" id="circle25"/>
	<circle cx="35.4285" cy="163.113" r="4" fill="#0" id="circle26"/>
	<circle cx="53.1083" cy="180.793" r="4" fill="#0" id="circle27"/>
	<circle cx="70.788" cy="200.437" r="4" fill="#0" id="circle28"/>
	<circle cx="90.4321" cy="216.15" r="4" fill="#0" id="circle29"/>
	<circle cx="110.074" cy="233.83" r="4" fill="#0" id="circle30"/>
	<circle cx="127.754" cy="249.546" r="4" fill="#0" id="circle31"/>
	<circle cx="143.469" cy="263.296" r="4" fill="#0" id="circle32"/>
	<circle cx="157.22" cy="275.083" r="4" fill="#0" id="circle33"/>
	<circle cx="174.898" cy="288.832" r="4" fill="#0" id="circle34"/>
	<circle cx="194.542" cy="302.583" r="4" fill="#0" id="circle35"/>
	<circle cx="208.293" cy="322.227" r="4" fill="#0" id="circle36"/>
	<circle cx="224.008" cy="337.942" r="4" fill="#0" id="circle37"/>
	<circle cx="237.757" cy="347.762" r="4" fill="#0" id="circle38"/>
	<circle cx="255.437" cy="361.513" r="4" fill="#0" id="circle39"/>
	<circle cx="271.152" cy="375.264" r="4" fill="#0" id="circle40"/>
	<circle cx="286.867" cy="389.015" r="4" fill="#0" id="circle41"/>
	<circle cx="302.583" cy="402.766" r="4" fill="#0" id="circle42"/>
	<circle cx="318.296" cy="414.55" r="4" fill="#0" id="circle43"/>
	<circle cx="337.94" cy="430.265" r="4" fill="#0" id="circle44"/>
	<circle cx="353.655" cy="442.052" r="4" fill="#0" id="circle45"/>
	<circle cx="363.477" cy="461.696" r="4" fill="#0" id="circle46"/>
	<circle cx="27.5709" cy="114.005" r="4" fill="#0" id="circle47"/>
	<circle cx="45.2506" cy="104.183" r="4" fill="#0" id="circle48"/>
	<circle cx="62.9303" cy="110.076" r="4" fill="#0" id="circle49"/>
	<circle cx="80.6101" cy="121.863" r="4" fill="#0" id="circle50"/>
	<circle cx="98.2877" cy="135.614" r="4" fill="#0" id="circle51"/>
	<circle cx="117.932" cy="149.362" r="4" fill="#0" id="circle52"/>
	<circle cx="133.647" cy="163.113" r="4" fill="#0" id="circle53"/>
	<circle cx="151.327" cy="174.9" r="4" fill="#0" id="circle54"/>
	<circle cx="170.969" cy="192.58" r="4" fill="#0" id="circle55"/>
	<circle cx="190.613" cy="206.328" r="4" fill="#0" id="circle56"/>
	<circle cx="204.364" cy="218.115" r="4" fill="#0" id="circle57"/>
	<circle cx="224.008" cy="235.795" r="4" fill="#0" id="circle58"/>
	<circle cx="245.615" cy="251.51" r="4" fill="#0" id="circle59"/>
	<circle cx="263.294" cy="267.225" r="4" fill="#0" id="circle60"/>
	<circle cx="282.938" cy="280.974" r="4" fill="#0" id="circle61"/>
	<circle cx="298.654" cy="292.761" r="4" fill="#0" id="circle62"/>
	<circle cx="314.367" cy="306.511" r="4" fill="#0" id="circle63"/>
	<circle cx="332.047" cy="318.298" r="4" fill="#0" id="circle64"/>
	<circle cx="349.726" cy="328.12" r="4" fill="#0" id="circle65"/>
	<circle cx="353.655" cy="302.583" r="4" fill="#0" id="circle66"/>
	<circle cx="351.691" cy="275.083" r="4" fill="#0" id="circle67"/>
	<circle cx="353.655" cy="245.617" r="4" fill="#0" id="circle68"/>
	<circle cx="347.762" cy="225.973" r="4" fill="#0" id="circle69"/>
	<circle cx="339.904" cy="198.473" r="4" fill="#0" id="circle70"/>
	<circle cx="328.118" cy="170.971" r="4" fill="#0" id="circle71"/>
	<circle cx="322.225" cy="149.362" r="4" fill="#0" id="circle72"/>
	<circle cx="316.331" cy="119.898" r="4" fill="#0" id="circle73"/>
	<circle cx="308.474" cy="90.4321" r="4" fill="#0" id="circle74"/>
	<circle cx="302.583" cy="66.8613" r="4" fill="#0" id="circle75"/>
	<circle cx="296.689" cy="45.2527" r="4" fill="#0" id="circle76"/>
	<circle cx="298.654" cy="23.6442" r="4" fill="#0" id="circle77"/>
	<circle cx="310.438" cy="5.96442" r="4" fill="#0" id="circle78"/>
	<circle cx="330.082" cy="4" r="4" fill="#0" id="circle79"/>
	<circle cx="347.762" cy="19.7153" r="4" fill="#0" id="circle80"/>
	<circle cx="357.584" cy="41.3239" r="4" fill="#0" id="circle81"/>
	<circle cx="367.406" cy="62.9325" r="4" fill="#0" id="circle82"/>
	<circle cx="375.262" cy="90.4321" r="4" fill="#0" id="circle83"/>
	<circle cx="381.155" cy="115.97" r="4" fill="#0" id="circle84"/>
	<circle cx="389.013" cy="135.614" r="4" fill="#0" id="circle85"/>
	<circle cx="396.87" cy="155.256" r="4" fill="#0" id="circle86"/>
	<circle cx="404.728" cy="174.9" r="4" fill="#0" id="circle87"/>
	<circle cx="408.657" cy="192.58" r="4" fill="#0" id="circle88"/>
	<circle cx="418.479" cy="214.186" r="4" fill="#0" id="circle89"/>
	<circle cx="422.408" cy="239.723" r="4" fill="#0" id="circle90"/>
	<circle cx="430.265" cy="265.261" r="4" fill="#0" id="circle91"/>
	<circle cx="434.194" cy="294.725" r="4" fill="#0" id="circle92"/>
	<circle cx="434.194" cy="318.298" r="4" fill="#0" id="circle93"/>
	<circle cx="436.159" cy="349.726" r="4" fill="#0" id="circle94"/>
	<circle cx="440.087" cy="377.228" r="4" fill="#0" id="circle95"/>
	<circle cx="440.087" cy="396.872" r="4" fill="#0" id="circle96"/>
	<circle cx="447.943" cy="420.443" r="4" fill="#0" id="circle97"/>
	<circle cx="465.623" cy="436.159" r="4" fill="#0" id="circle98"/>
	<circle cx="479.374" cy="461.696" r="4" fill="#0" id="circle99"/>
	<circle cx="485.267" cy="487.231" r="4" fill="#0" id="circle100"/>
	<circle cx="481.338" cy="510.804" r="4" fill="#0" id="circle101"/>
	<circle cx="481.338" cy="536.342" r="4" fill="#0" id="circle102"/>
	<circle cx="485.267" cy="565.806" r="4" fill="#0" id="circle103"/>
	<circle cx="487.231" cy="591.343" r="4" fill="#0" id="circle104"/>
	<circle cx="487.231" cy="616.881" r="4" fill="#0" id="circle105"/>
	<circle cx="491.16" cy="650.274" r="4" fill="#0" id="circle106"/>
	<circle cx="495.089" cy="675.811" r="4" fill="#0" id="circle107"/>
	<circle cx="497.053" cy="699.382" r="4" fill="#0" id="circle108"/>
	<circle cx="497.053" cy="720.99" r="4" fill="#0" id="circle109"/>
	<circle cx="497.053" cy="744.563" r="4" fill="#0" id="circle110"/>
	<circle cx="497.053" cy="770.099" r="4" fill="#0" id="circle111"/>
	<circle cx="497.053" cy="793.672" r="4" fill="#0" id="circle112"/>
	<circle cx="500.982" cy="823.138" r="4" fill="#0" id="circle113"/>
	<circle cx="514.731" cy="840.815" r="4" fill="#0" id="circle114"/>
	<circle cx="526.517" cy="860.46" r="4" fill="#0" id="circle115"/>
	<circle cx="530.446" cy="887.961" r="4" fill="#0" id="circle116"/>
	<circle cx="526.517" cy="905.639" r="4" fill="#0" id="circle117"/>
	<circle cx="518.66" cy="927.248" r="4" fill="#0" id="circle118"/>
	<circle cx="500.982" cy="937.07" r="4" fill="#0" id="circle119"/>
	<circle cx="493.125" cy="960.643" r="4" fill="#0" id="circle120"/>
	<circle cx="483.302" cy="976.356" r="4" fill="#0" id="circle121"/>
	<circle cx="4" cy="636.523" r="4" fill="#0" id="circle122"/>
	<circle cx="7.92883" cy="662.06" r="4" fill="#0" id="circle123"/>
	<circle cx="27.5709" cy="677.775" r="4" fill="#0" id="circle124"/>
	<circle cx="53.1083" cy="693.489" r="4" fill="#0" id="circle125"/>
	<circle cx="70.788" cy="705.275" r="4" fill="#0" id="circle126"/>
	<circle cx="88.4677" cy="715.097" r="4" fill="#0" id="circle127"/>
	<circle cx="108.11" cy="728.848" r="4" fill="#0" id="circle128"/>
	<circle cx="125.79" cy="740.635" r="4" fill="#0" id="circle129"/>
	<circle cx="145.434" cy="748.492" r="4" fill="#0" id="circle130"/>
	<circle cx="167.04" cy="762.241" r="4" fill="#0" id="circle131"/>
	<circle cx="186.684" cy="777.956" r="4" fill="#0" id="circle132"/>
	<circle cx="204.364" cy="791.707" r="4" fill="#0" id="circle133"/>
	<circle cx="218.115" cy="805.458" r="4" fill="#0" id="circle134"/>
	<circle cx="233.828" cy="827.067" r="4" fill="#0" id="circle135"/>
	<circle cx="251.508" cy="834.922" r="4" fill="#0" id="circle136"/>
	<circle cx="269.188" cy="844.744" r="4" fill="#0" id="circle137"/>
	<circle cx="286.867" cy="854.566" r="4" fill="#0" id="circle138"/>
	<circle cx="310.438" cy="866.353" r="4" fill="#0" id="circle139"/>
	<circle cx="328.118" cy="882.068" r="4" fill="#0" id="circle140"/>
	<circle cx="345.798" cy="891.89" r="4" fill="#0" id="circle141"/>
	<circle cx="351.691" cy="919.39" r="4" fill="#0" id="circle142"/>
	<circle cx="347.762" cy="946.892" r="4" fill="#0" id="circle143"/>
	<circle cx="361.513" cy="960.643" r="4" fill="#0" id="circle144"/>
	<circle cx="377.226" cy="976.356" r="4" fill="#0" id="circle145"/>
	<circle cx="396.87" cy="986.178" r="4" fill="#0" id="circle146"/>
	<circle cx="418.479" cy="992.071" r="4" fill="#0" id="circle147"/>
	<circle cx="444.014" cy="996" r="4" fill="#0" id="circle148"/>
	<circle cx="463.658" cy="994.036" r="4" fill="#0" id="circle149"/>
	<circle cx="249.543" cy="687.597" r="4" fill="#0" id="circle150"/>
	<circle cx="265.259" cy="697.417" r="4" fill="#0" id="circle151"/>
	<circle cx="282.938" cy="703.311" r="4" fill="#0" id="circle152"/>
	<circle cx="296.689" cy="713.133" r="4" fill="#0" id="circle153"/>
	<circle cx="314.367" cy="722.955" r="4" fill="#0" id="circle154"/>
	<circle cx="332.047" cy="736.706" r="4" fill="#0" id="circle155"/>
	<circle cx="261.33" cy="673.847" r="4" fill="#0" id="circle156"/>
	<circle cx="279.01" cy="675.811" r="4" fill="#0" id="circle157"/>
	<circle cx="296.689" cy="671.882" r="4" fill="#0" id="circle158"/>
	<circle cx="298.654" cy="642.416" r="4" fill="#0" id="circle159"/>
	<circle cx="273.116" cy="638.487" r="4" fill="#0" id="circle160"/>
	<circle cx="257.401" cy="636.523" r="4" fill="#0" id="circle161"/>
	<circle cx="235.793" cy="626.701" r="4" fill="#0" id="circle162"/>
	<circle cx="229.901" cy="603.13" r="4" fill="#0" id="circle163"/>
	<circle cx="229.901" cy="581.521" r="4" fill="#0" id="circle164"/>
	<circle cx="229.901" cy="563.841" r="4" fill="#0" id="circle165"/>
	<circle cx="243.65" cy="555.984" r="4" fill="#0" id="circle166"/>
	<circle cx="263.294" cy="557.948" r="4" fill="#0" id="circle167"/>
	<circle cx="286.867" cy="563.841" r="4" fill="#0" id="circle168"/>
	<circle cx="306.509" cy="573.663" r="4" fill="#0" id="circle169"/>
	<circle cx="320.26" cy="593.308" r="4" fill="#0" id="circle170"/>
	<circle cx="332.047" cy="609.023" r="4" fill="#0" id="circle171"/>
	<circle cx="339.904" cy="628.665" r="4" fill="#0" id="circle172"/>
	<circle cx="339.904" cy="648.309" r="4" fill="#0" id="circle173"/>
	<circle cx="339.904" cy="671.882" r="4" fill="#0" id="circle174"/>
	<circle cx="341.869" cy="691.524" r="4" fill="#0" id="circle175"/>
	<circle cx="343.833" cy="709.204" r="4" fill="#0" id="circle176"/>
	<circle cx="343.833" cy="728.848" r="4" fill="#0" id="circle177"/>
	</g>
</svg>