<?xml version="1.0" encoding="UTF-8" standalone="no"?>
<!-- Created with CurveBenchmark -->
<svg
	xmlns:dc="http://purl.org/dc/elements/1.1/"
	xmlns:cc="http://creativecommons.org/ns#"
	xmlns:rdf="http://www.w3.org/1999/02/22-rdf-syntax-ns#"
	xmlns:svg="http://www.w3.org/2000/svg"
	xmlns="http://www.w3.org/2000/svg"
	xmlns:sodipodi="http://sodipodi.sourceforge.net/DTD/sodipodi-0.dtd"
	xmlns:inkscape="http://www.inkscape.org/namespaces/inkscape"
	width="1000"
	height="1000"
	id="svg2"
	version="1.1"
	sodipodi:docname="mc47">
<defs
	id="defs4" />
<metadata
	id="metadata7">
	<rdf:RDF>
		<cc:Work
			rdf:about="">
			<dc:format>image/svg+xml</dc:format>
			<dc:type
				rdf:resource="http://purl.org/dc/dcmitype/StillImage" />
			<dc:title></dc:title>
		</cc:Work>
	</rdf:RDF>
</metadata>
<g
	inkscape:label="Layer 1"
	inkscape:groupmode="layer"
	id="layer1">
	<path style="fill:none;stroke:#000000;stroke-width:1px;stroke-linecap:butt;stroke-linejoin:miter;stroke-opacity:1" d="M 33.3356,347.094 50.0295,373.404 z" id="boundary" inkscape:connector-curvature="0" />
	<path style="fill:none;stroke:#000000;stroke-width:1px;stroke-linecap:butt;stroke-linejoin:miter;stroke-opacity:1" d="M 33.3356,347.094 19.6186,330.731 z" id="boundary" inkscape:connector-curvature="0" />
	<path style="fill:none;stroke:#000000;stroke-width:1px;stroke-linecap:butt;stroke-linejoin:miter;stroke-opacity:1" d="M 4,276.537 7.6394,252.445 z" id="boundary" inkscape:connector-curvature="0" />
	<path style="fill:none;stroke:#000000;stroke-width:1px;stroke-linecap:butt;stroke-linejoin:miter;stroke-opacity:1" d="M 4,276.537 16.6559,302.788 z" id="boundary" inkscape:connector-curvature="0" />
	<path style="fill:none;stroke:#000000;stroke-width:1px;stroke-linecap:butt;stroke-linejoin:miter;stroke-opacity:1" d="M 19.6186,330.731 16.6559,302.788 z" id="boundary" inkscape:connector-curvature="0" />
	<path style="fill:none;stroke:#000000;stroke-width:1px;stroke-linecap:butt;stroke-linejoin:miter;stroke-opacity:1" d="M 72.5698,173.843 36.3428,194.128 z" id="boundary" inkscape:connector-curvature="0" />
	<path style="fill:none;stroke:#000000;stroke-width:1px;stroke-linecap:butt;stroke-linejoin:miter;stroke-opacity:1" d="M 7.6394,252.445 22.3848,216.615 z" id="boundary" inkscape:connector-curvature="0" />
	<path style="fill:none;stroke:#000000;stroke-width:1px;stroke-linecap:butt;stroke-linejoin:miter;stroke-opacity:1" d="M 36.3428,194.128 22.3848,216.615 z" id="boundary" inkscape:connector-curvature="0" />
	<path style="fill:none;stroke:#000000;stroke-width:1px;stroke-linecap:butt;stroke-linejoin:miter;stroke-opacity:1" d="M 282.489,628.38 277.113,602.331 z" id="boundary" inkscape:connector-curvature="0" />
	<path style="fill:none;stroke:#000000;stroke-width:1px;stroke-linecap:butt;stroke-linejoin:miter;stroke-opacity:1" d="M 113.645,305.78 106.427,279.676 z" id="boundary" inkscape:connector-curvature="0" />
	<path style="fill:none;stroke:#000000;stroke-width:1px;stroke-linecap:butt;stroke-linejoin:miter;stroke-opacity:1" d="M 50.0295,373.404 74.6706,386.727 z" id="boundary" inkscape:connector-curvature="0" />
	<path style="fill:none;stroke:#000000;stroke-width:1px;stroke-linecap:butt;stroke-linejoin:miter;stroke-opacity:1" d="M 72.5698,173.843 106.721,165.555 z" id="boundary" inkscape:connector-curvature="0" />
	<path style="fill:none;stroke:#000000;stroke-width:1px;stroke-linecap:butt;stroke-linejoin:miter;stroke-opacity:1" d="M 594.002,458.14 559.904,457.743 z" id="boundary" inkscape:connector-curvature="0" />
	<path style="fill:none;stroke:#000000;stroke-width:1px;stroke-linecap:butt;stroke-linejoin:miter;stroke-opacity:1" d="M 112.78,242.147 106.427,279.676 z" id="boundary" inkscape:connector-curvature="0" />
	<path style="fill:none;stroke:#000000;stroke-width:1px;stroke-linecap:butt;stroke-linejoin:miter;stroke-opacity:1" d="M 158.233,273.783 148.768,234.724 z" id="boundary" inkscape:connector-curvature="0" />
	<path style="fill:none;stroke:#000000;stroke-width:1px;stroke-linecap:butt;stroke-linejoin:miter;stroke-opacity:1" d="M 148.768,234.724 112.78,242.147 z" id="boundary" inkscape:connector-curvature="0" />
	<path style="fill:none;stroke:#000000;stroke-width:1px;stroke-linecap:butt;stroke-linejoin:miter;stroke-opacity:1" d="M 129.346,323.12 113.645,305.78 z" id="boundary" inkscape:connector-curvature="0" />
	<path style="fill:none;stroke:#000000;stroke-width:1px;stroke-linecap:butt;stroke-linejoin:miter;stroke-opacity:1" d="M 136.76,405.714 108.732,400.261 z" id="boundary" inkscape:connector-curvature="0" />
	<path style="fill:none;stroke:#000000;stroke-width:1px;stroke-linecap:butt;stroke-linejoin:miter;stroke-opacity:1" d="M 151.73,183.844 128.294,167.06 z" id="boundary" inkscape:connector-curvature="0" />
	<path style="fill:none;stroke:#000000;stroke-width:1px;stroke-linecap:butt;stroke-linejoin:miter;stroke-opacity:1" d="M 128.294,167.06 106.721,165.555 z" id="boundary" inkscape:connector-curvature="0" />
	<path style="fill:none;stroke:#000000;stroke-width:1px;stroke-linecap:butt;stroke-linejoin:miter;stroke-opacity:1" d="M 74.6706,386.727 108.732,400.261 z" id="boundary" inkscape:connector-curvature="0" />
	<path style="fill:none;stroke:#000000;stroke-width:1px;stroke-linecap:butt;stroke-linejoin:miter;stroke-opacity:1" d="M 129.346,323.12 154.316,307.039 z" id="boundary" inkscape:connector-curvature="0" />
	<path style="fill:none;stroke:#000000;stroke-width:1px;stroke-linecap:butt;stroke-linejoin:miter;stroke-opacity:1" d="M 162.025,392.734 136.76,405.714 z" id="boundary" inkscape:connector-curvature="0" />
	<path style="fill:none;stroke:#000000;stroke-width:1px;stroke-linecap:butt;stroke-linejoin:miter;stroke-opacity:1" d="M 305.94,698.855 326.297,735.322 z" id="boundary" inkscape:connector-curvature="0" />
	<path style="fill:none;stroke:#000000;stroke-width:1px;stroke-linecap:butt;stroke-linejoin:miter;stroke-opacity:1" d="M 151.73,183.844 173.66,194.669 z" id="boundary" inkscape:connector-curvature="0" />
	<path style="fill:none;stroke:#000000;stroke-width:1px;stroke-linecap:butt;stroke-linejoin:miter;stroke-opacity:1" d="M 224.113,384.873 195.006,383.238 z" id="boundary" inkscape:connector-curvature="0" />
	<path style="fill:none;stroke:#000000;stroke-width:1px;stroke-linecap:butt;stroke-linejoin:miter;stroke-opacity:1" d="M 154.316,307.039 158.233,273.783 z" id="boundary" inkscape:connector-curvature="0" />
	<path style="fill:none;stroke:#000000;stroke-width:1px;stroke-linecap:butt;stroke-linejoin:miter;stroke-opacity:1" d="M 162.025,392.734 195.006,383.238 z" id="boundary" inkscape:connector-curvature="0" />
	<path style="fill:none;stroke:#000000;stroke-width:1px;stroke-linecap:butt;stroke-linejoin:miter;stroke-opacity:1" d="M 210.092,211.825 227.451,228.743 z" id="boundary" inkscape:connector-curvature="0" />
	<path style="fill:none;stroke:#000000;stroke-width:1px;stroke-linecap:butt;stroke-linejoin:miter;stroke-opacity:1" d="M 173.66,194.669 210.092,211.825 z" id="boundary" inkscape:connector-curvature="0" />
	<path style="fill:none;stroke:#000000;stroke-width:1px;stroke-linecap:butt;stroke-linejoin:miter;stroke-opacity:1" d="M 245.778,378.414 274.948,396.798 z" id="boundary" inkscape:connector-curvature="0" />
	<path style="fill:none;stroke:#000000;stroke-width:1px;stroke-linecap:butt;stroke-linejoin:miter;stroke-opacity:1" d="M 245.778,378.414 224.113,384.873 z" id="boundary" inkscape:connector-curvature="0" />
	<path style="fill:none;stroke:#000000;stroke-width:1px;stroke-linecap:butt;stroke-linejoin:miter;stroke-opacity:1" d="M 227.451,228.743 249.984,222.568 z" id="boundary" inkscape:connector-curvature="0" />
	<path style="fill:none;stroke:#000000;stroke-width:1px;stroke-linecap:butt;stroke-linejoin:miter;stroke-opacity:1" d="M 276.941,521.078 267.891,550.151 z" id="boundary" inkscape:connector-curvature="0" />
	<path style="fill:none;stroke:#000000;stroke-width:1px;stroke-linecap:butt;stroke-linejoin:miter;stroke-opacity:1" d="M 274.948,396.798 291.42,423.201 z" id="boundary" inkscape:connector-curvature="0" />
	<path style="fill:none;stroke:#000000;stroke-width:1px;stroke-linecap:butt;stroke-linejoin:miter;stroke-opacity:1" d="M 282.489,628.38 289.869,666.827 z" id="boundary" inkscape:connector-curvature="0" />
	<path style="fill:none;stroke:#000000;stroke-width:1px;stroke-linecap:butt;stroke-linejoin:miter;stroke-opacity:1" d="M 249.984,222.568 276.564,201.672 z" id="boundary" inkscape:connector-curvature="0" />
	<path style="fill:none;stroke:#000000;stroke-width:1px;stroke-linecap:butt;stroke-linejoin:miter;stroke-opacity:1" d="M 276.564,201.672 298.248,177.719 z" id="boundary" inkscape:connector-curvature="0" />
	<path style="fill:none;stroke:#000000;stroke-width:1px;stroke-linecap:butt;stroke-linejoin:miter;stroke-opacity:1" d="M 298.248,177.719 317.449,165.662 z" id="boundary" inkscape:connector-curvature="0" />
	<path style="fill:none;stroke:#000000;stroke-width:1px;stroke-linecap:butt;stroke-linejoin:miter;stroke-opacity:1" d="M 267.891,550.151 278.234,571.721 z" id="boundary" inkscape:connector-curvature="0" />
	<path style="fill:none;stroke:#000000;stroke-width:1px;stroke-linecap:butt;stroke-linejoin:miter;stroke-opacity:1" d="M 276.941,521.078 287.391,485.921 z" id="boundary" inkscape:connector-curvature="0" />
	<path style="fill:none;stroke:#000000;stroke-width:1px;stroke-linecap:butt;stroke-linejoin:miter;stroke-opacity:1" d="M 278.234,571.721 277.113,602.331 z" id="boundary" inkscape:connector-curvature="0" />
	<path style="fill:none;stroke:#000000;stroke-width:1px;stroke-linecap:butt;stroke-linejoin:miter;stroke-opacity:1" d="M 289.869,666.827 305.94,698.855 z" id="boundary" inkscape:connector-curvature="0" />
	<path style="fill:none;stroke:#000000;stroke-width:1px;stroke-linecap:butt;stroke-linejoin:miter;stroke-opacity:1" d="M 297.811,451.394 287.391,485.921 z" id="boundary" inkscape:connector-curvature="0" />
	<path style="fill:none;stroke:#000000;stroke-width:1px;stroke-linecap:butt;stroke-linejoin:miter;stroke-opacity:1" d="M 297.811,451.394 291.42,423.201 z" id="boundary" inkscape:connector-curvature="0" />
	<path style="fill:none;stroke:#000000;stroke-width:1px;stroke-linecap:butt;stroke-linejoin:miter;stroke-opacity:1" d="M 336.219,143.444 357.653,131.81 z" id="boundary" inkscape:connector-curvature="0" />
	<path style="fill:none;stroke:#000000;stroke-width:1px;stroke-linecap:butt;stroke-linejoin:miter;stroke-opacity:1" d="M 336.219,143.444 317.449,165.662 z" id="boundary" inkscape:connector-curvature="0" />
	<path style="fill:none;stroke:#000000;stroke-width:1px;stroke-linecap:butt;stroke-linejoin:miter;stroke-opacity:1" d="M 374.72,110.291 395.61,94.8869 z" id="boundary" inkscape:connector-curvature="0" />
	<path style="fill:none;stroke:#000000;stroke-width:1px;stroke-linecap:butt;stroke-linejoin:miter;stroke-opacity:1" d="M 374.72,110.291 357.653,131.81 z" id="boundary" inkscape:connector-curvature="0" />
	<path style="fill:none;stroke:#000000;stroke-width:1px;stroke-linecap:butt;stroke-linejoin:miter;stroke-opacity:1" d="M 407.54,659.927 400.566,632.393 z" id="boundary" inkscape:connector-curvature="0" />
	<path style="fill:none;stroke:#000000;stroke-width:1px;stroke-linecap:butt;stroke-linejoin:miter;stroke-opacity:1" d="M 395.61,94.8869 420.442,81.4926 z" id="boundary" inkscape:connector-curvature="0" />
	<path style="fill:none;stroke:#000000;stroke-width:1px;stroke-linecap:butt;stroke-linejoin:miter;stroke-opacity:1" d="M 326.297,735.322 344.475,757.222 z" id="boundary" inkscape:connector-curvature="0" />
	<path style="fill:none;stroke:#000000;stroke-width:1px;stroke-linecap:butt;stroke-linejoin:miter;stroke-opacity:1" d="M 344.475,757.222 364.421,762.176 z" id="boundary" inkscape:connector-curvature="0" />
	<path style="fill:none;stroke:#000000;stroke-width:1px;stroke-linecap:butt;stroke-linejoin:miter;stroke-opacity:1" d="M 910.071,659.435 931.557,663.357 z" id="boundary" inkscape:connector-curvature="0" />
	<path style="fill:none;stroke:#000000;stroke-width:1px;stroke-linecap:butt;stroke-linejoin:miter;stroke-opacity:1" d="M 364.421,762.176 396.987,755.419 z" id="boundary" inkscape:connector-curvature="0" />
	<path style="fill:none;stroke:#000000;stroke-width:1px;stroke-linecap:butt;stroke-linejoin:miter;stroke-opacity:1" d="M 407.54,659.927 421.897,680.334 z" id="boundary" inkscape:connector-curvature="0" />
	<path style="fill:none;stroke:#000000;stroke-width:1px;stroke-linecap:butt;stroke-linejoin:miter;stroke-opacity:1" d="M 697.592,442.049 675.233,446.498 z" id="boundary" inkscape:connector-curvature="0" />
	<path style="fill:none;stroke:#000000;stroke-width:1px;stroke-linecap:butt;stroke-linejoin:miter;stroke-opacity:1" d="M 423.459,705.607 421.897,680.334 z" id="boundary" inkscape:connector-curvature="0" />
	<path style="fill:none;stroke:#000000;stroke-width:1px;stroke-linecap:butt;stroke-linejoin:miter;stroke-opacity:1" d="M 400.566,632.393 415.158,606.378 z" id="boundary" inkscape:connector-curvature="0" />
	<path style="fill:none;stroke:#000000;stroke-width:1px;stroke-linecap:butt;stroke-linejoin:miter;stroke-opacity:1" d="M 539.435,448.436 559.904,457.743 z" id="boundary" inkscape:connector-curvature="0" />
	<path style="fill:none;stroke:#000000;stroke-width:1px;stroke-linecap:butt;stroke-linejoin:miter;stroke-opacity:1" d="M 396.987,755.419 415.271,736.594 z" id="boundary" inkscape:connector-curvature="0" />
	<path style="fill:none;stroke:#000000;stroke-width:1px;stroke-linecap:butt;stroke-linejoin:miter;stroke-opacity:1" d="M 415.158,606.378 427.214,585.432 z" id="boundary" inkscape:connector-curvature="0" />
	<path style="fill:none;stroke:#000000;stroke-width:1px;stroke-linecap:butt;stroke-linejoin:miter;stroke-opacity:1" d="M 448.149,575.551 466.122,550.075 z" id="boundary" inkscape:connector-curvature="0" />
	<path style="fill:none;stroke:#000000;stroke-width:1px;stroke-linecap:butt;stroke-linejoin:miter;stroke-opacity:1" d="M 415.271,736.594 423.459,705.607 z" id="boundary" inkscape:connector-curvature="0" />
	<path style="fill:none;stroke:#000000;stroke-width:1px;stroke-linecap:butt;stroke-linejoin:miter;stroke-opacity:1" d="M 448.149,575.551 427.214,585.432 z" id="boundary" inkscape:connector-curvature="0" />
	<path style="fill:none;stroke:#000000;stroke-width:1px;stroke-linecap:butt;stroke-linejoin:miter;stroke-opacity:1" d="M 420.442,81.4926 440.24,68.097 z" id="boundary" inkscape:connector-curvature="0" />
	<path style="fill:none;stroke:#000000;stroke-width:1px;stroke-linecap:butt;stroke-linejoin:miter;stroke-opacity:1" d="M 473.904,506.075 466.122,550.075 z" id="boundary" inkscape:connector-curvature="0" />
	<path style="fill:none;stroke:#000000;stroke-width:1px;stroke-linecap:butt;stroke-linejoin:miter;stroke-opacity:1" d="M 440.24,68.097 464.829,52.6932 z" id="boundary" inkscape:connector-curvature="0" />
	<path style="fill:none;stroke:#000000;stroke-width:1px;stroke-linecap:butt;stroke-linejoin:miter;stroke-opacity:1" d="M 473.904,506.075 477.039,481.09 z" id="boundary" inkscape:connector-curvature="0" />
	<path style="fill:none;stroke:#000000;stroke-width:1px;stroke-linecap:butt;stroke-linejoin:miter;stroke-opacity:1" d="M 472.356,444.836 477.039,481.09 z" id="boundary" inkscape:connector-curvature="0" />
	<path style="fill:none;stroke:#000000;stroke-width:1px;stroke-linecap:butt;stroke-linejoin:miter;stroke-opacity:1" d="M 506.342,450.772 539.435,448.436 z" id="boundary" inkscape:connector-curvature="0" />
	<path style="fill:none;stroke:#000000;stroke-width:1px;stroke-linecap:butt;stroke-linejoin:miter;stroke-opacity:1" d="M 517.642,24.2484 487.008,32.5355 z" id="boundary" inkscape:connector-curvature="0" />
	<path style="fill:none;stroke:#000000;stroke-width:1px;stroke-linecap:butt;stroke-linejoin:miter;stroke-opacity:1" d="M 487.008,32.5355 464.829,52.6932 z" id="boundary" inkscape:connector-curvature="0" />
	<path style="fill:none;stroke:#000000;stroke-width:1px;stroke-linecap:butt;stroke-linejoin:miter;stroke-opacity:1" d="M 472.356,444.836 506.342,450.772 z" id="boundary" inkscape:connector-curvature="0" />
	<path style="fill:none;stroke:#000000;stroke-width:1px;stroke-linecap:butt;stroke-linejoin:miter;stroke-opacity:1" d="M 634.474,448.499 613.57,451.204 z" id="boundary" inkscape:connector-curvature="0" />
	<path style="fill:none;stroke:#000000;stroke-width:1px;stroke-linecap:butt;stroke-linejoin:miter;stroke-opacity:1" d="M 613.57,451.204 594.002,458.14 z" id="boundary" inkscape:connector-curvature="0" />
	<path style="fill:none;stroke:#000000;stroke-width:1px;stroke-linecap:butt;stroke-linejoin:miter;stroke-opacity:1" d="M 517.642,24.2484 540.81,15.116 z" id="boundary" inkscape:connector-curvature="0" />
	<path style="fill:none;stroke:#000000;stroke-width:1px;stroke-linecap:butt;stroke-linejoin:miter;stroke-opacity:1" d="M 540.81,15.116 573.697,9.5274 z" id="boundary" inkscape:connector-curvature="0" />
	<path style="fill:none;stroke:#000000;stroke-width:1px;stroke-linecap:butt;stroke-linejoin:miter;stroke-opacity:1" d="M 781.136,497.977 792.137,523.282 z" id="boundary" inkscape:connector-curvature="0" />
	<path style="fill:none;stroke:#000000;stroke-width:1px;stroke-linecap:butt;stroke-linejoin:miter;stroke-opacity:1" d="M 612.898,7.43396 573.697,9.5274 z" id="boundary" inkscape:connector-curvature="0" />
	<path style="fill:none;stroke:#000000;stroke-width:1px;stroke-linecap:butt;stroke-linejoin:miter;stroke-opacity:1" d="M 772.574,449.32 781.136,497.977 z" id="boundary" inkscape:connector-curvature="0" />
	<path style="fill:none;stroke:#000000;stroke-width:1px;stroke-linecap:butt;stroke-linejoin:miter;stroke-opacity:1" d="M 612.898,7.43396 639.484,4 z" id="boundary" inkscape:connector-curvature="0" />
	<path style="fill:none;stroke:#000000;stroke-width:1px;stroke-linecap:butt;stroke-linejoin:miter;stroke-opacity:1" d="M 639.484,4 663.346,11.0147 z" id="boundary" inkscape:connector-curvature="0" />
	<path style="fill:none;stroke:#000000;stroke-width:1px;stroke-linecap:butt;stroke-linejoin:miter;stroke-opacity:1" d="M 675.233,446.498 634.474,448.499 z" id="boundary" inkscape:connector-curvature="0" />
	<path style="fill:none;stroke:#000000;stroke-width:1px;stroke-linecap:butt;stroke-linejoin:miter;stroke-opacity:1" d="M 663.346,11.0147 685.145,15.9665 z" id="boundary" inkscape:connector-curvature="0" />
	<path style="fill:none;stroke:#000000;stroke-width:1px;stroke-linecap:butt;stroke-linejoin:miter;stroke-opacity:1" d="M 685.145,15.9665 712.09,26.3289 z" id="boundary" inkscape:connector-curvature="0" />
	<path style="fill:none;stroke:#000000;stroke-width:1px;stroke-linecap:butt;stroke-linejoin:miter;stroke-opacity:1" d="M 697.592,442.049 716.546,432.352 z" id="boundary" inkscape:connector-curvature="0" />
	<path style="fill:none;stroke:#000000;stroke-width:1px;stroke-linecap:butt;stroke-linejoin:miter;stroke-opacity:1" d="M 716.546,432.352 738.042,436.695 z" id="boundary" inkscape:connector-curvature="0" />
	<path style="fill:none;stroke:#000000;stroke-width:1px;stroke-linecap:butt;stroke-linejoin:miter;stroke-opacity:1" d="M 772.574,449.32 762.276,428.114 z" id="boundary" inkscape:connector-curvature="0" />
	<path style="fill:none;stroke:#000000;stroke-width:1px;stroke-linecap:butt;stroke-linejoin:miter;stroke-opacity:1" d="M 762.276,428.114 738.042,436.695 z" id="boundary" inkscape:connector-curvature="0" />
	<path style="fill:none;stroke:#000000;stroke-width:1px;stroke-linecap:butt;stroke-linejoin:miter;stroke-opacity:1" d="M 732.871,36.25 712.09,26.3289 z" id="boundary" inkscape:connector-curvature="0" />
	<path style="fill:none;stroke:#000000;stroke-width:1px;stroke-linecap:butt;stroke-linejoin:miter;stroke-opacity:1" d="M 792.137,523.282 806.877,547.54 z" id="boundary" inkscape:connector-curvature="0" />
	<path style="fill:none;stroke:#000000;stroke-width:1px;stroke-linecap:butt;stroke-linejoin:miter;stroke-opacity:1" d="M 732.871,36.25 762.174,48.3154 z" id="boundary" inkscape:connector-curvature="0" />
	<path style="fill:none;stroke:#000000;stroke-width:1px;stroke-linecap:butt;stroke-linejoin:miter;stroke-opacity:1" d="M 853.82,598.946 830.316,569.983 z" id="boundary" inkscape:connector-curvature="0" />
	<path style="fill:none;stroke:#000000;stroke-width:1px;stroke-linecap:butt;stroke-linejoin:miter;stroke-opacity:1" d="M 815.61,89.4141 795.233,68.6596 z" id="boundary" inkscape:connector-curvature="0" />
	<path style="fill:none;stroke:#000000;stroke-width:1px;stroke-linecap:butt;stroke-linejoin:miter;stroke-opacity:1" d="M 795.233,68.6596 762.174,48.3154 z" id="boundary" inkscape:connector-curvature="0" />
	<path style="fill:none;stroke:#000000;stroke-width:1px;stroke-linecap:butt;stroke-linejoin:miter;stroke-opacity:1" d="M 815.61,89.4141 843.244,116.567 z" id="boundary" inkscape:connector-curvature="0" />
	<path style="fill:none;stroke:#000000;stroke-width:1px;stroke-linecap:butt;stroke-linejoin:miter;stroke-opacity:1" d="M 830.316,569.983 806.877,547.54 z" id="boundary" inkscape:connector-curvature="0" />
	<path style="fill:none;stroke:#000000;stroke-width:1px;stroke-linecap:butt;stroke-linejoin:miter;stroke-opacity:1" d="M 926.656,400.654 916.145,364.179 z" id="boundary" inkscape:connector-curvature="0" />
	<path style="fill:none;stroke:#000000;stroke-width:1px;stroke-linecap:butt;stroke-linejoin:miter;stroke-opacity:1" d="M 853.82,598.946 873.787,617.497 z" id="boundary" inkscape:connector-curvature="0" />
	<path style="fill:none;stroke:#000000;stroke-width:1px;stroke-linecap:butt;stroke-linejoin:miter;stroke-opacity:1" d="M 870.634,131.673 885.422,151.907 z" id="boundary" inkscape:connector-curvature="0" />
	<path style="fill:none;stroke:#000000;stroke-width:1px;stroke-linecap:butt;stroke-linejoin:miter;stroke-opacity:1" d="M 870.634,131.673 843.244,116.567 z" id="boundary" inkscape:connector-curvature="0" />
	<path style="fill:none;stroke:#000000;stroke-width:1px;stroke-linecap:butt;stroke-linejoin:miter;stroke-opacity:1" d="M 941.713,422.095 926.656,400.654 z" id="boundary" inkscape:connector-curvature="0" />
	<path style="fill:none;stroke:#000000;stroke-width:1px;stroke-linecap:butt;stroke-linejoin:miter;stroke-opacity:1" d="M 910.071,659.435 894.364,639.028 z" id="boundary" inkscape:connector-curvature="0" />
	<path style="fill:none;stroke:#000000;stroke-width:1px;stroke-linecap:butt;stroke-linejoin:miter;stroke-opacity:1" d="M 894.364,639.028 873.787,617.497 z" id="boundary" inkscape:connector-curvature="0" />
	<path style="fill:none;stroke:#000000;stroke-width:1px;stroke-linecap:butt;stroke-linejoin:miter;stroke-opacity:1" d="M 885.422,151.907 897.624,177.976 z" id="boundary" inkscape:connector-curvature="0" />
	<path style="fill:none;stroke:#000000;stroke-width:1px;stroke-linecap:butt;stroke-linejoin:miter;stroke-opacity:1" d="M 906.107,344.366 916.145,364.179 z" id="boundary" inkscape:connector-curvature="0" />
	<path style="fill:none;stroke:#000000;stroke-width:1px;stroke-linecap:butt;stroke-linejoin:miter;stroke-opacity:1" d="M 931.557,663.357 967.731,661.601 z" id="boundary" inkscape:connector-curvature="0" />
	<path style="fill:none;stroke:#000000;stroke-width:1px;stroke-linecap:butt;stroke-linejoin:miter;stroke-opacity:1" d="M 956.526,441.713 941.713,422.095 z" id="boundary" inkscape:connector-curvature="0" />
	<path style="fill:none;stroke:#000000;stroke-width:1px;stroke-linecap:butt;stroke-linejoin:miter;stroke-opacity:1" d="M 938.452,283.02 923.574,297.893 z" id="boundary" inkscape:connector-curvature="0" />
	<path style="fill:none;stroke:#000000;stroke-width:1px;stroke-linecap:butt;stroke-linejoin:miter;stroke-opacity:1" d="M 923.574,297.893 913.821,319.647 z" id="boundary" inkscape:connector-curvature="0" />
	<path style="fill:none;stroke:#000000;stroke-width:1px;stroke-linecap:butt;stroke-linejoin:miter;stroke-opacity:1" d="M 906.107,344.366 913.821,319.647 z" id="boundary" inkscape:connector-curvature="0" />
	<path style="fill:none;stroke:#000000;stroke-width:1px;stroke-linecap:butt;stroke-linejoin:miter;stroke-opacity:1" d="M 978.758,486.445 956.526,441.713 z" id="boundary" inkscape:connector-curvature="0" />
	<path style="fill:none;stroke:#000000;stroke-width:1px;stroke-linecap:butt;stroke-linejoin:miter;stroke-opacity:1" d="M 897.624,177.976 920.005,204.993 z" id="boundary" inkscape:connector-curvature="0" />
	<path style="fill:none;stroke:#000000;stroke-width:1px;stroke-linecap:butt;stroke-linejoin:miter;stroke-opacity:1" d="M 991.28,533.043 978.758,486.445 z" id="boundary" inkscape:connector-curvature="0" />
	<path style="fill:none;stroke:#000000;stroke-width:1px;stroke-linecap:butt;stroke-linejoin:miter;stroke-opacity:1" d="M 936.157,256.414 930.616,227.114 z" id="boundary" inkscape:connector-curvature="0" />
	<path style="fill:none;stroke:#000000;stroke-width:1px;stroke-linecap:butt;stroke-linejoin:miter;stroke-opacity:1" d="M 920.005,204.993 930.616,227.114 z" id="boundary" inkscape:connector-curvature="0" />
	<path style="fill:none;stroke:#000000;stroke-width:1px;stroke-linecap:butt;stroke-linejoin:miter;stroke-opacity:1" d="M 938.452,283.02 936.157,256.414 z" id="boundary" inkscape:connector-curvature="0" />
	<path style="fill:none;stroke:#000000;stroke-width:1px;stroke-linecap:butt;stroke-linejoin:miter;stroke-opacity:1" d="M 967.731,661.601 988.086,623.611 z" id="boundary" inkscape:connector-curvature="0" />
	<path style="fill:none;stroke:#000000;stroke-width:1px;stroke-linecap:butt;stroke-linejoin:miter;stroke-opacity:1" d="M 994.362,562.048 996,554.995 z" id="boundary" inkscape:connector-curvature="0" />
	<path style="fill:none;stroke:#000000;stroke-width:1px;stroke-linecap:butt;stroke-linejoin:miter;stroke-opacity:1" d="M 996,554.995 991.28,533.043 z" id="boundary" inkscape:connector-curvature="0" />
	<path style="fill:none;stroke:#000000;stroke-width:1px;stroke-linecap:butt;stroke-linejoin:miter;stroke-opacity:1" d="M 988.086,623.611 995.512,589.54 z" id="boundary" inkscape:connector-curvature="0" />
	<path style="fill:none;stroke:#000000;stroke-width:1px;stroke-linecap:butt;stroke-linejoin:miter;stroke-opacity:1" d="M 994.362,562.048 995.512,589.54 z" id="boundary" inkscape:connector-curvature="0" />
	<circle cx="4" cy="276.537" r="4" fill="#0" id="circle0"/>
	<circle cx="7.6394" cy="252.445" r="4" fill="#0" id="circle1"/>
	<circle cx="16.6559" cy="302.788" r="4" fill="#0" id="circle2"/>
	<circle cx="19.6186" cy="330.731" r="4" fill="#0" id="circle3"/>
	<circle cx="22.3848" cy="216.615" r="4" fill="#0" id="circle4"/>
	<circle cx="33.3356" cy="347.094" r="4" fill="#0" id="circle5"/>
	<circle cx="36.3428" cy="194.128" r="4" fill="#0" id="circle6"/>
	<circle cx="50.0295" cy="373.404" r="4" fill="#0" id="circle7"/>
	<circle cx="72.5698" cy="173.843" r="4" fill="#0" id="circle8"/>
	<circle cx="74.6706" cy="386.727" r="4" fill="#0" id="circle9"/>
	<circle cx="106.427" cy="279.676" r="4" fill="#0" id="circle10"/>
	<circle cx="106.721" cy="165.555" r="4" fill="#0" id="circle11"/>
	<circle cx="108.732" cy="400.261" r="4" fill="#0" id="circle12"/>
	<circle cx="112.78" cy="242.147" r="4" fill="#0" id="circle13"/>
	<circle cx="113.645" cy="305.78" r="4" fill="#0" id="circle14"/>
	<circle cx="128.294" cy="167.06" r="4" fill="#0" id="circle15"/>
	<circle cx="129.346" cy="323.12" r="4" fill="#0" id="circle16"/>
	<circle cx="136.76" cy="405.714" r="4" fill="#0" id="circle17"/>
	<circle cx="148.768" cy="234.724" r="4" fill="#0" id="circle18"/>
	<circle cx="151.73" cy="183.844" r="4" fill="#0" id="circle19"/>
	<circle cx="154.316" cy="307.039" r="4" fill="#0" id="circle20"/>
	<circle cx="158.233" cy="273.783" r="4" fill="#0" id="circle21"/>
	<circle cx="162.025" cy="392.734" r="4" fill="#0" id="circle22"/>
	<circle cx="173.66" cy="194.669" r="4" fill="#0" id="circle23"/>
	<circle cx="195.006" cy="383.238" r="4" fill="#0" id="circle24"/>
	<circle cx="210.092" cy="211.825" r="4" fill="#0" id="circle25"/>
	<circle cx="224.113" cy="384.873" r="4" fill="#0" id="circle26"/>
	<circle cx="227.451" cy="228.743" r="4" fill="#0" id="circle27"/>
	<circle cx="245.778" cy="378.414" r="4" fill="#0" id="circle28"/>
	<circle cx="249.984" cy="222.568" r="4" fill="#0" id="circle29"/>
	<circle cx="267.891" cy="550.151" r="4" fill="#0" id="circle30"/>
	<circle cx="274.948" cy="396.798" r="4" fill="#0" id="circle31"/>
	<circle cx="276.564" cy="201.672" r="4" fill="#0" id="circle32"/>
	<circle cx="276.941" cy="521.078" r="4" fill="#0" id="circle33"/>
	<circle cx="277.113" cy="602.331" r="4" fill="#0" id="circle34"/>
	<circle cx="278.234" cy="571.721" r="4" fill="#0" id="circle35"/>
	<circle cx="282.489" cy="628.38" r="4" fill="#0" id="circle36"/>
	<circle cx="287.391" cy="485.921" r="4" fill="#0" id="circle37"/>
	<circle cx="289.869" cy="666.827" r="4" fill="#0" id="circle38"/>
	<circle cx="291.42" cy="423.201" r="4" fill="#0" id="circle39"/>
	<circle cx="298.248" cy="177.719" r="4" fill="#0" id="circle40"/>
	<circle cx="297.811" cy="451.394" r="4" fill="#0" id="circle41"/>
	<circle cx="305.94" cy="698.855" r="4" fill="#0" id="circle42"/>
	<circle cx="317.449" cy="165.662" r="4" fill="#0" id="circle43"/>
	<circle cx="326.297" cy="735.322" r="4" fill="#0" id="circle44"/>
	<circle cx="336.219" cy="143.444" r="4" fill="#0" id="circle45"/>
	<circle cx="344.475" cy="757.222" r="4" fill="#0" id="circle46"/>
	<circle cx="357.653" cy="131.81" r="4" fill="#0" id="circle47"/>
	<circle cx="364.421" cy="762.176" r="4" fill="#0" id="circle48"/>
	<circle cx="374.72" cy="110.291" r="4" fill="#0" id="circle49"/>
	<circle cx="395.61" cy="94.8869" r="4" fill="#0" id="circle50"/>
	<circle cx="396.987" cy="755.419" r="4" fill="#0" id="circle51"/>
	<circle cx="400.566" cy="632.393" r="4" fill="#0" id="circle52"/>
	<circle cx="407.54" cy="659.927" r="4" fill="#0" id="circle53"/>
	<circle cx="415.158" cy="606.378" r="4" fill="#0" id="circle54"/>
	<circle cx="415.271" cy="736.594" r="4" fill="#0" id="circle55"/>
	<circle cx="420.442" cy="81.4926" r="4" fill="#0" id="circle56"/>
	<circle cx="421.897" cy="680.334" r="4" fill="#0" id="circle57"/>
	<circle cx="423.459" cy="705.607" r="4" fill="#0" id="circle58"/>
	<circle cx="427.214" cy="585.432" r="4" fill="#0" id="circle59"/>
	<circle cx="440.24" cy="68.097" r="4" fill="#0" id="circle60"/>
	<circle cx="448.149" cy="575.551" r="4" fill="#0" id="circle61"/>
	<circle cx="464.829" cy="52.6932" r="4" fill="#0" id="circle62"/>
	<circle cx="466.122" cy="550.075" r="4" fill="#0" id="circle63"/>
	<circle cx="472.356" cy="444.836" r="4" fill="#0" id="circle64"/>
	<circle cx="473.904" cy="506.075" r="4" fill="#0" id="circle65"/>
	<circle cx="477.039" cy="481.09" r="4" fill="#0" id="circle66"/>
	<circle cx="487.008" cy="32.5355" r="4" fill="#0" id="circle67"/>
	<circle cx="506.342" cy="450.772" r="4" fill="#0" id="circle68"/>
	<circle cx="517.642" cy="24.2484" r="4" fill="#0" id="circle69"/>
	<circle cx="539.435" cy="448.436" r="4" fill="#0" id="circle70"/>
	<circle cx="540.81" cy="15.116" r="4" fill="#0" id="circle71"/>
	<circle cx="559.904" cy="457.743" r="4" fill="#0" id="circle72"/>
	<circle cx="573.697" cy="9.5274" r="4" fill="#0" id="circle73"/>
	<circle cx="594.002" cy="458.14" r="4" fill="#0" id="circle74"/>
	<circle cx="612.898" cy="7.43396" r="4" fill="#0" id="circle75"/>
	<circle cx="613.57" cy="451.204" r="4" fill="#0" id="circle76"/>
	<circle cx="634.474" cy="448.499" r="4" fill="#0" id="circle77"/>
	<circle cx="639.484" cy="4" r="4" fill="#0" id="circle78"/>
	<circle cx="663.346" cy="11.0147" r="4" fill="#0" id="circle79"/>
	<circle cx="675.233" cy="446.498" r="4" fill="#0" id="circle80"/>
	<circle cx="685.145" cy="15.9665" r="4" fill="#0" id="circle81"/>
	<circle cx="697.592" cy="442.049" r="4" fill="#0" id="circle82"/>
	<circle cx="712.09" cy="26.3289" r="4" fill="#0" id="circle83"/>
	<circle cx="716.546" cy="432.352" r="4" fill="#0" id="circle84"/>
	<circle cx="732.871" cy="36.25" r="4" fill="#0" id="circle85"/>
	<circle cx="738.042" cy="436.695" r="4" fill="#0" id="circle86"/>
	<circle cx="762.174" cy="48.3154" r="4" fill="#0" id="circle87"/>
	<circle cx="762.276" cy="428.114" r="4" fill="#0" id="circle88"/>
	<circle cx="772.574" cy="449.32" r="4" fill="#0" id="circle89"/>
	<circle cx="781.136" cy="497.977" r="4" fill="#0" id="circle90"/>
	<circle cx="792.137" cy="523.282" r="4" fill="#0" id="circle91"/>
	<circle cx="795.233" cy="68.6596" r="4" fill="#0" id="circle92"/>
	<circle cx="806.877" cy="547.54" r="4" fill="#0" id="circle93"/>
	<circle cx="815.61" cy="89.4141" r="4" fill="#0" id="circle94"/>
	<circle cx="830.316" cy="569.983" r="4" fill="#0" id="circle95"/>
	<circle cx="843.244" cy="116.567" r="4" fill="#0" id="circle96"/>
	<circle cx="853.82" cy="598.946" r="4" fill="#0" id="circle97"/>
	<circle cx="870.634" cy="131.673" r="4" fill="#0" id="circle98"/>
	<circle cx="873.787" cy="617.497" r="4" fill="#0" id="circle99"/>
	<circle cx="885.422" cy="151.907" r="4" fill="#0" id="circle100"/>
	<circle cx="894.364" cy="639.028" r="4" fill="#0" id="circle101"/>
	<circle cx="897.624" cy="177.976" r="4" fill="#0" id="circle102"/>
	<circle cx="906.107" cy="344.366" r="4" fill="#0" id="circle103"/>
	<circle cx="910.071" cy="659.435" r="4" fill="#0" id="circle104"/>
	<circle cx="913.821" cy="319.647" r="4" fill="#0" id="circle105"/>
	<circle cx="916.145" cy="364.179" r="4" fill="#0" id="circle106"/>
	<circle cx="920.005" cy="204.993" r="4" fill="#0" id="circle107"/>
	<circle cx="923.574" cy="297.893" r="4" fill="#0" id="circle108"/>
	<circle cx="926.656" cy="400.654" r="4" fill="#0" id="circle109"/>
	<circle cx="930.616" cy="227.114" r="4" fill="#0" id="circle110"/>
	<circle cx="931.557" cy="663.357" r="4" fill="#0" id="circle111"/>
	<circle cx="936.157" cy="256.414" r="4" fill="#0" id="circle112"/>
	<circle cx="938.452" cy="283.02" r="4" fill="#0" id="circle113"/>
	<circle cx="941.713" cy="422.095" r="4" fill="#0" id="circle114"/>
	<circle cx="956.526" cy="441.713" r="4" fill="#0" id="circle115"/>
	<circle cx="967.731" cy="661.601" r="4" fill="#0" id="circle116"/>
	<circle cx="978.758" cy="486.445" r="4" fill="#0" id="circle117"/>
	<circle cx="988.086" cy="623.611" r="4" fill="#0" id="circle118"/>
	<circle cx="991.28" cy="533.043" r="4" fill="#0" id="circle119"/>
	<circle cx="995.512" cy="589.54" r="4" fill="#0" id="circle120"/>
	<circle cx="996" cy="554.995" r="4" fill="#0" id="circle121"/>
	<circle cx="994.362" cy="562.048" r="4" fill="#0" id="circle122"/>
	</g>
</svg>