<?xml version="1.0" encoding="UTF-8" standalone="no"?>
<!-- Created with CurveBenchmark -->
<svg
	xmlns:dc="http://purl.org/dc/elements/1.1/"
	xmlns:cc="http://creativecommons.org/ns#"
	xmlns:rdf="http://www.w3.org/1999/02/22-rdf-syntax-ns#"
	xmlns:svg="http://www.w3.org/2000/svg"
	xmlns="http://www.w3.org/2000/svg"
	xmlns:sodipodi="http://sodipodi.sourceforge.net/DTD/sodipodi-0.dtd"
	xmlns:inkscape="http://www.inkscape.org/namespaces/inkscape"
	width="1000"
	height="1000"
	id="svg2"
	version="1.1"
	sodipodi:docname="mc14">
<defs
	id="defs4" />
<metadata
	id="metadata7">
	<rdf:RDF>
		<cc:Work
			rdf:about="">
			<dc:format>image/svg+xml</dc:format>
			<dc:type
				rdf:resource="http://purl.org/dc/dcmitype/StillImage" />
			<dc:title></dc:title>
		</cc:Work>
	</rdf:RDF>
</metadata>
<g
	inkscape:label="Layer 1"
	inkscape:groupmode="layer"
	id="layer1">
	<path style="fill:none;stroke:#000000;stroke-width:1px;stroke-linecap:butt;stroke-linejoin:miter;stroke-opacity:1" d="M 649.326,97.0439 661.33,97.0439 z" id="boundary" inkscape:connector-curvature="0" />
	<path style="fill:none;stroke:#000000;stroke-width:1px;stroke-linecap:butt;stroke-linejoin:miter;stroke-opacity:1" d="M 649.326,97.0439 631.317,103.05 z" id="boundary" inkscape:connector-curvature="0" />
	<path style="fill:none;stroke:#000000;stroke-width:1px;stroke-linecap:butt;stroke-linejoin:miter;stroke-opacity:1" d="M 631.317,103.05 608.806,107.552 z" id="boundary" inkscape:connector-curvature="0" />
	<path style="fill:none;stroke:#000000;stroke-width:1px;stroke-linecap:butt;stroke-linejoin:miter;stroke-opacity:1" d="M 608.806,107.552 587.794,110.555 z" id="boundary" inkscape:connector-curvature="0" />
	<path style="fill:none;stroke:#000000;stroke-width:1px;stroke-linecap:butt;stroke-linejoin:miter;stroke-opacity:1" d="M 587.794,110.555 569.785,112.054 z" id="boundary" inkscape:connector-curvature="0" />
	<path style="fill:none;stroke:#000000;stroke-width:1px;stroke-linecap:butt;stroke-linejoin:miter;stroke-opacity:1" d="M 661.33,97.0439 650.826,71.5339 z" id="boundary" inkscape:connector-curvature="0" />
	<path style="fill:none;stroke:#000000;stroke-width:1px;stroke-linecap:butt;stroke-linejoin:miter;stroke-opacity:1" d="M 650.826,71.5339 634.316,44.5203 z" id="boundary" inkscape:connector-curvature="0" />
	<path style="fill:none;stroke:#000000;stroke-width:1px;stroke-linecap:butt;stroke-linejoin:miter;stroke-opacity:1" d="M 569.785,112.054 548.773,88.0394 z" id="boundary" inkscape:connector-curvature="0" />
	<path style="fill:none;stroke:#000000;stroke-width:1px;stroke-linecap:butt;stroke-linejoin:miter;stroke-opacity:1" d="M 548.773,88.0394 514.258,77.5355 z" id="boundary" inkscape:connector-curvature="0" />
	<path style="fill:none;stroke:#000000;stroke-width:1px;stroke-linecap:butt;stroke-linejoin:miter;stroke-opacity:1" d="M 634.316,44.5203 605.803,20.5056 z" id="boundary" inkscape:connector-curvature="0" />
	<path style="fill:none;stroke:#000000;stroke-width:1px;stroke-linecap:butt;stroke-linejoin:miter;stroke-opacity:1" d="M 605.803,20.5056 563.783,5.4994 z" id="boundary" inkscape:connector-curvature="0" />
	<path style="fill:none;stroke:#000000;stroke-width:1px;stroke-linecap:butt;stroke-linejoin:miter;stroke-opacity:1" d="M 514.258,77.5355 470.735,88.0394 z" id="boundary" inkscape:connector-curvature="0" />
	<path style="fill:none;stroke:#000000;stroke-width:1px;stroke-linecap:butt;stroke-linejoin:miter;stroke-opacity:1" d="M 470.735,88.0394 443.722,116.556 z" id="boundary" inkscape:connector-curvature="0" />
	<path style="fill:none;stroke:#000000;stroke-width:1px;stroke-linecap:butt;stroke-linejoin:miter;stroke-opacity:1" d="M 443.722,116.556 436.217,160.08 z" id="boundary" inkscape:connector-curvature="0" />
	<path style="fill:none;stroke:#000000;stroke-width:1px;stroke-linecap:butt;stroke-linejoin:miter;stroke-opacity:1" d="M 436.217,160.08 433.218,206.602 z" id="boundary" inkscape:connector-curvature="0" />
	<path style="fill:none;stroke:#000000;stroke-width:1px;stroke-linecap:butt;stroke-linejoin:miter;stroke-opacity:1" d="M 433.218,206.602 452.726,250.125 z" id="boundary" inkscape:connector-curvature="0" />
	<path style="fill:none;stroke:#000000;stroke-width:1px;stroke-linecap:butt;stroke-linejoin:miter;stroke-opacity:1" d="M 452.726,250.125 488.744,271.133 z" id="boundary" inkscape:connector-curvature="0" />
	<path style="fill:none;stroke:#000000;stroke-width:1px;stroke-linecap:butt;stroke-linejoin:miter;stroke-opacity:1" d="M 488.744,271.133 515.758,274.135 z" id="boundary" inkscape:connector-curvature="0" />
	<path style="fill:none;stroke:#000000;stroke-width:1px;stroke-linecap:butt;stroke-linejoin:miter;stroke-opacity:1" d="M 515.758,274.135 538.269,271.133 z" id="boundary" inkscape:connector-curvature="0" />
	<path style="fill:none;stroke:#000000;stroke-width:1px;stroke-linecap:butt;stroke-linejoin:miter;stroke-opacity:1" d="M 538.269,271.133 566.782,260.629 z" id="boundary" inkscape:connector-curvature="0" />
	<path style="fill:none;stroke:#000000;stroke-width:1px;stroke-linecap:butt;stroke-linejoin:miter;stroke-opacity:1" d="M 566.782,260.629 574.287,242.62 z" id="boundary" inkscape:connector-curvature="0" />
	<path style="fill:none;stroke:#000000;stroke-width:1px;stroke-linecap:butt;stroke-linejoin:miter;stroke-opacity:1" d="M 574.287,242.62 575.787,218.609 z" id="boundary" inkscape:connector-curvature="0" />
	<path style="fill:none;stroke:#000000;stroke-width:1px;stroke-linecap:butt;stroke-linejoin:miter;stroke-opacity:1" d="M 575.787,218.609 559.281,221.608 z" id="boundary" inkscape:connector-curvature="0" />
	<path style="fill:none;stroke:#000000;stroke-width:1px;stroke-linecap:butt;stroke-linejoin:miter;stroke-opacity:1" d="M 559.281,221.608 539.769,220.108 z" id="boundary" inkscape:connector-curvature="0" />
	<path style="fill:none;stroke:#000000;stroke-width:1px;stroke-linecap:butt;stroke-linejoin:miter;stroke-opacity:1" d="M 539.769,220.108 511.256,220.108 z" id="boundary" inkscape:connector-curvature="0" />
	<path style="fill:none;stroke:#000000;stroke-width:1px;stroke-linecap:butt;stroke-linejoin:miter;stroke-opacity:1" d="M 511.256,220.108 505.254,185.59 z" id="boundary" inkscape:connector-curvature="0" />
	<path style="fill:none;stroke:#000000;stroke-width:1px;stroke-linecap:butt;stroke-linejoin:miter;stroke-opacity:1" d="M 505.254,185.59 502.251,154.074 z" id="boundary" inkscape:connector-curvature="0" />
	<path style="fill:none;stroke:#000000;stroke-width:1px;stroke-linecap:butt;stroke-linejoin:miter;stroke-opacity:1" d="M 502.251,154.074 535.266,151.075 z" id="boundary" inkscape:connector-curvature="0" />
	<path style="fill:none;stroke:#000000;stroke-width:1px;stroke-linecap:butt;stroke-linejoin:miter;stroke-opacity:1" d="M 535.266,151.075 559.281,151.075 z" id="boundary" inkscape:connector-curvature="0" />
	<path style="fill:none;stroke:#000000;stroke-width:1px;stroke-linecap:butt;stroke-linejoin:miter;stroke-opacity:1" d="M 559.281,151.075 583.292,151.075 z" id="boundary" inkscape:connector-curvature="0" />
	<path style="fill:none;stroke:#000000;stroke-width:1px;stroke-linecap:butt;stroke-linejoin:miter;stroke-opacity:1" d="M 583.292,151.075 611.805,151.075 z" id="boundary" inkscape:connector-curvature="0" />
	<path style="fill:none;stroke:#000000;stroke-width:1px;stroke-linecap:butt;stroke-linejoin:miter;stroke-opacity:1" d="M 611.805,151.075 643.32,151.075 z" id="boundary" inkscape:connector-curvature="0" />
	<path style="fill:none;stroke:#000000;stroke-width:1px;stroke-linecap:butt;stroke-linejoin:miter;stroke-opacity:1" d="M 643.32,151.075 670.334,151.075 z" id="boundary" inkscape:connector-curvature="0" />
	<path style="fill:none;stroke:#000000;stroke-width:1px;stroke-linecap:butt;stroke-linejoin:miter;stroke-opacity:1" d="M 670.334,151.075 668.835,179.588 z" id="boundary" inkscape:connector-curvature="0" />
	<path style="fill:none;stroke:#000000;stroke-width:1px;stroke-linecap:butt;stroke-linejoin:miter;stroke-opacity:1" d="M 668.835,179.588 667.335,206.602 z" id="boundary" inkscape:connector-curvature="0" />
	<path style="fill:none;stroke:#000000;stroke-width:1px;stroke-linecap:butt;stroke-linejoin:miter;stroke-opacity:1" d="M 667.335,206.602 670.334,236.618 z" id="boundary" inkscape:connector-curvature="0" />
	<path style="fill:none;stroke:#000000;stroke-width:1px;stroke-linecap:butt;stroke-linejoin:miter;stroke-opacity:1" d="M 670.334,236.618 670.334,266.63 z" id="boundary" inkscape:connector-curvature="0" />
	<path style="fill:none;stroke:#000000;stroke-width:1px;stroke-linecap:butt;stroke-linejoin:miter;stroke-opacity:1" d="M 670.334,266.63 670.334,289.142 z" id="boundary" inkscape:connector-curvature="0" />
	<path style="fill:none;stroke:#000000;stroke-width:1px;stroke-linecap:butt;stroke-linejoin:miter;stroke-opacity:1" d="M 670.334,289.142 643.32,308.654 z" id="boundary" inkscape:connector-curvature="0" />
	<path style="fill:none;stroke:#000000;stroke-width:1px;stroke-linecap:butt;stroke-linejoin:miter;stroke-opacity:1" d="M 643.32,308.654 607.302,326.663 z" id="boundary" inkscape:connector-curvature="0" />
	<path style="fill:none;stroke:#000000;stroke-width:1px;stroke-linecap:butt;stroke-linejoin:miter;stroke-opacity:1" d="M 607.302,326.663 572.788,340.17 z" id="boundary" inkscape:connector-curvature="0" />
	<path style="fill:none;stroke:#000000;stroke-width:1px;stroke-linecap:butt;stroke-linejoin:miter;stroke-opacity:1" d="M 572.788,340.17 538.269,343.169 z" id="boundary" inkscape:connector-curvature="0" />
	<path style="fill:none;stroke:#000000;stroke-width:1px;stroke-linecap:butt;stroke-linejoin:miter;stroke-opacity:1" d="M 538.269,343.169 494.746,340.17 z" id="boundary" inkscape:connector-curvature="0" />
	<path style="fill:none;stroke:#000000;stroke-width:1px;stroke-linecap:butt;stroke-linejoin:miter;stroke-opacity:1" d="M 494.746,340.17 454.226,334.164 z" id="boundary" inkscape:connector-curvature="0" />
	<path style="fill:none;stroke:#000000;stroke-width:1px;stroke-linecap:butt;stroke-linejoin:miter;stroke-opacity:1" d="M 454.226,334.164 412.206,320.657 z" id="boundary" inkscape:connector-curvature="0" />
	<path style="fill:none;stroke:#000000;stroke-width:1px;stroke-linecap:butt;stroke-linejoin:miter;stroke-opacity:1" d="M 412.206,320.657 382.19,302.648 z" id="boundary" inkscape:connector-curvature="0" />
	<path style="fill:none;stroke:#000000;stroke-width:1px;stroke-linecap:butt;stroke-linejoin:miter;stroke-opacity:1" d="M 382.19,302.648 355.176,269.633 z" id="boundary" inkscape:connector-curvature="0" />
	<path style="fill:none;stroke:#000000;stroke-width:1px;stroke-linecap:butt;stroke-linejoin:miter;stroke-opacity:1" d="M 355.176,269.633 343.173,236.618 z" id="boundary" inkscape:connector-curvature="0" />
	<path style="fill:none;stroke:#000000;stroke-width:1px;stroke-linecap:butt;stroke-linejoin:miter;stroke-opacity:1" d="M 343.173,236.618 334.168,206.602 z" id="boundary" inkscape:connector-curvature="0" />
	<path style="fill:none;stroke:#000000;stroke-width:1px;stroke-linecap:butt;stroke-linejoin:miter;stroke-opacity:1" d="M 334.168,206.602 332.665,175.086 z" id="boundary" inkscape:connector-curvature="0" />
	<path style="fill:none;stroke:#000000;stroke-width:1px;stroke-linecap:butt;stroke-linejoin:miter;stroke-opacity:1" d="M 332.665,175.086 332.665,140.567 z" id="boundary" inkscape:connector-curvature="0" />
	<path style="fill:none;stroke:#000000;stroke-width:1px;stroke-linecap:butt;stroke-linejoin:miter;stroke-opacity:1" d="M 332.665,140.567 338.67,112.054 z" id="boundary" inkscape:connector-curvature="0" />
	<path style="fill:none;stroke:#000000;stroke-width:1px;stroke-linecap:butt;stroke-linejoin:miter;stroke-opacity:1" d="M 338.67,112.054 350.674,80.5384 z" id="boundary" inkscape:connector-curvature="0" />
	<path style="fill:none;stroke:#000000;stroke-width:1px;stroke-linecap:butt;stroke-linejoin:miter;stroke-opacity:1" d="M 350.674,80.5384 371.686,53.5248 z" id="boundary" inkscape:connector-curvature="0" />
	<path style="fill:none;stroke:#000000;stroke-width:1px;stroke-linecap:butt;stroke-linejoin:miter;stroke-opacity:1" d="M 371.686,53.5248 407.704,28.0107 z" id="boundary" inkscape:connector-curvature="0" />
	<path style="fill:none;stroke:#000000;stroke-width:1px;stroke-linecap:butt;stroke-linejoin:miter;stroke-opacity:1" d="M 563.783,5.4994 514.258,5.4994 z" id="boundary" inkscape:connector-curvature="0" />
	<path style="fill:none;stroke:#000000;stroke-width:1px;stroke-linecap:butt;stroke-linejoin:miter;stroke-opacity:1" d="M 514.258,5.4994 460.231,11.5011 z" id="boundary" inkscape:connector-curvature="0" />
	<path style="fill:none;stroke:#000000;stroke-width:1px;stroke-linecap:butt;stroke-linejoin:miter;stroke-opacity:1" d="M 407.704,28.0107 460.231,11.5011 z" id="boundary" inkscape:connector-curvature="0" />
	<path style="fill:none;stroke:#000000;stroke-width:1px;stroke-linecap:butt;stroke-linejoin:miter;stroke-opacity:1" d="M 199.101,107.552 212.607,107.552 z" id="boundary" inkscape:connector-curvature="0" />
	<path style="fill:none;stroke:#000000;stroke-width:1px;stroke-linecap:butt;stroke-linejoin:miter;stroke-opacity:1" d="M 199.101,107.552 193.095,92.5417 z" id="boundary" inkscape:connector-curvature="0" />
	<path style="fill:none;stroke:#000000;stroke-width:1px;stroke-linecap:butt;stroke-linejoin:miter;stroke-opacity:1" d="M 193.095,92.5417 181.091,77.5355 z" id="boundary" inkscape:connector-curvature="0" />
	<path style="fill:none;stroke:#000000;stroke-width:1px;stroke-linecap:butt;stroke-linejoin:miter;stroke-opacity:1" d="M 181.091,77.5355 167.585,68.531 z" id="boundary" inkscape:connector-curvature="0" />
	<path style="fill:none;stroke:#000000;stroke-width:1px;stroke-linecap:butt;stroke-linejoin:miter;stroke-opacity:1" d="M 212.607,107.552 232.116,106.053 z" id="boundary" inkscape:connector-curvature="0" />
	<path style="fill:none;stroke:#000000;stroke-width:1px;stroke-linecap:butt;stroke-linejoin:miter;stroke-opacity:1" d="M 232.116,106.053 253.128,106.053 z" id="boundary" inkscape:connector-curvature="0" />
	<path style="fill:none;stroke:#000000;stroke-width:1px;stroke-linecap:butt;stroke-linejoin:miter;stroke-opacity:1" d="M 253.128,106.053 271.137,106.053 z" id="boundary" inkscape:connector-curvature="0" />
	<path style="fill:none;stroke:#000000;stroke-width:1px;stroke-linecap:butt;stroke-linejoin:miter;stroke-opacity:1" d="M 271.137,106.053 292.144,104.549 z" id="boundary" inkscape:connector-curvature="0" />
	<path style="fill:none;stroke:#000000;stroke-width:1px;stroke-linecap:butt;stroke-linejoin:miter;stroke-opacity:1" d="M 167.585,68.531 146.573,67.0316 z" id="boundary" inkscape:connector-curvature="0" />
	<path style="fill:none;stroke:#000000;stroke-width:1px;stroke-linecap:butt;stroke-linejoin:miter;stroke-opacity:1" d="M 146.573,67.0316 122.562,68.531 z" id="boundary" inkscape:connector-curvature="0" />
	<path style="fill:none;stroke:#000000;stroke-width:1px;stroke-linecap:butt;stroke-linejoin:miter;stroke-opacity:1" d="M 122.562,68.531 110.555,88.0394 z" id="boundary" inkscape:connector-curvature="0" />
	<path style="fill:none;stroke:#000000;stroke-width:1px;stroke-linecap:butt;stroke-linejoin:miter;stroke-opacity:1" d="M 292.144,104.549 286.143,79.0349 z" id="boundary" inkscape:connector-curvature="0" />
	<path style="fill:none;stroke:#000000;stroke-width:1px;stroke-linecap:butt;stroke-linejoin:miter;stroke-opacity:1" d="M 286.143,79.0349 277.138,61.0259 z" id="boundary" inkscape:connector-curvature="0" />
	<path style="fill:none;stroke:#000000;stroke-width:1px;stroke-linecap:butt;stroke-linejoin:miter;stroke-opacity:1" d="M 110.555,88.0394 121.059,112.054 z" id="boundary" inkscape:connector-curvature="0" />
	<path style="fill:none;stroke:#000000;stroke-width:1px;stroke-linecap:butt;stroke-linejoin:miter;stroke-opacity:1" d="M 277.138,61.0259 262.132,38.5146 z" id="boundary" inkscape:connector-curvature="0" />
	<path style="fill:none;stroke:#000000;stroke-width:1px;stroke-linecap:butt;stroke-linejoin:miter;stroke-opacity:1" d="M 262.132,38.5146 245.622,23.5084 z" id="boundary" inkscape:connector-curvature="0" />
	<path style="fill:none;stroke:#000000;stroke-width:1px;stroke-linecap:butt;stroke-linejoin:miter;stroke-opacity:1" d="M 121.059,112.054 152.574,118.056 z" id="boundary" inkscape:connector-curvature="0" />
	<path style="fill:none;stroke:#000000;stroke-width:1px;stroke-linecap:butt;stroke-linejoin:miter;stroke-opacity:1" d="M 152.574,118.056 175.086,124.062 z" id="boundary" inkscape:connector-curvature="0" />
	<path style="fill:none;stroke:#000000;stroke-width:1px;stroke-linecap:butt;stroke-linejoin:miter;stroke-opacity:1" d="M 175.086,124.062 191.595,128.564 z" id="boundary" inkscape:connector-curvature="0" />
	<path style="fill:none;stroke:#000000;stroke-width:1px;stroke-linecap:butt;stroke-linejoin:miter;stroke-opacity:1" d="M 191.595,128.564 208.105,134.565 z" id="boundary" inkscape:connector-curvature="0" />
	<path style="fill:none;stroke:#000000;stroke-width:1px;stroke-linecap:butt;stroke-linejoin:miter;stroke-opacity:1" d="M 208.105,134.565 223.111,139.068 z" id="boundary" inkscape:connector-curvature="0" />
	<path style="fill:none;stroke:#000000;stroke-width:1px;stroke-linecap:butt;stroke-linejoin:miter;stroke-opacity:1" d="M 223.111,139.068 239.621,146.573 z" id="boundary" inkscape:connector-curvature="0" />
	<path style="fill:none;stroke:#000000;stroke-width:1px;stroke-linecap:butt;stroke-linejoin:miter;stroke-opacity:1" d="M 239.621,146.573 262.132,158.576 z" id="boundary" inkscape:connector-curvature="0" />
	<path style="fill:none;stroke:#000000;stroke-width:1px;stroke-linecap:butt;stroke-linejoin:miter;stroke-opacity:1" d="M 262.132,158.576 284.643,181.087 z" id="boundary" inkscape:connector-curvature="0" />
	<path style="fill:none;stroke:#000000;stroke-width:1px;stroke-linecap:butt;stroke-linejoin:miter;stroke-opacity:1" d="M 284.643,181.087 295.147,212.603 z" id="boundary" inkscape:connector-curvature="0" />
	<path style="fill:none;stroke:#000000;stroke-width:1px;stroke-linecap:butt;stroke-linejoin:miter;stroke-opacity:1" d="M 295.147,212.603 296.647,242.62 z" id="boundary" inkscape:connector-curvature="0" />
	<path style="fill:none;stroke:#000000;stroke-width:1px;stroke-linecap:butt;stroke-linejoin:miter;stroke-opacity:1" d="M 296.647,242.62 295.147,266.63 z" id="boundary" inkscape:connector-curvature="0" />
	<path style="fill:none;stroke:#000000;stroke-width:1px;stroke-linecap:butt;stroke-linejoin:miter;stroke-opacity:1" d="M 295.147,266.63 289.146,286.143 z" id="boundary" inkscape:connector-curvature="0" />
	<path style="fill:none;stroke:#000000;stroke-width:1px;stroke-linecap:butt;stroke-linejoin:miter;stroke-opacity:1" d="M 289.146,286.143 275.639,311.653 z" id="boundary" inkscape:connector-curvature="0" />
	<path style="fill:none;stroke:#000000;stroke-width:1px;stroke-linecap:butt;stroke-linejoin:miter;stroke-opacity:1" d="M 245.622,23.5084 206.602,13.0045 z" id="boundary" inkscape:connector-curvature="0" />
	<path style="fill:none;stroke:#000000;stroke-width:1px;stroke-linecap:butt;stroke-linejoin:miter;stroke-opacity:1" d="M 206.602,13.0045 172.087,4 z" id="boundary" inkscape:connector-curvature="0" />
	<path style="fill:none;stroke:#000000;stroke-width:1px;stroke-linecap:butt;stroke-linejoin:miter;stroke-opacity:1" d="M 172.087,4 139.068,4 z" id="boundary" inkscape:connector-curvature="0" />
	<path style="fill:none;stroke:#000000;stroke-width:1px;stroke-linecap:butt;stroke-linejoin:miter;stroke-opacity:1" d="M 139.068,4 104.553,6.9988 z" id="boundary" inkscape:connector-curvature="0" />
	<path style="fill:none;stroke:#000000;stroke-width:1px;stroke-linecap:butt;stroke-linejoin:miter;stroke-opacity:1" d="M 104.553,6.9988 74.5367,16.0033 z" id="boundary" inkscape:connector-curvature="0" />
	<path style="fill:none;stroke:#000000;stroke-width:1px;stroke-linecap:butt;stroke-linejoin:miter;stroke-opacity:1" d="M 74.5367,16.0033 52.0254,34.0123 z" id="boundary" inkscape:connector-curvature="0" />
	<path style="fill:none;stroke:#000000;stroke-width:1px;stroke-linecap:butt;stroke-linejoin:miter;stroke-opacity:1" d="M 52.0254,34.0123 35.5158,46.0197 z" id="boundary" inkscape:connector-curvature="0" />
	<path style="fill:none;stroke:#000000;stroke-width:1px;stroke-linecap:butt;stroke-linejoin:miter;stroke-opacity:1" d="M 35.5158,46.0197 17.5068,85.0406 z" id="boundary" inkscape:connector-curvature="0" />
	<path style="fill:none;stroke:#000000;stroke-width:1px;stroke-linecap:butt;stroke-linejoin:miter;stroke-opacity:1" d="M 17.5068,85.0406 19.0102,127.06 z" id="boundary" inkscape:connector-curvature="0" />
	<path style="fill:none;stroke:#000000;stroke-width:1px;stroke-linecap:butt;stroke-linejoin:miter;stroke-opacity:1" d="M 19.0102,127.06 41.5215,158.576 z" id="boundary" inkscape:connector-curvature="0" />
	<path style="fill:none;stroke:#000000;stroke-width:1px;stroke-linecap:butt;stroke-linejoin:miter;stroke-opacity:1" d="M 41.5215,158.576 73.0373,181.087 z" id="boundary" inkscape:connector-curvature="0" />
	<path style="fill:none;stroke:#000000;stroke-width:1px;stroke-linecap:butt;stroke-linejoin:miter;stroke-opacity:1" d="M 73.0373,181.087 92.5457,190.092 z" id="boundary" inkscape:connector-curvature="0" />
	<path style="fill:none;stroke:#000000;stroke-width:1px;stroke-linecap:butt;stroke-linejoin:miter;stroke-opacity:1" d="M 92.5457,190.092 112.054,196.098 z" id="boundary" inkscape:connector-curvature="0" />
	<path style="fill:none;stroke:#000000;stroke-width:1px;stroke-linecap:butt;stroke-linejoin:miter;stroke-opacity:1" d="M 112.054,196.098 134.565,203.599 z" id="boundary" inkscape:connector-curvature="0" />
	<path style="fill:none;stroke:#000000;stroke-width:1px;stroke-linecap:butt;stroke-linejoin:miter;stroke-opacity:1" d="M 134.565,203.599 169.084,211.104 z" id="boundary" inkscape:connector-curvature="0" />
	<path style="fill:none;stroke:#000000;stroke-width:1px;stroke-linecap:butt;stroke-linejoin:miter;stroke-opacity:1" d="M 169.084,211.104 199.101,233.615 z" id="boundary" inkscape:connector-curvature="0" />
	<path style="fill:none;stroke:#000000;stroke-width:1px;stroke-linecap:butt;stroke-linejoin:miter;stroke-opacity:1" d="M 199.101,233.615 193.095,269.633 z" id="boundary" inkscape:connector-curvature="0" />
	<path style="fill:none;stroke:#000000;stroke-width:1px;stroke-linecap:butt;stroke-linejoin:miter;stroke-opacity:1" d="M 193.095,269.633 163.082,280.137 z" id="boundary" inkscape:connector-curvature="0" />
	<path style="fill:none;stroke:#000000;stroke-width:1px;stroke-linecap:butt;stroke-linejoin:miter;stroke-opacity:1" d="M 163.082,280.137 128.564,274.135 z" id="boundary" inkscape:connector-curvature="0" />
	<path style="fill:none;stroke:#000000;stroke-width:1px;stroke-linecap:butt;stroke-linejoin:miter;stroke-opacity:1" d="M 128.564,274.135 106.053,251.624 z" id="boundary" inkscape:connector-curvature="0" />
	<path style="fill:none;stroke:#000000;stroke-width:1px;stroke-linecap:butt;stroke-linejoin:miter;stroke-opacity:1" d="M 106.053,251.624 100.051,230.612 z" id="boundary" inkscape:connector-curvature="0" />
	<path style="fill:none;stroke:#000000;stroke-width:1px;stroke-linecap:butt;stroke-linejoin:miter;stroke-opacity:1" d="M 100.051,230.612 79.039,229.113 z" id="boundary" inkscape:connector-curvature="0" />
	<path style="fill:none;stroke:#000000;stroke-width:1px;stroke-linecap:butt;stroke-linejoin:miter;stroke-opacity:1" d="M 79.039,229.113 50.526,229.113 z" id="boundary" inkscape:connector-curvature="0" />
	<path style="fill:none;stroke:#000000;stroke-width:1px;stroke-linecap:butt;stroke-linejoin:miter;stroke-opacity:1" d="M 275.639,311.653 239.621,335.668 z" id="boundary" inkscape:connector-curvature="0" />
	<path style="fill:none;stroke:#000000;stroke-width:1px;stroke-linecap:butt;stroke-linejoin:miter;stroke-opacity:1" d="M 50.526,229.113 4,230.612 z" id="boundary" inkscape:connector-curvature="0" />
	<path style="fill:none;stroke:#000000;stroke-width:1px;stroke-linecap:butt;stroke-linejoin:miter;stroke-opacity:1" d="M 4,230.612 7.00286,262.128 z" id="boundary" inkscape:connector-curvature="0" />
	<path style="fill:none;stroke:#000000;stroke-width:1px;stroke-linecap:butt;stroke-linejoin:miter;stroke-opacity:1" d="M 7.00286,262.128 25.0119,298.146 z" id="boundary" inkscape:connector-curvature="0" />
	<path style="fill:none;stroke:#000000;stroke-width:1px;stroke-linecap:butt;stroke-linejoin:miter;stroke-opacity:1" d="M 25.0119,298.146 55.0283,323.66 z" id="boundary" inkscape:connector-curvature="0" />
	<path style="fill:none;stroke:#000000;stroke-width:1px;stroke-linecap:butt;stroke-linejoin:miter;stroke-opacity:1" d="M 55.0283,323.66 92.5457,341.669 z" id="boundary" inkscape:connector-curvature="0" />
	<path style="fill:none;stroke:#000000;stroke-width:1px;stroke-linecap:butt;stroke-linejoin:miter;stroke-opacity:1" d="M 239.621,335.668 194.598,347.671 z" id="boundary" inkscape:connector-curvature="0" />
	<path style="fill:none;stroke:#000000;stroke-width:1px;stroke-linecap:butt;stroke-linejoin:miter;stroke-opacity:1" d="M 194.598,347.671 146.573,347.671 z" id="boundary" inkscape:connector-curvature="0" />
	<path style="fill:none;stroke:#000000;stroke-width:1px;stroke-linecap:butt;stroke-linejoin:miter;stroke-opacity:1" d="M 146.573,347.671 92.5457,341.669 z" id="boundary" inkscape:connector-curvature="0" />
	<path style="fill:none;stroke:#000000;stroke-width:1px;stroke-linecap:butt;stroke-linejoin:miter;stroke-opacity:1" d="M 814.406,137.568 830.916,137.568 z" id="boundary" inkscape:connector-curvature="0" />
	<path style="fill:none;stroke:#000000;stroke-width:1px;stroke-linecap:butt;stroke-linejoin:miter;stroke-opacity:1" d="M 830.916,137.568 848.925,139.068 z" id="boundary" inkscape:connector-curvature="0" />
	<path style="fill:none;stroke:#000000;stroke-width:1px;stroke-linecap:butt;stroke-linejoin:miter;stroke-opacity:1" d="M 848.925,139.068 866.934,134.565 z" id="boundary" inkscape:connector-curvature="0" />
	<path style="fill:none;stroke:#000000;stroke-width:1px;stroke-linecap:butt;stroke-linejoin:miter;stroke-opacity:1" d="M 866.934,134.565 881.94,125.561 z" id="boundary" inkscape:connector-curvature="0" />
	<path style="fill:none;stroke:#000000;stroke-width:1px;stroke-linecap:butt;stroke-linejoin:miter;stroke-opacity:1" d="M 881.94,125.561 892.448,107.552 z" id="boundary" inkscape:connector-curvature="0" />
	<path style="fill:none;stroke:#000000;stroke-width:1px;stroke-linecap:butt;stroke-linejoin:miter;stroke-opacity:1" d="M 814.406,137.568 812.907,115.057 z" id="boundary" inkscape:connector-curvature="0" />
	<path style="fill:none;stroke:#000000;stroke-width:1px;stroke-linecap:butt;stroke-linejoin:miter;stroke-opacity:1" d="M 812.907,115.057 814.406,94.0451 z" id="boundary" inkscape:connector-curvature="0" />
	<path style="fill:none;stroke:#000000;stroke-width:1px;stroke-linecap:butt;stroke-linejoin:miter;stroke-opacity:1" d="M 814.406,94.0451 815.91,76.0361 z" id="boundary" inkscape:connector-curvature="0" />
	<path style="fill:none;stroke:#000000;stroke-width:1px;stroke-linecap:butt;stroke-linejoin:miter;stroke-opacity:1" d="M 815.91,76.0361 839.92,71.5339 z" id="boundary" inkscape:connector-curvature="0" />
	<path style="fill:none;stroke:#000000;stroke-width:1px;stroke-linecap:butt;stroke-linejoin:miter;stroke-opacity:1" d="M 839.92,71.5339 866.934,74.5327 z" id="boundary" inkscape:connector-curvature="0" />
	<path style="fill:none;stroke:#000000;stroke-width:1px;stroke-linecap:butt;stroke-linejoin:miter;stroke-opacity:1" d="M 866.934,74.5327 889.445,79.0349 z" id="boundary" inkscape:connector-curvature="0" />
	<path style="fill:none;stroke:#000000;stroke-width:1px;stroke-linecap:butt;stroke-linejoin:miter;stroke-opacity:1" d="M 889.445,79.0349 892.448,107.552 z" id="boundary" inkscape:connector-curvature="0" />
	<path style="fill:none;stroke:#000000;stroke-width:1px;stroke-linecap:butt;stroke-linejoin:miter;stroke-opacity:1" d="M 815.91,347.671 797.901,347.671 z" id="boundary" inkscape:connector-curvature="0" />
	<path style="fill:none;stroke:#000000;stroke-width:1px;stroke-linecap:butt;stroke-linejoin:miter;stroke-opacity:1" d="M 797.901,347.671 775.389,347.671 z" id="boundary" inkscape:connector-curvature="0" />
	<path style="fill:none;stroke:#000000;stroke-width:1px;stroke-linecap:butt;stroke-linejoin:miter;stroke-opacity:1" d="M 815.91,347.671 815.91,322.161 z" id="boundary" inkscape:connector-curvature="0" />
	<path style="fill:none;stroke:#000000;stroke-width:1px;stroke-linecap:butt;stroke-linejoin:miter;stroke-opacity:1" d="M 775.389,347.671 746.872,349.174 z" id="boundary" inkscape:connector-curvature="0" />
	<path style="fill:none;stroke:#000000;stroke-width:1px;stroke-linecap:butt;stroke-linejoin:miter;stroke-opacity:1" d="M 746.872,349.174 710.854,349.174 z" id="boundary" inkscape:connector-curvature="0" />
	<path style="fill:none;stroke:#000000;stroke-width:1px;stroke-linecap:butt;stroke-linejoin:miter;stroke-opacity:1" d="M 710.854,349.174 712.358,328.163 z" id="boundary" inkscape:connector-curvature="0" />
	<path style="fill:none;stroke:#000000;stroke-width:1px;stroke-linecap:butt;stroke-linejoin:miter;stroke-opacity:1" d="M 712.358,328.163 712.358,304.152 z" id="boundary" inkscape:connector-curvature="0" />
	<path style="fill:none;stroke:#000000;stroke-width:1px;stroke-linecap:butt;stroke-linejoin:miter;stroke-opacity:1" d="M 712.358,304.152 713.857,278.638 z" id="boundary" inkscape:connector-curvature="0" />
	<path style="fill:none;stroke:#000000;stroke-width:1px;stroke-linecap:butt;stroke-linejoin:miter;stroke-opacity:1" d="M 713.857,278.638 713.857,254.627 z" id="boundary" inkscape:connector-curvature="0" />
	<path style="fill:none;stroke:#000000;stroke-width:1px;stroke-linecap:butt;stroke-linejoin:miter;stroke-opacity:1" d="M 713.857,254.627 712.358,224.611 z" id="boundary" inkscape:connector-curvature="0" />
	<path style="fill:none;stroke:#000000;stroke-width:1px;stroke-linecap:butt;stroke-linejoin:miter;stroke-opacity:1" d="M 712.358,224.611 713.857,193.095 z" id="boundary" inkscape:connector-curvature="0" />
	<path style="fill:none;stroke:#000000;stroke-width:1px;stroke-linecap:butt;stroke-linejoin:miter;stroke-opacity:1" d="M 713.857,193.095 715.357,158.576 z" id="boundary" inkscape:connector-curvature="0" />
	<path style="fill:none;stroke:#000000;stroke-width:1px;stroke-linecap:butt;stroke-linejoin:miter;stroke-opacity:1" d="M 715.357,158.576 715.357,122.558 z" id="boundary" inkscape:connector-curvature="0" />
	<path style="fill:none;stroke:#000000;stroke-width:1px;stroke-linecap:butt;stroke-linejoin:miter;stroke-opacity:1" d="M 715.357,122.558 715.357,88.0394 z" id="boundary" inkscape:connector-curvature="0" />
	<path style="fill:none;stroke:#000000;stroke-width:1px;stroke-linecap:butt;stroke-linejoin:miter;stroke-opacity:1" d="M 715.357,88.0394 710.854,55.0242 z" id="boundary" inkscape:connector-curvature="0" />
	<path style="fill:none;stroke:#000000;stroke-width:1px;stroke-linecap:butt;stroke-linejoin:miter;stroke-opacity:1" d="M 815.91,322.161 814.406,284.639 z" id="boundary" inkscape:connector-curvature="0" />
	<path style="fill:none;stroke:#000000;stroke-width:1px;stroke-linecap:butt;stroke-linejoin:miter;stroke-opacity:1" d="M 814.406,284.639 817.409,242.62 z" id="boundary" inkscape:connector-curvature="0" />
	<path style="fill:none;stroke:#000000;stroke-width:1px;stroke-linecap:butt;stroke-linejoin:miter;stroke-opacity:1" d="M 817.409,242.62 818.909,209.604 z" id="boundary" inkscape:connector-curvature="0" />
	<path style="fill:none;stroke:#000000;stroke-width:1px;stroke-linecap:butt;stroke-linejoin:miter;stroke-opacity:1" d="M 818.909,209.604 842.923,211.104 z" id="boundary" inkscape:connector-curvature="0" />
	<path style="fill:none;stroke:#000000;stroke-width:1px;stroke-linecap:butt;stroke-linejoin:miter;stroke-opacity:1" d="M 842.923,211.104 872.936,209.604 z" id="boundary" inkscape:connector-curvature="0" />
	<path style="fill:none;stroke:#000000;stroke-width:1px;stroke-linecap:butt;stroke-linejoin:miter;stroke-opacity:1" d="M 872.936,209.604 905.955,209.604 z" id="boundary" inkscape:connector-curvature="0" />
	<path style="fill:none;stroke:#000000;stroke-width:1px;stroke-linecap:butt;stroke-linejoin:miter;stroke-opacity:1" d="M 905.955,209.604 937.471,203.599 z" id="boundary" inkscape:connector-curvature="0" />
	<path style="fill:none;stroke:#000000;stroke-width:1px;stroke-linecap:butt;stroke-linejoin:miter;stroke-opacity:1" d="M 937.471,203.599 968.986,185.59 z" id="boundary" inkscape:connector-curvature="0" />
	<path style="fill:none;stroke:#000000;stroke-width:1px;stroke-linecap:butt;stroke-linejoin:miter;stroke-opacity:1" d="M 968.986,185.59 991.498,152.574 z" id="boundary" inkscape:connector-curvature="0" />
	<path style="fill:none;stroke:#000000;stroke-width:1px;stroke-linecap:butt;stroke-linejoin:miter;stroke-opacity:1" d="M 991.498,152.574 996,116.556 z" id="boundary" inkscape:connector-curvature="0" />
	<path style="fill:none;stroke:#000000;stroke-width:1px;stroke-linecap:butt;stroke-linejoin:miter;stroke-opacity:1" d="M 996,116.556 992.997,83.5372 z" id="boundary" inkscape:connector-curvature="0" />
	<path style="fill:none;stroke:#000000;stroke-width:1px;stroke-linecap:butt;stroke-linejoin:miter;stroke-opacity:1" d="M 992.997,83.5372 976.488,41.5175 z" id="boundary" inkscape:connector-curvature="0" />
	<path style="fill:none;stroke:#000000;stroke-width:1px;stroke-linecap:butt;stroke-linejoin:miter;stroke-opacity:1" d="M 710.854,55.0242 710.854,8.50226 z" id="boundary" inkscape:connector-curvature="0" />
	<path style="fill:none;stroke:#000000;stroke-width:1px;stroke-linecap:butt;stroke-linejoin:miter;stroke-opacity:1" d="M 976.488,41.5175 937.471,10.0017 z" id="boundary" inkscape:connector-curvature="0" />
	<path style="fill:none;stroke:#000000;stroke-width:1px;stroke-linecap:butt;stroke-linejoin:miter;stroke-opacity:1" d="M 937.471,10.0017 880.441,5.4994 z" id="boundary" inkscape:connector-curvature="0" />
	<path style="fill:none;stroke:#000000;stroke-width:1px;stroke-linecap:butt;stroke-linejoin:miter;stroke-opacity:1" d="M 880.441,5.4994 824.914,5.4994 z" id="boundary" inkscape:connector-curvature="0" />
	<path style="fill:none;stroke:#000000;stroke-width:1px;stroke-linecap:butt;stroke-linejoin:miter;stroke-opacity:1" d="M 824.914,5.4994 773.886,6.9988 z" id="boundary" inkscape:connector-curvature="0" />
	<path style="fill:none;stroke:#000000;stroke-width:1px;stroke-linecap:butt;stroke-linejoin:miter;stroke-opacity:1" d="M 773.886,6.9988 710.854,8.50226 z" id="boundary" inkscape:connector-curvature="0" />
	<circle cx="167.585" cy="68.531" r="4" fill="#0" id="circle0"/>
	<circle cx="181.091" cy="77.5355" r="4" fill="#0" id="circle1"/>
	<circle cx="193.095" cy="92.5417" r="4" fill="#0" id="circle2"/>
	<circle cx="199.101" cy="107.552" r="4" fill="#0" id="circle3"/>
	<circle cx="212.607" cy="107.552" r="4" fill="#0" id="circle4"/>
	<circle cx="232.116" cy="106.053" r="4" fill="#0" id="circle5"/>
	<circle cx="253.128" cy="106.053" r="4" fill="#0" id="circle6"/>
	<circle cx="271.137" cy="106.053" r="4" fill="#0" id="circle7"/>
	<circle cx="292.144" cy="104.549" r="4" fill="#0" id="circle8"/>
	<circle cx="245.622" cy="23.5084" r="4" fill="#0" id="circle9"/>
	<circle cx="262.132" cy="38.5146" r="4" fill="#0" id="circle10"/>
	<circle cx="277.138" cy="61.0259" r="4" fill="#0" id="circle11"/>
	<circle cx="286.143" cy="79.0349" r="4" fill="#0" id="circle12"/>
	<circle cx="139.068" cy="4" r="4" fill="#0" id="circle13"/>
	<circle cx="172.087" cy="4" r="4" fill="#0" id="circle14"/>
	<circle cx="206.602" cy="13.0045" r="4" fill="#0" id="circle15"/>
	<circle cx="104.553" cy="6.9988" r="4" fill="#0" id="circle16"/>
	<circle cx="74.5367" cy="16.0033" r="4" fill="#0" id="circle17"/>
	<circle cx="52.0254" cy="34.0123" r="4" fill="#0" id="circle18"/>
	<circle cx="35.5158" cy="46.0197" r="4" fill="#0" id="circle19"/>
	<circle cx="17.5068" cy="85.0406" r="4" fill="#0" id="circle20"/>
	<circle cx="19.0102" cy="127.06" r="4" fill="#0" id="circle21"/>
	<circle cx="41.5215" cy="158.576" r="4" fill="#0" id="circle22"/>
	<circle cx="73.0373" cy="181.087" r="4" fill="#0" id="circle23"/>
	<circle cx="92.5457" cy="190.092" r="4" fill="#0" id="circle24"/>
	<circle cx="112.054" cy="196.098" r="4" fill="#0" id="circle25"/>
	<circle cx="134.565" cy="203.599" r="4" fill="#0" id="circle26"/>
	<circle cx="169.084" cy="211.104" r="4" fill="#0" id="circle27"/>
	<circle cx="199.101" cy="233.615" r="4" fill="#0" id="circle28"/>
	<circle cx="193.095" cy="269.633" r="4" fill="#0" id="circle29"/>
	<circle cx="163.082" cy="280.137" r="4" fill="#0" id="circle30"/>
	<circle cx="128.564" cy="274.135" r="4" fill="#0" id="circle31"/>
	<circle cx="106.053" cy="251.624" r="4" fill="#0" id="circle32"/>
	<circle cx="100.051" cy="230.612" r="4" fill="#0" id="circle33"/>
	<circle cx="79.039" cy="229.113" r="4" fill="#0" id="circle34"/>
	<circle cx="50.526" cy="229.113" r="4" fill="#0" id="circle35"/>
	<circle cx="4" cy="230.612" r="4" fill="#0" id="circle36"/>
	<circle cx="7.00286" cy="262.128" r="4" fill="#0" id="circle37"/>
	<circle cx="25.0119" cy="298.146" r="4" fill="#0" id="circle38"/>
	<circle cx="55.0283" cy="323.66" r="4" fill="#0" id="circle39"/>
	<circle cx="92.5457" cy="341.669" r="4" fill="#0" id="circle40"/>
	<circle cx="146.573" cy="347.671" r="4" fill="#0" id="circle41"/>
	<circle cx="194.598" cy="347.671" r="4" fill="#0" id="circle42"/>
	<circle cx="239.621" cy="335.668" r="4" fill="#0" id="circle43"/>
	<circle cx="275.639" cy="311.653" r="4" fill="#0" id="circle44"/>
	<circle cx="289.146" cy="286.143" r="4" fill="#0" id="circle45"/>
	<circle cx="295.147" cy="266.63" r="4" fill="#0" id="circle46"/>
	<circle cx="296.647" cy="242.62" r="4" fill="#0" id="circle47"/>
	<circle cx="295.147" cy="212.603" r="4" fill="#0" id="circle48"/>
	<circle cx="284.643" cy="181.087" r="4" fill="#0" id="circle49"/>
	<circle cx="262.132" cy="158.576" r="4" fill="#0" id="circle50"/>
	<circle cx="239.621" cy="146.573" r="4" fill="#0" id="circle51"/>
	<circle cx="223.111" cy="139.068" r="4" fill="#0" id="circle52"/>
	<circle cx="208.105" cy="134.565" r="4" fill="#0" id="circle53"/>
	<circle cx="191.595" cy="128.564" r="4" fill="#0" id="circle54"/>
	<circle cx="175.086" cy="124.062" r="4" fill="#0" id="circle55"/>
	<circle cx="152.574" cy="118.056" r="4" fill="#0" id="circle56"/>
	<circle cx="121.059" cy="112.054" r="4" fill="#0" id="circle57"/>
	<circle cx="110.555" cy="88.0394" r="4" fill="#0" id="circle58"/>
	<circle cx="122.562" cy="68.531" r="4" fill="#0" id="circle59"/>
	<circle cx="146.573" cy="67.0316" r="4" fill="#0" id="circle60"/>
	<circle cx="470.735" cy="88.0394" r="4" fill="#0" id="circle61"/>
	<circle cx="514.258" cy="77.5355" r="4" fill="#0" id="circle62"/>
	<circle cx="548.773" cy="88.0394" r="4" fill="#0" id="circle63"/>
	<circle cx="569.785" cy="112.054" r="4" fill="#0" id="circle64"/>
	<circle cx="443.722" cy="116.556" r="4" fill="#0" id="circle65"/>
	<circle cx="436.217" cy="160.08" r="4" fill="#0" id="circle66"/>
	<circle cx="433.218" cy="206.602" r="4" fill="#0" id="circle67"/>
	<circle cx="452.726" cy="250.125" r="4" fill="#0" id="circle68"/>
	<circle cx="488.744" cy="271.133" r="4" fill="#0" id="circle69"/>
	<circle cx="515.758" cy="274.135" r="4" fill="#0" id="circle70"/>
	<circle cx="538.269" cy="271.133" r="4" fill="#0" id="circle71"/>
	<circle cx="566.782" cy="260.629" r="4" fill="#0" id="circle72"/>
	<circle cx="574.287" cy="242.62" r="4" fill="#0" id="circle73"/>
	<circle cx="575.787" cy="218.609" r="4" fill="#0" id="circle74"/>
	<circle cx="559.281" cy="221.608" r="4" fill="#0" id="circle75"/>
	<circle cx="539.769" cy="220.108" r="4" fill="#0" id="circle76"/>
	<circle cx="511.256" cy="220.108" r="4" fill="#0" id="circle77"/>
	<circle cx="505.254" cy="185.59" r="4" fill="#0" id="circle78"/>
	<circle cx="502.251" cy="154.074" r="4" fill="#0" id="circle79"/>
	<circle cx="535.266" cy="151.075" r="4" fill="#0" id="circle80"/>
	<circle cx="559.281" cy="151.075" r="4" fill="#0" id="circle81"/>
	<circle cx="583.292" cy="151.075" r="4" fill="#0" id="circle82"/>
	<circle cx="611.805" cy="151.075" r="4" fill="#0" id="circle83"/>
	<circle cx="643.32" cy="151.075" r="4" fill="#0" id="circle84"/>
	<circle cx="670.334" cy="151.075" r="4" fill="#0" id="circle85"/>
	<circle cx="668.835" cy="179.588" r="4" fill="#0" id="circle86"/>
	<circle cx="667.335" cy="206.602" r="4" fill="#0" id="circle87"/>
	<circle cx="670.334" cy="236.618" r="4" fill="#0" id="circle88"/>
	<circle cx="670.334" cy="266.63" r="4" fill="#0" id="circle89"/>
	<circle cx="670.334" cy="289.142" r="4" fill="#0" id="circle90"/>
	<circle cx="643.32" cy="308.654" r="4" fill="#0" id="circle91"/>
	<circle cx="607.302" cy="326.663" r="4" fill="#0" id="circle92"/>
	<circle cx="572.788" cy="340.17" r="4" fill="#0" id="circle93"/>
	<circle cx="538.269" cy="343.169" r="4" fill="#0" id="circle94"/>
	<circle cx="494.746" cy="340.17" r="4" fill="#0" id="circle95"/>
	<circle cx="454.226" cy="334.164" r="4" fill="#0" id="circle96"/>
	<circle cx="412.206" cy="320.657" r="4" fill="#0" id="circle97"/>
	<circle cx="382.19" cy="302.648" r="4" fill="#0" id="circle98"/>
	<circle cx="355.176" cy="269.633" r="4" fill="#0" id="circle99"/>
	<circle cx="343.173" cy="236.618" r="4" fill="#0" id="circle100"/>
	<circle cx="334.168" cy="206.602" r="4" fill="#0" id="circle101"/>
	<circle cx="332.665" cy="175.086" r="4" fill="#0" id="circle102"/>
	<circle cx="332.665" cy="140.567" r="4" fill="#0" id="circle103"/>
	<circle cx="338.67" cy="112.054" r="4" fill="#0" id="circle104"/>
	<circle cx="350.674" cy="80.5384" r="4" fill="#0" id="circle105"/>
	<circle cx="371.686" cy="53.5248" r="4" fill="#0" id="circle106"/>
	<circle cx="407.704" cy="28.0107" r="4" fill="#0" id="circle107"/>
	<circle cx="460.231" cy="11.5011" r="4" fill="#0" id="circle108"/>
	<circle cx="514.258" cy="5.4994" r="4" fill="#0" id="circle109"/>
	<circle cx="563.783" cy="5.4994" r="4" fill="#0" id="circle110"/>
	<circle cx="605.803" cy="20.5056" r="4" fill="#0" id="circle111"/>
	<circle cx="634.316" cy="44.5203" r="4" fill="#0" id="circle112"/>
	<circle cx="650.826" cy="71.5339" r="4" fill="#0" id="circle113"/>
	<circle cx="661.33" cy="97.0439" r="4" fill="#0" id="circle114"/>
	<circle cx="587.794" cy="110.555" r="4" fill="#0" id="circle115"/>
	<circle cx="608.806" cy="107.552" r="4" fill="#0" id="circle116"/>
	<circle cx="631.317" cy="103.05" r="4" fill="#0" id="circle117"/>
	<circle cx="649.326" cy="97.0439" r="4" fill="#0" id="circle118"/>
	<circle cx="710.854" cy="8.50226" r="4" fill="#0" id="circle119"/>
	<circle cx="710.854" cy="55.0242" r="4" fill="#0" id="circle120"/>
	<circle cx="715.357" cy="88.0394" r="4" fill="#0" id="circle121"/>
	<circle cx="715.357" cy="122.558" r="4" fill="#0" id="circle122"/>
	<circle cx="715.357" cy="158.576" r="4" fill="#0" id="circle123"/>
	<circle cx="713.857" cy="193.095" r="4" fill="#0" id="circle124"/>
	<circle cx="712.358" cy="224.611" r="4" fill="#0" id="circle125"/>
	<circle cx="713.857" cy="254.627" r="4" fill="#0" id="circle126"/>
	<circle cx="713.857" cy="278.638" r="4" fill="#0" id="circle127"/>
	<circle cx="712.358" cy="304.152" r="4" fill="#0" id="circle128"/>
	<circle cx="712.358" cy="328.163" r="4" fill="#0" id="circle129"/>
	<circle cx="710.854" cy="349.174" r="4" fill="#0" id="circle130"/>
	<circle cx="746.872" cy="349.174" r="4" fill="#0" id="circle131"/>
	<circle cx="775.389" cy="347.671" r="4" fill="#0" id="circle132"/>
	<circle cx="797.901" cy="347.671" r="4" fill="#0" id="circle133"/>
	<circle cx="815.91" cy="347.671" r="4" fill="#0" id="circle134"/>
	<circle cx="815.91" cy="322.161" r="4" fill="#0" id="circle135"/>
	<circle cx="814.406" cy="284.639" r="4" fill="#0" id="circle136"/>
	<circle cx="817.409" cy="242.62" r="4" fill="#0" id="circle137"/>
	<circle cx="818.909" cy="209.604" r="4" fill="#0" id="circle138"/>
	<circle cx="842.923" cy="211.104" r="4" fill="#0" id="circle139"/>
	<circle cx="872.936" cy="209.604" r="4" fill="#0" id="circle140"/>
	<circle cx="905.955" cy="209.604" r="4" fill="#0" id="circle141"/>
	<circle cx="937.471" cy="203.599" r="4" fill="#0" id="circle142"/>
	<circle cx="968.986" cy="185.59" r="4" fill="#0" id="circle143"/>
	<circle cx="991.498" cy="152.574" r="4" fill="#0" id="circle144"/>
	<circle cx="996" cy="116.556" r="4" fill="#0" id="circle145"/>
	<circle cx="992.997" cy="83.5372" r="4" fill="#0" id="circle146"/>
	<circle cx="976.488" cy="41.5175" r="4" fill="#0" id="circle147"/>
	<circle cx="937.471" cy="10.0017" r="4" fill="#0" id="circle148"/>
	<circle cx="880.441" cy="5.4994" r="4" fill="#0" id="circle149"/>
	<circle cx="824.914" cy="5.4994" r="4" fill="#0" id="circle150"/>
	<circle cx="773.886" cy="6.9988" r="4" fill="#0" id="circle151"/>
	<circle cx="815.91" cy="76.0361" r="4" fill="#0" id="circle152"/>
	<circle cx="814.406" cy="94.0451" r="4" fill="#0" id="circle153"/>
	<circle cx="812.907" cy="115.057" r="4" fill="#0" id="circle154"/>
	<circle cx="814.406" cy="137.568" r="4" fill="#0" id="circle155"/>
	<circle cx="830.916" cy="137.568" r="4" fill="#0" id="circle156"/>
	<circle cx="848.925" cy="139.068" r="4" fill="#0" id="circle157"/>
	<circle cx="866.934" cy="134.565" r="4" fill="#0" id="circle158"/>
	<circle cx="881.94" cy="125.561" r="4" fill="#0" id="circle159"/>
	<circle cx="892.448" cy="107.552" r="4" fill="#0" id="circle160"/>
	<circle cx="889.445" cy="79.0349" r="4" fill="#0" id="circle161"/>
	<circle cx="866.934" cy="74.5327" r="4" fill="#0" id="circle162"/>
	<circle cx="839.92" cy="71.5339" r="4" fill="#0" id="circle163"/>
	</g>
</svg>