<?xml version="1.0" encoding="UTF-8" standalone="no"?>
<!-- Created with CurveBenchmark -->
<svg
	xmlns:dc="http://purl.org/dc/elements/1.1/"
	xmlns:cc="http://creativecommons.org/ns#"
	xmlns:rdf="http://www.w3.org/1999/02/22-rdf-syntax-ns#"
	xmlns:svg="http://www.w3.org/2000/svg"
	xmlns="http://www.w3.org/2000/svg"
	xmlns:sodipodi="http://sodipodi.sourceforge.net/DTD/sodipodi-0.dtd"
	xmlns:inkscape="http://www.inkscape.org/namespaces/inkscape"
	width="1000"
	height="1000"
	id="svg2"
	version="1.1"
	sodipodi:docname="mc25">
<defs
	id="defs4" />
<metadata
	id="metadata7">
	<rdf:RDF>
		<cc:Work
			rdf:about="">
			<dc:format>image/svg+xml</dc:format>
			<dc:type
				rdf:resource="http://purl.org/dc/dcmitype/StillImage" />
			<dc:title></dc:title>
		</cc:Work>
	</rdf:RDF>
</metadata>
<g
	inkscape:label="Layer 1"
	inkscape:groupmode="layer"
	id="layer1">
	<path style="fill:none;stroke:#000000;stroke-width:1px;stroke-linecap:butt;stroke-linejoin:miter;stroke-opacity:1" d="M 4,328.532 69.529,351.276 z" id="boundary" inkscape:connector-curvature="0" />
	<path style="fill:none;stroke:#000000;stroke-width:1px;stroke-linecap:butt;stroke-linejoin:miter;stroke-opacity:1" d="M 69.529,351.276 139.154,347.645 z" id="boundary" inkscape:connector-curvature="0" />
	<path style="fill:none;stroke:#000000;stroke-width:1px;stroke-linecap:butt;stroke-linejoin:miter;stroke-opacity:1" d="M 102.294,593.27 110.485,674.826 z" id="boundary" inkscape:connector-curvature="0" />
	<path style="fill:none;stroke:#000000;stroke-width:1px;stroke-linecap:butt;stroke-linejoin:miter;stroke-opacity:1" d="M 102.294,593.27 126.266,539.891 z" id="boundary" inkscape:connector-curvature="0" />
	<path style="fill:none;stroke:#000000;stroke-width:1px;stroke-linecap:butt;stroke-linejoin:miter;stroke-opacity:1" d="M 110.485,674.826 154.471,702.075 z" id="boundary" inkscape:connector-curvature="0" />
	<path style="fill:none;stroke:#000000;stroke-width:1px;stroke-linecap:butt;stroke-linejoin:miter;stroke-opacity:1" d="M 139.154,347.645 219.7,323.645 z" id="boundary" inkscape:connector-curvature="0" />
	<path style="fill:none;stroke:#000000;stroke-width:1px;stroke-linecap:butt;stroke-linejoin:miter;stroke-opacity:1" d="M 177.379,582.266 150.949,548.71 z" id="boundary" inkscape:connector-curvature="0" />
	<path style="fill:none;stroke:#000000;stroke-width:1px;stroke-linecap:butt;stroke-linejoin:miter;stroke-opacity:1" d="M 177.379,582.266 180.928,557.502 z" id="boundary" inkscape:connector-curvature="0" />
	<path style="fill:none;stroke:#000000;stroke-width:1px;stroke-linecap:butt;stroke-linejoin:miter;stroke-opacity:1" d="M 180.109,456.123 208.778,393.597 z" id="boundary" inkscape:connector-curvature="0" />
	<path style="fill:none;stroke:#000000;stroke-width:1px;stroke-linecap:butt;stroke-linejoin:miter;stroke-opacity:1" d="M 180.109,456.123 184.451,501.092 z" id="boundary" inkscape:connector-curvature="0" />
	<path style="fill:none;stroke:#000000;stroke-width:1px;stroke-linecap:butt;stroke-linejoin:miter;stroke-opacity:1" d="M 182.84,517.474 182.676,539.891 z" id="boundary" inkscape:connector-curvature="0" />
	<path style="fill:none;stroke:#000000;stroke-width:1px;stroke-linecap:butt;stroke-linejoin:miter;stroke-opacity:1" d="M 182.84,517.474 184.451,501.092 z" id="boundary" inkscape:connector-curvature="0" />
	<path style="fill:none;stroke:#000000;stroke-width:1px;stroke-linecap:butt;stroke-linejoin:miter;stroke-opacity:1" d="M 182.84,677.556 191.495,740.846 z" id="boundary" inkscape:connector-curvature="0" />
	<path style="fill:none;stroke:#000000;stroke-width:1px;stroke-linecap:butt;stroke-linejoin:miter;stroke-opacity:1" d="M 182.84,677.556 154.471,702.075 z" id="boundary" inkscape:connector-curvature="0" />
	<path style="fill:none;stroke:#000000;stroke-width:1px;stroke-linecap:butt;stroke-linejoin:miter;stroke-opacity:1" d="M 208.778,393.597 252.464,372.109 z" id="boundary" inkscape:connector-curvature="0" />
	<path style="fill:none;stroke:#000000;stroke-width:1px;stroke-linecap:butt;stroke-linejoin:miter;stroke-opacity:1" d="M 219.7,323.645 270.212,319.331 z" id="boundary" inkscape:connector-curvature="0" />
	<path style="fill:none;stroke:#000000;stroke-width:1px;stroke-linecap:butt;stroke-linejoin:miter;stroke-opacity:1" d="M 219.7,764.928 308.437,882.334 z" id="boundary" inkscape:connector-curvature="0" />
	<path style="fill:none;stroke:#000000;stroke-width:1px;stroke-linecap:butt;stroke-linejoin:miter;stroke-opacity:1" d="M 219.7,764.928 191.495,740.846 z" id="boundary" inkscape:connector-curvature="0" />
	<path style="fill:none;stroke:#000000;stroke-width:1px;stroke-linecap:butt;stroke-linejoin:miter;stroke-opacity:1" d="M 252.464,372.109 286.676,361.843 z" id="boundary" inkscape:connector-curvature="0" />
	<path style="fill:none;stroke:#000000;stroke-width:1px;stroke-linecap:butt;stroke-linejoin:miter;stroke-opacity:1" d="M 270.212,319.331 368.505,246.976 z" id="boundary" inkscape:connector-curvature="0" />
	<path style="fill:none;stroke:#000000;stroke-width:1px;stroke-linecap:butt;stroke-linejoin:miter;stroke-opacity:1" d="M 308.437,882.334 393.078,943.222 z" id="boundary" inkscape:connector-curvature="0" />
	<path style="fill:none;stroke:#000000;stroke-width:1px;stroke-linecap:butt;stroke-linejoin:miter;stroke-opacity:1" d="M 320.724,456.068 349.392,455.932 z" id="boundary" inkscape:connector-curvature="0" />
	<path style="fill:none;stroke:#000000;stroke-width:1px;stroke-linecap:butt;stroke-linejoin:miter;stroke-opacity:1" d="M 348.027,342.758 388.983,336.614 z" id="boundary" inkscape:connector-curvature="0" />
	<path style="fill:none;stroke:#000000;stroke-width:1px;stroke-linecap:butt;stroke-linejoin:miter;stroke-opacity:1" d="M 348.027,342.758 314.881,353.024 z" id="boundary" inkscape:connector-curvature="0" />
	<path style="fill:none;stroke:#000000;stroke-width:1px;stroke-linecap:butt;stroke-linejoin:miter;stroke-opacity:1" d="M 349.392,455.932 412.191,454.485 z" id="boundary" inkscape:connector-curvature="0" />
	<path style="fill:none;stroke:#000000;stroke-width:1px;stroke-linecap:butt;stroke-linejoin:miter;stroke-opacity:1" d="M 368.505,246.976 393.078,189.638 z" id="boundary" inkscape:connector-curvature="0" />
	<path style="fill:none;stroke:#000000;stroke-width:1px;stroke-linecap:butt;stroke-linejoin:miter;stroke-opacity:1" d="M 385.433,596.191 404,590.648 z" id="boundary" inkscape:connector-curvature="0" />
	<path style="fill:none;stroke:#000000;stroke-width:1px;stroke-linecap:butt;stroke-linejoin:miter;stroke-opacity:1" d="M 385.433,596.191 366.02,606.867 z" id="boundary" inkscape:connector-curvature="0" />
	<path style="fill:none;stroke:#000000;stroke-width:1px;stroke-linecap:butt;stroke-linejoin:miter;stroke-opacity:1" d="M 388.983,336.614 432.669,340.355 z" id="boundary" inkscape:connector-curvature="0" />
	<path style="fill:none;stroke:#000000;stroke-width:1px;stroke-linecap:butt;stroke-linejoin:miter;stroke-opacity:1" d="M 393.078,189.638 410.826,110.676 z" id="boundary" inkscape:connector-curvature="0" />
	<path style="fill:none;stroke:#000000;stroke-width:1px;stroke-linecap:butt;stroke-linejoin:miter;stroke-opacity:1" d="M 393.078,943.222 506.389,996 z" id="boundary" inkscape:connector-curvature="0" />
	<path style="fill:none;stroke:#000000;stroke-width:1px;stroke-linecap:butt;stroke-linejoin:miter;stroke-opacity:1" d="M 394.444,387.454 435.399,399.058 z" id="boundary" inkscape:connector-curvature="0" />
	<path style="fill:none;stroke:#000000;stroke-width:1px;stroke-linecap:butt;stroke-linejoin:miter;stroke-opacity:1" d="M 404,590.648 381.884,573.365 z" id="boundary" inkscape:connector-curvature="0" />
	<path style="fill:none;stroke:#000000;stroke-width:1px;stroke-linecap:butt;stroke-linejoin:miter;stroke-opacity:1" d="M 410.826,110.676 429.474,56.8601 z" id="boundary" inkscape:connector-curvature="0" />
	<path style="fill:none;stroke:#000000;stroke-width:1px;stroke-linecap:butt;stroke-linejoin:miter;stroke-opacity:1" d="M 412.191,454.485 468.164,449.242 z" id="boundary" inkscape:connector-curvature="0" />
	<path style="fill:none;stroke:#000000;stroke-width:1px;stroke-linecap:butt;stroke-linejoin:miter;stroke-opacity:1" d="M 412.191,782.949 438.13,804.519 z" id="boundary" inkscape:connector-curvature="0" />
	<path style="fill:none;stroke:#000000;stroke-width:1px;stroke-linecap:butt;stroke-linejoin:miter;stroke-opacity:1" d="M 412.191,782.949 404.792,769.051 z" id="boundary" inkscape:connector-curvature="0" />
	<path style="fill:none;stroke:#000000;stroke-width:1px;stroke-linecap:butt;stroke-linejoin:miter;stroke-opacity:1" d="M 410.826,538.307 381.884,534.594 z" id="boundary" inkscape:connector-curvature="0" />
	<path style="fill:none;stroke:#000000;stroke-width:1px;stroke-linecap:butt;stroke-linejoin:miter;stroke-opacity:1" d="M 432.669,340.355 485.884,342.457 z" id="boundary" inkscape:connector-curvature="0" />
	<path style="fill:none;stroke:#000000;stroke-width:1px;stroke-linecap:butt;stroke-linejoin:miter;stroke-opacity:1" d="M 435.399,399.058 474.99,401.515 z" id="boundary" inkscape:connector-curvature="0" />
	<path style="fill:none;stroke:#000000;stroke-width:1px;stroke-linecap:butt;stroke-linejoin:miter;stroke-opacity:1" d="M 438.13,804.519 469.529,809.706 z" id="boundary" inkscape:connector-curvature="0" />
	<path style="fill:none;stroke:#000000;stroke-width:1px;stroke-linecap:butt;stroke-linejoin:miter;stroke-opacity:1" d="M 457.242,848.56 491.372,850.662 z" id="boundary" inkscape:connector-curvature="0" />
	<path style="fill:none;stroke:#000000;stroke-width:1px;stroke-linecap:butt;stroke-linejoin:miter;stroke-opacity:1" d="M 457.242,848.56 424.177,837.802 z" id="boundary" inkscape:connector-curvature="0" />
	<path style="fill:none;stroke:#000000;stroke-width:1px;stroke-linecap:butt;stroke-linejoin:miter;stroke-opacity:1" d="M 461.338,640.696 461.338,688.751 z" id="boundary" inkscape:connector-curvature="0" />
	<path style="fill:none;stroke:#000000;stroke-width:1px;stroke-linecap:butt;stroke-linejoin:miter;stroke-opacity:1" d="M 461.338,688.751 440.041,724.983 z" id="boundary" inkscape:connector-curvature="0" />
	<path style="fill:none;stroke:#000000;stroke-width:1px;stroke-linecap:butt;stroke-linejoin:miter;stroke-opacity:1" d="M 468.164,449.242 507.044,451.754 z" id="boundary" inkscape:connector-curvature="0" />
	<path style="fill:none;stroke:#000000;stroke-width:1px;stroke-linecap:butt;stroke-linejoin:miter;stroke-opacity:1" d="M 469.529,809.706 522.908,807.823 z" id="boundary" inkscape:connector-curvature="0" />
	<path style="fill:none;stroke:#000000;stroke-width:1px;stroke-linecap:butt;stroke-linejoin:miter;stroke-opacity:1" d="M 474.99,401.515 511.85,397.01 z" id="boundary" inkscape:connector-curvature="0" />
	<path style="fill:none;stroke:#000000;stroke-width:1px;stroke-linecap:butt;stroke-linejoin:miter;stroke-opacity:1" d="M 479.085,142.075 495.468,194.962 z" id="boundary" inkscape:connector-curvature="0" />
	<path style="fill:none;stroke:#000000;stroke-width:1px;stroke-linecap:butt;stroke-linejoin:miter;stroke-opacity:1" d="M 479.085,142.075 470.02,95.6587 z" id="boundary" inkscape:connector-curvature="0" />
	<path style="fill:none;stroke:#000000;stroke-width:1px;stroke-linecap:butt;stroke-linejoin:miter;stroke-opacity:1" d="M 491.372,850.662 528.232,847.522 z" id="boundary" inkscape:connector-curvature="0" />
	<path style="fill:none;stroke:#000000;stroke-width:1px;stroke-linecap:butt;stroke-linejoin:miter;stroke-opacity:1" d="M 495.468,194.962 517.611,229.638 z" id="boundary" inkscape:connector-curvature="0" />
	<path style="fill:none;stroke:#000000;stroke-width:1px;stroke-linecap:butt;stroke-linejoin:miter;stroke-opacity:1" d="M 506.389,996 569.188,963.563 z" id="boundary" inkscape:connector-curvature="0" />
	<path style="fill:none;stroke:#000000;stroke-width:1px;stroke-linecap:butt;stroke-linejoin:miter;stroke-opacity:1" d="M 510.485,737.078 482.362,751.413 z" id="boundary" inkscape:connector-curvature="0" />
	<path style="fill:none;stroke:#000000;stroke-width:1px;stroke-linecap:butt;stroke-linejoin:miter;stroke-opacity:1" d="M 511.85,397.01 548.71,393.597 z" id="boundary" inkscape:connector-curvature="0" />
	<path style="fill:none;stroke:#000000;stroke-width:1px;stroke-linecap:butt;stroke-linejoin:miter;stroke-opacity:1" d="M 511.85,336.942 547.345,329.788 z" id="boundary" inkscape:connector-curvature="0" />
	<path style="fill:none;stroke:#000000;stroke-width:1px;stroke-linecap:butt;stroke-linejoin:miter;stroke-opacity:1" d="M 511.85,336.942 485.884,342.457 z" id="boundary" inkscape:connector-curvature="0" />
	<path style="fill:none;stroke:#000000;stroke-width:1px;stroke-linecap:butt;stroke-linejoin:miter;stroke-opacity:1" d="M 528.232,847.522 558.157,837.802 z" id="boundary" inkscape:connector-curvature="0" />
	<path style="fill:none;stroke:#000000;stroke-width:1px;stroke-linecap:butt;stroke-linejoin:miter;stroke-opacity:1" d="M 536.423,454.348 573.283,448.751 z" id="boundary" inkscape:connector-curvature="0" />
	<path style="fill:none;stroke:#000000;stroke-width:1px;stroke-linecap:butt;stroke-linejoin:miter;stroke-opacity:1" d="M 536.423,454.348 507.044,451.754 z" id="boundary" inkscape:connector-curvature="0" />
	<path style="fill:none;stroke:#000000;stroke-width:1px;stroke-linecap:butt;stroke-linejoin:miter;stroke-opacity:1" d="M 544.614,255.713 615.604,300.765 z" id="boundary" inkscape:connector-curvature="0" />
	<path style="fill:none;stroke:#000000;stroke-width:1px;stroke-linecap:butt;stroke-linejoin:miter;stroke-opacity:1" d="M 544.614,255.713 517.611,229.638 z" id="boundary" inkscape:connector-curvature="0" />
	<path style="fill:none;stroke:#000000;stroke-width:1px;stroke-linecap:butt;stroke-linejoin:miter;stroke-opacity:1" d="M 547.345,329.788 585.57,336.259 z" id="boundary" inkscape:connector-curvature="0" />
	<path style="fill:none;stroke:#000000;stroke-width:1px;stroke-linecap:butt;stroke-linejoin:miter;stroke-opacity:1" d="M 548.71,393.597 580.109,381.993 z" id="boundary" inkscape:connector-curvature="0" />
	<path style="fill:none;stroke:#000000;stroke-width:1px;stroke-linecap:butt;stroke-linejoin:miter;stroke-opacity:1" d="M 569.188,963.563 670.212,892.246 z" id="boundary" inkscape:connector-curvature="0" />
	<path style="fill:none;stroke:#000000;stroke-width:1px;stroke-linecap:butt;stroke-linejoin:miter;stroke-opacity:1" d="M 573.283,448.751 618.089,444.683 z" id="boundary" inkscape:connector-curvature="0" />
	<path style="fill:none;stroke:#000000;stroke-width:1px;stroke-linecap:butt;stroke-linejoin:miter;stroke-opacity:1" d="M 585.57,336.259 615.604,341.72 z" id="boundary" inkscape:connector-curvature="0" />
	<path style="fill:none;stroke:#000000;stroke-width:1px;stroke-linecap:butt;stroke-linejoin:miter;stroke-opacity:1" d="M 615.604,300.765 687.959,317.611 z" id="boundary" inkscape:connector-curvature="0" />
	<path style="fill:none;stroke:#000000;stroke-width:1px;stroke-linecap:butt;stroke-linejoin:miter;stroke-opacity:1" d="M 615.604,341.72 653.365,347.727 z" id="boundary" inkscape:connector-curvature="0" />
	<path style="fill:none;stroke:#000000;stroke-width:1px;stroke-linecap:butt;stroke-linejoin:miter;stroke-opacity:1" d="M 657.925,603.072 682.498,597.01 z" id="boundary" inkscape:connector-curvature="0" />
	<path style="fill:none;stroke:#000000;stroke-width:1px;stroke-linecap:butt;stroke-linejoin:miter;stroke-opacity:1" d="M 657.925,603.072 644.546,603.345 z" id="boundary" inkscape:connector-curvature="0" />
	<path style="fill:none;stroke:#000000;stroke-width:1px;stroke-linecap:butt;stroke-linejoin:miter;stroke-opacity:1" d="M 670.212,892.246 720.724,848.478 z" id="boundary" inkscape:connector-curvature="0" />
	<path style="fill:none;stroke:#000000;stroke-width:1px;stroke-linecap:butt;stroke-linejoin:miter;stroke-opacity:1" d="M 682.498,597.01 711.522,589.256 z" id="boundary" inkscape:connector-curvature="0" />
	<path style="fill:none;stroke:#000000;stroke-width:1px;stroke-linecap:butt;stroke-linejoin:miter;stroke-opacity:1" d="M 687.959,317.611 754.853,328.423 z" id="boundary" inkscape:connector-curvature="0" />
	<path style="fill:none;stroke:#000000;stroke-width:1px;stroke-linecap:butt;stroke-linejoin:miter;stroke-opacity:1" d="M 720.724,848.478 793.078,780.3 z" id="boundary" inkscape:connector-curvature="0" />
	<path style="fill:none;stroke:#000000;stroke-width:1px;stroke-linecap:butt;stroke-linejoin:miter;stroke-opacity:1" d="M 754.853,328.423 797.174,336.259 z" id="boundary" inkscape:connector-curvature="0" />
	<path style="fill:none;stroke:#000000;stroke-width:1px;stroke-linecap:butt;stroke-linejoin:miter;stroke-opacity:1" d="M 793.078,780.3 812,742.621 z" id="boundary" inkscape:connector-curvature="0" />
	<path style="fill:none;stroke:#000000;stroke-width:1px;stroke-linecap:butt;stroke-linejoin:miter;stroke-opacity:1" d="M 795.809,389.857 823.113,431.823 z" id="boundary" inkscape:connector-curvature="0" />
	<path style="fill:none;stroke:#000000;stroke-width:1px;stroke-linecap:butt;stroke-linejoin:miter;stroke-opacity:1" d="M 795.809,389.857 767.932,368.887 z" id="boundary" inkscape:connector-curvature="0" />
	<path style="fill:none;stroke:#000000;stroke-width:1px;stroke-linecap:butt;stroke-linejoin:miter;stroke-opacity:1" d="M 797.174,336.259 871.932,361.843 z" id="boundary" inkscape:connector-curvature="0" />
	<path style="fill:none;stroke:#000000;stroke-width:1px;stroke-linecap:butt;stroke-linejoin:miter;stroke-opacity:1" d="M 823.113,431.823 833.16,490.526 z" id="boundary" inkscape:connector-curvature="0" />
	<path style="fill:none;stroke:#000000;stroke-width:1px;stroke-linecap:butt;stroke-linejoin:miter;stroke-opacity:1" d="M 835.399,593.461 836.683,568.096 z" id="boundary" inkscape:connector-curvature="0" />
	<path style="fill:none;stroke:#000000;stroke-width:1px;stroke-linecap:butt;stroke-linejoin:miter;stroke-opacity:1" d="M 835.399,593.461 873.706,552.232 z" id="boundary" inkscape:connector-curvature="0" />
	<path style="fill:none;stroke:#000000;stroke-width:1px;stroke-linecap:butt;stroke-linejoin:miter;stroke-opacity:1" d="M 835.399,692.382 868.164,691.481 z" id="boundary" inkscape:connector-curvature="0" />
	<path style="fill:none;stroke:#000000;stroke-width:1px;stroke-linecap:butt;stroke-linejoin:miter;stroke-opacity:1" d="M 835.399,692.382 834.935,719.686 z" id="boundary" inkscape:connector-curvature="0" />
	<path style="fill:none;stroke:#000000;stroke-width:1px;stroke-linecap:butt;stroke-linejoin:miter;stroke-opacity:1" d="M 868.164,691.481 898.198,627.59 z" id="boundary" inkscape:connector-curvature="0" />
	<path style="fill:none;stroke:#000000;stroke-width:1px;stroke-linecap:butt;stroke-linejoin:miter;stroke-opacity:1" d="M 898.198,627.59 893.092,564.573 z" id="boundary" inkscape:connector-curvature="0" />
	<path style="fill:none;stroke:#000000;stroke-width:1px;stroke-linecap:butt;stroke-linejoin:miter;stroke-opacity:1" d="M 899.563,335.932 915.945,296.669 z" id="boundary" inkscape:connector-curvature="0" />
	<path style="fill:none;stroke:#000000;stroke-width:1px;stroke-linecap:butt;stroke-linejoin:miter;stroke-opacity:1" d="M 899.563,335.932 871.932,361.843 z" id="boundary" inkscape:connector-curvature="0" />
	<path style="fill:none;stroke:#000000;stroke-width:1px;stroke-linecap:butt;stroke-linejoin:miter;stroke-opacity:1" d="M 429.474,56.8601 447.113,4 z" id="boundary" inkscape:connector-curvature="0" />
	<path style="fill:none;stroke:#000000;stroke-width:1px;stroke-linecap:butt;stroke-linejoin:miter;stroke-opacity:1" d="M 447.113,4 455.904,28.6553 z" id="boundary" inkscape:connector-curvature="0" />
	<path style="fill:none;stroke:#000000;stroke-width:1px;stroke-linecap:butt;stroke-linejoin:miter;stroke-opacity:1" d="M 455.904,28.6553 461.201,53.3379 z" id="boundary" inkscape:connector-curvature="0" />
	<path style="fill:none;stroke:#000000;stroke-width:1px;stroke-linecap:butt;stroke-linejoin:miter;stroke-opacity:1" d="M 461.201,53.3379 462.976,70.9761 z" id="boundary" inkscape:connector-curvature="0" />
	<path style="fill:none;stroke:#000000;stroke-width:1px;stroke-linecap:butt;stroke-linejoin:miter;stroke-opacity:1" d="M 462.976,70.9761 470.02,95.6587 z" id="boundary" inkscape:connector-curvature="0" />
	<path style="fill:none;stroke:#000000;stroke-width:1px;stroke-linecap:butt;stroke-linejoin:miter;stroke-opacity:1" d="M 126.266,539.891 150.949,548.71 z" id="boundary" inkscape:connector-curvature="0" />
	<path style="fill:none;stroke:#000000;stroke-width:1px;stroke-linecap:butt;stroke-linejoin:miter;stroke-opacity:1" d="M 180.928,557.502 182.676,539.891 z" id="boundary" inkscape:connector-curvature="0" />
	<path style="fill:none;stroke:#000000;stroke-width:1px;stroke-linecap:butt;stroke-linejoin:miter;stroke-opacity:1" d="M 286.676,361.843 314.881,353.024 z" id="boundary" inkscape:connector-curvature="0" />
	<path style="fill:none;stroke:#000000;stroke-width:1px;stroke-linecap:butt;stroke-linejoin:miter;stroke-opacity:1" d="M 653.365,347.727 678.02,358.321 z" id="boundary" inkscape:connector-curvature="0" />
	<path style="fill:none;stroke:#000000;stroke-width:1px;stroke-linecap:butt;stroke-linejoin:miter;stroke-opacity:1" d="M 678.02,358.321 699.181,354.799 z" id="boundary" inkscape:connector-curvature="0" />
	<path style="fill:none;stroke:#000000;stroke-width:1px;stroke-linecap:butt;stroke-linejoin:miter;stroke-opacity:1" d="M 699.181,354.799 730.908,358.321 z" id="boundary" inkscape:connector-curvature="0" />
	<path style="fill:none;stroke:#000000;stroke-width:1px;stroke-linecap:butt;stroke-linejoin:miter;stroke-opacity:1" d="M 730.908,358.321 748.546,363.59 z" id="boundary" inkscape:connector-curvature="0" />
	<path style="fill:none;stroke:#000000;stroke-width:1px;stroke-linecap:butt;stroke-linejoin:miter;stroke-opacity:1" d="M 748.546,363.59 767.932,368.887 z" id="boundary" inkscape:connector-curvature="0" />
	<path style="fill:none;stroke:#000000;stroke-width:1px;stroke-linecap:butt;stroke-linejoin:miter;stroke-opacity:1" d="M 833.16,490.526 831.386,518.73 z" id="boundary" inkscape:connector-curvature="0" />
	<path style="fill:none;stroke:#000000;stroke-width:1px;stroke-linecap:butt;stroke-linejoin:miter;stroke-opacity:1" d="M 831.386,518.73 838.457,548.71 z" id="boundary" inkscape:connector-curvature="0" />
	<path style="fill:none;stroke:#000000;stroke-width:1px;stroke-linecap:butt;stroke-linejoin:miter;stroke-opacity:1" d="M 838.457,548.71 836.683,568.096 z" id="boundary" inkscape:connector-curvature="0" />
	<path style="fill:none;stroke:#000000;stroke-width:1px;stroke-linecap:butt;stroke-linejoin:miter;stroke-opacity:1" d="M 873.706,552.232 893.092,564.573 z" id="boundary" inkscape:connector-curvature="0" />
	<path style="fill:none;stroke:#000000;stroke-width:1px;stroke-linecap:butt;stroke-linejoin:miter;stroke-opacity:1" d="M 834.935,719.686 812,742.621 z" id="boundary" inkscape:connector-curvature="0" />
	<path style="fill:none;stroke:#000000;stroke-width:1px;stroke-linecap:butt;stroke-linejoin:miter;stroke-opacity:1" d="M 618.089,444.683 637.474,441.16 z" id="boundary" inkscape:connector-curvature="0" />
	<path style="fill:none;stroke:#000000;stroke-width:1px;stroke-linecap:butt;stroke-linejoin:miter;stroke-opacity:1" d="M 558.157,837.802 579.317,816.642 z" id="boundary" inkscape:connector-curvature="0" />
	<path style="fill:none;stroke:#000000;stroke-width:1px;stroke-linecap:butt;stroke-linejoin:miter;stroke-opacity:1" d="M 579.317,816.642 586.362,793.734 z" id="boundary" inkscape:connector-curvature="0" />
	<path style="fill:none;stroke:#000000;stroke-width:1px;stroke-linecap:butt;stroke-linejoin:miter;stroke-opacity:1" d="M 586.362,793.734 591.659,779.618 z" id="boundary" inkscape:connector-curvature="0" />
	<path style="fill:none;stroke:#000000;stroke-width:1px;stroke-linecap:butt;stroke-linejoin:miter;stroke-opacity:1" d="M 591.659,779.618 588.137,754.935 z" id="boundary" inkscape:connector-curvature="0" />
	<path style="fill:none;stroke:#000000;stroke-width:1px;stroke-linecap:butt;stroke-linejoin:miter;stroke-opacity:1" d="M 588.137,754.935 559.932,786.689 z" id="boundary" inkscape:connector-curvature="0" />
	<path style="fill:none;stroke:#000000;stroke-width:1px;stroke-linecap:butt;stroke-linejoin:miter;stroke-opacity:1" d="M 424.177,837.802 401.27,821.939 z" id="boundary" inkscape:connector-curvature="0" />
	<path style="fill:none;stroke:#000000;stroke-width:1px;stroke-linecap:butt;stroke-linejoin:miter;stroke-opacity:1" d="M 378.362,742.621 395.973,758.485 z" id="boundary" inkscape:connector-curvature="0" />
	<path style="fill:none;stroke:#000000;stroke-width:1px;stroke-linecap:butt;stroke-linejoin:miter;stroke-opacity:1" d="M 378.362,742.621 378.362,779.618 z" id="boundary" inkscape:connector-curvature="0" />
	<path style="fill:none;stroke:#000000;stroke-width:1px;stroke-linecap:butt;stroke-linejoin:miter;stroke-opacity:1" d="M 395.973,758.485 404.792,769.051 z" id="boundary" inkscape:connector-curvature="0" />
	<path style="fill:none;stroke:#000000;stroke-width:1px;stroke-linecap:butt;stroke-linejoin:miter;stroke-opacity:1" d="M 522.908,807.823 545.816,793.734 z" id="boundary" inkscape:connector-curvature="0" />
	<path style="fill:none;stroke:#000000;stroke-width:1px;stroke-linecap:butt;stroke-linejoin:miter;stroke-opacity:1" d="M 545.816,793.734 559.932,786.689 z" id="boundary" inkscape:connector-curvature="0" />
	<path style="fill:none;stroke:#000000;stroke-width:1px;stroke-linecap:butt;stroke-linejoin:miter;stroke-opacity:1" d="M 401.27,821.939 378.362,779.618 z" id="boundary" inkscape:connector-curvature="0" />
	<path style="fill:none;stroke:#000000;stroke-width:1px;stroke-linecap:butt;stroke-linejoin:miter;stroke-opacity:1" d="M 440.041,724.983 459.454,754.935 z" id="boundary" inkscape:connector-curvature="0" />
	<path style="fill:none;stroke:#000000;stroke-width:1px;stroke-linecap:butt;stroke-linejoin:miter;stroke-opacity:1" d="M 459.454,754.935 482.362,751.413 z" id="boundary" inkscape:connector-curvature="0" />
	<path style="fill:none;stroke:#000000;stroke-width:1px;stroke-linecap:butt;stroke-linejoin:miter;stroke-opacity:1" d="M 366.02,606.867 343.085,608.642 z" id="boundary" inkscape:connector-curvature="0" />
	<path style="fill:none;stroke:#000000;stroke-width:1px;stroke-linecap:butt;stroke-linejoin:miter;stroke-opacity:1" d="M 343.085,608.642 321.952,613.911 z" id="boundary" inkscape:connector-curvature="0" />
	<path style="fill:none;stroke:#000000;stroke-width:1px;stroke-linecap:butt;stroke-linejoin:miter;stroke-opacity:1" d="M 321.952,613.911 297.27,610.389 z" id="boundary" inkscape:connector-curvature="0" />
	<path style="fill:none;stroke:#000000;stroke-width:1px;stroke-linecap:butt;stroke-linejoin:miter;stroke-opacity:1" d="M 297.27,610.389 276.109,606.867 z" id="boundary" inkscape:connector-curvature="0" />
	<path style="fill:none;stroke:#000000;stroke-width:1px;stroke-linecap:butt;stroke-linejoin:miter;stroke-opacity:1" d="M 276.109,606.867 263.768,589.256 z" id="boundary" inkscape:connector-curvature="0" />
	<path style="fill:none;stroke:#000000;stroke-width:1px;stroke-linecap:butt;stroke-linejoin:miter;stroke-opacity:1" d="M 263.768,589.256 286.676,582.184 z" id="boundary" inkscape:connector-curvature="0" />
	<path style="fill:none;stroke:#000000;stroke-width:1px;stroke-linecap:butt;stroke-linejoin:miter;stroke-opacity:1" d="M 286.676,582.184 309.611,573.365 z" id="boundary" inkscape:connector-curvature="0" />
	<path style="fill:none;stroke:#000000;stroke-width:1px;stroke-linecap:butt;stroke-linejoin:miter;stroke-opacity:1" d="M 309.611,573.365 325.474,568.096 z" id="boundary" inkscape:connector-curvature="0" />
	<path style="fill:none;stroke:#000000;stroke-width:1px;stroke-linecap:butt;stroke-linejoin:miter;stroke-opacity:1" d="M 325.474,568.096 343.085,564.573 z" id="boundary" inkscape:connector-curvature="0" />
	<path style="fill:none;stroke:#000000;stroke-width:1px;stroke-linecap:butt;stroke-linejoin:miter;stroke-opacity:1" d="M 343.085,564.573 362.498,569.843 z" id="boundary" inkscape:connector-curvature="0" />
	<path style="fill:none;stroke:#000000;stroke-width:1px;stroke-linecap:butt;stroke-linejoin:miter;stroke-opacity:1" d="M 362.498,569.843 381.884,573.365 z" id="boundary" inkscape:connector-curvature="0" />
	<path style="fill:none;stroke:#000000;stroke-width:1px;stroke-linecap:butt;stroke-linejoin:miter;stroke-opacity:1" d="M 254.949,543.413 276.109,541.638 z" id="boundary" inkscape:connector-curvature="0" />
	<path style="fill:none;stroke:#000000;stroke-width:1px;stroke-linecap:butt;stroke-linejoin:miter;stroke-opacity:1" d="M 276.109,541.638 304.314,539.891 z" id="boundary" inkscape:connector-curvature="0" />
	<path style="fill:none;stroke:#000000;stroke-width:1px;stroke-linecap:butt;stroke-linejoin:miter;stroke-opacity:1" d="M 304.314,539.891 325.474,538.116 z" id="boundary" inkscape:connector-curvature="0" />
	<path style="fill:none;stroke:#000000;stroke-width:1px;stroke-linecap:butt;stroke-linejoin:miter;stroke-opacity:1" d="M 325.474,538.116 350.157,538.116 z" id="boundary" inkscape:connector-curvature="0" />
	<path style="fill:none;stroke:#000000;stroke-width:1px;stroke-linecap:butt;stroke-linejoin:miter;stroke-opacity:1" d="M 350.157,538.116 381.884,534.594 z" id="boundary" inkscape:connector-curvature="0" />
	<path style="fill:none;stroke:#000000;stroke-width:1px;stroke-linecap:butt;stroke-linejoin:miter;stroke-opacity:1" d="M 602.225,599.823 614.567,601.57 z" id="boundary" inkscape:connector-curvature="0" />
	<path style="fill:none;stroke:#000000;stroke-width:1px;stroke-linecap:butt;stroke-linejoin:miter;stroke-opacity:1" d="M 602.225,599.823 596.956,571.618 z" id="boundary" inkscape:connector-curvature="0" />
	<path style="fill:none;stroke:#000000;stroke-width:1px;stroke-linecap:butt;stroke-linejoin:miter;stroke-opacity:1" d="M 614.567,601.57 633.952,603.345 z" id="boundary" inkscape:connector-curvature="0" />
	<path style="fill:none;stroke:#000000;stroke-width:1px;stroke-linecap:butt;stroke-linejoin:miter;stroke-opacity:1" d="M 633.952,603.345 644.546,603.345 z" id="boundary" inkscape:connector-curvature="0" />
	<path style="fill:none;stroke:#000000;stroke-width:1px;stroke-linecap:butt;stroke-linejoin:miter;stroke-opacity:1" d="M 711.522,589.256 713.297,568.096 z" id="boundary" inkscape:connector-curvature="0" />
	<path style="fill:none;stroke:#000000;stroke-width:1px;stroke-linecap:butt;stroke-linejoin:miter;stroke-opacity:1" d="M 713.297,568.096 697.433,568.096 z" id="boundary" inkscape:connector-curvature="0" />
	<path style="fill:none;stroke:#000000;stroke-width:1px;stroke-linecap:butt;stroke-linejoin:miter;stroke-opacity:1" d="M 697.433,568.096 678.02,564.573 z" id="boundary" inkscape:connector-curvature="0" />
	<path style="fill:none;stroke:#000000;stroke-width:1px;stroke-linecap:butt;stroke-linejoin:miter;stroke-opacity:1" d="M 678.02,564.573 663.932,557.502 z" id="boundary" inkscape:connector-curvature="0" />
	<path style="fill:none;stroke:#000000;stroke-width:1px;stroke-linecap:butt;stroke-linejoin:miter;stroke-opacity:1" d="M 663.932,557.502 642.771,557.502 z" id="boundary" inkscape:connector-curvature="0" />
	<path style="fill:none;stroke:#000000;stroke-width:1px;stroke-linecap:butt;stroke-linejoin:miter;stroke-opacity:1" d="M 642.771,557.502 630.43,564.573 z" id="boundary" inkscape:connector-curvature="0" />
	<path style="fill:none;stroke:#000000;stroke-width:1px;stroke-linecap:butt;stroke-linejoin:miter;stroke-opacity:1" d="M 630.43,564.573 612.819,564.573 z" id="boundary" inkscape:connector-curvature="0" />
	<path style="fill:none;stroke:#000000;stroke-width:1px;stroke-linecap:butt;stroke-linejoin:miter;stroke-opacity:1" d="M 612.819,564.573 596.956,571.618 z" id="boundary" inkscape:connector-curvature="0" />
	<path style="fill:none;stroke:#000000;stroke-width:1px;stroke-linecap:butt;stroke-linejoin:miter;stroke-opacity:1" d="M 572.273,539.891 596.956,536.369 z" id="boundary" inkscape:connector-curvature="0" />
	<path style="fill:none;stroke:#000000;stroke-width:1px;stroke-linecap:butt;stroke-linejoin:miter;stroke-opacity:1" d="M 596.956,536.369 625.16,534.594 z" id="boundary" inkscape:connector-curvature="0" />
	<path style="fill:none;stroke:#000000;stroke-width:1px;stroke-linecap:butt;stroke-linejoin:miter;stroke-opacity:1" d="M 625.16,534.594 667.454,531.072 z" id="boundary" inkscape:connector-curvature="0" />
	<path style="fill:none;stroke:#000000;stroke-width:1px;stroke-linecap:butt;stroke-linejoin:miter;stroke-opacity:1" d="M 667.454,531.072 690.362,531.072 z" id="boundary" inkscape:connector-curvature="0" />
	<path style="fill:none;stroke:#000000;stroke-width:1px;stroke-linecap:butt;stroke-linejoin:miter;stroke-opacity:1" d="M 690.362,531.072 720.341,531.072 z" id="boundary" inkscape:connector-curvature="0" />
	<path style="fill:none;stroke:#000000;stroke-width:1px;stroke-linecap:butt;stroke-linejoin:miter;stroke-opacity:1" d="M 720.341,531.072 741.502,529.297 z" id="boundary" inkscape:connector-curvature="0" />
	<circle cx="4" cy="328.532" r="4" fill="#0" id="circle0"/>
	<circle cx="69.529" cy="351.276" r="4" fill="#0" id="circle1"/>
	<circle cx="102.294" cy="593.27" r="4" fill="#0" id="circle2"/>
	<circle cx="110.485" cy="674.826" r="4" fill="#0" id="circle3"/>
	<circle cx="139.154" cy="347.645" r="4" fill="#0" id="circle4"/>
	<circle cx="177.379" cy="582.266" r="4" fill="#0" id="circle5"/>
	<circle cx="180.109" cy="456.123" r="4" fill="#0" id="circle6"/>
	<circle cx="182.84" cy="517.474" r="4" fill="#0" id="circle7"/>
	<circle cx="182.84" cy="677.556" r="4" fill="#0" id="circle8"/>
	<circle cx="208.778" cy="393.597" r="4" fill="#0" id="circle9"/>
	<circle cx="219.7" cy="323.645" r="4" fill="#0" id="circle10"/>
	<circle cx="219.7" cy="764.928" r="4" fill="#0" id="circle11"/>
	<circle cx="252.464" cy="372.109" r="4" fill="#0" id="circle12"/>
	<circle cx="270.212" cy="319.331" r="4" fill="#0" id="circle13"/>
	<circle cx="308.437" cy="882.334" r="4" fill="#0" id="circle14"/>
	<circle cx="320.724" cy="456.068" r="4" fill="#0" id="circle15"/>
	<circle cx="348.027" cy="342.758" r="4" fill="#0" id="circle16"/>
	<circle cx="349.392" cy="455.932" r="4" fill="#0" id="circle17"/>
	<circle cx="368.505" cy="246.976" r="4" fill="#0" id="circle18"/>
	<circle cx="385.433" cy="596.191" r="4" fill="#0" id="circle19"/>
	<circle cx="388.983" cy="336.614" r="4" fill="#0" id="circle20"/>
	<circle cx="393.078" cy="189.638" r="4" fill="#0" id="circle21"/>
	<circle cx="393.078" cy="943.222" r="4" fill="#0" id="circle22"/>
	<circle cx="394.444" cy="387.454" r="4" fill="#0" id="circle23"/>
	<circle cx="404" cy="590.648" r="4" fill="#0" id="circle24"/>
	<circle cx="410.826" cy="110.676" r="4" fill="#0" id="circle25"/>
	<circle cx="412.191" cy="454.485" r="4" fill="#0" id="circle26"/>
	<circle cx="412.191" cy="782.949" r="4" fill="#0" id="circle27"/>
	<circle cx="410.826" cy="538.307" r="4" fill="#0" id="circle28"/>
	<circle cx="432.669" cy="340.355" r="4" fill="#0" id="circle29"/>
	<circle cx="435.399" cy="399.058" r="4" fill="#0" id="circle30"/>
	<circle cx="438.13" cy="804.519" r="4" fill="#0" id="circle31"/>
	<circle cx="457.242" cy="848.56" r="4" fill="#0" id="circle32"/>
	<circle cx="461.338" cy="640.696" r="4" fill="#0" id="circle33"/>
	<circle cx="461.338" cy="688.751" r="4" fill="#0" id="circle34"/>
	<circle cx="468.164" cy="449.242" r="4" fill="#0" id="circle35"/>
	<circle cx="469.529" cy="809.706" r="4" fill="#0" id="circle36"/>
	<circle cx="474.99" cy="401.515" r="4" fill="#0" id="circle37"/>
	<circle cx="479.085" cy="142.075" r="4" fill="#0" id="circle38"/>
	<circle cx="491.372" cy="850.662" r="4" fill="#0" id="circle39"/>
	<circle cx="495.468" cy="194.962" r="4" fill="#0" id="circle40"/>
	<circle cx="506.389" cy="996" r="4" fill="#0" id="circle41"/>
	<circle cx="510.485" cy="737.078" r="4" fill="#0" id="circle42"/>
	<circle cx="511.85" cy="397.01" r="4" fill="#0" id="circle43"/>
	<circle cx="511.85" cy="336.942" r="4" fill="#0" id="circle44"/>
	<circle cx="528.232" cy="847.522" r="4" fill="#0" id="circle45"/>
	<circle cx="536.423" cy="454.348" r="4" fill="#0" id="circle46"/>
	<circle cx="544.614" cy="255.713" r="4" fill="#0" id="circle47"/>
	<circle cx="547.345" cy="329.788" r="4" fill="#0" id="circle48"/>
	<circle cx="548.71" cy="393.597" r="4" fill="#0" id="circle49"/>
	<circle cx="569.188" cy="963.563" r="4" fill="#0" id="circle50"/>
	<circle cx="573.283" cy="448.751" r="4" fill="#0" id="circle51"/>
	<circle cx="580.109" cy="381.993" r="4" fill="#0" id="circle52"/>
	<circle cx="585.57" cy="336.259" r="4" fill="#0" id="circle53"/>
	<circle cx="615.604" cy="300.765" r="4" fill="#0" id="circle54"/>
	<circle cx="615.604" cy="341.72" r="4" fill="#0" id="circle55"/>
	<circle cx="640.177" cy="720.232" r="4" fill="#0" id="circle56"/>
	<circle cx="657.925" cy="603.072" r="4" fill="#0" id="circle57"/>
	<circle cx="670.212" cy="892.246" r="4" fill="#0" id="circle58"/>
	<circle cx="682.498" cy="597.01" r="4" fill="#0" id="circle59"/>
	<circle cx="687.959" cy="317.611" r="4" fill="#0" id="circle60"/>
	<circle cx="720.724" cy="848.478" r="4" fill="#0" id="circle61"/>
	<circle cx="754.853" cy="328.423" r="4" fill="#0" id="circle62"/>
	<circle cx="793.078" cy="780.3" r="4" fill="#0" id="circle63"/>
	<circle cx="795.809" cy="389.857" r="4" fill="#0" id="circle64"/>
	<circle cx="797.174" cy="336.259" r="4" fill="#0" id="circle65"/>
	<circle cx="823.113" cy="431.823" r="4" fill="#0" id="circle66"/>
	<circle cx="835.399" cy="593.461" r="4" fill="#0" id="circle67"/>
	<circle cx="835.399" cy="692.382" r="4" fill="#0" id="circle68"/>
	<circle cx="868.164" cy="691.481" r="4" fill="#0" id="circle69"/>
	<circle cx="898.198" cy="627.59" r="4" fill="#0" id="circle70"/>
	<circle cx="899.563" cy="335.932" r="4" fill="#0" id="circle71"/>
	<circle cx="915.945" cy="296.669" r="4" fill="#0" id="circle72"/>
	<circle cx="429.474" cy="56.8601" r="4" fill="#0" id="circle73"/>
	<circle cx="447.113" cy="4" r="4" fill="#0" id="circle74"/>
	<circle cx="455.904" cy="28.6553" r="4" fill="#0" id="circle75"/>
	<circle cx="461.201" cy="53.3379" r="4" fill="#0" id="circle76"/>
	<circle cx="462.976" cy="70.9761" r="4" fill="#0" id="circle77"/>
	<circle cx="470.02" cy="95.6587" r="4" fill="#0" id="circle78"/>
	<circle cx="517.611" cy="229.638" r="4" fill="#0" id="circle79"/>
	<circle cx="871.932" cy="361.843" r="4" fill="#0" id="circle80"/>
	<circle cx="191.495" cy="740.846" r="4" fill="#0" id="circle81"/>
	<circle cx="154.471" cy="702.075" r="4" fill="#0" id="circle82"/>
	<circle cx="126.266" cy="539.891" r="4" fill="#0" id="circle83"/>
	<circle cx="150.949" cy="548.71" r="4" fill="#0" id="circle84"/>
	<circle cx="180.928" cy="557.502" r="4" fill="#0" id="circle85"/>
	<circle cx="182.676" cy="539.891" r="4" fill="#0" id="circle86"/>
	<circle cx="184.451" cy="501.092" r="4" fill="#0" id="circle87"/>
	<circle cx="286.676" cy="361.843" r="4" fill="#0" id="circle88"/>
	<circle cx="314.881" cy="353.024" r="4" fill="#0" id="circle89"/>
	<circle cx="485.884" cy="342.457" r="4" fill="#0" id="circle90"/>
	<circle cx="653.365" cy="347.727" r="4" fill="#0" id="circle91"/>
	<circle cx="678.02" cy="358.321" r="4" fill="#0" id="circle92"/>
	<circle cx="699.181" cy="354.799" r="4" fill="#0" id="circle93"/>
	<circle cx="730.908" cy="358.321" r="4" fill="#0" id="circle94"/>
	<circle cx="748.546" cy="363.59" r="4" fill="#0" id="circle95"/>
	<circle cx="767.932" cy="368.887" r="4" fill="#0" id="circle96"/>
	<circle cx="833.16" cy="490.526" r="4" fill="#0" id="circle97"/>
	<circle cx="831.386" cy="518.73" r="4" fill="#0" id="circle98"/>
	<circle cx="838.457" cy="548.71" r="4" fill="#0" id="circle99"/>
	<circle cx="836.683" cy="568.096" r="4" fill="#0" id="circle100"/>
	<circle cx="873.706" cy="552.232" r="4" fill="#0" id="circle101"/>
	<circle cx="893.092" cy="564.573" r="4" fill="#0" id="circle102"/>
	<circle cx="834.935" cy="719.686" r="4" fill="#0" id="circle103"/>
	<circle cx="812" cy="742.621" r="4" fill="#0" id="circle104"/>
	<circle cx="507.044" cy="451.754" r="4" fill="#0" id="circle105"/>
	<circle cx="618.089" cy="444.683" r="4" fill="#0" id="circle106"/>
	<circle cx="637.474" cy="441.16" r="4" fill="#0" id="circle107"/>
	<circle cx="558.157" cy="837.802" r="4" fill="#0" id="circle108"/>
	<circle cx="579.317" cy="816.642" r="4" fill="#0" id="circle109"/>
	<circle cx="586.362" cy="793.734" r="4" fill="#0" id="circle110"/>
	<circle cx="591.659" cy="779.618" r="4" fill="#0" id="circle111"/>
	<circle cx="588.137" cy="754.935" r="4" fill="#0" id="circle112"/>
	<circle cx="424.177" cy="837.802" r="4" fill="#0" id="circle113"/>
	<circle cx="378.362" cy="742.621" r="4" fill="#0" id="circle114"/>
	<circle cx="395.973" cy="758.485" r="4" fill="#0" id="circle115"/>
	<circle cx="404.792" cy="769.051" r="4" fill="#0" id="circle116"/>
	<circle cx="522.908" cy="807.823" r="4" fill="#0" id="circle117"/>
	<circle cx="545.816" cy="793.734" r="4" fill="#0" id="circle118"/>
	<circle cx="559.932" cy="786.689" r="4" fill="#0" id="circle119"/>
	<circle cx="401.27" cy="821.939" r="4" fill="#0" id="circle120"/>
	<circle cx="378.362" cy="779.618" r="4" fill="#0" id="circle121"/>
	<circle cx="440.041" cy="724.983" r="4" fill="#0" id="circle122"/>
	<circle cx="459.454" cy="754.935" r="4" fill="#0" id="circle123"/>
	<circle cx="482.362" cy="751.413" r="4" fill="#0" id="circle124"/>
	<circle cx="366.02" cy="606.867" r="4" fill="#0" id="circle125"/>
	<circle cx="343.085" cy="608.642" r="4" fill="#0" id="circle126"/>
	<circle cx="321.952" cy="613.911" r="4" fill="#0" id="circle127"/>
	<circle cx="297.27" cy="610.389" r="4" fill="#0" id="circle128"/>
	<circle cx="276.109" cy="606.867" r="4" fill="#0" id="circle129"/>
	<circle cx="263.768" cy="589.256" r="4" fill="#0" id="circle130"/>
	<circle cx="286.676" cy="582.184" r="4" fill="#0" id="circle131"/>
	<circle cx="309.611" cy="573.365" r="4" fill="#0" id="circle132"/>
	<circle cx="325.474" cy="568.096" r="4" fill="#0" id="circle133"/>
	<circle cx="343.085" cy="564.573" r="4" fill="#0" id="circle134"/>
	<circle cx="362.498" cy="569.843" r="4" fill="#0" id="circle135"/>
	<circle cx="381.884" cy="573.365" r="4" fill="#0" id="circle136"/>
	<circle cx="332.519" cy="585.706" r="4" fill="#0" id="circle137"/>
	<circle cx="254.949" cy="543.413" r="4" fill="#0" id="circle138"/>
	<circle cx="276.109" cy="541.638" r="4" fill="#0" id="circle139"/>
	<circle cx="304.314" cy="539.891" r="4" fill="#0" id="circle140"/>
	<circle cx="325.474" cy="538.116" r="4" fill="#0" id="circle141"/>
	<circle cx="350.157" cy="538.116" r="4" fill="#0" id="circle142"/>
	<circle cx="381.884" cy="534.594" r="4" fill="#0" id="circle143"/>
	<circle cx="602.225" cy="599.823" r="4" fill="#0" id="circle144"/>
	<circle cx="614.567" cy="601.57" r="4" fill="#0" id="circle145"/>
	<circle cx="633.952" cy="603.345" r="4" fill="#0" id="circle146"/>
	<circle cx="644.546" cy="603.345" r="4" fill="#0" id="circle147"/>
	<circle cx="711.522" cy="589.256" r="4" fill="#0" id="circle148"/>
	<circle cx="713.297" cy="568.096" r="4" fill="#0" id="circle149"/>
	<circle cx="697.433" cy="568.096" r="4" fill="#0" id="circle150"/>
	<circle cx="678.02" cy="564.573" r="4" fill="#0" id="circle151"/>
	<circle cx="663.932" cy="557.502" r="4" fill="#0" id="circle152"/>
	<circle cx="642.771" cy="557.502" r="4" fill="#0" id="circle153"/>
	<circle cx="630.43" cy="564.573" r="4" fill="#0" id="circle154"/>
	<circle cx="612.819" cy="564.573" r="4" fill="#0" id="circle155"/>
	<circle cx="596.956" cy="571.618" r="4" fill="#0" id="circle156"/>
	<circle cx="649.816" cy="578.662" r="4" fill="#0" id="circle157"/>
	<circle cx="572.273" cy="539.891" r="4" fill="#0" id="circle158"/>
	<circle cx="596.956" cy="536.369" r="4" fill="#0" id="circle159"/>
	<circle cx="625.16" cy="534.594" r="4" fill="#0" id="circle160"/>
	<circle cx="667.454" cy="531.072" r="4" fill="#0" id="circle161"/>
	<circle cx="690.362" cy="531.072" r="4" fill="#0" id="circle162"/>
	<circle cx="720.341" cy="531.072" r="4" fill="#0" id="circle163"/>
	<circle cx="741.502" cy="529.297" r="4" fill="#0" id="circle164"/>
	</g>
</svg>