<?xml version="1.0" encoding="UTF-8" standalone="no"?>
<!-- Created with CurveBenchmark -->
<svg
	xmlns:dc="http://purl.org/dc/elements/1.1/"
	xmlns:cc="http://creativecommons.org/ns#"
	xmlns:rdf="http://www.w3.org/1999/02/22-rdf-syntax-ns#"
	xmlns:svg="http://www.w3.org/2000/svg"
	xmlns="http://www.w3.org/2000/svg"
	xmlns:sodipodi="http://sodipodi.sourceforge.net/DTD/sodipodi-0.dtd"
	xmlns:inkscape="http://www.inkscape.org/namespaces/inkscape"
	width="1000"
	height="1000"
	id="svg2"
	version="1.1"
	sodipodi:docname="mc48">
<defs
	id="defs4" />
<metadata
	id="metadata7">
	<rdf:RDF>
		<cc:Work
			rdf:about="">
			<dc:format>image/svg+xml</dc:format>
			<dc:type
				rdf:resource="http://purl.org/dc/dcmitype/StillImage" />
			<dc:title></dc:title>
		</cc:Work>
	</rdf:RDF>
</metadata>
<g
	inkscape:label="Layer 1"
	inkscape:groupmode="layer"
	id="layer1">
	<path style="fill:none;stroke:#000000;stroke-width:1px;stroke-linecap:butt;stroke-linejoin:miter;stroke-opacity:1" d="M 6.88946,64.0404 4,121.976 z" id="boundary" inkscape:connector-curvature="0" />
	<path style="fill:none;stroke:#000000;stroke-width:1px;stroke-linecap:butt;stroke-linejoin:miter;stroke-opacity:1" d="M 4,121.976 23.2688,136.743 z" id="boundary" inkscape:connector-curvature="0" />
	<path style="fill:none;stroke:#000000;stroke-width:1px;stroke-linecap:butt;stroke-linejoin:miter;stroke-opacity:1" d="M 20.3794,31.6267 51.8788,14.4193 z" id="boundary" inkscape:connector-curvature="0" />
	<path style="fill:none;stroke:#000000;stroke-width:1px;stroke-linecap:butt;stroke-linejoin:miter;stroke-opacity:1" d="M 20.3794,31.6267 6.88946,64.0404 z" id="boundary" inkscape:connector-curvature="0" />
	<path style="fill:none;stroke:#000000;stroke-width:1px;stroke-linecap:butt;stroke-linejoin:miter;stroke-opacity:1" d="M 21.1384,521.74 5.38004,558.527 z" id="boundary" inkscape:connector-curvature="0" />
	<path style="fill:none;stroke:#000000;stroke-width:1px;stroke-linecap:butt;stroke-linejoin:miter;stroke-opacity:1" d="M 5.38004,558.527 13.0393,609.709 z" id="boundary" inkscape:connector-curvature="0" />
	<path style="fill:none;stroke:#000000;stroke-width:1px;stroke-linecap:butt;stroke-linejoin:miter;stroke-opacity:1" d="M 23.2688,136.743 40.5194,155.296 z" id="boundary" inkscape:connector-curvature="0" />
	<path style="fill:none;stroke:#000000;stroke-width:1px;stroke-linecap:butt;stroke-linejoin:miter;stroke-opacity:1" d="M 34.4299,499.694 69.9574,472.567 z" id="boundary" inkscape:connector-curvature="0" />
	<path style="fill:none;stroke:#000000;stroke-width:1px;stroke-linecap:butt;stroke-linejoin:miter;stroke-opacity:1" d="M 34.4299,499.694 21.1384,521.74 z" id="boundary" inkscape:connector-curvature="0" />
	<path style="fill:none;stroke:#000000;stroke-width:1px;stroke-linecap:butt;stroke-linejoin:miter;stroke-opacity:1" d="M 133.094,43.7797 110.237,22.0182 z" id="boundary" inkscape:connector-curvature="0" />
	<path style="fill:none;stroke:#000000;stroke-width:1px;stroke-linecap:butt;stroke-linejoin:miter;stroke-opacity:1" d="M 175.272,824.168 181.853,858.893 z" id="boundary" inkscape:connector-curvature="0" />
	<path style="fill:none;stroke:#000000;stroke-width:1px;stroke-linecap:butt;stroke-linejoin:miter;stroke-opacity:1" d="M 181.853,858.893 182.69,902.183 z" id="boundary" inkscape:connector-curvature="0" />
	<path style="fill:none;stroke:#000000;stroke-width:1px;stroke-linecap:butt;stroke-linejoin:miter;stroke-opacity:1" d="M 110.237,22.0182 88.7518,8.43338 z" id="boundary" inkscape:connector-curvature="0" />
	<path style="fill:none;stroke:#000000;stroke-width:1px;stroke-linecap:butt;stroke-linejoin:miter;stroke-opacity:1" d="M 88.7518,8.43338 51.8788,14.4193 z" id="boundary" inkscape:connector-curvature="0" />
	<path style="fill:none;stroke:#000000;stroke-width:1px;stroke-linecap:butt;stroke-linejoin:miter;stroke-opacity:1" d="M 66.0674,654.776 42.046,644.762 z" id="boundary" inkscape:connector-curvature="0" />
	<path style="fill:none;stroke:#000000;stroke-width:1px;stroke-linecap:butt;stroke-linejoin:miter;stroke-opacity:1" d="M 42.046,644.762 13.0393,609.709 z" id="boundary" inkscape:connector-curvature="0" />
	<path style="fill:none;stroke:#000000;stroke-width:1px;stroke-linecap:butt;stroke-linejoin:miter;stroke-opacity:1" d="M 86.1125,671.958 66.0674,654.776 z" id="boundary" inkscape:connector-curvature="0" />
	<path style="fill:none;stroke:#000000;stroke-width:1px;stroke-linecap:butt;stroke-linejoin:miter;stroke-opacity:1" d="M 74.6754,172.279 88.8726,191.211 z" id="boundary" inkscape:connector-curvature="0" />
	<path style="fill:none;stroke:#000000;stroke-width:1px;stroke-linecap:butt;stroke-linejoin:miter;stroke-opacity:1" d="M 74.6754,172.279 40.5194,155.296 z" id="boundary" inkscape:connector-curvature="0" />
	<path style="fill:none;stroke:#000000;stroke-width:1px;stroke-linecap:butt;stroke-linejoin:miter;stroke-opacity:1" d="M 96.0057,454.247 69.9574,472.567 z" id="boundary" inkscape:connector-curvature="0" />
	<path style="fill:none;stroke:#000000;stroke-width:1px;stroke-linecap:butt;stroke-linejoin:miter;stroke-opacity:1" d="M 109.97,301.434 130.886,342.507 z" id="boundary" inkscape:connector-curvature="0" />
	<path style="fill:none;stroke:#000000;stroke-width:1px;stroke-linecap:butt;stroke-linejoin:miter;stroke-opacity:1" d="M 187.709,123.563 167.086,83.9389 z" id="boundary" inkscape:connector-curvature="0" />
	<path style="fill:none;stroke:#000000;stroke-width:1px;stroke-linecap:butt;stroke-linejoin:miter;stroke-opacity:1" d="M 131.645,266.596 109.97,301.434 z" id="boundary" inkscape:connector-curvature="0" />
	<path style="fill:none;stroke:#000000;stroke-width:1px;stroke-linecap:butt;stroke-linejoin:miter;stroke-opacity:1" d="M 109.599,684.188 86.1125,671.958 z" id="boundary" inkscape:connector-curvature="0" />
	<path style="fill:none;stroke:#000000;stroke-width:1px;stroke-linecap:butt;stroke-linejoin:miter;stroke-opacity:1" d="M 116.534,207.082 133.155,241.022 z" id="boundary" inkscape:connector-curvature="0" />
	<path style="fill:none;stroke:#000000;stroke-width:1px;stroke-linecap:butt;stroke-linejoin:miter;stroke-opacity:1" d="M 116.534,207.082 88.8726,191.211 z" id="boundary" inkscape:connector-curvature="0" />
	<path style="fill:none;stroke:#000000;stroke-width:1px;stroke-linecap:butt;stroke-linejoin:miter;stroke-opacity:1" d="M 133.094,43.7797 154.381,61.4787 z" id="boundary" inkscape:connector-curvature="0" />
	<path style="fill:none;stroke:#000000;stroke-width:1px;stroke-linecap:butt;stroke-linejoin:miter;stroke-opacity:1" d="M 126.806,425.232 96.0057,454.247 z" id="boundary" inkscape:connector-curvature="0" />
	<path style="fill:none;stroke:#000000;stroke-width:1px;stroke-linecap:butt;stroke-linejoin:miter;stroke-opacity:1" d="M 167.086,83.9389 154.381,61.4787 z" id="boundary" inkscape:connector-curvature="0" />
	<path style="fill:none;stroke:#000000;stroke-width:1px;stroke-linecap:butt;stroke-linejoin:miter;stroke-opacity:1" d="M 138.813,396.708 126.806,425.232 z" id="boundary" inkscape:connector-curvature="0" />
	<path style="fill:none;stroke:#000000;stroke-width:1px;stroke-linecap:butt;stroke-linejoin:miter;stroke-opacity:1" d="M 133.155,241.022 131.645,266.596 z" id="boundary" inkscape:connector-curvature="0" />
	<path style="fill:none;stroke:#000000;stroke-width:1px;stroke-linecap:butt;stroke-linejoin:miter;stroke-opacity:1" d="M 150.095,359.447 138.813,396.708 z" id="boundary" inkscape:connector-curvature="0" />
	<path style="fill:none;stroke:#000000;stroke-width:1px;stroke-linecap:butt;stroke-linejoin:miter;stroke-opacity:1" d="M 150.095,359.447 130.886,342.507 z" id="boundary" inkscape:connector-curvature="0" />
	<path style="fill:none;stroke:#000000;stroke-width:1px;stroke-linecap:butt;stroke-linejoin:miter;stroke-opacity:1" d="M 216.457,148.361 187.709,123.563 z" id="boundary" inkscape:connector-curvature="0" />
	<path style="fill:none;stroke:#000000;stroke-width:1px;stroke-linecap:butt;stroke-linejoin:miter;stroke-opacity:1" d="M 154.381,697.161 109.599,684.188 z" id="boundary" inkscape:connector-curvature="0" />
	<path style="fill:none;stroke:#000000;stroke-width:1px;stroke-linecap:butt;stroke-linejoin:miter;stroke-opacity:1" d="M 175.03,801.966 175.272,824.168 z" id="boundary" inkscape:connector-curvature="0" />
	<path style="fill:none;stroke:#000000;stroke-width:1px;stroke-linecap:butt;stroke-linejoin:miter;stroke-opacity:1" d="M 179.136,714.42 154.381,697.161 z" id="boundary" inkscape:connector-curvature="0" />
	<path style="fill:none;stroke:#000000;stroke-width:1px;stroke-linecap:butt;stroke-linejoin:miter;stroke-opacity:1" d="M 179.17,772.83 175.03,801.966 z" id="boundary" inkscape:connector-curvature="0" />
	<path style="fill:none;stroke:#000000;stroke-width:1px;stroke-linecap:butt;stroke-linejoin:miter;stroke-opacity:1" d="M 179.136,714.42 192.609,733.447 z" id="boundary" inkscape:connector-curvature="0" />
	<path style="fill:none;stroke:#000000;stroke-width:1px;stroke-linecap:butt;stroke-linejoin:miter;stroke-opacity:1" d="M 182.69,902.183 185.277,933.613 z" id="boundary" inkscape:connector-curvature="0" />
	<path style="fill:none;stroke:#000000;stroke-width:1px;stroke-linecap:butt;stroke-linejoin:miter;stroke-opacity:1" d="M 179.17,772.83 192.609,733.447 z" id="boundary" inkscape:connector-curvature="0" />
	<path style="fill:none;stroke:#000000;stroke-width:1px;stroke-linecap:butt;stroke-linejoin:miter;stroke-opacity:1" d="M 212.904,321.332 210.135,296.163 z" id="boundary" inkscape:connector-curvature="0" />
	<path style="fill:none;stroke:#000000;stroke-width:1px;stroke-linecap:butt;stroke-linejoin:miter;stroke-opacity:1" d="M 209.635,580.996 207.099,610.365 z" id="boundary" inkscape:connector-curvature="0" />
	<path style="fill:none;stroke:#000000;stroke-width:1px;stroke-linecap:butt;stroke-linejoin:miter;stroke-opacity:1" d="M 194.334,685.827 199.673,661.624 z" id="boundary" inkscape:connector-curvature="0" />
	<path style="fill:none;stroke:#000000;stroke-width:1px;stroke-linecap:butt;stroke-linejoin:miter;stroke-opacity:1" d="M 199.673,661.624 199.759,635.102 z" id="boundary" inkscape:connector-curvature="0" />
	<path style="fill:none;stroke:#000000;stroke-width:1px;stroke-linecap:butt;stroke-linejoin:miter;stroke-opacity:1" d="M 437.902,557.129 445.475,600.402 z" id="boundary" inkscape:connector-curvature="0" />
	<path style="fill:none;stroke:#000000;stroke-width:1px;stroke-linecap:butt;stroke-linejoin:miter;stroke-opacity:1" d="M 207.099,610.365 199.759,635.102 z" id="boundary" inkscape:connector-curvature="0" />
	<path style="fill:none;stroke:#000000;stroke-width:1px;stroke-linecap:butt;stroke-linejoin:miter;stroke-opacity:1" d="M 204.434,963.543 185.277,933.613 z" id="boundary" inkscape:connector-curvature="0" />
	<path style="fill:none;stroke:#000000;stroke-width:1px;stroke-linecap:butt;stroke-linejoin:miter;stroke-opacity:1" d="M 216.457,549.876 209.635,580.996 z" id="boundary" inkscape:connector-curvature="0" />
	<path style="fill:none;stroke:#000000;stroke-width:1px;stroke-linecap:butt;stroke-linejoin:miter;stroke-opacity:1" d="M 234.674,502.394 223.806,523.06 z" id="boundary" inkscape:connector-curvature="0" />
	<path style="fill:none;stroke:#000000;stroke-width:1px;stroke-linecap:butt;stroke-linejoin:miter;stroke-opacity:1" d="M 217.009,353.901 212.904,321.332 z" id="boundary" inkscape:connector-curvature="0" />
	<path style="fill:none;stroke:#000000;stroke-width:1px;stroke-linecap:butt;stroke-linejoin:miter;stroke-opacity:1" d="M 210.135,296.163 224.384,258.264 z" id="boundary" inkscape:connector-curvature="0" />
	<path style="fill:none;stroke:#000000;stroke-width:1px;stroke-linecap:butt;stroke-linejoin:miter;stroke-opacity:1" d="M 263.974,278.671 248.975,253.52 z" id="boundary" inkscape:connector-curvature="0" />
	<path style="fill:none;stroke:#000000;stroke-width:1px;stroke-linecap:butt;stroke-linejoin:miter;stroke-opacity:1" d="M 248.975,253.52 224.384,258.264 z" id="boundary" inkscape:connector-curvature="0" />
	<path style="fill:none;stroke:#000000;stroke-width:1px;stroke-linecap:butt;stroke-linejoin:miter;stroke-opacity:1" d="M 430.502,503.618 428.993,463.183 z" id="boundary" inkscape:connector-curvature="0" />
	<path style="fill:none;stroke:#000000;stroke-width:1px;stroke-linecap:butt;stroke-linejoin:miter;stroke-opacity:1" d="M 223.806,523.06 216.457,549.876 z" id="boundary" inkscape:connector-curvature="0" />
	<path style="fill:none;stroke:#000000;stroke-width:1px;stroke-linecap:butt;stroke-linejoin:miter;stroke-opacity:1" d="M 232.112,473.283 234.674,502.394 z" id="boundary" inkscape:connector-curvature="0" />
	<path style="fill:none;stroke:#000000;stroke-width:1px;stroke-linecap:butt;stroke-linejoin:miter;stroke-opacity:1" d="M 236.977,162.127 216.457,148.361 z" id="boundary" inkscape:connector-curvature="0" />
	<path style="fill:none;stroke:#000000;stroke-width:1px;stroke-linecap:butt;stroke-linejoin:miter;stroke-opacity:1" d="M 238.538,448.235 232.112,473.283 z" id="boundary" inkscape:connector-curvature="0" />
	<path style="fill:none;stroke:#000000;stroke-width:1px;stroke-linecap:butt;stroke-linejoin:miter;stroke-opacity:1" d="M 238.538,448.235 233.958,428.518 z" id="boundary" inkscape:connector-curvature="0" />
	<path style="fill:none;stroke:#000000;stroke-width:1px;stroke-linecap:butt;stroke-linejoin:miter;stroke-opacity:1" d="M 217.009,353.901 254.124,361.232 z" id="boundary" inkscape:connector-curvature="0" />
	<path style="fill:none;stroke:#000000;stroke-width:1px;stroke-linecap:butt;stroke-linejoin:miter;stroke-opacity:1" d="M 405.471,301.986 409.103,339.781 z" id="boundary" inkscape:connector-curvature="0" />
	<path style="fill:none;stroke:#000000;stroke-width:1px;stroke-linecap:butt;stroke-linejoin:miter;stroke-opacity:1" d="M 265.716,174.099 308.618,187.925 z" id="boundary" inkscape:connector-curvature="0" />
	<path style="fill:none;stroke:#000000;stroke-width:1px;stroke-linecap:butt;stroke-linejoin:miter;stroke-opacity:1" d="M 277.619,300.606 270.374,335.012 z" id="boundary" inkscape:connector-curvature="0" />
	<path style="fill:none;stroke:#000000;stroke-width:1px;stroke-linecap:butt;stroke-linejoin:miter;stroke-opacity:1" d="M 263.974,278.671 277.619,300.606 z" id="boundary" inkscape:connector-curvature="0" />
	<path style="fill:none;stroke:#000000;stroke-width:1px;stroke-linecap:butt;stroke-linejoin:miter;stroke-opacity:1" d="M 254.124,361.232 270.374,335.012 z" id="boundary" inkscape:connector-curvature="0" />
	<path style="fill:none;stroke:#000000;stroke-width:1px;stroke-linecap:butt;stroke-linejoin:miter;stroke-opacity:1" d="M 236.977,162.127 265.716,174.099 z" id="boundary" inkscape:connector-curvature="0" />
	<path style="fill:none;stroke:#000000;stroke-width:1px;stroke-linecap:butt;stroke-linejoin:miter;stroke-opacity:1" d="M 233.742,986.831 204.434,963.543 z" id="boundary" inkscape:connector-curvature="0" />
	<path style="fill:none;stroke:#000000;stroke-width:1px;stroke-linecap:butt;stroke-linejoin:miter;stroke-opacity:1" d="M 308.618,187.925 347.975,187.373 z" id="boundary" inkscape:connector-curvature="0" />
	<path style="fill:none;stroke:#000000;stroke-width:1px;stroke-linecap:butt;stroke-linejoin:miter;stroke-opacity:1" d="M 302.149,972.289 275.842,992.214 z" id="boundary" inkscape:connector-curvature="0" />
	<path style="fill:none;stroke:#000000;stroke-width:1px;stroke-linecap:butt;stroke-linejoin:miter;stroke-opacity:1" d="M 275.842,992.214 233.742,986.831 z" id="boundary" inkscape:connector-curvature="0" />
	<path style="fill:none;stroke:#000000;stroke-width:1px;stroke-linecap:butt;stroke-linejoin:miter;stroke-opacity:1" d="M 378.742,176.065 347.975,187.373 z" id="boundary" inkscape:connector-curvature="0" />
	<path style="fill:none;stroke:#000000;stroke-width:1px;stroke-linecap:butt;stroke-linejoin:miter;stroke-opacity:1" d="M 334.494,960.093 355.091,989.419 z" id="boundary" inkscape:connector-curvature="0" />
	<path style="fill:none;stroke:#000000;stroke-width:1px;stroke-linecap:butt;stroke-linejoin:miter;stroke-opacity:1" d="M 334.494,960.093 302.149,972.289 z" id="boundary" inkscape:connector-curvature="0" />
	<path style="fill:none;stroke:#000000;stroke-width:1px;stroke-linecap:butt;stroke-linejoin:miter;stroke-opacity:1" d="M 405.471,301.986 402.634,277.697 z" id="boundary" inkscape:connector-curvature="0" />
	<path style="fill:none;stroke:#000000;stroke-width:1px;stroke-linecap:butt;stroke-linejoin:miter;stroke-opacity:1" d="M 457.085,637.017 445.475,600.402 z" id="boundary" inkscape:connector-curvature="0" />
	<path style="fill:none;stroke:#000000;stroke-width:1px;stroke-linecap:butt;stroke-linejoin:miter;stroke-opacity:1" d="M 388.402,996 355.091,989.419 z" id="boundary" inkscape:connector-curvature="0" />
	<path style="fill:none;stroke:#000000;stroke-width:1px;stroke-linecap:butt;stroke-linejoin:miter;stroke-opacity:1" d="M 378.742,176.065 421.834,171.209 z" id="boundary" inkscape:connector-curvature="0" />
	<path style="fill:none;stroke:#000000;stroke-width:1px;stroke-linecap:butt;stroke-linejoin:miter;stroke-opacity:1" d="M 402.634,277.697 433.745,246.051 z" id="boundary" inkscape:connector-curvature="0" />
	<path style="fill:none;stroke:#000000;stroke-width:1px;stroke-linecap:butt;stroke-linejoin:miter;stroke-opacity:1" d="M 411.69,982.389 388.402,996 z" id="boundary" inkscape:connector-curvature="0" />
	<path style="fill:none;stroke:#000000;stroke-width:1px;stroke-linecap:butt;stroke-linejoin:miter;stroke-opacity:1" d="M 435.358,969.193 411.69,982.389 z" id="boundary" inkscape:connector-curvature="0" />
	<path style="fill:none;stroke:#000000;stroke-width:1px;stroke-linecap:butt;stroke-linejoin:miter;stroke-opacity:1" d="M 462.045,261.231 433.745,246.051 z" id="boundary" inkscape:connector-curvature="0" />
	<path style="fill:none;stroke:#000000;stroke-width:1px;stroke-linecap:butt;stroke-linejoin:miter;stroke-opacity:1" d="M 429.346,439.627 428.993,463.183 z" id="boundary" inkscape:connector-curvature="0" />
	<path style="fill:none;stroke:#000000;stroke-width:1px;stroke-linecap:butt;stroke-linejoin:miter;stroke-opacity:1" d="M 457.085,637.017 461.665,659.218 z" id="boundary" inkscape:connector-curvature="0" />
	<path style="fill:none;stroke:#000000;stroke-width:1px;stroke-linecap:butt;stroke-linejoin:miter;stroke-opacity:1" d="M 409.103,339.781 434.418,355.799 z" id="boundary" inkscape:connector-curvature="0" />
	<path style="fill:none;stroke:#000000;stroke-width:1px;stroke-linecap:butt;stroke-linejoin:miter;stroke-opacity:1" d="M 434.418,355.799 464.736,338.824 z" id="boundary" inkscape:connector-curvature="0" />
	<path style="fill:none;stroke:#000000;stroke-width:1px;stroke-linecap:butt;stroke-linejoin:miter;stroke-opacity:1" d="M 439.593,530.909 437.902,557.129 z" id="boundary" inkscape:connector-curvature="0" />
	<path style="fill:none;stroke:#000000;stroke-width:1px;stroke-linecap:butt;stroke-linejoin:miter;stroke-opacity:1" d="M 439.593,530.909 430.502,503.618 z" id="boundary" inkscape:connector-curvature="0" />
	<path style="fill:none;stroke:#000000;stroke-width:1px;stroke-linecap:butt;stroke-linejoin:miter;stroke-opacity:1" d="M 461.665,659.218 464.891,689.079 z" id="boundary" inkscape:connector-curvature="0" />
	<path style="fill:none;stroke:#000000;stroke-width:1px;stroke-linecap:butt;stroke-linejoin:miter;stroke-opacity:1" d="M 457.982,139.063 443.397,157.659 z" id="boundary" inkscape:connector-curvature="0" />
	<path style="fill:none;stroke:#000000;stroke-width:1px;stroke-linecap:butt;stroke-linejoin:miter;stroke-opacity:1" d="M 421.834,171.209 443.397,157.659 z" id="boundary" inkscape:connector-curvature="0" />
	<path style="fill:none;stroke:#000000;stroke-width:1px;stroke-linecap:butt;stroke-linejoin:miter;stroke-opacity:1" d="M 526.182,425.473 556.25,452.893 z" id="boundary" inkscape:connector-curvature="0" />
	<path style="fill:none;stroke:#000000;stroke-width:1px;stroke-linecap:butt;stroke-linejoin:miter;stroke-opacity:1" d="M 450.961,940.41 435.358,969.193 z" id="boundary" inkscape:connector-curvature="0" />
	<path style="fill:none;stroke:#000000;stroke-width:1px;stroke-linecap:butt;stroke-linejoin:miter;stroke-opacity:1" d="M 464.132,923.272 450.961,940.41 z" id="boundary" inkscape:connector-curvature="0" />
	<path style="fill:none;stroke:#000000;stroke-width:1px;stroke-linecap:butt;stroke-linejoin:miter;stroke-opacity:1" d="M 472.127,296.155 462.045,261.231 z" id="boundary" inkscape:connector-curvature="0" />
	<path style="fill:none;stroke:#000000;stroke-width:1px;stroke-linecap:butt;stroke-linejoin:miter;stroke-opacity:1" d="M 515.03,387.281 526.182,425.473 z" id="boundary" inkscape:connector-curvature="0" />
	<path style="fill:none;stroke:#000000;stroke-width:1px;stroke-linecap:butt;stroke-linejoin:miter;stroke-opacity:1" d="M 457.982,139.063 476.621,110.47 z" id="boundary" inkscape:connector-curvature="0" />
	<path style="fill:none;stroke:#000000;stroke-width:1px;stroke-linecap:butt;stroke-linejoin:miter;stroke-opacity:1" d="M 556.25,452.893 584.575,479.261 z" id="boundary" inkscape:connector-curvature="0" />
	<path style="fill:none;stroke:#000000;stroke-width:1px;stroke-linecap:butt;stroke-linejoin:miter;stroke-opacity:1" d="M 464.132,923.272 463.58,897.56 z" id="boundary" inkscape:connector-curvature="0" />
	<path style="fill:none;stroke:#000000;stroke-width:1px;stroke-linecap:butt;stroke-linejoin:miter;stroke-opacity:1" d="M 464.736,338.824 472.127,296.155 z" id="boundary" inkscape:connector-curvature="0" />
	<path style="fill:none;stroke:#000000;stroke-width:1px;stroke-linecap:butt;stroke-linejoin:miter;stroke-opacity:1" d="M 463.58,897.56 467.323,861.938 z" id="boundary" inkscape:connector-curvature="0" />
	<path style="fill:none;stroke:#000000;stroke-width:1px;stroke-linecap:butt;stroke-linejoin:miter;stroke-opacity:1" d="M 467.323,861.938 476.492,830.11 z" id="boundary" inkscape:connector-curvature="0" />
	<path style="fill:none;stroke:#000000;stroke-width:1px;stroke-linecap:butt;stroke-linejoin:miter;stroke-opacity:1" d="M 472.127,723.692 473.508,753.423 z" id="boundary" inkscape:connector-curvature="0" />
	<path style="fill:none;stroke:#000000;stroke-width:1px;stroke-linecap:butt;stroke-linejoin:miter;stroke-opacity:1" d="M 490.008,88.5448 509.811,43.2363 z" id="boundary" inkscape:connector-curvature="0" />
	<path style="fill:none;stroke:#000000;stroke-width:1px;stroke-linecap:butt;stroke-linejoin:miter;stroke-opacity:1" d="M 473.508,753.423 473.896,781.533 z" id="boundary" inkscape:connector-curvature="0" />
	<path style="fill:none;stroke:#000000;stroke-width:1px;stroke-linecap:butt;stroke-linejoin:miter;stroke-opacity:1" d="M 472.127,723.692 489.456,705.872 z" id="boundary" inkscape:connector-curvature="0" />
	<path style="fill:none;stroke:#000000;stroke-width:1px;stroke-linecap:butt;stroke-linejoin:miter;stroke-opacity:1" d="M 473.896,781.533 476.492,830.11 z" id="boundary" inkscape:connector-curvature="0" />
	<path style="fill:none;stroke:#000000;stroke-width:1px;stroke-linecap:butt;stroke-linejoin:miter;stroke-opacity:1" d="M 476.621,110.47 490.008,88.5448 z" id="boundary" inkscape:connector-curvature="0" />
	<path style="fill:none;stroke:#000000;stroke-width:1px;stroke-linecap:butt;stroke-linejoin:miter;stroke-opacity:1" d="M 489.456,705.872 514.581,700.205 z" id="boundary" inkscape:connector-curvature="0" />
	<path style="fill:none;stroke:#000000;stroke-width:1px;stroke-linecap:butt;stroke-linejoin:miter;stroke-opacity:1" d="M 514.581,700.205 539.525,689.441 z" id="boundary" inkscape:connector-curvature="0" />
	<path style="fill:none;stroke:#000000;stroke-width:1px;stroke-linecap:butt;stroke-linejoin:miter;stroke-opacity:1" d="M 523.068,19.698 545.632,9.0544 z" id="boundary" inkscape:connector-curvature="0" />
	<path style="fill:none;stroke:#000000;stroke-width:1px;stroke-linecap:butt;stroke-linejoin:miter;stroke-opacity:1" d="M 523.068,19.698 509.811,43.2363 z" id="boundary" inkscape:connector-curvature="0" />
	<path style="fill:none;stroke:#000000;stroke-width:1px;stroke-linecap:butt;stroke-linejoin:miter;stroke-opacity:1" d="M 521.516,362.337 515.03,387.281 z" id="boundary" inkscape:connector-curvature="0" />
	<path style="fill:none;stroke:#000000;stroke-width:1px;stroke-linecap:butt;stroke-linejoin:miter;stroke-opacity:1" d="M 539.525,689.441 590.345,671.725 z" id="boundary" inkscape:connector-curvature="0" />
	<path style="fill:none;stroke:#000000;stroke-width:1px;stroke-linecap:butt;stroke-linejoin:miter;stroke-opacity:1" d="M 604.465,503.429 584.575,479.261 z" id="boundary" inkscape:connector-curvature="0" />
	<path style="fill:none;stroke:#000000;stroke-width:1px;stroke-linecap:butt;stroke-linejoin:miter;stroke-opacity:1" d="M 521.516,362.337 538.154,334.9 z" id="boundary" inkscape:connector-curvature="0" />
	<path style="fill:none;stroke:#000000;stroke-width:1px;stroke-linecap:butt;stroke-linejoin:miter;stroke-opacity:1" d="M 526.993,248.086 541.768,271.737 z" id="boundary" inkscape:connector-curvature="0" />
	<path style="fill:none;stroke:#000000;stroke-width:1px;stroke-linecap:butt;stroke-linejoin:miter;stroke-opacity:1" d="M 538.154,334.9 549.479,314.673 z" id="boundary" inkscape:connector-curvature="0" />
	<path style="fill:none;stroke:#000000;stroke-width:1px;stroke-linecap:butt;stroke-linejoin:miter;stroke-opacity:1" d="M 541.613,208.039 526.993,248.086 z" id="boundary" inkscape:connector-curvature="0" />
	<path style="fill:none;stroke:#000000;stroke-width:1px;stroke-linecap:butt;stroke-linejoin:miter;stroke-opacity:1" d="M 545.632,9.0544 574.276,4 z" id="boundary" inkscape:connector-curvature="0" />
	<path style="fill:none;stroke:#000000;stroke-width:1px;stroke-linecap:butt;stroke-linejoin:miter;stroke-opacity:1" d="M 541.768,271.737 549.479,314.673 z" id="boundary" inkscape:connector-curvature="0" />
	<path style="fill:none;stroke:#000000;stroke-width:1px;stroke-linecap:butt;stroke-linejoin:miter;stroke-opacity:1" d="M 590.345,671.725 621.146,657.312 z" id="boundary" inkscape:connector-curvature="0" />
	<path style="fill:none;stroke:#000000;stroke-width:1px;stroke-linecap:butt;stroke-linejoin:miter;stroke-opacity:1" d="M 541.613,208.039 572.758,184.052 z" id="boundary" inkscape:connector-curvature="0" />
	<path style="fill:none;stroke:#000000;stroke-width:1px;stroke-linecap:butt;stroke-linejoin:miter;stroke-opacity:1" d="M 572.758,184.052 596.064,160.083 z" id="boundary" inkscape:connector-curvature="0" />
	<path style="fill:none;stroke:#000000;stroke-width:1px;stroke-linecap:butt;stroke-linejoin:miter;stroke-opacity:1" d="M 596.064,160.083 626.028,146.808 z" id="boundary" inkscape:connector-curvature="0" />
	<path style="fill:none;stroke:#000000;stroke-width:1px;stroke-linecap:butt;stroke-linejoin:miter;stroke-opacity:1" d="M 608.027,5.17304 640.527,32.7997 z" id="boundary" inkscape:connector-curvature="0" />
	<path style="fill:none;stroke:#000000;stroke-width:1px;stroke-linecap:butt;stroke-linejoin:miter;stroke-opacity:1" d="M 608.027,5.17304 574.276,4 z" id="boundary" inkscape:connector-curvature="0" />
	<path style="fill:none;stroke:#000000;stroke-width:1px;stroke-linecap:butt;stroke-linejoin:miter;stroke-opacity:1" d="M 631.203,527.364 604.465,503.429 z" id="boundary" inkscape:connector-curvature="0" />
	<path style="fill:none;stroke:#000000;stroke-width:1px;stroke-linecap:butt;stroke-linejoin:miter;stroke-opacity:1" d="M 655.785,627.408 621.146,657.312 z" id="boundary" inkscape:connector-curvature="0" />
	<path style="fill:none;stroke:#000000;stroke-width:1px;stroke-linecap:butt;stroke-linejoin:miter;stroke-opacity:1" d="M 648.229,125.858 626.028,146.808 z" id="boundary" inkscape:connector-curvature="0" />
	<path style="fill:none;stroke:#000000;stroke-width:1px;stroke-linecap:butt;stroke-linejoin:miter;stroke-opacity:1" d="M 653.819,544.261 631.203,527.364 z" id="boundary" inkscape:connector-curvature="0" />
	<path style="fill:none;stroke:#000000;stroke-width:1px;stroke-linecap:butt;stroke-linejoin:miter;stroke-opacity:1" d="M 666.446,93.2025 648.229,125.858 z" id="boundary" inkscape:connector-curvature="0" />
	<path style="fill:none;stroke:#000000;stroke-width:1px;stroke-linecap:butt;stroke-linejoin:miter;stroke-opacity:1" d="M 653.819,544.261 668.033,571.749 z" id="boundary" inkscape:connector-curvature="0" />
	<path style="fill:none;stroke:#000000;stroke-width:1px;stroke-linecap:butt;stroke-linejoin:miter;stroke-opacity:1" d="M 667.809,597.315 655.785,627.408 z" id="boundary" inkscape:connector-curvature="0" />
	<path style="fill:none;stroke:#000000;stroke-width:1px;stroke-linecap:butt;stroke-linejoin:miter;stroke-opacity:1" d="M 668.033,571.749 667.809,597.315 z" id="boundary" inkscape:connector-curvature="0" />
	<path style="fill:none;stroke:#000000;stroke-width:1px;stroke-linecap:butt;stroke-linejoin:miter;stroke-opacity:1" d="M 669.637,62.4793 666.446,93.2025 z" id="boundary" inkscape:connector-curvature="0" />
	<path style="fill:none;stroke:#000000;stroke-width:1px;stroke-linecap:butt;stroke-linejoin:miter;stroke-opacity:1" d="M 640.527,32.7997 669.637,62.4793 z" id="boundary" inkscape:connector-curvature="0" />
	<circle cx="4" cy="121.976" r="4" fill="#0" id="circle0"/>
	<circle cx="5.38004" cy="558.527" r="4" fill="#0" id="circle1"/>
	<circle cx="6.88946" cy="64.0404" r="4" fill="#0" id="circle2"/>
	<circle cx="13.0393" cy="609.709" r="4" fill="#0" id="circle3"/>
	<circle cx="20.3794" cy="31.6267" r="4" fill="#0" id="circle4"/>
	<circle cx="21.1384" cy="521.74" r="4" fill="#0" id="circle5"/>
	<circle cx="23.2688" cy="136.743" r="4" fill="#0" id="circle6"/>
	<circle cx="34.4299" cy="499.694" r="4" fill="#0" id="circle7"/>
	<circle cx="40.5194" cy="155.296" r="4" fill="#0" id="circle8"/>
	<circle cx="42.046" cy="644.762" r="4" fill="#0" id="circle9"/>
	<circle cx="51.8788" cy="14.4193" r="4" fill="#0" id="circle10"/>
	<circle cx="66.0674" cy="654.776" r="4" fill="#0" id="circle11"/>
	<circle cx="69.9574" cy="472.567" r="4" fill="#0" id="circle12"/>
	<circle cx="74.6754" cy="172.279" r="4" fill="#0" id="circle13"/>
	<circle cx="86.1125" cy="671.958" r="4" fill="#0" id="circle14"/>
	<circle cx="88.8726" cy="191.211" r="4" fill="#0" id="circle15"/>
	<circle cx="88.7518" cy="8.43338" r="4" fill="#0" id="circle16"/>
	<circle cx="96.0057" cy="454.247" r="4" fill="#0" id="circle17"/>
	<circle cx="109.97" cy="301.434" r="4" fill="#0" id="circle18"/>
	<circle cx="109.599" cy="684.188" r="4" fill="#0" id="circle19"/>
	<circle cx="110.237" cy="22.0182" r="4" fill="#0" id="circle20"/>
	<circle cx="116.534" cy="207.082" r="4" fill="#0" id="circle21"/>
	<circle cx="126.806" cy="425.232" r="4" fill="#0" id="circle22"/>
	<circle cx="131.645" cy="266.596" r="4" fill="#0" id="circle23"/>
	<circle cx="130.886" cy="342.507" r="4" fill="#0" id="circle24"/>
	<circle cx="133.094" cy="43.7797" r="4" fill="#0" id="circle25"/>
	<circle cx="133.155" cy="241.022" r="4" fill="#0" id="circle26"/>
	<circle cx="138.813" cy="396.708" r="4" fill="#0" id="circle27"/>
	<circle cx="150.095" cy="359.447" r="4" fill="#0" id="circle28"/>
	<circle cx="154.381" cy="61.4787" r="4" fill="#0" id="circle29"/>
	<circle cx="154.381" cy="697.161" r="4" fill="#0" id="circle30"/>
	<circle cx="167.086" cy="83.9389" r="4" fill="#0" id="circle31"/>
	<circle cx="175.272" cy="824.168" r="4" fill="#0" id="circle32"/>
	<circle cx="175.03" cy="801.966" r="4" fill="#0" id="circle33"/>
	<circle cx="179.136" cy="714.42" r="4" fill="#0" id="circle34"/>
	<circle cx="179.17" cy="772.83" r="4" fill="#0" id="circle35"/>
	<circle cx="181.853" cy="858.893" r="4" fill="#0" id="circle36"/>
	<circle cx="182.69" cy="902.183" r="4" fill="#0" id="circle37"/>
	<circle cx="185.277" cy="933.613" r="4" fill="#0" id="circle38"/>
	<circle cx="187.709" cy="123.563" r="4" fill="#0" id="circle39"/>
	<circle cx="194.334" cy="685.827" r="4" fill="#0" id="circle40"/>
	<circle cx="192.609" cy="733.447" r="4" fill="#0" id="circle41"/>
	<circle cx="199.759" cy="635.102" r="4" fill="#0" id="circle42"/>
	<circle cx="199.673" cy="661.624" r="4" fill="#0" id="circle43"/>
	<circle cx="204.434" cy="963.543" r="4" fill="#0" id="circle44"/>
	<circle cx="207.099" cy="610.365" r="4" fill="#0" id="circle45"/>
	<circle cx="209.635" cy="580.996" r="4" fill="#0" id="circle46"/>
	<circle cx="210.135" cy="296.163" r="4" fill="#0" id="circle47"/>
	<circle cx="212.904" cy="321.332" r="4" fill="#0" id="circle48"/>
	<circle cx="216.457" cy="148.361" r="4" fill="#0" id="circle49"/>
	<circle cx="216.457" cy="549.876" r="4" fill="#0" id="circle50"/>
	<circle cx="217.009" cy="353.901" r="4" fill="#0" id="circle51"/>
	<circle cx="223.806" cy="523.06" r="4" fill="#0" id="circle52"/>
	<circle cx="224.384" cy="258.264" r="4" fill="#0" id="circle53"/>
	<circle cx="232.112" cy="473.283" r="4" fill="#0" id="circle54"/>
	<circle cx="233.958" cy="428.518" r="4" fill="#0" id="circle55"/>
	<circle cx="233.742" cy="986.831" r="4" fill="#0" id="circle56"/>
	<circle cx="234.674" cy="502.394" r="4" fill="#0" id="circle57"/>
	<circle cx="236.977" cy="162.127" r="4" fill="#0" id="circle58"/>
	<circle cx="238.538" cy="448.235" r="4" fill="#0" id="circle59"/>
	<circle cx="248.975" cy="253.52" r="4" fill="#0" id="circle60"/>
	<circle cx="254.124" cy="361.232" r="4" fill="#0" id="circle61"/>
	<circle cx="263.974" cy="278.671" r="4" fill="#0" id="circle62"/>
	<circle cx="265.716" cy="174.099" r="4" fill="#0" id="circle63"/>
	<circle cx="270.374" cy="335.012" r="4" fill="#0" id="circle64"/>
	<circle cx="275.842" cy="992.214" r="4" fill="#0" id="circle65"/>
	<circle cx="277.619" cy="300.606" r="4" fill="#0" id="circle66"/>
	<circle cx="302.149" cy="972.289" r="4" fill="#0" id="circle67"/>
	<circle cx="308.618" cy="187.925" r="4" fill="#0" id="circle68"/>
	<circle cx="334.494" cy="960.093" r="4" fill="#0" id="circle69"/>
	<circle cx="347.975" cy="187.373" r="4" fill="#0" id="circle70"/>
	<circle cx="355.091" cy="989.419" r="4" fill="#0" id="circle71"/>
	<circle cx="378.742" cy="176.065" r="4" fill="#0" id="circle72"/>
	<circle cx="388.402" cy="996" r="4" fill="#0" id="circle73"/>
	<circle cx="402.634" cy="277.697" r="4" fill="#0" id="circle74"/>
	<circle cx="405.471" cy="301.986" r="4" fill="#0" id="circle75"/>
	<circle cx="409.103" cy="339.781" r="4" fill="#0" id="circle76"/>
	<circle cx="411.69" cy="982.389" r="4" fill="#0" id="circle77"/>
	<circle cx="421.834" cy="171.209" r="4" fill="#0" id="circle78"/>
	<circle cx="428.993" cy="463.183" r="4" fill="#0" id="circle79"/>
	<circle cx="429.346" cy="439.627" r="4" fill="#0" id="circle80"/>
	<circle cx="430.502" cy="503.618" r="4" fill="#0" id="circle81"/>
	<circle cx="433.745" cy="246.051" r="4" fill="#0" id="circle82"/>
	<circle cx="434.418" cy="355.799" r="4" fill="#0" id="circle83"/>
	<circle cx="435.358" cy="969.193" r="4" fill="#0" id="circle84"/>
	<circle cx="437.902" cy="557.129" r="4" fill="#0" id="circle85"/>
	<circle cx="439.593" cy="530.909" r="4" fill="#0" id="circle86"/>
	<circle cx="443.397" cy="157.659" r="4" fill="#0" id="circle87"/>
	<circle cx="445.475" cy="600.402" r="4" fill="#0" id="circle88"/>
	<circle cx="450.961" cy="940.41" r="4" fill="#0" id="circle89"/>
	<circle cx="457.085" cy="637.017" r="4" fill="#0" id="circle90"/>
	<circle cx="457.982" cy="139.063" r="4" fill="#0" id="circle91"/>
	<circle cx="461.665" cy="659.218" r="4" fill="#0" id="circle92"/>
	<circle cx="462.045" cy="261.231" r="4" fill="#0" id="circle93"/>
	<circle cx="463.58" cy="897.56" r="4" fill="#0" id="circle94"/>
	<circle cx="464.132" cy="923.272" r="4" fill="#0" id="circle95"/>
	<circle cx="464.736" cy="338.824" r="4" fill="#0" id="circle96"/>
	<circle cx="464.891" cy="689.079" r="4" fill="#0" id="circle97"/>
	<circle cx="467.323" cy="861.938" r="4" fill="#0" id="circle98"/>
	<circle cx="472.127" cy="296.155" r="4" fill="#0" id="circle99"/>
	<circle cx="472.127" cy="723.692" r="4" fill="#0" id="circle100"/>
	<circle cx="473.508" cy="753.423" r="4" fill="#0" id="circle101"/>
	<circle cx="473.896" cy="781.533" r="4" fill="#0" id="circle102"/>
	<circle cx="476.621" cy="110.47" r="4" fill="#0" id="circle103"/>
	<circle cx="476.492" cy="830.11" r="4" fill="#0" id="circle104"/>
	<circle cx="490.008" cy="88.5448" r="4" fill="#0" id="circle105"/>
	<circle cx="489.456" cy="705.872" r="4" fill="#0" id="circle106"/>
	<circle cx="509.811" cy="43.2363" r="4" fill="#0" id="circle107"/>
	<circle cx="515.03" cy="387.281" r="4" fill="#0" id="circle108"/>
	<circle cx="514.581" cy="700.205" r="4" fill="#0" id="circle109"/>
	<circle cx="521.516" cy="362.337" r="4" fill="#0" id="circle110"/>
	<circle cx="523.068" cy="19.698" r="4" fill="#0" id="circle111"/>
	<circle cx="526.182" cy="425.473" r="4" fill="#0" id="circle112"/>
	<circle cx="526.993" cy="248.086" r="4" fill="#0" id="circle113"/>
	<circle cx="538.154" cy="334.9" r="4" fill="#0" id="circle114"/>
	<circle cx="539.525" cy="689.441" r="4" fill="#0" id="circle115"/>
	<circle cx="541.613" cy="208.039" r="4" fill="#0" id="circle116"/>
	<circle cx="541.768" cy="271.737" r="4" fill="#0" id="circle117"/>
	<circle cx="545.632" cy="9.0544" r="4" fill="#0" id="circle118"/>
	<circle cx="549.479" cy="314.673" r="4" fill="#0" id="circle119"/>
	<circle cx="556.25" cy="452.893" r="4" fill="#0" id="circle120"/>
	<circle cx="572.758" cy="184.052" r="4" fill="#0" id="circle121"/>
	<circle cx="574.276" cy="4" r="4" fill="#0" id="circle122"/>
	<circle cx="584.575" cy="479.261" r="4" fill="#0" id="circle123"/>
	<circle cx="590.345" cy="671.725" r="4" fill="#0" id="circle124"/>
	<circle cx="596.064" cy="160.083" r="4" fill="#0" id="circle125"/>
	<circle cx="604.465" cy="503.429" r="4" fill="#0" id="circle126"/>
	<circle cx="608.027" cy="5.17304" r="4" fill="#0" id="circle127"/>
	<circle cx="621.146" cy="657.312" r="4" fill="#0" id="circle128"/>
	<circle cx="626.028" cy="146.808" r="4" fill="#0" id="circle129"/>
	<circle cx="631.203" cy="527.364" r="4" fill="#0" id="circle130"/>
	<circle cx="640.527" cy="32.7997" r="4" fill="#0" id="circle131"/>
	<circle cx="648.229" cy="125.858" r="4" fill="#0" id="circle132"/>
	<circle cx="653.819" cy="544.261" r="4" fill="#0" id="circle133"/>
	<circle cx="655.785" cy="627.408" r="4" fill="#0" id="circle134"/>
	<circle cx="666.446" cy="93.2025" r="4" fill="#0" id="circle135"/>
	<circle cx="667.809" cy="597.315" r="4" fill="#0" id="circle136"/>
	<circle cx="668.033" cy="571.749" r="4" fill="#0" id="circle137"/>
	<circle cx="669.637" cy="62.4793" r="4" fill="#0" id="circle138"/>
	</g>
</svg>