<?xml version="1.0" encoding="UTF-8" standalone="no"?>
<!-- Created with CurveBenchmark -->
<svg
	xmlns:dc="http://purl.org/dc/elements/1.1/"
	xmlns:cc="http://creativecommons.org/ns#"
	xmlns:rdf="http://www.w3.org/1999/02/22-rdf-syntax-ns#"
	xmlns:svg="http://www.w3.org/2000/svg"
	xmlns="http://www.w3.org/2000/svg"
	xmlns:sodipodi="http://sodipodi.sourceforge.net/DTD/sodipodi-0.dtd"
	xmlns:inkscape="http://www.inkscape.org/namespaces/inkscape"
	width="1000"
	height="1000"
	id="svg2"
	version="1.1"
	sodipodi:docname="mc43">
<defs
	id="defs4" />
<metadata
	id="metadata7">
	<rdf:RDF>
		<cc:Work
			rdf:about="">
			<dc:format>image/svg+xml</dc:format>
			<dc:type
				rdf:resource="http://purl.org/dc/dcmitype/StillImage" />
			<dc:title></dc:title>
		</cc:Work>
	</rdf:RDF>
</metadata>
<g
	inkscape:label="Layer 1"
	inkscape:groupmode="layer"
	id="layer1">
	<path style="fill:none;stroke:#000000;stroke-width:1px;stroke-linecap:butt;stroke-linejoin:miter;stroke-opacity:1" d="M 4,362.275 11.6701,328.163 z" id="boundary" inkscape:connector-curvature="0" />
	<path style="fill:none;stroke:#000000;stroke-width:1px;stroke-linecap:butt;stroke-linejoin:miter;stroke-opacity:1" d="M 4,362.275 13.6886,393.128 z" id="boundary" inkscape:connector-curvature="0" />
	<path style="fill:none;stroke:#000000;stroke-width:1px;stroke-linecap:butt;stroke-linejoin:miter;stroke-opacity:1" d="M 11.6701,328.163 23.7808,304.893 z" id="boundary" inkscape:connector-curvature="0" />
	<path style="fill:none;stroke:#000000;stroke-width:1px;stroke-linecap:butt;stroke-linejoin:miter;stroke-opacity:1" d="M 13.6886,393.128 30.8454,414.653 z" id="boundary" inkscape:connector-curvature="0" />
	<path style="fill:none;stroke:#000000;stroke-width:1px;stroke-linecap:butt;stroke-linejoin:miter;stroke-opacity:1" d="M 56.076,258.997 38.9192,281.789 z" id="boundary" inkscape:connector-curvature="0" />
	<path style="fill:none;stroke:#000000;stroke-width:1px;stroke-linecap:butt;stroke-linejoin:miter;stroke-opacity:1" d="M 23.7808,304.893 38.9192,281.789 z" id="boundary" inkscape:connector-curvature="0" />
	<path style="fill:none;stroke:#000000;stroke-width:1px;stroke-linecap:butt;stroke-linejoin:miter;stroke-opacity:1" d="M 74.242,237.131 56.076,258.997 z" id="boundary" inkscape:connector-curvature="0" />
	<path style="fill:none;stroke:#000000;stroke-width:1px;stroke-linecap:butt;stroke-linejoin:miter;stroke-opacity:1" d="M 155.989,287.34 144.888,264.043 z" id="boundary" inkscape:connector-curvature="0" />
	<path style="fill:none;stroke:#000000;stroke-width:1px;stroke-linecap:butt;stroke-linejoin:miter;stroke-opacity:1" d="M 93.4173,216.038 74.242,237.131 z" id="boundary" inkscape:connector-curvature="0" />
	<path style="fill:none;stroke:#000000;stroke-width:1px;stroke-linecap:butt;stroke-linejoin:miter;stroke-opacity:1" d="M 142.247,250.455 141.524,233.767 z" id="boundary" inkscape:connector-curvature="0" />
	<path style="fill:none;stroke:#000000;stroke-width:1px;stroke-linecap:butt;stroke-linejoin:miter;stroke-opacity:1" d="M 118.648,478.152 140.851,471.821 z" id="boundary" inkscape:connector-curvature="0" />
	<path style="fill:none;stroke:#000000;stroke-width:1px;stroke-linecap:butt;stroke-linejoin:miter;stroke-opacity:1" d="M 52.0391,436.498 74.242,457.325 z" id="boundary" inkscape:connector-curvature="0" />
	<path style="fill:none;stroke:#000000;stroke-width:1px;stroke-linecap:butt;stroke-linejoin:miter;stroke-opacity:1" d="M 93.4173,216.038 111.583,192.977 z" id="boundary" inkscape:connector-curvature="0" />
	<path style="fill:none;stroke:#000000;stroke-width:1px;stroke-linecap:butt;stroke-linejoin:miter;stroke-opacity:1" d="M 74.242,457.325 96.4449,472.463 z" id="boundary" inkscape:connector-curvature="0" />
	<path style="fill:none;stroke:#000000;stroke-width:1px;stroke-linecap:butt;stroke-linejoin:miter;stroke-opacity:1" d="M 140.851,471.821 162.044,453.407 z" id="boundary" inkscape:connector-curvature="0" />
	<path style="fill:none;stroke:#000000;stroke-width:1px;stroke-linecap:butt;stroke-linejoin:miter;stroke-opacity:1" d="M 111.583,192.977 130.759,172.632 z" id="boundary" inkscape:connector-curvature="0" />
	<path style="fill:none;stroke:#000000;stroke-width:1px;stroke-linecap:butt;stroke-linejoin:miter;stroke-opacity:1" d="M 96.4449,472.463 118.648,478.152 z" id="boundary" inkscape:connector-curvature="0" />
	<path style="fill:none;stroke:#000000;stroke-width:1px;stroke-linecap:butt;stroke-linejoin:miter;stroke-opacity:1" d="M 144.888,264.043 142.247,250.455 z" id="boundary" inkscape:connector-curvature="0" />
	<path style="fill:none;stroke:#000000;stroke-width:1px;stroke-linecap:butt;stroke-linejoin:miter;stroke-opacity:1" d="M 52.0391,436.498 30.8454,414.653 z" id="boundary" inkscape:connector-curvature="0" />
	<path style="fill:none;stroke:#000000;stroke-width:1px;stroke-linecap:butt;stroke-linejoin:miter;stroke-opacity:1" d="M 154.59,188.202 147.915,201.051 z" id="boundary" inkscape:connector-curvature="0" />
	<path style="fill:none;stroke:#000000;stroke-width:1px;stroke-linecap:butt;stroke-linejoin:miter;stroke-opacity:1" d="M 142.783,216.645 147.915,201.051 z" id="boundary" inkscape:connector-curvature="0" />
	<path style="fill:none;stroke:#000000;stroke-width:1px;stroke-linecap:butt;stroke-linejoin:miter;stroke-opacity:1" d="M 176.005,302.058 155.989,287.34 z" id="boundary" inkscape:connector-curvature="0" />
	<path style="fill:none;stroke:#000000;stroke-width:1px;stroke-linecap:butt;stroke-linejoin:miter;stroke-opacity:1" d="M 187.326,415.209 179.201,430.613 z" id="boundary" inkscape:connector-curvature="0" />
	<path style="fill:none;stroke:#000000;stroke-width:1px;stroke-linecap:butt;stroke-linejoin:miter;stroke-opacity:1" d="M 141.524,233.767 142.783,216.645 z" id="boundary" inkscape:connector-curvature="0" />
	<path style="fill:none;stroke:#000000;stroke-width:1px;stroke-linecap:butt;stroke-linejoin:miter;stroke-opacity:1" d="M 130.759,172.632 144.393,161.369 z" id="boundary" inkscape:connector-curvature="0" />
	<path style="fill:none;stroke:#000000;stroke-width:1px;stroke-linecap:butt;stroke-linejoin:miter;stroke-opacity:1" d="M 174.446,261.725 171.128,243.859 z" id="boundary" inkscape:connector-curvature="0" />
	<path style="fill:none;stroke:#000000;stroke-width:1px;stroke-linecap:butt;stroke-linejoin:miter;stroke-opacity:1" d="M 253.884,383.744 231.681,388.423 z" id="boundary" inkscape:connector-curvature="0" />
	<path style="fill:none;stroke:#000000;stroke-width:1px;stroke-linecap:butt;stroke-linejoin:miter;stroke-opacity:1" d="M 194.839,400.183 198.059,391.06 z" id="boundary" inkscape:connector-curvature="0" />
	<path style="fill:none;stroke:#000000;stroke-width:1px;stroke-linecap:butt;stroke-linejoin:miter;stroke-opacity:1" d="M 220.579,234.103 207.46,208.047 z" id="boundary" inkscape:connector-curvature="0" />
	<path style="fill:none;stroke:#000000;stroke-width:1px;stroke-linecap:butt;stroke-linejoin:miter;stroke-opacity:1" d="M 207.46,208.047 185.257,206.854 z" id="boundary" inkscape:connector-curvature="0" />
	<path style="fill:none;stroke:#000000;stroke-width:1px;stroke-linecap:butt;stroke-linejoin:miter;stroke-opacity:1" d="M 162.044,453.407 179.201,430.613 z" id="boundary" inkscape:connector-curvature="0" />
	<path style="fill:none;stroke:#000000;stroke-width:1px;stroke-linecap:butt;stroke-linejoin:miter;stroke-opacity:1" d="M 172.836,221.475 185.257,206.854 z" id="boundary" inkscape:connector-curvature="0" />
	<path style="fill:none;stroke:#000000;stroke-width:1px;stroke-linecap:butt;stroke-linejoin:miter;stroke-opacity:1" d="M 197.367,313.281 219.57,313.557 z" id="boundary" inkscape:connector-curvature="0" />
	<path style="fill:none;stroke:#000000;stroke-width:1px;stroke-linecap:butt;stroke-linejoin:miter;stroke-opacity:1" d="M 176.005,302.058 197.367,313.281 z" id="boundary" inkscape:connector-curvature="0" />
	<path style="fill:none;stroke:#000000;stroke-width:1px;stroke-linecap:butt;stroke-linejoin:miter;stroke-opacity:1" d="M 163.39,176.577 178.203,166.736 z" id="boundary" inkscape:connector-curvature="0" />
	<path style="fill:none;stroke:#000000;stroke-width:1px;stroke-linecap:butt;stroke-linejoin:miter;stroke-opacity:1" d="M 172.3,143.123 157.273,151.71 z" id="boundary" inkscape:connector-curvature="0" />
	<path style="fill:none;stroke:#000000;stroke-width:1px;stroke-linecap:butt;stroke-linejoin:miter;stroke-opacity:1" d="M 163.39,176.577 154.59,188.202 z" id="boundary" inkscape:connector-curvature="0" />
	<path style="fill:none;stroke:#000000;stroke-width:1px;stroke-linecap:butt;stroke-linejoin:miter;stroke-opacity:1" d="M 172.836,221.475 171.128,243.859 z" id="boundary" inkscape:connector-curvature="0" />
	<path style="fill:none;stroke:#000000;stroke-width:1px;stroke-linecap:butt;stroke-linejoin:miter;stroke-opacity:1" d="M 209.478,389.874 231.681,388.423 z" id="boundary" inkscape:connector-curvature="0" />
	<path style="fill:none;stroke:#000000;stroke-width:1px;stroke-linecap:butt;stroke-linejoin:miter;stroke-opacity:1" d="M 207.46,275.573 220.579,254.288 z" id="boundary" inkscape:connector-curvature="0" />
	<path style="fill:none;stroke:#000000;stroke-width:1px;stroke-linecap:butt;stroke-linejoin:miter;stroke-opacity:1" d="M 197.367,128.777 219.57,116.483 z" id="boundary" inkscape:connector-curvature="0" />
	<path style="fill:none;stroke:#000000;stroke-width:1px;stroke-linecap:butt;stroke-linejoin:miter;stroke-opacity:1" d="M 185.257,276.894 207.46,275.573 z" id="boundary" inkscape:connector-curvature="0" />
	<path style="fill:none;stroke:#000000;stroke-width:1px;stroke-linecap:butt;stroke-linejoin:miter;stroke-opacity:1" d="M 237.736,195.32 219.57,177.311 z" id="boundary" inkscape:connector-curvature="0" />
	<path style="fill:none;stroke:#000000;stroke-width:1px;stroke-linecap:butt;stroke-linejoin:miter;stroke-opacity:1" d="M 219.57,177.311 197.367,166.852 z" id="boundary" inkscape:connector-curvature="0" />
	<path style="fill:none;stroke:#000000;stroke-width:1px;stroke-linecap:butt;stroke-linejoin:miter;stroke-opacity:1" d="M 220.579,254.288 220.579,234.103 z" id="boundary" inkscape:connector-curvature="0" />
	<path style="fill:none;stroke:#000000;stroke-width:1px;stroke-linecap:butt;stroke-linejoin:miter;stroke-opacity:1" d="M 278.509,484.996 274.741,454.114 z" id="boundary" inkscape:connector-curvature="0" />
	<path style="fill:none;stroke:#000000;stroke-width:1px;stroke-linecap:butt;stroke-linejoin:miter;stroke-opacity:1" d="M 201.816,378.18 203.426,359.397 z" id="boundary" inkscape:connector-curvature="0" />
	<path style="fill:none;stroke:#000000;stroke-width:1px;stroke-linecap:butt;stroke-linejoin:miter;stroke-opacity:1" d="M 280.124,402.644 276.591,379.526 z" id="boundary" inkscape:connector-curvature="0" />
	<path style="fill:none;stroke:#000000;stroke-width:1px;stroke-linecap:butt;stroke-linejoin:miter;stroke-opacity:1" d="M 276.591,379.526 253.884,383.744 z" id="boundary" inkscape:connector-curvature="0" />
	<path style="fill:none;stroke:#000000;stroke-width:1px;stroke-linecap:butt;stroke-linejoin:miter;stroke-opacity:1" d="M 185.257,276.894 174.446,261.725 z" id="boundary" inkscape:connector-curvature="0" />
	<path style="fill:none;stroke:#000000;stroke-width:1px;stroke-linecap:butt;stroke-linejoin:miter;stroke-opacity:1" d="M 241.773,105.473 219.57,116.483 z" id="boundary" inkscape:connector-curvature="0" />
	<path style="fill:none;stroke:#000000;stroke-width:1px;stroke-linecap:butt;stroke-linejoin:miter;stroke-opacity:1" d="M 250.652,234.892 247.829,219.301 z" id="boundary" inkscape:connector-curvature="0" />
	<path style="fill:none;stroke:#000000;stroke-width:1px;stroke-linecap:butt;stroke-linejoin:miter;stroke-opacity:1" d="M 237.736,195.32 247.829,219.301 z" id="boundary" inkscape:connector-curvature="0" />
	<path style="fill:none;stroke:#000000;stroke-width:1px;stroke-linecap:butt;stroke-linejoin:miter;stroke-opacity:1" d="M 263.976,94.6467 241.773,105.473 z" id="boundary" inkscape:connector-curvature="0" />
	<path style="fill:none;stroke:#000000;stroke-width:1px;stroke-linecap:butt;stroke-linejoin:miter;stroke-opacity:1" d="M 219.57,313.557 238.746,301.09 z" id="boundary" inkscape:connector-curvature="0" />
	<path style="fill:none;stroke:#000000;stroke-width:1px;stroke-linecap:butt;stroke-linejoin:miter;stroke-opacity:1" d="M 308.382,75.1962 286.179,84.7379 z" id="boundary" inkscape:connector-curvature="0" />
	<path style="fill:none;stroke:#000000;stroke-width:1px;stroke-linecap:butt;stroke-linejoin:miter;stroke-opacity:1" d="M 248.838,276.995 251.193,250.251 z" id="boundary" inkscape:connector-curvature="0" />
	<path style="fill:none;stroke:#000000;stroke-width:1px;stroke-linecap:butt;stroke-linejoin:miter;stroke-opacity:1" d="M 294.253,495.217 278.509,484.996 z" id="boundary" inkscape:connector-curvature="0" />
	<path style="fill:none;stroke:#000000;stroke-width:1px;stroke-linecap:butt;stroke-linejoin:miter;stroke-opacity:1" d="M 238.746,301.09 248.838,276.995 z" id="boundary" inkscape:connector-curvature="0" />
	<path style="fill:none;stroke:#000000;stroke-width:1px;stroke-linecap:butt;stroke-linejoin:miter;stroke-opacity:1" d="M 286.179,84.7379 263.976,94.6467 z" id="boundary" inkscape:connector-curvature="0" />
	<path style="fill:none;stroke:#000000;stroke-width:1px;stroke-linecap:butt;stroke-linejoin:miter;stroke-opacity:1" d="M 327.394,161.906 330.078,182.836 z" id="boundary" inkscape:connector-curvature="0" />
	<path style="fill:none;stroke:#000000;stroke-width:1px;stroke-linecap:butt;stroke-linejoin:miter;stroke-opacity:1" d="M 277.432,422.828 274.741,454.114 z" id="boundary" inkscape:connector-curvature="0" />
	<path style="fill:none;stroke:#000000;stroke-width:1px;stroke-linecap:butt;stroke-linejoin:miter;stroke-opacity:1" d="M 277.432,422.828 280.124,402.644 z" id="boundary" inkscape:connector-curvature="0" />
	<path style="fill:none;stroke:#000000;stroke-width:1px;stroke-linecap:butt;stroke-linejoin:miter;stroke-opacity:1" d="M 294.253,362.13 307.373,340.576 z" id="boundary" inkscape:connector-curvature="0" />
	<path style="fill:none;stroke:#000000;stroke-width:1px;stroke-linecap:butt;stroke-linejoin:miter;stroke-opacity:1" d="M 312.419,455.88 310.758,468.875 z" id="boundary" inkscape:connector-curvature="0" />
	<path style="fill:none;stroke:#000000;stroke-width:1px;stroke-linecap:butt;stroke-linejoin:miter;stroke-opacity:1" d="M 286.072,138.83 299.488,137.756 z" id="boundary" inkscape:connector-curvature="0" />
	<path style="fill:none;stroke:#000000;stroke-width:1px;stroke-linecap:butt;stroke-linejoin:miter;stroke-opacity:1" d="M 299.488,137.756 318.271,147.416 z" id="boundary" inkscape:connector-curvature="0" />
	<path style="fill:none;stroke:#000000;stroke-width:1px;stroke-linecap:butt;stroke-linejoin:miter;stroke-opacity:1" d="M 312.419,317.869 307.373,299.955 z" id="boundary" inkscape:connector-curvature="0" />
	<path style="fill:none;stroke:#000000;stroke-width:1px;stroke-linecap:butt;stroke-linejoin:miter;stroke-opacity:1" d="M 307.373,340.576 312.419,317.869 z" id="boundary" inkscape:connector-curvature="0" />
	<path style="fill:none;stroke:#000000;stroke-width:1px;stroke-linecap:butt;stroke-linejoin:miter;stroke-opacity:1" d="M 309.055,529.469 320.493,548.064 z" id="boundary" inkscape:connector-curvature="0" />
	<path style="fill:none;stroke:#000000;stroke-width:1px;stroke-linecap:butt;stroke-linejoin:miter;stroke-opacity:1" d="M 320.493,400.961 326.548,378.086 z" id="boundary" inkscape:connector-curvature="0" />
	<path style="fill:none;stroke:#000000;stroke-width:1px;stroke-linecap:butt;stroke-linejoin:miter;stroke-opacity:1" d="M 308.075,514.491 309.055,529.469 z" id="boundary" inkscape:connector-curvature="0" />
	<path style="fill:none;stroke:#000000;stroke-width:1px;stroke-linecap:butt;stroke-linejoin:miter;stroke-opacity:1" d="M 352.788,58.2229 374.991,50.883 z" id="boundary" inkscape:connector-curvature="0" />
	<path style="fill:none;stroke:#000000;stroke-width:1px;stroke-linecap:butt;stroke-linejoin:miter;stroke-opacity:1" d="M 315.447,427.37 312.419,455.88 z" id="boundary" inkscape:connector-curvature="0" />
	<path style="fill:none;stroke:#000000;stroke-width:1px;stroke-linecap:butt;stroke-linejoin:miter;stroke-opacity:1" d="M 320.493,400.961 315.447,427.37 z" id="boundary" inkscape:connector-curvature="0" />
	<path style="fill:none;stroke:#000000;stroke-width:1px;stroke-linecap:butt;stroke-linejoin:miter;stroke-opacity:1" d="M 374.991,50.883 397.194,44.0937 z" id="boundary" inkscape:connector-curvature="0" />
	<path style="fill:none;stroke:#000000;stroke-width:1px;stroke-linecap:butt;stroke-linejoin:miter;stroke-opacity:1" d="M 320.493,548.064 342.696,555.036 z" id="boundary" inkscape:connector-curvature="0" />
	<path style="fill:none;stroke:#000000;stroke-width:1px;stroke-linecap:butt;stroke-linejoin:miter;stroke-opacity:1" d="M 397.194,44.0937 419.397,38.3136 z" id="boundary" inkscape:connector-curvature="0" />
	<path style="fill:none;stroke:#000000;stroke-width:1px;stroke-linecap:butt;stroke-linejoin:miter;stroke-opacity:1" d="M 419.397,38.3136 441.6,33.3592 z" id="boundary" inkscape:connector-curvature="0" />
	<path style="fill:none;stroke:#000000;stroke-width:1px;stroke-linecap:butt;stroke-linejoin:miter;stroke-opacity:1" d="M 342.696,555.036 364.899,558.339 z" id="boundary" inkscape:connector-curvature="0" />
	<path style="fill:none;stroke:#000000;stroke-width:1px;stroke-linecap:butt;stroke-linejoin:miter;stroke-opacity:1" d="M 441.6,33.3592 463.802,28.4966 z" id="boundary" inkscape:connector-curvature="0" />
	<path style="fill:none;stroke:#000000;stroke-width:1px;stroke-linecap:butt;stroke-linejoin:miter;stroke-opacity:1" d="M 308.887,498.267 310.758,483.365 z" id="boundary" inkscape:connector-curvature="0" />
	<path style="fill:none;stroke:#000000;stroke-width:1px;stroke-linecap:butt;stroke-linejoin:miter;stroke-opacity:1" d="M 877.584,555.128 855.381,552.467 z" id="boundary" inkscape:connector-curvature="0" />
	<path style="fill:none;stroke:#000000;stroke-width:1px;stroke-linecap:butt;stroke-linejoin:miter;stroke-opacity:1" d="M 463.802,28.4966 486.005,24.0927 z" id="boundary" inkscape:connector-curvature="0" />
	<path style="fill:none;stroke:#000000;stroke-width:1px;stroke-linecap:butt;stroke-linejoin:miter;stroke-opacity:1" d="M 310.758,483.365 310.758,468.875 z" id="boundary" inkscape:connector-curvature="0" />
	<path style="fill:none;stroke:#000000;stroke-width:1px;stroke-linecap:butt;stroke-linejoin:miter;stroke-opacity:1" d="M 833.179,547.88 855.381,552.467 z" id="boundary" inkscape:connector-curvature="0" />
	<path style="fill:none;stroke:#000000;stroke-width:1px;stroke-linecap:butt;stroke-linejoin:miter;stroke-opacity:1" d="M 486.005,24.0927 508.208,19.9641 z" id="boundary" inkscape:connector-curvature="0" />
	<path style="fill:none;stroke:#000000;stroke-width:1px;stroke-linecap:butt;stroke-linejoin:miter;stroke-opacity:1" d="M 816.828,519.321 821.658,543.471 z" id="boundary" inkscape:connector-curvature="0" />
	<path style="fill:none;stroke:#000000;stroke-width:1px;stroke-linecap:butt;stroke-linejoin:miter;stroke-opacity:1" d="M 319.344,220.939 327.394,199.472 z" id="boundary" inkscape:connector-curvature="0" />
	<path style="fill:none;stroke:#000000;stroke-width:1px;stroke-linecap:butt;stroke-linejoin:miter;stroke-opacity:1" d="M 409.304,556.413 431.507,554.211 z" id="boundary" inkscape:connector-curvature="0" />
	<path style="fill:none;stroke:#000000;stroke-width:1px;stroke-linecap:butt;stroke-linejoin:miter;stroke-opacity:1" d="M 459.413,502.148 461.559,483.902 z" id="boundary" inkscape:connector-curvature="0" />
	<path style="fill:none;stroke:#000000;stroke-width:1px;stroke-linecap:butt;stroke-linejoin:miter;stroke-opacity:1" d="M 463.169,472.632 463.169,461.362 z" id="boundary" inkscape:connector-curvature="0" />
	<path style="fill:none;stroke:#000000;stroke-width:1px;stroke-linecap:butt;stroke-linejoin:miter;stroke-opacity:1" d="M 431.507,554.211 448.664,550.158 z" id="boundary" inkscape:connector-curvature="0" />
	<path style="fill:none;stroke:#000000;stroke-width:1px;stroke-linecap:butt;stroke-linejoin:miter;stroke-opacity:1" d="M 448.664,550.158 456.738,519.714 z" id="boundary" inkscape:connector-curvature="0" />
	<path style="fill:none;stroke:#000000;stroke-width:1px;stroke-linecap:butt;stroke-linejoin:miter;stroke-opacity:1" d="M 496.098,476.409 518.301,478.702 z" id="boundary" inkscape:connector-curvature="0" />
	<path style="fill:none;stroke:#000000;stroke-width:1px;stroke-linecap:butt;stroke-linejoin:miter;stroke-opacity:1" d="M 473.895,473.014 496.098,476.409 z" id="boundary" inkscape:connector-curvature="0" />
	<path style="fill:none;stroke:#000000;stroke-width:1px;stroke-linecap:butt;stroke-linejoin:miter;stroke-opacity:1" d="M 518.301,478.702 540.504,480.904 z" id="boundary" inkscape:connector-curvature="0" />
	<path style="fill:none;stroke:#000000;stroke-width:1px;stroke-linecap:butt;stroke-linejoin:miter;stroke-opacity:1" d="M 508.208,19.9641 530.411,16.2942 z" id="boundary" inkscape:connector-curvature="0" />
	<path style="fill:none;stroke:#000000;stroke-width:1px;stroke-linecap:butt;stroke-linejoin:miter;stroke-opacity:1" d="M 540.504,480.904 562.706,482.831 z" id="boundary" inkscape:connector-curvature="0" />
	<path style="fill:none;stroke:#000000;stroke-width:1px;stroke-linecap:butt;stroke-linejoin:miter;stroke-opacity:1" d="M 562.706,482.831 584.909,484.482 z" id="boundary" inkscape:connector-curvature="0" />
	<path style="fill:none;stroke:#000000;stroke-width:1px;stroke-linecap:butt;stroke-linejoin:miter;stroke-opacity:1" d="M 530.411,16.2942 552.614,12.9913 z" id="boundary" inkscape:connector-curvature="0" />
	<path style="fill:none;stroke:#000000;stroke-width:1px;stroke-linecap:butt;stroke-linejoin:miter;stroke-opacity:1" d="M 584.909,484.482 607.112,486.134 z" id="boundary" inkscape:connector-curvature="0" />
	<path style="fill:none;stroke:#000000;stroke-width:1px;stroke-linecap:butt;stroke-linejoin:miter;stroke-opacity:1" d="M 552.614,12.9913 574.817,10.1471 z" id="boundary" inkscape:connector-curvature="0" />
	<path style="fill:none;stroke:#000000;stroke-width:1px;stroke-linecap:butt;stroke-linejoin:miter;stroke-opacity:1" d="M 607.112,486.134 629.315,486.868 z" id="boundary" inkscape:connector-curvature="0" />
	<path style="fill:none;stroke:#000000;stroke-width:1px;stroke-linecap:butt;stroke-linejoin:miter;stroke-opacity:1" d="M 574.817,10.1471 597.02,7.8534 z" id="boundary" inkscape:connector-curvature="0" />
	<path style="fill:none;stroke:#000000;stroke-width:1px;stroke-linecap:butt;stroke-linejoin:miter;stroke-opacity:1" d="M 629.315,486.868 651.518,487.969 z" id="boundary" inkscape:connector-curvature="0" />
	<path style="fill:none;stroke:#000000;stroke-width:1px;stroke-linecap:butt;stroke-linejoin:miter;stroke-opacity:1" d="M 597.02,7.8534 619.223,6.1102 z" id="boundary" inkscape:connector-curvature="0" />
	<path style="fill:none;stroke:#000000;stroke-width:1px;stroke-linecap:butt;stroke-linejoin:miter;stroke-opacity:1" d="M 651.518,487.969 673.721,488.428 z" id="boundary" inkscape:connector-curvature="0" />
	<path style="fill:none;stroke:#000000;stroke-width:1px;stroke-linecap:butt;stroke-linejoin:miter;stroke-opacity:1" d="M 619.223,6.1102 641.426,4.73398 z" id="boundary" inkscape:connector-curvature="0" />
	<path style="fill:none;stroke:#000000;stroke-width:1px;stroke-linecap:butt;stroke-linejoin:miter;stroke-opacity:1" d="M 776.578,503.222 791.068,518.785 z" id="boundary" inkscape:connector-curvature="0" />
	<path style="fill:none;stroke:#000000;stroke-width:1px;stroke-linecap:butt;stroke-linejoin:miter;stroke-opacity:1" d="M 641.426,4.73398 663.629,4 z" id="boundary" inkscape:connector-curvature="0" />
	<path style="fill:none;stroke:#000000;stroke-width:1px;stroke-linecap:butt;stroke-linejoin:miter;stroke-opacity:1" d="M 740.33,483.014 718.127,485.859 z" id="boundary" inkscape:connector-curvature="0" />
	<path style="fill:none;stroke:#000000;stroke-width:1px;stroke-linecap:butt;stroke-linejoin:miter;stroke-opacity:1" d="M 663.629,4 685.832,4.1835 z" id="boundary" inkscape:connector-curvature="0" />
	<path style="fill:none;stroke:#000000;stroke-width:1px;stroke-linecap:butt;stroke-linejoin:miter;stroke-opacity:1" d="M 695.924,487.235 673.721,488.428 z" id="boundary" inkscape:connector-curvature="0" />
	<path style="fill:none;stroke:#000000;stroke-width:1px;stroke-linecap:butt;stroke-linejoin:miter;stroke-opacity:1" d="M 776.042,487.658 776.578,503.222 z" id="boundary" inkscape:connector-curvature="0" />
	<path style="fill:none;stroke:#000000;stroke-width:1px;stroke-linecap:butt;stroke-linejoin:miter;stroke-opacity:1" d="M 685.832,4.1835 708.035,5.55971 z" id="boundary" inkscape:connector-curvature="0" />
	<path style="fill:none;stroke:#000000;stroke-width:1px;stroke-linecap:butt;stroke-linejoin:miter;stroke-opacity:1" d="M 718.127,485.859 695.924,487.235 z" id="boundary" inkscape:connector-curvature="0" />
	<path style="fill:none;stroke:#000000;stroke-width:1px;stroke-linecap:butt;stroke-linejoin:miter;stroke-opacity:1" d="M 708.035,5.55971 730.238,7.21117 z" id="boundary" inkscape:connector-curvature="0" />
	<path style="fill:none;stroke:#000000;stroke-width:1px;stroke-linecap:butt;stroke-linejoin:miter;stroke-opacity:1" d="M 730.238,7.21117 752.441,9.9636 z" id="boundary" inkscape:connector-curvature="0" />
	<path style="fill:none;stroke:#000000;stroke-width:1px;stroke-linecap:butt;stroke-linejoin:miter;stroke-opacity:1" d="M 752.441,9.9636 774.644,13.6335 z" id="boundary" inkscape:connector-curvature="0" />
	<path style="fill:none;stroke:#000000;stroke-width:1px;stroke-linecap:butt;stroke-linejoin:miter;stroke-opacity:1" d="M 774.644,13.6335 796.846,18.4044 z" id="boundary" inkscape:connector-curvature="0" />
	<path style="fill:none;stroke:#000000;stroke-width:1px;stroke-linecap:butt;stroke-linejoin:miter;stroke-opacity:1" d="M 841.252,31.7078 819.049,24.5515 z" id="boundary" inkscape:connector-curvature="0" />
	<path style="fill:none;stroke:#000000;stroke-width:1px;stroke-linecap:butt;stroke-linejoin:miter;stroke-opacity:1" d="M 820.048,465.119 829.142,462.509 z" id="boundary" inkscape:connector-curvature="0" />
	<path style="fill:none;stroke:#000000;stroke-width:1px;stroke-linecap:butt;stroke-linejoin:miter;stroke-opacity:1" d="M 409.304,556.413 387.101,558.523 z" id="boundary" inkscape:connector-curvature="0" />
	<path style="fill:none;stroke:#000000;stroke-width:1px;stroke-linecap:butt;stroke-linejoin:miter;stroke-opacity:1" d="M 817.901,478.535 815.012,497.511 z" id="boundary" inkscape:connector-curvature="0" />
	<path style="fill:none;stroke:#000000;stroke-width:1px;stroke-linecap:butt;stroke-linejoin:miter;stroke-opacity:1" d="M 820.048,465.119 809.315,465.655 z" id="boundary" inkscape:connector-curvature="0" />
	<path style="fill:none;stroke:#000000;stroke-width:1px;stroke-linecap:butt;stroke-linejoin:miter;stroke-opacity:1" d="M 863.455,40.5156 841.252,31.7078 z" id="boundary" inkscape:connector-curvature="0" />
	<path style="fill:none;stroke:#000000;stroke-width:1px;stroke-linecap:butt;stroke-linejoin:miter;stroke-opacity:1" d="M 877.584,555.128 899.787,556.046 z" id="boundary" inkscape:connector-curvature="0" />
	<path style="fill:none;stroke:#000000;stroke-width:1px;stroke-linecap:butt;stroke-linejoin:miter;stroke-opacity:1" d="M 947.221,107.95 961.35,130.826 z" id="boundary" inkscape:connector-curvature="0" />
	<path style="fill:none;stroke:#000000;stroke-width:1px;stroke-linecap:butt;stroke-linejoin:miter;stroke-opacity:1" d="M 907.861,66.4801 929.055,85.949 z" id="boundary" inkscape:connector-curvature="0" />
	<path style="fill:none;stroke:#000000;stroke-width:1px;stroke-linecap:butt;stroke-linejoin:miter;stroke-opacity:1" d="M 907.861,66.4801 885.658,51.7088 z" id="boundary" inkscape:connector-curvature="0" />
	<path style="fill:none;stroke:#000000;stroke-width:1px;stroke-linecap:butt;stroke-linejoin:miter;stroke-opacity:1" d="M 851.345,454.848 863.455,451.086 z" id="boundary" inkscape:connector-curvature="0" />
	<path style="fill:none;stroke:#000000;stroke-width:1px;stroke-linecap:butt;stroke-linejoin:miter;stroke-opacity:1" d="M 929.055,85.949 947.221,107.95 z" id="boundary" inkscape:connector-curvature="0" />
	<path style="fill:none;stroke:#000000;stroke-width:1px;stroke-linecap:butt;stroke-linejoin:miter;stroke-opacity:1" d="M 885.658,51.7088 863.455,40.5156 z" id="boundary" inkscape:connector-curvature="0" />
	<path style="fill:none;stroke:#000000;stroke-width:1px;stroke-linecap:butt;stroke-linejoin:miter;stroke-opacity:1" d="M 961.35,130.826 972.451,153.567 z" id="boundary" inkscape:connector-curvature="0" />
	<path style="fill:none;stroke:#000000;stroke-width:1px;stroke-linecap:butt;stroke-linejoin:miter;stroke-opacity:1" d="M 899.787,556.046 921.99,555.403 z" id="boundary" inkscape:connector-curvature="0" />
	<path style="fill:none;stroke:#000000;stroke-width:1px;stroke-linecap:butt;stroke-linejoin:miter;stroke-opacity:1" d="M 981.534,177.082 972.451,153.567 z" id="boundary" inkscape:connector-curvature="0" />
	<path style="fill:none;stroke:#000000;stroke-width:1px;stroke-linecap:butt;stroke-linejoin:miter;stroke-opacity:1" d="M 981.534,451.591 980.525,473.289 z" id="boundary" inkscape:connector-curvature="0" />
	<path style="fill:none;stroke:#000000;stroke-width:1px;stroke-linecap:butt;stroke-linejoin:miter;stroke-opacity:1" d="M 829.142,462.509 851.345,454.848 z" id="boundary" inkscape:connector-curvature="0" />
	<path style="fill:none;stroke:#000000;stroke-width:1px;stroke-linecap:butt;stroke-linejoin:miter;stroke-opacity:1" d="M 981.534,177.082 988.599,202.144 z" id="boundary" inkscape:connector-curvature="0" />
	<path style="fill:none;stroke:#000000;stroke-width:1px;stroke-linecap:butt;stroke-linejoin:miter;stroke-opacity:1" d="M 981.534,451.591 981.871,425.519 z" id="boundary" inkscape:connector-curvature="0" />
	<path style="fill:none;stroke:#000000;stroke-width:1px;stroke-linecap:butt;stroke-linejoin:miter;stroke-opacity:1" d="M 988.599,202.144 993.309,233.094 z" id="boundary" inkscape:connector-curvature="0" />
	<path style="fill:none;stroke:#000000;stroke-width:1px;stroke-linecap:butt;stroke-linejoin:miter;stroke-opacity:1" d="M 944.193,553.935 921.99,555.403 z" id="boundary" inkscape:connector-curvature="0" />
	<path style="fill:none;stroke:#000000;stroke-width:1px;stroke-linecap:butt;stroke-linejoin:miter;stroke-opacity:1" d="M 981.871,425.519 983.889,390.196 z" id="boundary" inkscape:connector-curvature="0" />
	<path style="fill:none;stroke:#000000;stroke-width:1px;stroke-linecap:butt;stroke-linejoin:miter;stroke-opacity:1" d="M 980.525,517.695 980.525,543.935 z" id="boundary" inkscape:connector-curvature="0" />
	<path style="fill:none;stroke:#000000;stroke-width:1px;stroke-linecap:butt;stroke-linejoin:miter;stroke-opacity:1" d="M 988.599,328.213 991.963,300.375 z" id="boundary" inkscape:connector-curvature="0" />
	<path style="fill:none;stroke:#000000;stroke-width:1px;stroke-linecap:butt;stroke-linejoin:miter;stroke-opacity:1" d="M 980.525,473.289 980.525,495.492 z" id="boundary" inkscape:connector-curvature="0" />
	<path style="fill:none;stroke:#000000;stroke-width:1px;stroke-linecap:butt;stroke-linejoin:miter;stroke-opacity:1" d="M 980.525,517.695 980.525,495.492 z" id="boundary" inkscape:connector-curvature="0" />
	<path style="fill:none;stroke:#000000;stroke-width:1px;stroke-linecap:butt;stroke-linejoin:miter;stroke-opacity:1" d="M 966.396,551.55 980.525,543.935 z" id="boundary" inkscape:connector-curvature="0" />
	<path style="fill:none;stroke:#000000;stroke-width:1px;stroke-linecap:butt;stroke-linejoin:miter;stroke-opacity:1" d="M 966.396,551.55 944.193,553.935 z" id="boundary" inkscape:connector-curvature="0" />
	<path style="fill:none;stroke:#000000;stroke-width:1px;stroke-linecap:butt;stroke-linejoin:miter;stroke-opacity:1" d="M 988.599,328.213 985.571,359.247 z" id="boundary" inkscape:connector-curvature="0" />
	<path style="fill:none;stroke:#000000;stroke-width:1px;stroke-linecap:butt;stroke-linejoin:miter;stroke-opacity:1" d="M 985.571,359.247 983.889,390.196 z" id="boundary" inkscape:connector-curvature="0" />
	<path style="fill:none;stroke:#000000;stroke-width:1px;stroke-linecap:butt;stroke-linejoin:miter;stroke-opacity:1" d="M 991.963,300.375 994.654,280.527 z" id="boundary" inkscape:connector-curvature="0" />
	<path style="fill:none;stroke:#000000;stroke-width:1px;stroke-linecap:butt;stroke-linejoin:miter;stroke-opacity:1" d="M 993.309,233.094 996,263.371 z" id="boundary" inkscape:connector-curvature="0" />
	<path style="fill:none;stroke:#000000;stroke-width:1px;stroke-linecap:butt;stroke-linejoin:miter;stroke-opacity:1" d="M 996,263.371 994.654,280.527 z" id="boundary" inkscape:connector-curvature="0" />
	<path style="fill:none;stroke:#000000;stroke-width:1px;stroke-linecap:butt;stroke-linejoin:miter;stroke-opacity:1" d="M 144.393,161.369 157.273,151.71 z" id="boundary" inkscape:connector-curvature="0" />
	<path style="fill:none;stroke:#000000;stroke-width:1px;stroke-linecap:butt;stroke-linejoin:miter;stroke-opacity:1" d="M 197.367,166.852 178.203,166.736 z" id="boundary" inkscape:connector-curvature="0" />
	<path style="fill:none;stroke:#000000;stroke-width:1px;stroke-linecap:butt;stroke-linejoin:miter;stroke-opacity:1" d="M 198.059,391.06 209.478,389.874 z" id="boundary" inkscape:connector-curvature="0" />
	<path style="fill:none;stroke:#000000;stroke-width:1px;stroke-linecap:butt;stroke-linejoin:miter;stroke-opacity:1" d="M 463.169,472.632 473.895,473.014 z" id="boundary" inkscape:connector-curvature="0" />
	<path style="fill:none;stroke:#000000;stroke-width:1px;stroke-linecap:butt;stroke-linejoin:miter;stroke-opacity:1" d="M 364.899,558.339 387.101,558.523 z" id="boundary" inkscape:connector-curvature="0" />
	<path style="fill:none;stroke:#000000;stroke-width:1px;stroke-linecap:butt;stroke-linejoin:miter;stroke-opacity:1" d="M 308.887,498.267 294.253,495.217 z" id="boundary" inkscape:connector-curvature="0" />
	<path style="fill:none;stroke:#000000;stroke-width:1px;stroke-linecap:butt;stroke-linejoin:miter;stroke-opacity:1" d="M 777.115,472.632 776.042,487.658 z" id="boundary" inkscape:connector-curvature="0" />
	<path style="fill:none;stroke:#000000;stroke-width:1px;stroke-linecap:butt;stroke-linejoin:miter;stroke-opacity:1" d="M 821.658,543.471 833.179,547.88 z" id="boundary" inkscape:connector-curvature="0" />
	<path style="fill:none;stroke:#000000;stroke-width:1px;stroke-linecap:butt;stroke-linejoin:miter;stroke-opacity:1" d="M 762.533,478.519 740.33,483.014 z" id="boundary" inkscape:connector-curvature="0" />
	<path style="fill:none;stroke:#000000;stroke-width:1px;stroke-linecap:butt;stroke-linejoin:miter;stroke-opacity:1" d="M 815.012,497.511 816.828,519.321 z" id="boundary" inkscape:connector-curvature="0" />
	<path style="fill:none;stroke:#000000;stroke-width:1px;stroke-linecap:butt;stroke-linejoin:miter;stroke-opacity:1" d="M 789.995,469.949 777.115,472.632 z" id="boundary" inkscape:connector-curvature="0" />
	<path style="fill:none;stroke:#000000;stroke-width:1px;stroke-linecap:butt;stroke-linejoin:miter;stroke-opacity:1" d="M 789.995,469.949 809.315,465.655 z" id="boundary" inkscape:connector-curvature="0" />
	<path style="fill:none;stroke:#000000;stroke-width:1px;stroke-linecap:butt;stroke-linejoin:miter;stroke-opacity:1" d="M 819.049,24.5515 796.846,18.4044 z" id="boundary" inkscape:connector-curvature="0" />
	<path style="fill:none;stroke:#000000;stroke-width:1px;stroke-linecap:butt;stroke-linejoin:miter;stroke-opacity:1" d="M 187.326,415.209 194.839,400.183 z" id="boundary" inkscape:connector-curvature="0" />
	<path style="fill:none;stroke:#000000;stroke-width:1px;stroke-linecap:butt;stroke-linejoin:miter;stroke-opacity:1" d="M 330.585,66.4801 308.382,75.1962 z" id="boundary" inkscape:connector-curvature="0" />
	<path style="fill:none;stroke:#000000;stroke-width:1px;stroke-linecap:butt;stroke-linejoin:miter;stroke-opacity:1" d="M 330.585,66.4801 352.788,58.2229 z" id="boundary" inkscape:connector-curvature="0" />
	<path style="fill:none;stroke:#000000;stroke-width:1px;stroke-linecap:butt;stroke-linejoin:miter;stroke-opacity:1" d="M 327.394,161.906 318.271,147.416 z" id="boundary" inkscape:connector-curvature="0" />
	<path style="fill:none;stroke:#000000;stroke-width:1px;stroke-linecap:butt;stroke-linejoin:miter;stroke-opacity:1" d="M 330.078,182.836 327.394,199.472 z" id="boundary" inkscape:connector-curvature="0" />
	<path style="fill:none;stroke:#000000;stroke-width:1px;stroke-linecap:butt;stroke-linejoin:miter;stroke-opacity:1" d="M 250.652,234.892 251.193,250.251 z" id="boundary" inkscape:connector-curvature="0" />
	<path style="fill:none;stroke:#000000;stroke-width:1px;stroke-linecap:butt;stroke-linejoin:miter;stroke-opacity:1" d="M 456.738,519.714 459.413,502.148 z" id="boundary" inkscape:connector-curvature="0" />
	<circle cx="4" cy="362.275" r="4" fill="#0" id="circle0"/>
	<circle cx="11.6701" cy="328.163" r="4" fill="#0" id="circle1"/>
	<circle cx="13.6886" cy="393.128" r="4" fill="#0" id="circle2"/>
	<circle cx="23.7808" cy="304.893" r="4" fill="#0" id="circle3"/>
	<circle cx="30.8454" cy="414.653" r="4" fill="#0" id="circle4"/>
	<circle cx="38.9192" cy="281.789" r="4" fill="#0" id="circle5"/>
	<circle cx="52.0391" cy="436.498" r="4" fill="#0" id="circle6"/>
	<circle cx="56.076" cy="258.997" r="4" fill="#0" id="circle7"/>
	<circle cx="74.242" cy="457.325" r="4" fill="#0" id="circle8"/>
	<circle cx="74.242" cy="237.131" r="4" fill="#0" id="circle9"/>
	<circle cx="93.4173" cy="216.038" r="4" fill="#0" id="circle10"/>
	<circle cx="96.4449" cy="472.463" r="4" fill="#0" id="circle11"/>
	<circle cx="111.583" cy="192.977" r="4" fill="#0" id="circle12"/>
	<circle cx="118.648" cy="478.152" r="4" fill="#0" id="circle13"/>
	<circle cx="130.759" cy="172.632" r="4" fill="#0" id="circle14"/>
	<circle cx="140.851" cy="471.821" r="4" fill="#0" id="circle15"/>
	<circle cx="141.524" cy="233.767" r="4" fill="#0" id="circle16"/>
	<circle cx="144.888" cy="264.043" r="4" fill="#0" id="circle17"/>
	<circle cx="147.915" cy="201.051" r="4" fill="#0" id="circle18"/>
	<circle cx="155.989" cy="287.34" r="4" fill="#0" id="circle19"/>
	<circle cx="163.39" cy="176.577" r="4" fill="#0" id="circle20"/>
	<circle cx="162.044" cy="453.407" r="4" fill="#0" id="circle21"/>
	<circle cx="176.005" cy="302.058" r="4" fill="#0" id="circle22"/>
	<circle cx="171.128" cy="243.859" r="4" fill="#0" id="circle23"/>
	<circle cx="179.201" cy="430.613" r="4" fill="#0" id="circle24"/>
	<circle cx="185.257" cy="206.854" r="4" fill="#0" id="circle25"/>
	<circle cx="185.257" cy="276.894" r="4" fill="#0" id="circle26"/>
	<circle cx="197.367" cy="128.777" r="4" fill="#0" id="circle27"/>
	<circle cx="197.367" cy="166.852" r="4" fill="#0" id="circle28"/>
	<circle cx="197.367" cy="313.281" r="4" fill="#0" id="circle29"/>
	<circle cx="207.46" cy="208.047" r="4" fill="#0" id="circle30"/>
	<circle cx="207.46" cy="275.573" r="4" fill="#0" id="circle31"/>
	<circle cx="209.478" cy="389.874" r="4" fill="#0" id="circle32"/>
	<circle cx="219.57" cy="116.483" r="4" fill="#0" id="circle33"/>
	<circle cx="219.57" cy="177.311" r="4" fill="#0" id="circle34"/>
	<circle cx="219.57" cy="313.557" r="4" fill="#0" id="circle35"/>
	<circle cx="220.579" cy="234.103" r="4" fill="#0" id="circle36"/>
	<circle cx="220.579" cy="254.288" r="4" fill="#0" id="circle37"/>
	<circle cx="231.681" cy="388.423" r="4" fill="#0" id="circle38"/>
	<circle cx="241.773" cy="105.473" r="4" fill="#0" id="circle39"/>
	<circle cx="237.736" cy="195.32" r="4" fill="#0" id="circle40"/>
	<circle cx="238.746" cy="301.09" r="4" fill="#0" id="circle41"/>
	<circle cx="253.884" cy="383.744" r="4" fill="#0" id="circle42"/>
	<circle cx="247.829" cy="219.301" r="4" fill="#0" id="circle43"/>
	<circle cx="248.838" cy="276.995" r="4" fill="#0" id="circle44"/>
	<circle cx="251.193" cy="250.251" r="4" fill="#0" id="circle45"/>
	<circle cx="263.976" cy="94.6467" r="4" fill="#0" id="circle46"/>
	<circle cx="276.591" cy="379.526" r="4" fill="#0" id="circle47"/>
	<circle cx="274.741" cy="454.114" r="4" fill="#0" id="circle48"/>
	<circle cx="286.179" cy="84.7379" r="4" fill="#0" id="circle49"/>
	<circle cx="277.432" cy="422.828" r="4" fill="#0" id="circle50"/>
	<circle cx="278.509" cy="484.996" r="4" fill="#0" id="circle51"/>
	<circle cx="280.124" cy="402.644" r="4" fill="#0" id="circle52"/>
	<circle cx="294.253" cy="495.217" r="4" fill="#0" id="circle53"/>
	<circle cx="294.253" cy="362.13" r="4" fill="#0" id="circle54"/>
	<circle cx="308.382" cy="75.1962" r="4" fill="#0" id="circle55"/>
	<circle cx="307.373" cy="340.576" r="4" fill="#0" id="circle56"/>
	<circle cx="307.373" cy="299.955" r="4" fill="#0" id="circle57"/>
	<circle cx="308.887" cy="498.267" r="4" fill="#0" id="circle58"/>
	<circle cx="309.055" cy="529.469" r="4" fill="#0" id="circle59"/>
	<circle cx="312.419" cy="455.88" r="4" fill="#0" id="circle60"/>
	<circle cx="320.493" cy="548.064" r="4" fill="#0" id="circle61"/>
	<circle cx="312.419" cy="317.869" r="4" fill="#0" id="circle62"/>
	<circle cx="315.447" cy="427.37" r="4" fill="#0" id="circle63"/>
	<circle cx="320.493" cy="400.961" r="4" fill="#0" id="circle64"/>
	<circle cx="330.585" cy="66.4801" r="4" fill="#0" id="circle65"/>
	<circle cx="326.548" cy="378.086" r="4" fill="#0" id="circle66"/>
	<circle cx="342.696" cy="555.036" r="4" fill="#0" id="circle67"/>
	<circle cx="352.788" cy="58.2229" r="4" fill="#0" id="circle68"/>
	<circle cx="364.899" cy="558.339" r="4" fill="#0" id="circle69"/>
	<circle cx="374.991" cy="50.883" r="4" fill="#0" id="circle70"/>
	<circle cx="387.101" cy="558.523" r="4" fill="#0" id="circle71"/>
	<circle cx="397.194" cy="44.0937" r="4" fill="#0" id="circle72"/>
	<circle cx="409.304" cy="556.413" r="4" fill="#0" id="circle73"/>
	<circle cx="419.397" cy="38.3136" r="4" fill="#0" id="circle74"/>
	<circle cx="431.507" cy="554.211" r="4" fill="#0" id="circle75"/>
	<circle cx="441.6" cy="33.3592" r="4" fill="#0" id="circle76"/>
	<circle cx="448.664" cy="550.158" r="4" fill="#0" id="circle77"/>
	<circle cx="463.802" cy="28.4966" r="4" fill="#0" id="circle78"/>
	<circle cx="456.738" cy="519.714" r="4" fill="#0" id="circle79"/>
	<circle cx="473.895" cy="473.014" r="4" fill="#0" id="circle80"/>
	<circle cx="486.005" cy="24.0927" r="4" fill="#0" id="circle81"/>
	<circle cx="496.098" cy="476.409" r="4" fill="#0" id="circle82"/>
	<circle cx="508.208" cy="19.9641" r="4" fill="#0" id="circle83"/>
	<circle cx="518.301" cy="478.702" r="4" fill="#0" id="circle84"/>
	<circle cx="530.411" cy="16.2942" r="4" fill="#0" id="circle85"/>
	<circle cx="540.504" cy="480.904" r="4" fill="#0" id="circle86"/>
	<circle cx="552.614" cy="12.9913" r="4" fill="#0" id="circle87"/>
	<circle cx="562.706" cy="482.831" r="4" fill="#0" id="circle88"/>
	<circle cx="574.817" cy="10.1471" r="4" fill="#0" id="circle89"/>
	<circle cx="584.909" cy="484.482" r="4" fill="#0" id="circle90"/>
	<circle cx="597.02" cy="7.8534" r="4" fill="#0" id="circle91"/>
	<circle cx="607.112" cy="486.134" r="4" fill="#0" id="circle92"/>
	<circle cx="619.223" cy="6.1102" r="4" fill="#0" id="circle93"/>
	<circle cx="629.315" cy="486.868" r="4" fill="#0" id="circle94"/>
	<circle cx="641.426" cy="4.73398" r="4" fill="#0" id="circle95"/>
	<circle cx="651.518" cy="487.969" r="4" fill="#0" id="circle96"/>
	<circle cx="663.629" cy="4" r="4" fill="#0" id="circle97"/>
	<circle cx="673.721" cy="488.428" r="4" fill="#0" id="circle98"/>
	<circle cx="685.832" cy="4.1835" r="4" fill="#0" id="circle99"/>
	<circle cx="695.924" cy="487.235" r="4" fill="#0" id="circle100"/>
	<circle cx="708.035" cy="5.55971" r="4" fill="#0" id="circle101"/>
	<circle cx="718.127" cy="485.859" r="4" fill="#0" id="circle102"/>
	<circle cx="730.238" cy="7.21117" r="4" fill="#0" id="circle103"/>
	<circle cx="740.33" cy="483.014" r="4" fill="#0" id="circle104"/>
	<circle cx="752.441" cy="9.9636" r="4" fill="#0" id="circle105"/>
	<circle cx="762.533" cy="478.519" r="4" fill="#0" id="circle106"/>
	<circle cx="774.644" cy="13.6335" r="4" fill="#0" id="circle107"/>
	<circle cx="796.846" cy="18.4044" r="4" fill="#0" id="circle108"/>
	<circle cx="819.049" cy="24.5515" r="4" fill="#0" id="circle109"/>
	<circle cx="815.012" cy="497.511" r="4" fill="#0" id="circle110"/>
	<circle cx="829.142" cy="462.509" r="4" fill="#0" id="circle111"/>
	<circle cx="833.179" cy="547.88" r="4" fill="#0" id="circle112"/>
	<circle cx="841.252" cy="31.7078" r="4" fill="#0" id="circle113"/>
	<circle cx="851.345" cy="454.848" r="4" fill="#0" id="circle114"/>
	<circle cx="855.381" cy="552.467" r="4" fill="#0" id="circle115"/>
	<circle cx="863.455" cy="40.5156" r="4" fill="#0" id="circle116"/>
	<circle cx="863.455" cy="451.086" r="4" fill="#0" id="circle117"/>
	<circle cx="877.584" cy="555.128" r="4" fill="#0" id="circle118"/>
	<circle cx="885.658" cy="51.7088" r="4" fill="#0" id="circle119"/>
	<circle cx="899.787" cy="556.046" r="4" fill="#0" id="circle120"/>
	<circle cx="907.861" cy="66.4801" r="4" fill="#0" id="circle121"/>
	<circle cx="921.99" cy="555.403" r="4" fill="#0" id="circle122"/>
	<circle cx="929.055" cy="85.949" r="4" fill="#0" id="circle123"/>
	<circle cx="944.193" cy="553.935" r="4" fill="#0" id="circle124"/>
	<circle cx="947.221" cy="107.95" r="4" fill="#0" id="circle125"/>
	<circle cx="961.35" cy="130.826" r="4" fill="#0" id="circle126"/>
	<circle cx="966.396" cy="551.55" r="4" fill="#0" id="circle127"/>
	<circle cx="972.451" cy="153.567" r="4" fill="#0" id="circle128"/>
	<circle cx="981.534" cy="177.082" r="4" fill="#0" id="circle129"/>
	<circle cx="980.525" cy="543.935" r="4" fill="#0" id="circle130"/>
	<circle cx="981.871" cy="425.519" r="4" fill="#0" id="circle131"/>
	<circle cx="981.534" cy="451.591" r="4" fill="#0" id="circle132"/>
	<circle cx="980.525" cy="473.289" r="4" fill="#0" id="circle133"/>
	<circle cx="980.525" cy="495.492" r="4" fill="#0" id="circle134"/>
	<circle cx="980.525" cy="517.695" r="4" fill="#0" id="circle135"/>
	<circle cx="983.889" cy="390.196" r="4" fill="#0" id="circle136"/>
	<circle cx="985.571" cy="359.247" r="4" fill="#0" id="circle137"/>
	<circle cx="988.599" cy="202.144" r="4" fill="#0" id="circle138"/>
	<circle cx="988.599" cy="328.213" r="4" fill="#0" id="circle139"/>
	<circle cx="991.963" cy="300.375" r="4" fill="#0" id="circle140"/>
	<circle cx="993.309" cy="233.094" r="4" fill="#0" id="circle141"/>
	<circle cx="996" cy="263.371" r="4" fill="#0" id="circle142"/>
	<circle cx="994.654" cy="280.527" r="4" fill="#0" id="circle143"/>
	<circle cx="172.836" cy="221.475" r="4" fill="#0" id="circle144"/>
	<circle cx="174.446" cy="261.725" r="4" fill="#0" id="circle145"/>
	<circle cx="144.393" cy="161.369" r="4" fill="#0" id="circle146"/>
	<circle cx="157.273" cy="151.71" r="4" fill="#0" id="circle147"/>
	<circle cx="172.3" cy="143.123" r="4" fill="#0" id="circle148"/>
	<circle cx="178.203" cy="166.736" r="4" fill="#0" id="circle149"/>
	<circle cx="154.59" cy="188.202" r="4" fill="#0" id="circle150"/>
	<circle cx="198.059" cy="391.06" r="4" fill="#0" id="circle151"/>
	<circle cx="201.816" cy="378.18" r="4" fill="#0" id="circle152"/>
	<circle cx="203.426" cy="359.397" r="4" fill="#0" id="circle153"/>
	<circle cx="463.169" cy="472.632" r="4" fill="#0" id="circle154"/>
	<circle cx="310.758" cy="483.365" r="4" fill="#0" id="circle155"/>
	<circle cx="310.758" cy="468.875" r="4" fill="#0" id="circle156"/>
	<circle cx="776.042" cy="487.658" r="4" fill="#0" id="circle157"/>
	<circle cx="776.578" cy="503.222" r="4" fill="#0" id="circle158"/>
	<circle cx="816.828" cy="519.321" r="4" fill="#0" id="circle159"/>
	<circle cx="821.658" cy="543.471" r="4" fill="#0" id="circle160"/>
	<circle cx="820.048" cy="465.119" r="4" fill="#0" id="circle161"/>
	<circle cx="817.901" cy="478.535" r="4" fill="#0" id="circle162"/>
	<circle cx="777.115" cy="472.632" r="4" fill="#0" id="circle163"/>
	<circle cx="791.068" cy="518.785" r="4" fill="#0" id="circle164"/>
	<circle cx="809.315" cy="465.655" r="4" fill="#0" id="circle165"/>
	<circle cx="789.995" cy="469.949" r="4" fill="#0" id="circle166"/>
	<circle cx="308.075" cy="514.491" r="4" fill="#0" id="circle167"/>
	<circle cx="194.839" cy="400.183" r="4" fill="#0" id="circle168"/>
	<circle cx="187.326" cy="415.209" r="4" fill="#0" id="circle169"/>
	<circle cx="286.072" cy="138.83" r="4" fill="#0" id="circle170"/>
	<circle cx="299.488" cy="137.756" r="4" fill="#0" id="circle171"/>
	<circle cx="318.271" cy="147.416" r="4" fill="#0" id="circle172"/>
	<circle cx="327.394" cy="161.906" r="4" fill="#0" id="circle173"/>
	<circle cx="330.078" cy="182.836" r="4" fill="#0" id="circle174"/>
	<circle cx="327.394" cy="199.472" r="4" fill="#0" id="circle175"/>
	<circle cx="319.344" cy="220.939" r="4" fill="#0" id="circle176"/>
	<circle cx="142.783" cy="216.645" r="4" fill="#0" id="circle177"/>
	<circle cx="142.247" cy="250.455" r="4" fill="#0" id="circle178"/>
	<circle cx="250.652" cy="234.892" r="4" fill="#0" id="circle179"/>
	<circle cx="461.559" cy="483.902" r="4" fill="#0" id="circle180"/>
	<circle cx="459.413" cy="502.148" r="4" fill="#0" id="circle181"/>
	<circle cx="463.169" cy="461.362" r="4" fill="#0" id="circle182"/>
	</g>
</svg>