<?xml version="1.0" encoding="UTF-8" standalone="no"?>
<!-- Created with CurveBenchmark -->
<svg
	xmlns:dc="http://purl.org/dc/elements/1.1/"
	xmlns:cc="http://creativecommons.org/ns#"
	xmlns:rdf="http://www.w3.org/1999/02/22-rdf-syntax-ns#"
	xmlns:svg="http://www.w3.org/2000/svg"
	xmlns="http://www.w3.org/2000/svg"
	xmlns:sodipodi="http://sodipodi.sourceforge.net/DTD/sodipodi-0.dtd"
	xmlns:inkscape="http://www.inkscape.org/namespaces/inkscape"
	width="1000"
	height="1000"
	id="svg2"
	version="1.1"
	sodipodi:docname="oc3">
<defs
	id="defs4" />
<metadata
	id="metadata7">
	<rdf:RDF>
		<cc:Work
			rdf:about="">
			<dc:format>image/svg+xml</dc:format>
			<dc:type
				rdf:resource="http://purl.org/dc/dcmitype/StillImage" />
			<dc:title></dc:title>
		</cc:Work>
	</rdf:RDF>
</metadata>
<g
	inkscape:label="Layer 1"
	inkscape:groupmode="layer"
	id="layer1">
	<path style="fill:none;stroke:#000000;stroke-width:1px;stroke-linecap:butt;stroke-linejoin:miter;stroke-opacity:1" d="M 204.629,340.193 252,326.261 z" id="boundary" inkscape:connector-curvature="0" />
	<path style="fill:none;stroke:#000000;stroke-width:1px;stroke-linecap:butt;stroke-linejoin:miter;stroke-opacity:1" d="M 311.91,333.589 252,326.261 z" id="boundary" inkscape:connector-curvature="0" />
	<path style="fill:none;stroke:#000000;stroke-width:1px;stroke-linecap:butt;stroke-linejoin:miter;stroke-opacity:1" d="M 160.045,146.53 199.056,75.8643 z" id="boundary" inkscape:connector-curvature="0" />
	<path style="fill:none;stroke:#000000;stroke-width:1px;stroke-linecap:butt;stroke-linejoin:miter;stroke-opacity:1" d="M 199.056,75.8643 316.09,86.6202 z" id="boundary" inkscape:connector-curvature="0" />
	<path style="fill:none;stroke:#000000;stroke-width:1px;stroke-linecap:butt;stroke-linejoin:miter;stroke-opacity:1" d="M 204.629,340.193 173.978,371.04 z" id="boundary" inkscape:connector-curvature="0" />
	<path style="fill:none;stroke:#000000;stroke-width:1px;stroke-linecap:butt;stroke-linejoin:miter;stroke-opacity:1" d="M 173.978,371.04 176.764,429.947 z" id="boundary" inkscape:connector-curvature="0" />
	<path style="fill:none;stroke:#000000;stroke-width:1px;stroke-linecap:butt;stroke-linejoin:miter;stroke-opacity:1" d="M 176.764,429.947 199.056,481.498 z" id="boundary" inkscape:connector-curvature="0" />
	<path style="fill:none;stroke:#000000;stroke-width:1px;stroke-linecap:butt;stroke-linejoin:miter;stroke-opacity:1" d="M 235.281,511.146 199.056,481.498 z" id="boundary" inkscape:connector-curvature="0" />
	<path style="fill:none;stroke:#000000;stroke-width:1px;stroke-linecap:butt;stroke-linejoin:miter;stroke-opacity:1" d="M 282.652,530.54 235.281,511.146 z" id="boundary" inkscape:connector-curvature="0" />
	<path style="fill:none;stroke:#000000;stroke-width:1px;stroke-linecap:butt;stroke-linejoin:miter;stroke-opacity:1" d="M 311.91,333.589 360.674,371.04 z" id="boundary" inkscape:connector-curvature="0" />
	<path style="fill:none;stroke:#000000;stroke-width:1px;stroke-linecap:butt;stroke-linejoin:miter;stroke-opacity:1" d="M 114.067,579.026 36.0449,586.354 z" id="boundary" inkscape:connector-curvature="0" />
	<path style="fill:none;stroke:#000000;stroke-width:1px;stroke-linecap:butt;stroke-linejoin:miter;stroke-opacity:1" d="M 377.393,142.546 394.112,228.733 z" id="boundary" inkscape:connector-curvature="0" />
	<path style="fill:none;stroke:#000000;stroke-width:1px;stroke-linecap:butt;stroke-linejoin:miter;stroke-opacity:1" d="M 377.393,142.546 316.09,86.6202 z" id="boundary" inkscape:connector-curvature="0" />
	<path style="fill:none;stroke:#000000;stroke-width:1px;stroke-linecap:butt;stroke-linejoin:miter;stroke-opacity:1" d="M 419.191,302.77 394.112,228.733 z" id="boundary" inkscape:connector-curvature="0" />
	<path style="fill:none;stroke:#000000;stroke-width:1px;stroke-linecap:butt;stroke-linejoin:miter;stroke-opacity:1" d="M 465.169,315.003 419.191,302.77 z" id="boundary" inkscape:connector-curvature="0" />
	<path style="fill:none;stroke:#000000;stroke-width:1px;stroke-linecap:butt;stroke-linejoin:miter;stroke-opacity:1" d="M 509.753,310.823 465.169,315.003 z" id="boundary" inkscape:connector-curvature="0" />
	<path style="fill:none;stroke:#000000;stroke-width:1px;stroke-linecap:butt;stroke-linejoin:miter;stroke-opacity:1" d="M 552.944,269.722 509.753,310.823 z" id="boundary" inkscape:connector-curvature="0" />
	<path style="fill:none;stroke:#000000;stroke-width:1px;stroke-linecap:butt;stroke-linejoin:miter;stroke-opacity:1" d="M 321.329,563.7 282.652,530.54 z" id="boundary" inkscape:connector-curvature="0" />
	<path style="fill:none;stroke:#000000;stroke-width:1px;stroke-linecap:butt;stroke-linejoin:miter;stroke-opacity:1" d="M 360.674,371.04 420.584,403.308 z" id="boundary" inkscape:connector-curvature="0" />
	<path style="fill:none;stroke:#000000;stroke-width:1px;stroke-linecap:butt;stroke-linejoin:miter;stroke-opacity:1" d="M 348.135,590.172 321.329,563.7 z" id="boundary" inkscape:connector-curvature="0" />
	<path style="fill:none;stroke:#000000;stroke-width:1px;stroke-linecap:butt;stroke-linejoin:miter;stroke-opacity:1" d="M 420.584,403.308 494.427,392.134 z" id="boundary" inkscape:connector-curvature="0" />
	<path style="fill:none;stroke:#000000;stroke-width:1px;stroke-linecap:butt;stroke-linejoin:miter;stroke-opacity:1" d="M 589.169,529.258 527.865,555.925 z" id="boundary" inkscape:connector-curvature="0" />
	<path style="fill:none;stroke:#000000;stroke-width:1px;stroke-linecap:butt;stroke-linejoin:miter;stroke-opacity:1" d="M 558.517,385.168 494.427,392.134 z" id="boundary" inkscape:connector-curvature="0" />
	<path style="fill:none;stroke:#000000;stroke-width:1px;stroke-linecap:butt;stroke-linejoin:miter;stroke-opacity:1" d="M 15.1461,638.546 4,601.123 z" id="boundary" inkscape:connector-curvature="0" />
	<path style="fill:none;stroke:#000000;stroke-width:1px;stroke-linecap:butt;stroke-linejoin:miter;stroke-opacity:1" d="M 4,601.123 36.0449,586.354 z" id="boundary" inkscape:connector-curvature="0" />
	<path style="fill:none;stroke:#000000;stroke-width:1px;stroke-linecap:butt;stroke-linejoin:miter;stroke-opacity:1" d="M 193.483,633.753 178.157,686.084 z" id="boundary" inkscape:connector-curvature="0" />
	<path style="fill:none;stroke:#000000;stroke-width:1px;stroke-linecap:butt;stroke-linejoin:miter;stroke-opacity:1" d="M 204.629,585.992 193.483,633.753 z" id="boundary" inkscape:connector-curvature="0" />
	<path style="fill:none;stroke:#000000;stroke-width:1px;stroke-linecap:butt;stroke-linejoin:miter;stroke-opacity:1" d="M 51.3708,697.648 15.1461,638.546 z" id="boundary" inkscape:connector-curvature="0" />
	<path style="fill:none;stroke:#000000;stroke-width:1px;stroke-linecap:butt;stroke-linejoin:miter;stroke-opacity:1" d="M 119.64,778.484 77.8427,733.677 z" id="boundary" inkscape:connector-curvature="0" />
	<path style="fill:none;stroke:#000000;stroke-width:1px;stroke-linecap:butt;stroke-linejoin:miter;stroke-opacity:1" d="M 77.8427,733.677 51.3708,697.648 z" id="boundary" inkscape:connector-curvature="0" />
	<path style="fill:none;stroke:#000000;stroke-width:1px;stroke-linecap:butt;stroke-linejoin:miter;stroke-opacity:1" d="M 154.472,792.779 119.64,778.484 z" id="boundary" inkscape:connector-curvature="0" />
	<path style="fill:none;stroke:#000000;stroke-width:1px;stroke-linecap:butt;stroke-linejoin:miter;stroke-opacity:1" d="M 178.157,686.084 171.191,726.906 z" id="boundary" inkscape:connector-curvature="0" />
	<path style="fill:none;stroke:#000000;stroke-width:1px;stroke-linecap:butt;stroke-linejoin:miter;stroke-opacity:1" d="M 348.135,590.172 371.82,623.025 z" id="boundary" inkscape:connector-curvature="0" />
	<path style="fill:none;stroke:#000000;stroke-width:1px;stroke-linecap:butt;stroke-linejoin:miter;stroke-opacity:1" d="M 332.809,689.288 310.517,745.213 z" id="boundary" inkscape:connector-curvature="0" />
	<path style="fill:none;stroke:#000000;stroke-width:1px;stroke-linecap:butt;stroke-linejoin:miter;stroke-opacity:1" d="M 369.034,659.64 371.82,623.025 z" id="boundary" inkscape:connector-curvature="0" />
	<path style="fill:none;stroke:#000000;stroke-width:1px;stroke-linecap:butt;stroke-linejoin:miter;stroke-opacity:1" d="M 369.034,659.64 332.809,689.288 z" id="boundary" inkscape:connector-curvature="0" />
	<path style="fill:none;stroke:#000000;stroke-width:1px;stroke-linecap:butt;stroke-linejoin:miter;stroke-opacity:1" d="M 527.865,555.925 519.506,608.284 z" id="boundary" inkscape:connector-curvature="0" />
	<path style="fill:none;stroke:#000000;stroke-width:1px;stroke-linecap:butt;stroke-linejoin:miter;stroke-opacity:1" d="M 332.809,845.333 313.303,795.984 z" id="boundary" inkscape:connector-curvature="0" />
	<path style="fill:none;stroke:#000000;stroke-width:1px;stroke-linecap:butt;stroke-linejoin:miter;stroke-opacity:1" d="M 313.303,795.984 310.517,745.213 z" id="boundary" inkscape:connector-curvature="0" />
	<path style="fill:none;stroke:#000000;stroke-width:1px;stroke-linecap:butt;stroke-linejoin:miter;stroke-opacity:1" d="M 421.978,903.85 369.034,889.917 z" id="boundary" inkscape:connector-curvature="0" />
	<path style="fill:none;stroke:#000000;stroke-width:1px;stroke-linecap:butt;stroke-linejoin:miter;stroke-opacity:1" d="M 369.034,889.917 332.809,845.333 z" id="boundary" inkscape:connector-curvature="0" />
	<path style="fill:none;stroke:#000000;stroke-width:1px;stroke-linecap:butt;stroke-linejoin:miter;stroke-opacity:1" d="M 483.281,892.509 421.978,903.85 z" id="boundary" inkscape:connector-curvature="0" />
	<path style="fill:none;stroke:#000000;stroke-width:1px;stroke-linecap:butt;stroke-linejoin:miter;stroke-opacity:1" d="M 519.506,608.284 547.371,666.996 z" id="boundary" inkscape:connector-curvature="0" />
	<path style="fill:none;stroke:#000000;stroke-width:1px;stroke-linecap:butt;stroke-linejoin:miter;stroke-opacity:1" d="M 552.944,269.722 597.528,201.843 z" id="boundary" inkscape:connector-curvature="0" />
	<path style="fill:none;stroke:#000000;stroke-width:1px;stroke-linecap:butt;stroke-linejoin:miter;stroke-opacity:1" d="M 625.393,138.561 644.899,86.2022 z" id="boundary" inkscape:connector-curvature="0" />
	<path style="fill:none;stroke:#000000;stroke-width:1px;stroke-linecap:butt;stroke-linejoin:miter;stroke-opacity:1" d="M 625.393,138.561 597.528,201.843 z" id="boundary" inkscape:connector-curvature="0" />
	<path style="fill:none;stroke:#000000;stroke-width:1px;stroke-linecap:butt;stroke-linejoin:miter;stroke-opacity:1" d="M 688.09,37.5775 644.899,86.2022 z" id="boundary" inkscape:connector-curvature="0" />
	<path style="fill:none;stroke:#000000;stroke-width:1px;stroke-linecap:butt;stroke-linejoin:miter;stroke-opacity:1" d="M 558.517,385.168 594.742,348.135 z" id="boundary" inkscape:connector-curvature="0" />
	<path style="fill:none;stroke:#000000;stroke-width:1px;stroke-linecap:butt;stroke-linejoin:miter;stroke-opacity:1" d="M 650.472,314.502 594.742,348.135 z" id="boundary" inkscape:connector-curvature="0" />
	<path style="fill:none;stroke:#000000;stroke-width:1px;stroke-linecap:butt;stroke-linejoin:miter;stroke-opacity:1" d="M 756.36,291.819 690.876,288.197 z" id="boundary" inkscape:connector-curvature="0" />
	<path style="fill:none;stroke:#000000;stroke-width:1px;stroke-linecap:butt;stroke-linejoin:miter;stroke-opacity:1" d="M 756.36,291.819 787.011,333.422 z" id="boundary" inkscape:connector-curvature="0" />
	<path style="fill:none;stroke:#000000;stroke-width:1px;stroke-linecap:butt;stroke-linejoin:miter;stroke-opacity:1" d="M 650.472,314.502 690.876,288.197 z" id="boundary" inkscape:connector-curvature="0" />
	<path style="fill:none;stroke:#000000;stroke-width:1px;stroke-linecap:butt;stroke-linejoin:miter;stroke-opacity:1" d="M 720.135,496.238 639.326,510.756 z" id="boundary" inkscape:connector-curvature="0" />
	<path style="fill:none;stroke:#000000;stroke-width:1px;stroke-linecap:butt;stroke-linejoin:miter;stroke-opacity:1" d="M 688.09,37.5775 759.146,4 z" id="boundary" inkscape:connector-curvature="0" />
	<path style="fill:none;stroke:#000000;stroke-width:1px;stroke-linecap:butt;stroke-linejoin:miter;stroke-opacity:1" d="M 965.348,4.19506 965.348,67.5047 z" id="boundary" inkscape:connector-curvature="0" />
	<path style="fill:none;stroke:#000000;stroke-width:1px;stroke-linecap:butt;stroke-linejoin:miter;stroke-opacity:1" d="M 973.708,172.779 965.348,250.802 z" id="boundary" inkscape:connector-curvature="0" />
	<path style="fill:none;stroke:#000000;stroke-width:1px;stroke-linecap:butt;stroke-linejoin:miter;stroke-opacity:1" d="M 973.708,172.779 965.348,67.5047 z" id="boundary" inkscape:connector-curvature="0" />
	<path style="fill:none;stroke:#000000;stroke-width:1px;stroke-linecap:butt;stroke-linejoin:miter;stroke-opacity:1" d="M 977.888,348.441 965.348,250.802 z" id="boundary" inkscape:connector-curvature="0" />
	<path style="fill:none;stroke:#000000;stroke-width:1px;stroke-linecap:butt;stroke-linejoin:miter;stroke-opacity:1" d="M 800.944,421.782 778.652,470.351 z" id="boundary" inkscape:connector-curvature="0" />
	<path style="fill:none;stroke:#000000;stroke-width:1px;stroke-linecap:butt;stroke-linejoin:miter;stroke-opacity:1" d="M 778.652,470.351 720.135,496.238 z" id="boundary" inkscape:connector-curvature="0" />
	<path style="fill:none;stroke:#000000;stroke-width:1px;stroke-linecap:butt;stroke-linejoin:miter;stroke-opacity:1" d="M 787.011,333.422 800.944,421.782 z" id="boundary" inkscape:connector-curvature="0" />
	<path style="fill:none;stroke:#000000;stroke-width:1px;stroke-linecap:butt;stroke-linejoin:miter;stroke-opacity:1" d="M 965.348,429.557 977.888,348.441 z" id="boundary" inkscape:connector-curvature="0" />
	<path style="fill:none;stroke:#000000;stroke-width:1px;stroke-linecap:butt;stroke-linejoin:miter;stroke-opacity:1" d="M 973.708,500.418 965.348,429.557 z" id="boundary" inkscape:connector-curvature="0" />
	<path style="fill:none;stroke:#000000;stroke-width:1px;stroke-linecap:butt;stroke-linejoin:miter;stroke-opacity:1" d="M 973.708,500.418 973.708,578.636 z" id="boundary" inkscape:connector-curvature="0" />
	<path style="fill:none;stroke:#000000;stroke-width:1px;stroke-linecap:butt;stroke-linejoin:miter;stroke-opacity:1" d="M 589.169,529.258 639.326,510.756 z" id="boundary" inkscape:connector-curvature="0" />
	<path style="fill:none;stroke:#000000;stroke-width:1px;stroke-linecap:butt;stroke-linejoin:miter;stroke-opacity:1" d="M 664.404,700.434 647.685,663.206 z" id="boundary" inkscape:connector-curvature="0" />
	<path style="fill:none;stroke:#000000;stroke-width:1px;stroke-linecap:butt;stroke-linejoin:miter;stroke-opacity:1" d="M 647.685,663.206 668.417,617.563 z" id="boundary" inkscape:connector-curvature="0" />
	<path style="fill:none;stroke:#000000;stroke-width:1px;stroke-linecap:butt;stroke-linejoin:miter;stroke-opacity:1" d="M 692.27,600.76 668.417,617.563 z" id="boundary" inkscape:connector-curvature="0" />
	<path style="fill:none;stroke:#000000;stroke-width:1px;stroke-linecap:butt;stroke-linejoin:miter;stroke-opacity:1" d="M 566.876,803.34 544.584,870.802 z" id="boundary" inkscape:connector-curvature="0" />
	<path style="fill:none;stroke:#000000;stroke-width:1px;stroke-linecap:butt;stroke-linejoin:miter;stroke-opacity:1" d="M 544.584,870.802 483.281,892.509 z" id="boundary" inkscape:connector-curvature="0" />
	<path style="fill:none;stroke:#000000;stroke-width:1px;stroke-linecap:butt;stroke-linejoin:miter;stroke-opacity:1" d="M 547.371,666.996 569.663,744.628 z" id="boundary" inkscape:connector-curvature="0" />
	<path style="fill:none;stroke:#000000;stroke-width:1px;stroke-linecap:butt;stroke-linejoin:miter;stroke-opacity:1" d="M 569.663,744.628 566.876,803.34 z" id="boundary" inkscape:connector-curvature="0" />
	<path style="fill:none;stroke:#000000;stroke-width:1px;stroke-linecap:butt;stroke-linejoin:miter;stroke-opacity:1" d="M 664.404,700.434 689.483,736.659 z" id="boundary" inkscape:connector-curvature="0" />
	<path style="fill:none;stroke:#000000;stroke-width:1px;stroke-linecap:butt;stroke-linejoin:miter;stroke-opacity:1" d="M 689.483,736.659 731.281,752.598 z" id="boundary" inkscape:connector-curvature="0" />
	<path style="fill:none;stroke:#000000;stroke-width:1px;stroke-linecap:butt;stroke-linejoin:miter;stroke-opacity:1" d="M 692.27,600.76 731.281,596.859 z" id="boundary" inkscape:connector-curvature="0" />
	<path style="fill:none;stroke:#000000;stroke-width:1px;stroke-linecap:butt;stroke-linejoin:miter;stroke-opacity:1" d="M 731.281,596.859 775.865,610.876 z" id="boundary" inkscape:connector-curvature="0" />
	<path style="fill:none;stroke:#000000;stroke-width:1px;stroke-linecap:butt;stroke-linejoin:miter;stroke-opacity:1" d="M 775.865,610.876 798.157,651.865 z" id="boundary" inkscape:connector-curvature="0" />
	<path style="fill:none;stroke:#000000;stroke-width:1px;stroke-linecap:butt;stroke-linejoin:miter;stroke-opacity:1" d="M 806.517,700.295 798.157,651.865 z" id="boundary" inkscape:connector-curvature="0" />
	<path style="fill:none;stroke:#000000;stroke-width:1px;stroke-linecap:butt;stroke-linejoin:miter;stroke-opacity:1" d="M 973.708,578.636 979.281,659.835 z" id="boundary" inkscape:connector-curvature="0" />
	<path style="fill:none;stroke:#000000;stroke-width:1px;stroke-linecap:butt;stroke-linejoin:miter;stroke-opacity:1" d="M 979.281,659.835 979.281,733.092 z" id="boundary" inkscape:connector-curvature="0" />
	<path style="fill:none;stroke:#000000;stroke-width:1px;stroke-linecap:butt;stroke-linejoin:miter;stroke-opacity:1" d="M 731.281,752.598 787.011,736.464 z" id="boundary" inkscape:connector-curvature="0" />
	<path style="fill:none;stroke:#000000;stroke-width:1px;stroke-linecap:butt;stroke-linejoin:miter;stroke-opacity:1" d="M 806.517,700.295 787.011,736.464 z" id="boundary" inkscape:connector-curvature="0" />
	<path style="fill:none;stroke:#000000;stroke-width:1px;stroke-linecap:butt;stroke-linejoin:miter;stroke-opacity:1" d="M 979.281,733.092 979.281,789.408 z" id="boundary" inkscape:connector-curvature="0" />
	<path style="fill:none;stroke:#000000;stroke-width:1px;stroke-linecap:butt;stroke-linejoin:miter;stroke-opacity:1" d="M 996,904.24 984.854,855.699 z" id="boundary" inkscape:connector-curvature="0" />
	<path style="fill:none;stroke:#000000;stroke-width:1px;stroke-linecap:butt;stroke-linejoin:miter;stroke-opacity:1" d="M 984.854,855.699 979.281,789.408 z" id="boundary" inkscape:connector-curvature="0" />
	<circle cx="4" cy="601.123" r="4" fill="#0" id="circle0"/>
	<circle cx="36.0449" cy="586.354" r="4" fill="#0" id="circle1"/>
	<circle cx="15.1461" cy="638.546" r="4" fill="#0" id="circle2"/>
	<circle cx="51.3708" cy="697.648" r="4" fill="#0" id="circle3"/>
	<circle cx="77.8427" cy="733.677" r="4" fill="#0" id="circle4"/>
	<circle cx="119.64" cy="778.484" r="4" fill="#0" id="circle5"/>
	<circle cx="154.472" cy="792.779" r="4" fill="#0" id="circle6"/>
	<circle cx="171.191" cy="726.906" r="4" fill="#0" id="circle7"/>
	<circle cx="178.157" cy="686.084" r="4" fill="#0" id="circle8"/>
	<circle cx="193.483" cy="633.753" r="4" fill="#0" id="circle9"/>
	<circle cx="204.629" cy="585.992" r="4" fill="#0" id="circle10"/>
	<circle cx="235.281" cy="511.146" r="4" fill="#0" id="circle11"/>
	<circle cx="199.056" cy="481.498" r="4" fill="#0" id="circle12"/>
	<circle cx="176.764" cy="429.947" r="4" fill="#0" id="circle13"/>
	<circle cx="173.978" cy="371.04" r="4" fill="#0" id="circle14"/>
	<circle cx="204.629" cy="340.193" r="4" fill="#0" id="circle15"/>
	<circle cx="252" cy="326.261" r="4" fill="#0" id="circle16"/>
	<circle cx="311.91" cy="333.589" r="4" fill="#0" id="circle17"/>
	<circle cx="360.674" cy="371.04" r="4" fill="#0" id="circle18"/>
	<circle cx="420.584" cy="403.308" r="4" fill="#0" id="circle19"/>
	<circle cx="494.427" cy="392.134" r="4" fill="#0" id="circle20"/>
	<circle cx="558.517" cy="385.168" r="4" fill="#0" id="circle21"/>
	<circle cx="594.742" cy="348.135" r="4" fill="#0" id="circle22"/>
	<circle cx="650.472" cy="314.502" r="4" fill="#0" id="circle23"/>
	<circle cx="690.876" cy="288.197" r="4" fill="#0" id="circle24"/>
	<circle cx="756.36" cy="291.819" r="4" fill="#0" id="circle25"/>
	<circle cx="787.011" cy="333.422" r="4" fill="#0" id="circle26"/>
	<circle cx="800.944" cy="421.782" r="4" fill="#0" id="circle27"/>
	<circle cx="778.652" cy="470.351" r="4" fill="#0" id="circle28"/>
	<circle cx="720.135" cy="496.238" r="4" fill="#0" id="circle29"/>
	<circle cx="639.326" cy="510.756" r="4" fill="#0" id="circle30"/>
	<circle cx="589.169" cy="529.258" r="4" fill="#0" id="circle31"/>
	<circle cx="527.865" cy="555.925" r="4" fill="#0" id="circle32"/>
	<circle cx="519.506" cy="608.284" r="4" fill="#0" id="circle33"/>
	<circle cx="547.371" cy="666.996" r="4" fill="#0" id="circle34"/>
	<circle cx="569.663" cy="744.628" r="4" fill="#0" id="circle35"/>
	<circle cx="566.876" cy="803.34" r="4" fill="#0" id="circle36"/>
	<circle cx="544.584" cy="870.802" r="4" fill="#0" id="circle37"/>
	<circle cx="483.281" cy="892.509" r="4" fill="#0" id="circle38"/>
	<circle cx="421.978" cy="903.85" r="4" fill="#0" id="circle39"/>
	<circle cx="369.034" cy="889.917" r="4" fill="#0" id="circle40"/>
	<circle cx="332.809" cy="845.333" r="4" fill="#0" id="circle41"/>
	<circle cx="313.303" cy="795.984" r="4" fill="#0" id="circle42"/>
	<circle cx="310.517" cy="745.213" r="4" fill="#0" id="circle43"/>
	<circle cx="332.809" cy="689.288" r="4" fill="#0" id="circle44"/>
	<circle cx="369.034" cy="659.64" r="4" fill="#0" id="circle45"/>
	<circle cx="371.82" cy="623.025" r="4" fill="#0" id="circle46"/>
	<circle cx="348.135" cy="590.172" r="4" fill="#0" id="circle47"/>
	<circle cx="321.329" cy="563.7" r="4" fill="#0" id="circle48"/>
	<circle cx="282.652" cy="530.54" r="4" fill="#0" id="circle49"/>
	<circle cx="114.067" cy="579.026" r="4" fill="#0" id="circle50"/>
	<circle cx="419.191" cy="302.77" r="4" fill="#0" id="circle51"/>
	<circle cx="465.169" cy="315.003" r="4" fill="#0" id="circle52"/>
	<circle cx="509.753" cy="310.823" r="4" fill="#0" id="circle53"/>
	<circle cx="552.944" cy="269.722" r="4" fill="#0" id="circle54"/>
	<circle cx="597.528" cy="201.843" r="4" fill="#0" id="circle55"/>
	<circle cx="625.393" cy="138.561" r="4" fill="#0" id="circle56"/>
	<circle cx="644.899" cy="86.2022" r="4" fill="#0" id="circle57"/>
	<circle cx="688.09" cy="37.5775" r="4" fill="#0" id="circle58"/>
	<circle cx="759.146" cy="4" r="4" fill="#0" id="circle59"/>
	<circle cx="965.348" cy="4.19506" r="4" fill="#0" id="circle60"/>
	<circle cx="965.348" cy="67.5047" r="4" fill="#0" id="circle61"/>
	<circle cx="973.708" cy="172.779" r="4" fill="#0" id="circle62"/>
	<circle cx="965.348" cy="250.802" r="4" fill="#0" id="circle63"/>
	<circle cx="977.888" cy="348.441" r="4" fill="#0" id="circle64"/>
	<circle cx="965.348" cy="429.557" r="4" fill="#0" id="circle65"/>
	<circle cx="973.708" cy="500.418" r="4" fill="#0" id="circle66"/>
	<circle cx="973.708" cy="578.636" r="4" fill="#0" id="circle67"/>
	<circle cx="979.281" cy="659.835" r="4" fill="#0" id="circle68"/>
	<circle cx="979.281" cy="733.092" r="4" fill="#0" id="circle69"/>
	<circle cx="979.281" cy="789.408" r="4" fill="#0" id="circle70"/>
	<circle cx="984.854" cy="855.699" r="4" fill="#0" id="circle71"/>
	<circle cx="996" cy="904.24" r="4" fill="#0" id="circle72"/>
	<circle cx="787.011" cy="736.464" r="4" fill="#0" id="circle73"/>
	<circle cx="806.517" cy="700.295" r="4" fill="#0" id="circle74"/>
	<circle cx="798.157" cy="651.865" r="4" fill="#0" id="circle75"/>
	<circle cx="775.865" cy="610.876" r="4" fill="#0" id="circle76"/>
	<circle cx="731.281" cy="596.859" r="4" fill="#0" id="circle77"/>
	<circle cx="692.27" cy="600.76" r="4" fill="#0" id="circle78"/>
	<circle cx="668.417" cy="617.563" r="4" fill="#0" id="circle79"/>
	<circle cx="647.685" cy="663.206" r="4" fill="#0" id="circle80"/>
	<circle cx="664.404" cy="700.434" r="4" fill="#0" id="circle81"/>
	<circle cx="689.483" cy="736.659" r="4" fill="#0" id="circle82"/>
	<circle cx="731.281" cy="752.598" r="4" fill="#0" id="circle83"/>
	<circle cx="394.112" cy="228.733" r="4" fill="#0" id="circle84"/>
	<circle cx="377.393" cy="142.546" r="4" fill="#0" id="circle85"/>
	<circle cx="316.09" cy="86.6202" r="4" fill="#0" id="circle86"/>
	<circle cx="199.056" cy="75.8643" r="4" fill="#0" id="circle87"/>
	<circle cx="160.045" cy="146.53" r="4" fill="#0" id="circle88"/>
	</g>
</svg>