<?xml version="1.0" encoding="UTF-8" standalone="no"?>
<!-- Created with CurveBenchmark -->
<svg
	xmlns:dc="http://purl.org/dc/elements/1.1/"
	xmlns:cc="http://creativecommons.org/ns#"
	xmlns:rdf="http://www.w3.org/1999/02/22-rdf-syntax-ns#"
	xmlns:svg="http://www.w3.org/2000/svg"
	xmlns="http://www.w3.org/2000/svg"
	xmlns:sodipodi="http://sodipodi.sourceforge.net/DTD/sodipodi-0.dtd"
	xmlns:inkscape="http://www.inkscape.org/namespaces/inkscape"
	width="1000"
	height="1000"
	id="svg2"
	version="1.1"
	sodipodi:docname="test">
<defs
	id="defs4" />
<metadata
	id="metadata7">
	<rdf:RDF>
		<cc:Work
			rdf:about="">
			<dc:format>image/svg+xml</dc:format>
			<dc:type
				rdf:resource="http://purl.org/dc/dcmitype/StillImage" />
			<dc:title></dc:title>
		</cc:Work>
	</rdf:RDF>
</metadata>
<g
	inkscape:label="Layer 1"
	inkscape:groupmode="layer"
	id="layer1">
	<path style="fill:none;stroke:red;stroke-width:1px;stroke-linecap:butt;stroke-linejoin:miter;stroke-opacity:1" d="M 376.613,335.756 365.173,373.344 z" id="boundary" inkscape:connector-curvature="0" />
	<path style="fill:none;stroke:red;stroke-width:1px;stroke-linecap:butt;stroke-linejoin:miter;stroke-opacity:1" d="M 365.173,373.344 337.39,425.641 z" id="boundary" inkscape:connector-curvature="0" />
	<path style="fill:none;stroke:red;stroke-width:1px;stroke-linecap:butt;stroke-linejoin:miter;stroke-opacity:1" d="M 337.39,425.641 299.802,455.058 z" id="boundary" inkscape:connector-curvature="0" />
	<path style="fill:none;stroke:red;stroke-width:1px;stroke-linecap:butt;stroke-linejoin:miter;stroke-opacity:1" d="M 299.802,455.058 249.14,474.669 z" id="boundary" inkscape:connector-curvature="0" />
	<path style="fill:none;stroke:red;stroke-width:1px;stroke-linecap:butt;stroke-linejoin:miter;stroke-opacity:1" d="M 249.14,474.669 239.334,492.646 z" id="boundary" inkscape:connector-curvature="0" />
	<path style="fill:none;stroke:red;stroke-width:1px;stroke-linecap:butt;stroke-linejoin:miter;stroke-opacity:1" d="M 239.334,492.646 244.237,530.234 z" id="boundary" inkscape:connector-curvature="0" />
	<path style="fill:none;stroke:red;stroke-width:1px;stroke-linecap:butt;stroke-linejoin:miter;stroke-opacity:1" d="M 244.237,530.234 242.603,636.461 z" id="boundary" inkscape:connector-curvature="0" />
	<path style="fill:none;stroke:red;stroke-width:1px;stroke-linecap:butt;stroke-linejoin:miter;stroke-opacity:1" d="M 242.603,636.461 247.506,718.175 z" id="boundary" inkscape:connector-curvature="0" />
	<path style="fill:none;stroke:red;stroke-width:1px;stroke-linecap:butt;stroke-linejoin:miter;stroke-opacity:1" d="M 247.506,718.175 242.603,773.74 z" id="boundary" inkscape:connector-curvature="0" />
	<path style="fill:none;stroke:red;stroke-width:1px;stroke-linecap:butt;stroke-linejoin:miter;stroke-opacity:1" d="M 242.603,773.74 240.969,852.185 z" id="boundary" inkscape:connector-curvature="0" />
	<path style="fill:none;stroke:red;stroke-width:1px;stroke-linecap:butt;stroke-linejoin:miter;stroke-opacity:1" d="M 240.969,852.185 242.603,951.875 z" id="boundary" inkscape:connector-curvature="0" />
	<path style="fill:none;stroke:red;stroke-width:1px;stroke-linecap:butt;stroke-linejoin:miter;stroke-opacity:1" d="M 242.603,951.875 244.237,992.731 z" id="boundary" inkscape:connector-curvature="0" />
	<path style="fill:none;stroke:red;stroke-width:1px;stroke-linecap:butt;stroke-linejoin:miter;stroke-opacity:1" d="M 244.237,992.731 214.82,994.366 z" id="boundary" inkscape:connector-curvature="0" />
	<path style="fill:none;stroke:red;stroke-width:1px;stroke-linecap:butt;stroke-linejoin:miter;stroke-opacity:1" d="M 214.82,994.366 185.404,996 z" id="boundary" inkscape:connector-curvature="0" />
	<path style="fill:none;stroke:red;stroke-width:1px;stroke-linecap:butt;stroke-linejoin:miter;stroke-opacity:1" d="M 185.404,996 191.941,938.801 z" id="boundary" inkscape:connector-curvature="0" />
	<path style="fill:none;stroke:red;stroke-width:1px;stroke-linecap:butt;stroke-linejoin:miter;stroke-opacity:1" d="M 191.941,938.801 187.038,863.624 z" id="boundary" inkscape:connector-curvature="0" />
	<path style="fill:none;stroke:red;stroke-width:1px;stroke-linecap:butt;stroke-linejoin:miter;stroke-opacity:1" d="M 187.038,863.624 188.672,821.133 z" id="boundary" inkscape:connector-curvature="0" />
	<path style="fill:none;stroke:red;stroke-width:1px;stroke-linecap:butt;stroke-linejoin:miter;stroke-opacity:1" d="M 188.672,821.133 187.038,698.563 z" id="boundary" inkscape:connector-curvature="0" />
	<path style="fill:none;stroke:red;stroke-width:1px;stroke-linecap:butt;stroke-linejoin:miter;stroke-opacity:1" d="M 187.038,698.563 190.306,647.901 z" id="boundary" inkscape:connector-curvature="0" />
	<path style="fill:none;stroke:red;stroke-width:1px;stroke-linecap:butt;stroke-linejoin:miter;stroke-opacity:1" d="M 190.306,647.901 188.672,580.896 z" id="boundary" inkscape:connector-curvature="0" />
	<path style="fill:none;stroke:red;stroke-width:1px;stroke-linecap:butt;stroke-linejoin:miter;stroke-opacity:1" d="M 188.672,580.896 183.769,492.646 z" id="boundary" inkscape:connector-curvature="0" />
	<path style="fill:none;stroke:red;stroke-width:1px;stroke-linecap:butt;stroke-linejoin:miter;stroke-opacity:1" d="M 183.769,492.646 149.45,458.326 z" id="boundary" inkscape:connector-curvature="0" />
	<path style="fill:none;stroke:red;stroke-width:1px;stroke-linecap:butt;stroke-linejoin:miter;stroke-opacity:1" d="M 149.45,458.326 98.7875,414.201 z" id="boundary" inkscape:connector-curvature="0" />
	<path style="fill:none;stroke:red;stroke-width:1px;stroke-linecap:butt;stroke-linejoin:miter;stroke-opacity:1" d="M 98.7875,414.201 54.6623,371.71 z" id="boundary" inkscape:connector-curvature="0" />
	<path style="fill:none;stroke:red;stroke-width:1px;stroke-linecap:butt;stroke-linejoin:miter;stroke-opacity:1" d="M 54.6623,371.71 26.8797,324.316 z" id="boundary" inkscape:connector-curvature="0" />
	<path style="fill:none;stroke:red;stroke-width:1px;stroke-linecap:butt;stroke-linejoin:miter;stroke-opacity:1" d="M 26.8797,324.316 12.1713,276.923 z" id="boundary" inkscape:connector-curvature="0" />
	<path style="fill:none;stroke:red;stroke-width:1px;stroke-linecap:butt;stroke-linejoin:miter;stroke-opacity:1" d="M 12.1713,276.923 10.5371,245.871 z" id="boundary" inkscape:connector-curvature="0" />
	<path style="fill:none;stroke:red;stroke-width:1px;stroke-linecap:butt;stroke-linejoin:miter;stroke-opacity:1" d="M 10.5371,245.871 5.63427,198.478 z" id="boundary" inkscape:connector-curvature="0" />
	<path style="fill:none;stroke:red;stroke-width:1px;stroke-linecap:butt;stroke-linejoin:miter;stroke-opacity:1" d="M 5.63427,198.478 4,172.33 z" id="boundary" inkscape:connector-curvature="0" />
	<path style="fill:none;stroke:red;stroke-width:1px;stroke-linecap:butt;stroke-linejoin:miter;stroke-opacity:1" d="M 4,172.33 8.9028,124.936 z" id="boundary" inkscape:connector-curvature="0" />
	<path style="fill:none;stroke:red;stroke-width:1px;stroke-linecap:butt;stroke-linejoin:miter;stroke-opacity:1" d="M 8.9028,124.936 4,92.2504 z" id="boundary" inkscape:connector-curvature="0" />
	<path style="fill:none;stroke:red;stroke-width:1px;stroke-linecap:butt;stroke-linejoin:miter;stroke-opacity:1" d="M 4,92.2504 8.9028,64.4679 z" id="boundary" inkscape:connector-curvature="0" />
	<path style="fill:none;stroke:red;stroke-width:1px;stroke-linecap:butt;stroke-linejoin:miter;stroke-opacity:1" d="M 8.9028,64.4679 12.1713,15.4399 z" id="boundary" inkscape:connector-curvature="0" />
	<path style="fill:none;stroke:red;stroke-width:1px;stroke-linecap:butt;stroke-linejoin:miter;stroke-opacity:1" d="M 12.1713,15.4399 26.8797,61.1993 z" id="boundary" inkscape:connector-curvature="0" />
	<path style="fill:none;stroke:red;stroke-width:1px;stroke-linecap:butt;stroke-linejoin:miter;stroke-opacity:1" d="M 26.8797,61.1993 31.7825,97.1532 z" id="boundary" inkscape:connector-curvature="0" />
	<path style="fill:none;stroke:red;stroke-width:1px;stroke-linecap:butt;stroke-linejoin:miter;stroke-opacity:1" d="M 31.7825,97.1532 36.6853,118.399 z" id="boundary" inkscape:connector-curvature="0" />
	<path style="fill:none;stroke:red;stroke-width:1px;stroke-linecap:butt;stroke-linejoin:miter;stroke-opacity:1" d="M 36.6853,118.399 43.2224,139.644 z" id="boundary" inkscape:connector-curvature="0" />
	<path style="fill:none;stroke:red;stroke-width:1px;stroke-linecap:butt;stroke-linejoin:miter;stroke-opacity:1" d="M 43.2224,139.644 46.4909,167.427 z" id="boundary" inkscape:connector-curvature="0" />
	<path style="fill:none;stroke:red;stroke-width:1px;stroke-linecap:butt;stroke-linejoin:miter;stroke-opacity:1" d="M 46.4909,167.427 51.3937,201.746 z" id="boundary" inkscape:connector-curvature="0" />
	<path style="fill:none;stroke:red;stroke-width:1px;stroke-linecap:butt;stroke-linejoin:miter;stroke-opacity:1" d="M 51.3937,201.746 61.1993,234.432 z" id="boundary" inkscape:connector-curvature="0" />
	<path style="fill:none;stroke:red;stroke-width:1px;stroke-linecap:butt;stroke-linejoin:miter;stroke-opacity:1" d="M 61.1993,234.432 84.0791,257.311 z" id="boundary" inkscape:connector-curvature="0" />
	<path style="fill:none;stroke:red;stroke-width:1px;stroke-linecap:butt;stroke-linejoin:miter;stroke-opacity:1" d="M 84.0791,257.311 113.496,240.969 z" id="boundary" inkscape:connector-curvature="0" />
	<path style="fill:none;stroke:red;stroke-width:1px;stroke-linecap:butt;stroke-linejoin:miter;stroke-opacity:1" d="M 113.496,240.969 115.13,218.089 z" id="boundary" inkscape:connector-curvature="0" />
	<path style="fill:none;stroke:red;stroke-width:1px;stroke-linecap:butt;stroke-linejoin:miter;stroke-opacity:1" d="M 115.13,218.089 116.764,164.158 z" id="boundary" inkscape:connector-curvature="0" />
	<path style="fill:none;stroke:red;stroke-width:1px;stroke-linecap:butt;stroke-linejoin:miter;stroke-opacity:1" d="M 116.764,164.158 120.033,134.741 z" id="boundary" inkscape:connector-curvature="0" />
	<path style="fill:none;stroke:red;stroke-width:1px;stroke-linecap:butt;stroke-linejoin:miter;stroke-opacity:1" d="M 120.033,134.741 123.301,111.862 z" id="boundary" inkscape:connector-curvature="0" />
	<path style="fill:none;stroke:red;stroke-width:1px;stroke-linecap:butt;stroke-linejoin:miter;stroke-opacity:1" d="M 123.301,111.862 120.033,80.8105 z" id="boundary" inkscape:connector-curvature="0" />
	<path style="fill:none;stroke:red;stroke-width:1px;stroke-linecap:butt;stroke-linejoin:miter;stroke-opacity:1" d="M 120.033,80.8105 120.033,49.7595 z" id="boundary" inkscape:connector-curvature="0" />
	<path style="fill:none;stroke:red;stroke-width:1px;stroke-linecap:butt;stroke-linejoin:miter;stroke-opacity:1" d="M 120.033,49.7595 124.936,12.1713 z" id="boundary" inkscape:connector-curvature="0" />
	<path style="fill:none;stroke:red;stroke-width:1px;stroke-linecap:butt;stroke-linejoin:miter;stroke-opacity:1" d="M 124.936,12.1713 142.913,51.3937 z" id="boundary" inkscape:connector-curvature="0" />
	<path style="fill:none;stroke:red;stroke-width:1px;stroke-linecap:butt;stroke-linejoin:miter;stroke-opacity:1" d="M 142.913,51.3937 159.255,111.862 z" id="boundary" inkscape:connector-curvature="0" />
	<path style="fill:none;stroke:red;stroke-width:1px;stroke-linecap:butt;stroke-linejoin:miter;stroke-opacity:1" d="M 159.255,111.862 167.427,164.158 z" id="boundary" inkscape:connector-curvature="0" />
	<path style="fill:none;stroke:red;stroke-width:1px;stroke-linecap:butt;stroke-linejoin:miter;stroke-opacity:1" d="M 167.427,164.158 183.769,214.82 z" id="boundary" inkscape:connector-curvature="0" />
	<path style="fill:none;stroke:red;stroke-width:1px;stroke-linecap:butt;stroke-linejoin:miter;stroke-opacity:1" d="M 183.769,214.82 187.038,244.237 z" id="boundary" inkscape:connector-curvature="0" />
	<path style="fill:none;stroke:red;stroke-width:1px;stroke-linecap:butt;stroke-linejoin:miter;stroke-opacity:1" d="M 187.038,244.237 208.283,242.603 z" id="boundary" inkscape:connector-curvature="0" />
	<path style="fill:none;stroke:red;stroke-width:1px;stroke-linecap:butt;stroke-linejoin:miter;stroke-opacity:1" d="M 208.283,242.603 222.992,157.621 z" id="boundary" inkscape:connector-curvature="0" />
	<path style="fill:none;stroke:red;stroke-width:1px;stroke-linecap:butt;stroke-linejoin:miter;stroke-opacity:1" d="M 222.992,157.621 234.432,111.862 z" id="boundary" inkscape:connector-curvature="0" />
	<path style="fill:none;stroke:red;stroke-width:1px;stroke-linecap:butt;stroke-linejoin:miter;stroke-opacity:1" d="M 234.432,111.862 239.334,66.1021 z" id="boundary" inkscape:connector-curvature="0" />
	<path style="fill:none;stroke:red;stroke-width:1px;stroke-linecap:butt;stroke-linejoin:miter;stroke-opacity:1" d="M 239.334,66.1021 250.774,10.5371 z" id="boundary" inkscape:connector-curvature="0" />
	<path style="fill:none;stroke:red;stroke-width:1px;stroke-linecap:butt;stroke-linejoin:miter;stroke-opacity:1" d="M 250.774,10.5371 272.02,61.1993 z" id="boundary" inkscape:connector-curvature="0" />
	<path style="fill:none;stroke:red;stroke-width:1px;stroke-linecap:butt;stroke-linejoin:miter;stroke-opacity:1" d="M 272.02,61.1993 272.02,110.227 z" id="boundary" inkscape:connector-curvature="0" />
	<path style="fill:none;stroke:red;stroke-width:1px;stroke-linecap:butt;stroke-linejoin:miter;stroke-opacity:1" d="M 272.02,110.227 281.825,146.181 z" id="boundary" inkscape:connector-curvature="0" />
	<path style="fill:none;stroke:red;stroke-width:1px;stroke-linecap:butt;stroke-linejoin:miter;stroke-opacity:1" d="M 281.825,146.181 288.362,178.867 z" id="boundary" inkscape:connector-curvature="0" />
	<path style="fill:none;stroke:red;stroke-width:1px;stroke-linecap:butt;stroke-linejoin:miter;stroke-opacity:1" d="M 288.362,178.867 296.534,201.746 z" id="boundary" inkscape:connector-curvature="0" />
	<path style="fill:none;stroke:red;stroke-width:1px;stroke-linecap:butt;stroke-linejoin:miter;stroke-opacity:1" d="M 296.534,201.746 317.779,236.066 z" id="boundary" inkscape:connector-curvature="0" />
	<path style="fill:none;stroke:red;stroke-width:1px;stroke-linecap:butt;stroke-linejoin:miter;stroke-opacity:1" d="M 317.779,236.066 332.488,200.112 z" id="boundary" inkscape:connector-curvature="0" />
	<path style="fill:none;stroke:red;stroke-width:1px;stroke-linecap:butt;stroke-linejoin:miter;stroke-opacity:1" d="M 332.488,200.112 334.122,162.524 z" id="boundary" inkscape:connector-curvature="0" />
	<path style="fill:none;stroke:red;stroke-width:1px;stroke-linecap:butt;stroke-linejoin:miter;stroke-opacity:1" d="M 334.122,162.524 347.196,111.862 z" id="boundary" inkscape:connector-curvature="0" />
	<path style="fill:none;stroke:red;stroke-width:1px;stroke-linecap:butt;stroke-linejoin:miter;stroke-opacity:1" d="M 347.196,111.862 348.83,74.2735 z" id="boundary" inkscape:connector-curvature="0" />
	<path style="fill:none;stroke:red;stroke-width:1px;stroke-linecap:butt;stroke-linejoin:miter;stroke-opacity:1" d="M 348.83,74.2735 360.27,35.0511 z" id="boundary" inkscape:connector-curvature="0" />
	<path style="fill:none;stroke:red;stroke-width:1px;stroke-linecap:butt;stroke-linejoin:miter;stroke-opacity:1" d="M 360.27,35.0511 379.881,4 z" id="boundary" inkscape:connector-curvature="0" />
	<path style="fill:none;stroke:red;stroke-width:1px;stroke-linecap:butt;stroke-linejoin:miter;stroke-opacity:1" d="M 379.881,4 383.15,30.1483 z" id="boundary" inkscape:connector-curvature="0" />
	<path style="fill:none;stroke:red;stroke-width:1px;stroke-linecap:butt;stroke-linejoin:miter;stroke-opacity:1" d="M 383.15,30.1483 389.687,52.2109 z" id="boundary" inkscape:connector-curvature="0" />
	<path style="fill:none;stroke:red;stroke-width:1px;stroke-linecap:butt;stroke-linejoin:miter;stroke-opacity:1" d="M 389.687,52.2109 391.321,77.542 z" id="boundary" inkscape:connector-curvature="0" />
	<path style="fill:none;stroke:red;stroke-width:1px;stroke-linecap:butt;stroke-linejoin:miter;stroke-opacity:1" d="M 391.321,77.542 397.858,142.913 z" id="boundary" inkscape:connector-curvature="0" />
	<path style="fill:none;stroke:red;stroke-width:1px;stroke-linecap:butt;stroke-linejoin:miter;stroke-opacity:1" d="M 397.858,142.913 394.59,198.478 z" id="boundary" inkscape:connector-curvature="0" />
	<path style="fill:none;stroke:red;stroke-width:1px;stroke-linecap:butt;stroke-linejoin:miter;stroke-opacity:1" d="M 394.59,198.478 386.418,229.529 z" id="boundary" inkscape:connector-curvature="0" />
	<path style="fill:none;stroke:red;stroke-width:1px;stroke-linecap:butt;stroke-linejoin:miter;stroke-opacity:1" d="M 386.418,229.529 386.418,272.02 z" id="boundary" inkscape:connector-curvature="0" />
	<path style="fill:none;stroke:red;stroke-width:1px;stroke-linecap:butt;stroke-linejoin:miter;stroke-opacity:1" d="M 386.418,272.02 376.613,335.756 z" id="boundary" inkscape:connector-curvature="0" />
	<circle cx="185.404" cy="996" r="4" fill="#0" id="circle0"/>
	<circle cx="214.82" cy="994.366" r="4" fill="#0" id="circle1"/>
	<circle cx="244.237" cy="992.731" r="4" fill="#0" id="circle2"/>
	<circle cx="242.603" cy="951.875" r="4" fill="#0" id="circle3"/>
	<circle cx="191.941" cy="938.801" r="4" fill="#0" id="circle4"/>
	<circle cx="187.038" cy="863.624" r="4" fill="#0" id="circle5"/>
	<circle cx="188.672" cy="821.133" r="4" fill="#0" id="circle6"/>
	<circle cx="240.969" cy="852.185" r="4" fill="#0" id="circle7"/>
	<circle cx="242.603" cy="773.74" r="4" fill="#0" id="circle8"/>
	<circle cx="247.506" cy="718.175" r="4" fill="#0" id="circle9"/>
	<circle cx="187.038" cy="698.563" r="4" fill="#0" id="circle10"/>
	<circle cx="190.306" cy="647.901" r="4" fill="#0" id="circle11"/>
	<circle cx="188.672" cy="580.896" r="4" fill="#0" id="circle12"/>
	<circle cx="242.603" cy="636.461" r="4" fill="#0" id="circle13"/>
	<circle cx="183.769" cy="492.646" r="4" fill="#0" id="circle14"/>
	<circle cx="149.45" cy="458.326" r="4" fill="#0" id="circle15"/>
	<circle cx="98.7875" cy="414.201" r="4" fill="#0" id="circle16"/>
	<circle cx="54.6623" cy="371.71" r="4" fill="#0" id="circle17"/>
	<circle cx="26.8797" cy="324.316" r="4" fill="#0" id="circle18"/>
	<circle cx="12.1713" cy="276.923" r="4" fill="#0" id="circle19"/>
	<circle cx="10.5371" cy="245.871" r="4" fill="#0" id="circle20"/>
	<circle cx="5.63427" cy="198.478" r="4" fill="#0" id="circle21"/>
	<circle cx="4" cy="172.33" r="4" fill="#0" id="circle22"/>
	<circle cx="8.9028" cy="124.936" r="4" fill="#0" id="circle23"/>
	<circle cx="4" cy="92.2504" r="4" fill="#0" id="circle24"/>
	<circle cx="8.9028" cy="64.4679" r="4" fill="#0" id="circle25"/>
	<circle cx="12.1713" cy="15.4399" r="4" fill="#0" id="circle26"/>
	<circle cx="26.8797" cy="61.1993" r="4" fill="#0" id="circle27"/>
	<circle cx="31.7825" cy="97.1532" r="4" fill="#0" id="circle28"/>
	<circle cx="36.6853" cy="118.399" r="4" fill="#0" id="circle29"/>
	<circle cx="43.2224" cy="139.644" r="4" fill="#0" id="circle30"/>
	<circle cx="46.4909" cy="167.427" r="4" fill="#0" id="circle31"/>
	<circle cx="51.3937" cy="201.746" r="4" fill="#0" id="circle32"/>
	<circle cx="61.1993" cy="234.432" r="4" fill="#0" id="circle33"/>
	<circle cx="84.0791" cy="257.311" r="4" fill="#0" id="circle34"/>
	<circle cx="113.496" cy="240.969" r="4" fill="#0" id="circle35"/>
	<circle cx="115.13" cy="218.089" r="4" fill="#0" id="circle36"/>
	<circle cx="116.764" cy="164.158" r="4" fill="#0" id="circle37"/>
	<circle cx="120.033" cy="134.741" r="4" fill="#0" id="circle38"/>
	<circle cx="123.301" cy="111.862" r="4" fill="#0" id="circle39"/>
	<circle cx="120.033" cy="80.8105" r="4" fill="#0" id="circle40"/>
	<circle cx="120.033" cy="49.7595" r="4" fill="#0" id="circle41"/>
	<circle cx="124.936" cy="12.1713" r="4" fill="#0" id="circle42"/>
	<circle cx="142.913" cy="51.3937" r="4" fill="#0" id="circle43"/>
	<circle cx="159.255" cy="111.862" r="4" fill="#0" id="circle44"/>
	<circle cx="167.427" cy="164.158" r="4" fill="#0" id="circle45"/>
	<circle cx="183.769" cy="214.82" r="4" fill="#0" id="circle46"/>
	<circle cx="187.038" cy="244.237" r="4" fill="#0" id="circle47"/>
	<circle cx="208.283" cy="242.603" r="4" fill="#0" id="circle48"/>
	<circle cx="222.992" cy="157.621" r="4" fill="#0" id="circle49"/>
	<circle cx="234.432" cy="111.862" r="4" fill="#0" id="circle50"/>
	<circle cx="239.334" cy="66.1021" r="4" fill="#0" id="circle51"/>
	<circle cx="250.774" cy="10.5371" r="4" fill="#0" id="circle52"/>
	<circle cx="272.02" cy="61.1993" r="4" fill="#0" id="circle53"/>
	<circle cx="272.02" cy="110.227" r="4" fill="#0" id="circle54"/>
	<circle cx="281.825" cy="146.181" r="4" fill="#0" id="circle55"/>
	<circle cx="288.362" cy="178.867" r="4" fill="#0" id="circle56"/>
	<circle cx="296.534" cy="201.746" r="4" fill="#0" id="circle57"/>
	<circle cx="317.779" cy="236.066" r="4" fill="#0" id="circle58"/>
	<circle cx="332.488" cy="200.112" r="4" fill="#0" id="circle59"/>
	<circle cx="334.122" cy="162.524" r="4" fill="#0" id="circle60"/>
	<circle cx="347.196" cy="111.862" r="4" fill="#0" id="circle61"/>
	<circle cx="348.83" cy="74.2735" r="4" fill="#0" id="circle62"/>
	<circle cx="360.27" cy="35.0511" r="4" fill="#0" id="circle63"/>
	<circle cx="379.881" cy="4" r="4" fill="#0" id="circle64"/>
	<circle cx="383.15" cy="30.1483" r="4" fill="#0" id="circle65"/>
	<circle cx="389.687" cy="52.2109" r="4" fill="#0" id="circle66"/>
	<circle cx="391.321" cy="77.542" r="4" fill="#0" id="circle67"/>
	<circle cx="397.858" cy="142.913" r="4" fill="#0" id="circle68"/>
	<circle cx="394.59" cy="198.478" r="4" fill="#0" id="circle69"/>
	<circle cx="386.418" cy="229.529" r="4" fill="#0" id="circle70"/>
	<circle cx="386.418" cy="272.02" r="4" fill="#0" id="circle71"/>
	<circle cx="376.613" cy="335.756" r="4" fill="#0" id="circle72"/>
	<circle cx="365.173" cy="373.344" r="4" fill="#0" id="circle73"/>
	<circle cx="337.39" cy="425.641" r="4" fill="#0" id="circle74"/>
	<circle cx="299.802" cy="455.058" r="4" fill="#0" id="circle75"/>
	<circle cx="249.14" cy="474.669" r="4" fill="#0" id="circle76"/>
	<circle cx="239.334" cy="492.646" r="4" fill="#0" id="circle77"/>
	<circle cx="244.237" cy="530.234" r="4" fill="#0" id="circle78"/>
	</g>
</svg>