<?xml version="1.0" encoding="UTF-8" standalone="no"?>
<!-- Created with CurveBenchmark -->
<svg
	xmlns:dc="http://purl.org/dc/elements/1.1/"
	xmlns:cc="http://creativecommons.org/ns#"
	xmlns:rdf="http://www.w3.org/1999/02/22-rdf-syntax-ns#"
	xmlns:svg="http://www.w3.org/2000/svg"
	xmlns="http://www.w3.org/2000/svg"
	xmlns:sodipodi="http://sodipodi.sourceforge.net/DTD/sodipodi-0.dtd"
	xmlns:inkscape="http://www.inkscape.org/namespaces/inkscape"
	width="1000"
	height="1000"
	id="svg2"
	version="1.1"
	sodipodi:docname="mc7">
<defs
	id="defs4" />
<metadata
	id="metadata7">
	<rdf:RDF>
		<cc:Work
			rdf:about="">
			<dc:format>image/svg+xml</dc:format>
			<dc:type
				rdf:resource="http://purl.org/dc/dcmitype/StillImage" />
			<dc:title></dc:title>
		</cc:Work>
	</rdf:RDF>
</metadata>
<g
	inkscape:label="Layer 1"
	inkscape:groupmode="layer"
	id="layer1">
	<path style="fill:none;stroke:#000000;stroke-width:1px;stroke-linecap:butt;stroke-linejoin:miter;stroke-opacity:1" d="M 336.195,84.1849 343.068,68.1474 z" id="boundary" inkscape:connector-curvature="0" />
	<path style="fill:none;stroke:#000000;stroke-width:1px;stroke-linecap:butt;stroke-linejoin:miter;stroke-opacity:1" d="M 336.195,84.1849 322.448,100.22 z" id="boundary" inkscape:connector-curvature="0" />
	<path style="fill:none;stroke:#000000;stroke-width:1px;stroke-linecap:butt;stroke-linejoin:miter;stroke-opacity:1" d="M 322.448,100.22 313.284,118.548 z" id="boundary" inkscape:connector-curvature="0" />
	<path style="fill:none;stroke:#000000;stroke-width:1px;stroke-linecap:butt;stroke-linejoin:miter;stroke-opacity:1" d="M 343.068,68.1474 343.068,42.9457 z" id="boundary" inkscape:connector-curvature="0" />
	<path style="fill:none;stroke:#000000;stroke-width:1px;stroke-linecap:butt;stroke-linejoin:miter;stroke-opacity:1" d="M 343.068,42.9457 327.031,22.3261 z" id="boundary" inkscape:connector-curvature="0" />
	<path style="fill:none;stroke:#000000;stroke-width:1px;stroke-linecap:butt;stroke-linejoin:miter;stroke-opacity:1" d="M 327.031,22.3261 301.829,10.8732 z" id="boundary" inkscape:connector-curvature="0" />
	<path style="fill:none;stroke:#000000;stroke-width:1px;stroke-linecap:butt;stroke-linejoin:miter;stroke-opacity:1" d="M 301.829,10.8732 278.921,4 z" id="boundary" inkscape:connector-curvature="0" />
	<path style="fill:none;stroke:#000000;stroke-width:1px;stroke-linecap:butt;stroke-linejoin:miter;stroke-opacity:1" d="M 278.921,4 251.428,6.29107 z" id="boundary" inkscape:connector-curvature="0" />
	<path style="fill:none;stroke:#000000;stroke-width:1px;stroke-linecap:butt;stroke-linejoin:miter;stroke-opacity:1" d="M 251.428,6.29107 230.808,4 z" id="boundary" inkscape:connector-curvature="0" />
	<path style="fill:none;stroke:#000000;stroke-width:1px;stroke-linecap:butt;stroke-linejoin:miter;stroke-opacity:1" d="M 230.808,4 207.898,8.58213 z" id="boundary" inkscape:connector-curvature="0" />
	<path style="fill:none;stroke:#000000;stroke-width:1px;stroke-linecap:butt;stroke-linejoin:miter;stroke-opacity:1" d="M 207.898,8.58213 184.989,15.4529 z" id="boundary" inkscape:connector-curvature="0" />
	<path style="fill:none;stroke:#000000;stroke-width:1px;stroke-linecap:butt;stroke-linejoin:miter;stroke-opacity:1" d="M 184.989,15.4529 164.37,31.4903 z" id="boundary" inkscape:connector-curvature="0" />
	<path style="fill:none;stroke:#000000;stroke-width:1px;stroke-linecap:butt;stroke-linejoin:miter;stroke-opacity:1" d="M 164.37,31.4903 157.497,56.6921 z" id="boundary" inkscape:connector-curvature="0" />
	<path style="fill:none;stroke:#000000;stroke-width:1px;stroke-linecap:butt;stroke-linejoin:miter;stroke-opacity:1" d="M 157.497,56.6921 168.952,77.3117 z" id="boundary" inkscape:connector-curvature="0" />
	<path style="fill:none;stroke:#000000;stroke-width:1px;stroke-linecap:butt;stroke-linejoin:miter;stroke-opacity:1" d="M 168.952,77.3117 171.243,95.6378 z" id="boundary" inkscape:connector-curvature="0" />
	<path style="fill:none;stroke:#000000;stroke-width:1px;stroke-linecap:butt;stroke-linejoin:miter;stroke-opacity:1" d="M 171.243,95.6378 150.623,95.6378 z" id="boundary" inkscape:connector-curvature="0" />
	<path style="fill:none;stroke:#000000;stroke-width:1px;stroke-linecap:butt;stroke-linejoin:miter;stroke-opacity:1" d="M 150.623,95.6378 130.004,102.511 z" id="boundary" inkscape:connector-curvature="0" />
	<path style="fill:none;stroke:#000000;stroke-width:1px;stroke-linecap:butt;stroke-linejoin:miter;stroke-opacity:1" d="M 130.004,102.511 113.969,118.548 z" id="boundary" inkscape:connector-curvature="0" />
	<path style="fill:none;stroke:#000000;stroke-width:1px;stroke-linecap:butt;stroke-linejoin:miter;stroke-opacity:1" d="M 113.969,118.548 102.513,143.75 z" id="boundary" inkscape:connector-curvature="0" />
	<path style="fill:none;stroke:#000000;stroke-width:1px;stroke-linecap:butt;stroke-linejoin:miter;stroke-opacity:1" d="M 102.513,143.75 100.222,171.243 z" id="boundary" inkscape:connector-curvature="0" />
	<path style="fill:none;stroke:#000000;stroke-width:1px;stroke-linecap:butt;stroke-linejoin:miter;stroke-opacity:1" d="M 100.222,171.243 100.222,201.024 z" id="boundary" inkscape:connector-curvature="0" />
	<path style="fill:none;stroke:#000000;stroke-width:1px;stroke-linecap:butt;stroke-linejoin:miter;stroke-opacity:1" d="M 100.222,201.024 102.513,228.517 z" id="boundary" inkscape:connector-curvature="0" />
	<path style="fill:none;stroke:#000000;stroke-width:1px;stroke-linecap:butt;stroke-linejoin:miter;stroke-opacity:1" d="M 313.284,118.548 299.538,146.041 z" id="boundary" inkscape:connector-curvature="0" />
	<path style="fill:none;stroke:#000000;stroke-width:1px;stroke-linecap:butt;stroke-linejoin:miter;stroke-opacity:1" d="M 299.538,146.041 294.956,171.243 z" id="boundary" inkscape:connector-curvature="0" />
	<path style="fill:none;stroke:#000000;stroke-width:1px;stroke-linecap:butt;stroke-linejoin:miter;stroke-opacity:1" d="M 294.956,171.243 292.665,191.86 z" id="boundary" inkscape:connector-curvature="0" />
	<path style="fill:none;stroke:#000000;stroke-width:1px;stroke-linecap:butt;stroke-linejoin:miter;stroke-opacity:1" d="M 292.665,191.86 292.665,210.189 z" id="boundary" inkscape:connector-curvature="0" />
	<path style="fill:none;stroke:#000000;stroke-width:1px;stroke-linecap:butt;stroke-linejoin:miter;stroke-opacity:1" d="M 292.665,210.189 297.247,239.973 z" id="boundary" inkscape:connector-curvature="0" />
	<path style="fill:none;stroke:#000000;stroke-width:1px;stroke-linecap:butt;stroke-linejoin:miter;stroke-opacity:1" d="M 297.247,239.973 304.12,265.172 z" id="boundary" inkscape:connector-curvature="0" />
	<path style="fill:none;stroke:#000000;stroke-width:1px;stroke-linecap:butt;stroke-linejoin:miter;stroke-opacity:1" d="M 304.12,265.172 313.284,288.082 z" id="boundary" inkscape:connector-curvature="0" />
	<path style="fill:none;stroke:#000000;stroke-width:1px;stroke-linecap:butt;stroke-linejoin:miter;stroke-opacity:1" d="M 313.284,288.082 331.613,299.538 z" id="boundary" inkscape:connector-curvature="0" />
	<path style="fill:none;stroke:#000000;stroke-width:1px;stroke-linecap:butt;stroke-linejoin:miter;stroke-opacity:1" d="M 331.613,299.538 354.523,306.411 z" id="boundary" inkscape:connector-curvature="0" />
	<path style="fill:none;stroke:#000000;stroke-width:1px;stroke-linecap:butt;stroke-linejoin:miter;stroke-opacity:1" d="M 354.523,306.411 377.432,308.702 z" id="boundary" inkscape:connector-curvature="0" />
	<path style="fill:none;stroke:#000000;stroke-width:1px;stroke-linecap:butt;stroke-linejoin:miter;stroke-opacity:1" d="M 377.432,308.702 398.051,315.575 z" id="boundary" inkscape:connector-curvature="0" />
	<path style="fill:none;stroke:#000000;stroke-width:1px;stroke-linecap:butt;stroke-linejoin:miter;stroke-opacity:1" d="M 398.051,315.575 423.253,322.448 z" id="boundary" inkscape:connector-curvature="0" />
	<path style="fill:none;stroke:#000000;stroke-width:1px;stroke-linecap:butt;stroke-linejoin:miter;stroke-opacity:1" d="M 423.253,322.448 432.417,345.357 z" id="boundary" inkscape:connector-curvature="0" />
	<path style="fill:none;stroke:#000000;stroke-width:1px;stroke-linecap:butt;stroke-linejoin:miter;stroke-opacity:1" d="M 432.417,345.357 432.417,368.267 z" id="boundary" inkscape:connector-curvature="0" />
	<path style="fill:none;stroke:#000000;stroke-width:1px;stroke-linecap:butt;stroke-linejoin:miter;stroke-opacity:1" d="M 432.417,368.267 434.708,391.178 z" id="boundary" inkscape:connector-curvature="0" />
	<path style="fill:none;stroke:#000000;stroke-width:1px;stroke-linecap:butt;stroke-linejoin:miter;stroke-opacity:1" d="M 434.708,391.178 434.708,418.668 z" id="boundary" inkscape:connector-curvature="0" />
	<path style="fill:none;stroke:#000000;stroke-width:1px;stroke-linecap:butt;stroke-linejoin:miter;stroke-opacity:1" d="M 434.708,418.668 427.835,443.87 z" id="boundary" inkscape:connector-curvature="0" />
	<path style="fill:none;stroke:#000000;stroke-width:1px;stroke-linecap:butt;stroke-linejoin:miter;stroke-opacity:1" d="M 427.835,443.87 423.253,469.072 z" id="boundary" inkscape:connector-curvature="0" />
	<path style="fill:none;stroke:#000000;stroke-width:1px;stroke-linecap:butt;stroke-linejoin:miter;stroke-opacity:1" d="M 423.253,469.072 420.962,491.982 z" id="boundary" inkscape:connector-curvature="0" />
	<path style="fill:none;stroke:#000000;stroke-width:1px;stroke-linecap:butt;stroke-linejoin:miter;stroke-opacity:1" d="M 102.513,228.517 100.222,260.59 z" id="boundary" inkscape:connector-curvature="0" />
	<path style="fill:none;stroke:#000000;stroke-width:1px;stroke-linecap:butt;stroke-linejoin:miter;stroke-opacity:1" d="M 100.222,260.59 100.222,288.082 z" id="boundary" inkscape:connector-curvature="0" />
	<path style="fill:none;stroke:#000000;stroke-width:1px;stroke-linecap:butt;stroke-linejoin:miter;stroke-opacity:1" d="M 100.222,288.082 97.9313,315.575 z" id="boundary" inkscape:connector-curvature="0" />
	<path style="fill:none;stroke:#000000;stroke-width:1px;stroke-linecap:butt;stroke-linejoin:miter;stroke-opacity:1" d="M 97.9313,315.575 88.767,343.066 z" id="boundary" inkscape:connector-curvature="0" />
	<path style="fill:none;stroke:#000000;stroke-width:1px;stroke-linecap:butt;stroke-linejoin:miter;stroke-opacity:1" d="M 88.767,343.066 88.767,368.267 z" id="boundary" inkscape:connector-curvature="0" />
	<path style="fill:none;stroke:#000000;stroke-width:1px;stroke-linecap:butt;stroke-linejoin:miter;stroke-opacity:1" d="M 88.767,368.267 86.476,393.469 z" id="boundary" inkscape:connector-curvature="0" />
	<path style="fill:none;stroke:#000000;stroke-width:1px;stroke-linecap:butt;stroke-linejoin:miter;stroke-opacity:1" d="M 86.476,393.469 84.1849,414.089 z" id="boundary" inkscape:connector-curvature="0" />
	<path style="fill:none;stroke:#000000;stroke-width:1px;stroke-linecap:butt;stroke-linejoin:miter;stroke-opacity:1" d="M 84.1849,414.089 84.1849,436.997 z" id="boundary" inkscape:connector-curvature="0" />
	<path style="fill:none;stroke:#000000;stroke-width:1px;stroke-linecap:butt;stroke-linejoin:miter;stroke-opacity:1" d="M 84.1849,436.997 84.1849,457.616 z" id="boundary" inkscape:connector-curvature="0" />
	<path style="fill:none;stroke:#000000;stroke-width:1px;stroke-linecap:butt;stroke-linejoin:miter;stroke-opacity:1" d="M 84.1849,457.616 84.1849,482.818 z" id="boundary" inkscape:connector-curvature="0" />
	<path style="fill:none;stroke:#000000;stroke-width:1px;stroke-linecap:butt;stroke-linejoin:miter;stroke-opacity:1" d="M 84.1849,482.818 86.476,505.726 z" id="boundary" inkscape:connector-curvature="0" />
	<path style="fill:none;stroke:#000000;stroke-width:1px;stroke-linecap:butt;stroke-linejoin:miter;stroke-opacity:1" d="M 86.476,505.726 86.476,530.928 z" id="boundary" inkscape:connector-curvature="0" />
	<path style="fill:none;stroke:#000000;stroke-width:1px;stroke-linecap:butt;stroke-linejoin:miter;stroke-opacity:1" d="M 86.476,530.928 88.767,551.548 z" id="boundary" inkscape:connector-curvature="0" />
	<path style="fill:none;stroke:#000000;stroke-width:1px;stroke-linecap:butt;stroke-linejoin:miter;stroke-opacity:1" d="M 88.767,551.548 91.0581,576.747 z" id="boundary" inkscape:connector-curvature="0" />
	<path style="fill:none;stroke:#000000;stroke-width:1px;stroke-linecap:butt;stroke-linejoin:miter;stroke-opacity:1" d="M 91.0581,576.747 97.9313,604.24 z" id="boundary" inkscape:connector-curvature="0" />
	<path style="fill:none;stroke:#000000;stroke-width:1px;stroke-linecap:butt;stroke-linejoin:miter;stroke-opacity:1" d="M 97.9313,604.24 102.513,627.151 z" id="boundary" inkscape:connector-curvature="0" />
	<path style="fill:none;stroke:#000000;stroke-width:1px;stroke-linecap:butt;stroke-linejoin:miter;stroke-opacity:1" d="M 102.513,627.151 109.387,652.352 z" id="boundary" inkscape:connector-curvature="0" />
	<path style="fill:none;stroke:#000000;stroke-width:1px;stroke-linecap:butt;stroke-linejoin:miter;stroke-opacity:1" d="M 109.387,652.352 120.839,682.134 z" id="boundary" inkscape:connector-curvature="0" />
	<path style="fill:none;stroke:#000000;stroke-width:1px;stroke-linecap:butt;stroke-linejoin:miter;stroke-opacity:1" d="M 120.839,682.134 130.004,709.626 z" id="boundary" inkscape:connector-curvature="0" />
	<path style="fill:none;stroke:#000000;stroke-width:1px;stroke-linecap:butt;stroke-linejoin:miter;stroke-opacity:1" d="M 130.004,709.626 143.75,727.955 z" id="boundary" inkscape:connector-curvature="0" />
	<path style="fill:none;stroke:#000000;stroke-width:1px;stroke-linecap:butt;stroke-linejoin:miter;stroke-opacity:1" d="M 143.75,727.955 159.788,750.863 z" id="boundary" inkscape:connector-curvature="0" />
	<path style="fill:none;stroke:#000000;stroke-width:1px;stroke-linecap:butt;stroke-linejoin:miter;stroke-opacity:1" d="M 159.788,750.863 175.825,771.483 z" id="boundary" inkscape:connector-curvature="0" />
	<path style="fill:none;stroke:#000000;stroke-width:1px;stroke-linecap:butt;stroke-linejoin:miter;stroke-opacity:1" d="M 175.825,771.483 196.445,785.229 z" id="boundary" inkscape:connector-curvature="0" />
	<path style="fill:none;stroke:#000000;stroke-width:1px;stroke-linecap:butt;stroke-linejoin:miter;stroke-opacity:1" d="M 196.445,785.229 212.48,803.558 z" id="boundary" inkscape:connector-curvature="0" />
	<path style="fill:none;stroke:#000000;stroke-width:1px;stroke-linecap:butt;stroke-linejoin:miter;stroke-opacity:1" d="M 212.48,803.558 196.445,817.304 z" id="boundary" inkscape:connector-curvature="0" />
	<path style="fill:none;stroke:#000000;stroke-width:1px;stroke-linecap:butt;stroke-linejoin:miter;stroke-opacity:1" d="M 196.445,817.304 166.661,826.466 z" id="boundary" inkscape:connector-curvature="0" />
	<path style="fill:none;stroke:#000000;stroke-width:1px;stroke-linecap:butt;stroke-linejoin:miter;stroke-opacity:1" d="M 166.661,826.466 148.332,835.63 z" id="boundary" inkscape:connector-curvature="0" />
	<path style="fill:none;stroke:#000000;stroke-width:1px;stroke-linecap:butt;stroke-linejoin:miter;stroke-opacity:1" d="M 148.332,835.63 130.004,847.086 z" id="boundary" inkscape:connector-curvature="0" />
	<path style="fill:none;stroke:#000000;stroke-width:1px;stroke-linecap:butt;stroke-linejoin:miter;stroke-opacity:1" d="M 130.004,847.086 107.096,851.668 z" id="boundary" inkscape:connector-curvature="0" />
	<path style="fill:none;stroke:#000000;stroke-width:1px;stroke-linecap:butt;stroke-linejoin:miter;stroke-opacity:1" d="M 107.096,851.668 84.1849,865.414 z" id="boundary" inkscape:connector-curvature="0" />
	<path style="fill:none;stroke:#000000;stroke-width:1px;stroke-linecap:butt;stroke-linejoin:miter;stroke-opacity:1" d="M 84.1849,865.414 63.5653,879.161 z" id="boundary" inkscape:connector-curvature="0" />
	<path style="fill:none;stroke:#000000;stroke-width:1px;stroke-linecap:butt;stroke-linejoin:miter;stroke-opacity:1" d="M 63.5653,879.161 42.9457,890.616 z" id="boundary" inkscape:connector-curvature="0" />
	<path style="fill:none;stroke:#000000;stroke-width:1px;stroke-linecap:butt;stroke-linejoin:miter;stroke-opacity:1" d="M 42.9457,890.616 20.0375,906.651 z" id="boundary" inkscape:connector-curvature="0" />
	<path style="fill:none;stroke:#000000;stroke-width:1px;stroke-linecap:butt;stroke-linejoin:miter;stroke-opacity:1" d="M 20.0375,906.651 6.29107,929.562 z" id="boundary" inkscape:connector-curvature="0" />
	<path style="fill:none;stroke:#000000;stroke-width:1px;stroke-linecap:butt;stroke-linejoin:miter;stroke-opacity:1" d="M 6.29107,929.562 6.29107,959.345 z" id="boundary" inkscape:connector-curvature="0" />
	<path style="fill:none;stroke:#000000;stroke-width:1px;stroke-linecap:butt;stroke-linejoin:miter;stroke-opacity:1" d="M 6.29107,959.345 4,982.254 z" id="boundary" inkscape:connector-curvature="0" />
	<path style="fill:none;stroke:#000000;stroke-width:1px;stroke-linecap:butt;stroke-linejoin:miter;stroke-opacity:1" d="M 4,982.254 24.6196,989.127 z" id="boundary" inkscape:connector-curvature="0" />
	<path style="fill:none;stroke:#000000;stroke-width:1px;stroke-linecap:butt;stroke-linejoin:miter;stroke-opacity:1" d="M 24.6196,989.127 49.8189,989.127 z" id="boundary" inkscape:connector-curvature="0" />
	<path style="fill:none;stroke:#000000;stroke-width:1px;stroke-linecap:butt;stroke-linejoin:miter;stroke-opacity:1" d="M 49.8189,989.127 77.3117,989.127 z" id="boundary" inkscape:connector-curvature="0" />
	<path style="fill:none;stroke:#000000;stroke-width:1px;stroke-linecap:butt;stroke-linejoin:miter;stroke-opacity:1" d="M 77.3117,989.127 102.513,986.836 z" id="boundary" inkscape:connector-curvature="0" />
	<path style="fill:none;stroke:#000000;stroke-width:1px;stroke-linecap:butt;stroke-linejoin:miter;stroke-opacity:1" d="M 102.513,986.836 127.713,986.836 z" id="boundary" inkscape:connector-curvature="0" />
	<path style="fill:none;stroke:#000000;stroke-width:1px;stroke-linecap:butt;stroke-linejoin:miter;stroke-opacity:1" d="M 127.713,986.836 155.205,986.836 z" id="boundary" inkscape:connector-curvature="0" />
	<path style="fill:none;stroke:#000000;stroke-width:1px;stroke-linecap:butt;stroke-linejoin:miter;stroke-opacity:1" d="M 155.205,986.836 178.116,986.836 z" id="boundary" inkscape:connector-curvature="0" />
	<path style="fill:none;stroke:#000000;stroke-width:1px;stroke-linecap:butt;stroke-linejoin:miter;stroke-opacity:1" d="M 178.116,986.836 203.315,984.545 z" id="boundary" inkscape:connector-curvature="0" />
	<path style="fill:none;stroke:#000000;stroke-width:1px;stroke-linecap:butt;stroke-linejoin:miter;stroke-opacity:1" d="M 203.315,984.545 226.226,984.545 z" id="boundary" inkscape:connector-curvature="0" />
	<path style="fill:none;stroke:#000000;stroke-width:1px;stroke-linecap:butt;stroke-linejoin:miter;stroke-opacity:1" d="M 226.226,984.545 249.137,984.545 z" id="boundary" inkscape:connector-curvature="0" />
	<path style="fill:none;stroke:#000000;stroke-width:1px;stroke-linecap:butt;stroke-linejoin:miter;stroke-opacity:1" d="M 249.137,984.545 276.63,989.127 z" id="boundary" inkscape:connector-curvature="0" />
	<path style="fill:none;stroke:#000000;stroke-width:1px;stroke-linecap:butt;stroke-linejoin:miter;stroke-opacity:1" d="M 276.63,989.127 306.411,996 z" id="boundary" inkscape:connector-curvature="0" />
	<path style="fill:none;stroke:#000000;stroke-width:1px;stroke-linecap:butt;stroke-linejoin:miter;stroke-opacity:1" d="M 306.411,996 331.613,989.127 z" id="boundary" inkscape:connector-curvature="0" />
	<path style="fill:none;stroke:#000000;stroke-width:1px;stroke-linecap:butt;stroke-linejoin:miter;stroke-opacity:1" d="M 331.613,989.127 356.814,986.836 z" id="boundary" inkscape:connector-curvature="0" />
	<path style="fill:none;stroke:#000000;stroke-width:1px;stroke-linecap:butt;stroke-linejoin:miter;stroke-opacity:1" d="M 356.814,986.836 384.305,991.418 z" id="boundary" inkscape:connector-curvature="0" />
	<path style="fill:none;stroke:#000000;stroke-width:1px;stroke-linecap:butt;stroke-linejoin:miter;stroke-opacity:1" d="M 384.305,991.418 411.798,993.709 z" id="boundary" inkscape:connector-curvature="0" />
	<path style="fill:none;stroke:#000000;stroke-width:1px;stroke-linecap:butt;stroke-linejoin:miter;stroke-opacity:1" d="M 411.798,993.709 443.87,991.418 z" id="boundary" inkscape:connector-curvature="0" />
	<path style="fill:none;stroke:#000000;stroke-width:1px;stroke-linecap:butt;stroke-linejoin:miter;stroke-opacity:1" d="M 420.962,491.982 418.671,524.055 z" id="boundary" inkscape:connector-curvature="0" />
	<path style="fill:none;stroke:#000000;stroke-width:1px;stroke-linecap:butt;stroke-linejoin:miter;stroke-opacity:1" d="M 418.671,524.055 414.089,551.548 z" id="boundary" inkscape:connector-curvature="0" />
	<path style="fill:none;stroke:#000000;stroke-width:1px;stroke-linecap:butt;stroke-linejoin:miter;stroke-opacity:1" d="M 414.089,551.548 407.215,583.62 z" id="boundary" inkscape:connector-curvature="0" />
	<path style="fill:none;stroke:#000000;stroke-width:1px;stroke-linecap:butt;stroke-linejoin:miter;stroke-opacity:1" d="M 407.215,583.62 402.633,611.113 z" id="boundary" inkscape:connector-curvature="0" />
	<path style="fill:none;stroke:#000000;stroke-width:1px;stroke-linecap:butt;stroke-linejoin:miter;stroke-opacity:1" d="M 402.633,611.113 400.342,631.733 z" id="boundary" inkscape:connector-curvature="0" />
	<path style="fill:none;stroke:#000000;stroke-width:1px;stroke-linecap:butt;stroke-linejoin:miter;stroke-opacity:1" d="M 400.342,631.733 395.76,652.352 z" id="boundary" inkscape:connector-curvature="0" />
	<path style="fill:none;stroke:#000000;stroke-width:1px;stroke-linecap:butt;stroke-linejoin:miter;stroke-opacity:1" d="M 395.76,652.352 395.76,675.26 z" id="boundary" inkscape:connector-curvature="0" />
	<path style="fill:none;stroke:#000000;stroke-width:1px;stroke-linecap:butt;stroke-linejoin:miter;stroke-opacity:1" d="M 395.76,675.26 391.178,698.171 z" id="boundary" inkscape:connector-curvature="0" />
	<path style="fill:none;stroke:#000000;stroke-width:1px;stroke-linecap:butt;stroke-linejoin:miter;stroke-opacity:1" d="M 391.178,698.171 384.305,723.373 z" id="boundary" inkscape:connector-curvature="0" />
	<path style="fill:none;stroke:#000000;stroke-width:1px;stroke-linecap:butt;stroke-linejoin:miter;stroke-opacity:1" d="M 384.305,723.373 370.558,748.572 z" id="boundary" inkscape:connector-curvature="0" />
	<path style="fill:none;stroke:#000000;stroke-width:1px;stroke-linecap:butt;stroke-linejoin:miter;stroke-opacity:1" d="M 370.558,748.572 356.814,766.901 z" id="boundary" inkscape:connector-curvature="0" />
	<path style="fill:none;stroke:#000000;stroke-width:1px;stroke-linecap:butt;stroke-linejoin:miter;stroke-opacity:1" d="M 356.814,766.901 333.904,780.647 z" id="boundary" inkscape:connector-curvature="0" />
	<path style="fill:none;stroke:#000000;stroke-width:1px;stroke-linecap:butt;stroke-linejoin:miter;stroke-opacity:1" d="M 333.904,780.647 331.613,805.849 z" id="boundary" inkscape:connector-curvature="0" />
	<path style="fill:none;stroke:#000000;stroke-width:1px;stroke-linecap:butt;stroke-linejoin:miter;stroke-opacity:1" d="M 331.613,805.849 356.814,810.431 z" id="boundary" inkscape:connector-curvature="0" />
	<path style="fill:none;stroke:#000000;stroke-width:1px;stroke-linecap:butt;stroke-linejoin:miter;stroke-opacity:1" d="M 356.814,810.431 377.432,819.593 z" id="boundary" inkscape:connector-curvature="0" />
	<path style="fill:none;stroke:#000000;stroke-width:1px;stroke-linecap:butt;stroke-linejoin:miter;stroke-opacity:1" d="M 377.432,819.593 402.633,833.339 z" id="boundary" inkscape:connector-curvature="0" />
	<path style="fill:none;stroke:#000000;stroke-width:1px;stroke-linecap:butt;stroke-linejoin:miter;stroke-opacity:1" d="M 402.633,833.339 430.126,842.503 z" id="boundary" inkscape:connector-curvature="0" />
	<path style="fill:none;stroke:#000000;stroke-width:1px;stroke-linecap:butt;stroke-linejoin:miter;stroke-opacity:1" d="M 430.126,842.503 459.908,853.959 z" id="boundary" inkscape:connector-curvature="0" />
	<path style="fill:none;stroke:#000000;stroke-width:1px;stroke-linecap:butt;stroke-linejoin:miter;stroke-opacity:1" d="M 459.908,853.959 482.818,867.705 z" id="boundary" inkscape:connector-curvature="0" />
	<path style="fill:none;stroke:#000000;stroke-width:1px;stroke-linecap:butt;stroke-linejoin:miter;stroke-opacity:1" d="M 482.818,867.705 485.109,890.616 z" id="boundary" inkscape:connector-curvature="0" />
	<path style="fill:none;stroke:#000000;stroke-width:1px;stroke-linecap:butt;stroke-linejoin:miter;stroke-opacity:1" d="M 485.109,890.616 487.4,922.688 z" id="boundary" inkscape:connector-curvature="0" />
	<path style="fill:none;stroke:#000000;stroke-width:1px;stroke-linecap:butt;stroke-linejoin:miter;stroke-opacity:1" d="M 487.4,922.688 487.4,950.181 z" id="boundary" inkscape:connector-curvature="0" />
	<path style="fill:none;stroke:#000000;stroke-width:1px;stroke-linecap:butt;stroke-linejoin:miter;stroke-opacity:1" d="M 443.87,991.418 478.236,991.418 z" id="boundary" inkscape:connector-curvature="0" />
	<path style="fill:none;stroke:#000000;stroke-width:1px;stroke-linecap:butt;stroke-linejoin:miter;stroke-opacity:1" d="M 478.236,991.418 494.274,984.545 z" id="boundary" inkscape:connector-curvature="0" />
	<path style="fill:none;stroke:#000000;stroke-width:1px;stroke-linecap:butt;stroke-linejoin:miter;stroke-opacity:1" d="M 487.4,950.181 494.274,984.545 z" id="boundary" inkscape:connector-curvature="0" />
	<path style="fill:none;stroke:#000000;stroke-width:1px;stroke-linecap:butt;stroke-linejoin:miter;stroke-opacity:1" d="M 191.863,294.956 201.024,276.627 z" id="boundary" inkscape:connector-curvature="0" />
	<path style="fill:none;stroke:#000000;stroke-width:1px;stroke-linecap:butt;stroke-linejoin:miter;stroke-opacity:1" d="M 191.863,294.956 168.952,304.12 z" id="boundary" inkscape:connector-curvature="0" />
	<path style="fill:none;stroke:#000000;stroke-width:1px;stroke-linecap:butt;stroke-linejoin:miter;stroke-opacity:1" d="M 168.952,304.12 141.459,308.702 z" id="boundary" inkscape:connector-curvature="0" />
	<path style="fill:none;stroke:#000000;stroke-width:1px;stroke-linecap:butt;stroke-linejoin:miter;stroke-opacity:1" d="M 141.459,308.702 139.168,278.918 z" id="boundary" inkscape:connector-curvature="0" />
	<path style="fill:none;stroke:#000000;stroke-width:1px;stroke-linecap:butt;stroke-linejoin:miter;stroke-opacity:1" d="M 139.168,278.918 136.877,253.719 z" id="boundary" inkscape:connector-curvature="0" />
	<path style="fill:none;stroke:#000000;stroke-width:1px;stroke-linecap:butt;stroke-linejoin:miter;stroke-opacity:1" d="M 136.877,253.719 134.586,223.935 z" id="boundary" inkscape:connector-curvature="0" />
	<path style="fill:none;stroke:#000000;stroke-width:1px;stroke-linecap:butt;stroke-linejoin:miter;stroke-opacity:1" d="M 134.586,223.935 139.168,196.442 z" id="boundary" inkscape:connector-curvature="0" />
	<path style="fill:none;stroke:#000000;stroke-width:1px;stroke-linecap:butt;stroke-linejoin:miter;stroke-opacity:1" d="M 139.168,196.442 143.75,171.243 z" id="boundary" inkscape:connector-curvature="0" />
	<path style="fill:none;stroke:#000000;stroke-width:1px;stroke-linecap:butt;stroke-linejoin:miter;stroke-opacity:1" d="M 143.75,171.243 157.497,152.914 z" id="boundary" inkscape:connector-curvature="0" />
	<path style="fill:none;stroke:#000000;stroke-width:1px;stroke-linecap:butt;stroke-linejoin:miter;stroke-opacity:1" d="M 157.497,152.914 180.407,155.205 z" id="boundary" inkscape:connector-curvature="0" />
	<path style="fill:none;stroke:#000000;stroke-width:1px;stroke-linecap:butt;stroke-linejoin:miter;stroke-opacity:1" d="M 180.407,155.205 187.28,180.405 z" id="boundary" inkscape:connector-curvature="0" />
	<path style="fill:none;stroke:#000000;stroke-width:1px;stroke-linecap:butt;stroke-linejoin:miter;stroke-opacity:1" d="M 187.28,180.405 189.572,203.315 z" id="boundary" inkscape:connector-curvature="0" />
	<path style="fill:none;stroke:#000000;stroke-width:1px;stroke-linecap:butt;stroke-linejoin:miter;stroke-opacity:1" d="M 189.572,203.315 194.154,223.935 z" id="boundary" inkscape:connector-curvature="0" />
	<path style="fill:none;stroke:#000000;stroke-width:1px;stroke-linecap:butt;stroke-linejoin:miter;stroke-opacity:1" d="M 194.154,223.935 194.154,246.846 z" id="boundary" inkscape:connector-curvature="0" />
	<path style="fill:none;stroke:#000000;stroke-width:1px;stroke-linecap:butt;stroke-linejoin:miter;stroke-opacity:1" d="M 194.154,246.846 201.024,276.627 z" id="boundary" inkscape:connector-curvature="0" />
	<circle cx="97.9313" cy="315.575" r="4" fill="#0" id="circle0"/>
	<circle cx="100.222" cy="288.082" r="4" fill="#0" id="circle1"/>
	<circle cx="100.222" cy="260.59" r="4" fill="#0" id="circle2"/>
	<circle cx="102.513" cy="228.517" r="4" fill="#0" id="circle3"/>
	<circle cx="100.222" cy="201.024" r="4" fill="#0" id="circle4"/>
	<circle cx="100.222" cy="171.243" r="4" fill="#0" id="circle5"/>
	<circle cx="102.513" cy="143.75" r="4" fill="#0" id="circle6"/>
	<circle cx="113.969" cy="118.548" r="4" fill="#0" id="circle7"/>
	<circle cx="130.004" cy="102.511" r="4" fill="#0" id="circle8"/>
	<circle cx="150.623" cy="95.6378" r="4" fill="#0" id="circle9"/>
	<circle cx="171.243" cy="95.6378" r="4" fill="#0" id="circle10"/>
	<circle cx="168.952" cy="77.3117" r="4" fill="#0" id="circle11"/>
	<circle cx="157.497" cy="56.6921" r="4" fill="#0" id="circle12"/>
	<circle cx="164.37" cy="31.4903" r="4" fill="#0" id="circle13"/>
	<circle cx="184.989" cy="15.4529" r="4" fill="#0" id="circle14"/>
	<circle cx="207.898" cy="8.58213" r="4" fill="#0" id="circle15"/>
	<circle cx="230.808" cy="4" r="4" fill="#0" id="circle16"/>
	<circle cx="251.428" cy="6.29107" r="4" fill="#0" id="circle17"/>
	<circle cx="278.921" cy="4" r="4" fill="#0" id="circle18"/>
	<circle cx="301.829" cy="10.8732" r="4" fill="#0" id="circle19"/>
	<circle cx="327.031" cy="22.3261" r="4" fill="#0" id="circle20"/>
	<circle cx="343.068" cy="42.9457" r="4" fill="#0" id="circle21"/>
	<circle cx="343.068" cy="68.1474" r="4" fill="#0" id="circle22"/>
	<circle cx="336.195" cy="84.1849" r="4" fill="#0" id="circle23"/>
	<circle cx="322.448" cy="100.22" r="4" fill="#0" id="circle24"/>
	<circle cx="313.284" cy="118.548" r="4" fill="#0" id="circle25"/>
	<circle cx="299.538" cy="146.041" r="4" fill="#0" id="circle26"/>
	<circle cx="294.956" cy="171.243" r="4" fill="#0" id="circle27"/>
	<circle cx="292.665" cy="191.86" r="4" fill="#0" id="circle28"/>
	<circle cx="292.665" cy="210.189" r="4" fill="#0" id="circle29"/>
	<circle cx="297.247" cy="239.973" r="4" fill="#0" id="circle30"/>
	<circle cx="304.12" cy="265.172" r="4" fill="#0" id="circle31"/>
	<circle cx="313.284" cy="288.082" r="4" fill="#0" id="circle32"/>
	<circle cx="331.613" cy="299.538" r="4" fill="#0" id="circle33"/>
	<circle cx="354.523" cy="306.411" r="4" fill="#0" id="circle34"/>
	<circle cx="377.432" cy="308.702" r="4" fill="#0" id="circle35"/>
	<circle cx="398.051" cy="315.575" r="4" fill="#0" id="circle36"/>
	<circle cx="423.253" cy="322.448" r="4" fill="#0" id="circle37"/>
	<circle cx="432.417" cy="345.357" r="4" fill="#0" id="circle38"/>
	<circle cx="432.417" cy="368.267" r="4" fill="#0" id="circle39"/>
	<circle cx="88.767" cy="343.066" r="4" fill="#0" id="circle40"/>
	<circle cx="88.767" cy="368.267" r="4" fill="#0" id="circle41"/>
	<circle cx="86.476" cy="393.469" r="4" fill="#0" id="circle42"/>
	<circle cx="84.1849" cy="414.089" r="4" fill="#0" id="circle43"/>
	<circle cx="84.1849" cy="436.997" r="4" fill="#0" id="circle44"/>
	<circle cx="84.1849" cy="457.616" r="4" fill="#0" id="circle45"/>
	<circle cx="84.1849" cy="482.818" r="4" fill="#0" id="circle46"/>
	<circle cx="86.476" cy="505.726" r="4" fill="#0" id="circle47"/>
	<circle cx="86.476" cy="530.928" r="4" fill="#0" id="circle48"/>
	<circle cx="88.767" cy="551.548" r="4" fill="#0" id="circle49"/>
	<circle cx="91.0581" cy="576.747" r="4" fill="#0" id="circle50"/>
	<circle cx="84.1849" cy="865.414" r="4" fill="#0" id="circle51"/>
	<circle cx="109.387" cy="652.352" r="4" fill="#0" id="circle52"/>
	<circle cx="102.513" cy="627.151" r="4" fill="#0" id="circle53"/>
	<circle cx="97.9313" cy="604.24" r="4" fill="#0" id="circle54"/>
	<circle cx="120.839" cy="682.134" r="4" fill="#0" id="circle55"/>
	<circle cx="130.004" cy="709.626" r="4" fill="#0" id="circle56"/>
	<circle cx="143.75" cy="727.955" r="4" fill="#0" id="circle57"/>
	<circle cx="159.788" cy="750.863" r="4" fill="#0" id="circle58"/>
	<circle cx="175.825" cy="771.483" r="4" fill="#0" id="circle59"/>
	<circle cx="196.445" cy="785.229" r="4" fill="#0" id="circle60"/>
	<circle cx="212.48" cy="803.558" r="4" fill="#0" id="circle61"/>
	<circle cx="196.445" cy="817.304" r="4" fill="#0" id="circle62"/>
	<circle cx="166.661" cy="826.466" r="4" fill="#0" id="circle63"/>
	<circle cx="148.332" cy="835.63" r="4" fill="#0" id="circle64"/>
	<circle cx="130.004" cy="847.086" r="4" fill="#0" id="circle65"/>
	<circle cx="107.096" cy="851.668" r="4" fill="#0" id="circle66"/>
	<circle cx="63.5653" cy="879.161" r="4" fill="#0" id="circle67"/>
	<circle cx="42.9457" cy="890.616" r="4" fill="#0" id="circle68"/>
	<circle cx="20.0375" cy="906.651" r="4" fill="#0" id="circle69"/>
	<circle cx="6.29107" cy="929.562" r="4" fill="#0" id="circle70"/>
	<circle cx="6.29107" cy="959.345" r="4" fill="#0" id="circle71"/>
	<circle cx="4" cy="982.254" r="4" fill="#0" id="circle72"/>
	<circle cx="24.6196" cy="989.127" r="4" fill="#0" id="circle73"/>
	<circle cx="49.8189" cy="989.127" r="4" fill="#0" id="circle74"/>
	<circle cx="77.3117" cy="989.127" r="4" fill="#0" id="circle75"/>
	<circle cx="102.513" cy="986.836" r="4" fill="#0" id="circle76"/>
	<circle cx="127.713" cy="986.836" r="4" fill="#0" id="circle77"/>
	<circle cx="155.205" cy="986.836" r="4" fill="#0" id="circle78"/>
	<circle cx="178.116" cy="986.836" r="4" fill="#0" id="circle79"/>
	<circle cx="203.315" cy="984.545" r="4" fill="#0" id="circle80"/>
	<circle cx="226.226" cy="984.545" r="4" fill="#0" id="circle81"/>
	<circle cx="249.137" cy="984.545" r="4" fill="#0" id="circle82"/>
	<circle cx="276.63" cy="989.127" r="4" fill="#0" id="circle83"/>
	<circle cx="306.411" cy="996" r="4" fill="#0" id="circle84"/>
	<circle cx="331.613" cy="989.127" r="4" fill="#0" id="circle85"/>
	<circle cx="356.814" cy="986.836" r="4" fill="#0" id="circle86"/>
	<circle cx="384.305" cy="991.418" r="4" fill="#0" id="circle87"/>
	<circle cx="411.798" cy="993.709" r="4" fill="#0" id="circle88"/>
	<circle cx="443.87" cy="991.418" r="4" fill="#0" id="circle89"/>
	<circle cx="478.236" cy="991.418" r="4" fill="#0" id="circle90"/>
	<circle cx="494.274" cy="984.545" r="4" fill="#0" id="circle91"/>
	<circle cx="487.4" cy="950.181" r="4" fill="#0" id="circle92"/>
	<circle cx="487.4" cy="922.688" r="4" fill="#0" id="circle93"/>
	<circle cx="485.109" cy="890.616" r="4" fill="#0" id="circle94"/>
	<circle cx="482.818" cy="867.705" r="4" fill="#0" id="circle95"/>
	<circle cx="459.908" cy="853.959" r="4" fill="#0" id="circle96"/>
	<circle cx="430.126" cy="842.503" r="4" fill="#0" id="circle97"/>
	<circle cx="402.633" cy="833.339" r="4" fill="#0" id="circle98"/>
	<circle cx="377.432" cy="819.593" r="4" fill="#0" id="circle99"/>
	<circle cx="356.814" cy="810.431" r="4" fill="#0" id="circle100"/>
	<circle cx="331.613" cy="805.849" r="4" fill="#0" id="circle101"/>
	<circle cx="333.904" cy="780.647" r="4" fill="#0" id="circle102"/>
	<circle cx="356.814" cy="766.901" r="4" fill="#0" id="circle103"/>
	<circle cx="370.558" cy="748.572" r="4" fill="#0" id="circle104"/>
	<circle cx="384.305" cy="723.373" r="4" fill="#0" id="circle105"/>
	<circle cx="434.708" cy="391.178" r="4" fill="#0" id="circle106"/>
	<circle cx="434.708" cy="418.668" r="4" fill="#0" id="circle107"/>
	<circle cx="427.835" cy="443.87" r="4" fill="#0" id="circle108"/>
	<circle cx="423.253" cy="469.072" r="4" fill="#0" id="circle109"/>
	<circle cx="420.962" cy="491.982" r="4" fill="#0" id="circle110"/>
	<circle cx="418.671" cy="524.055" r="4" fill="#0" id="circle111"/>
	<circle cx="414.089" cy="551.548" r="4" fill="#0" id="circle112"/>
	<circle cx="143.75" cy="171.243" r="4" fill="#0" id="circle113"/>
	<circle cx="407.215" cy="583.62" r="4" fill="#0" id="circle114"/>
	<circle cx="402.633" cy="611.113" r="4" fill="#0" id="circle115"/>
	<circle cx="400.342" cy="631.733" r="4" fill="#0" id="circle116"/>
	<circle cx="395.76" cy="652.352" r="4" fill="#0" id="circle117"/>
	<circle cx="395.76" cy="675.26" r="4" fill="#0" id="circle118"/>
	<circle cx="391.178" cy="698.171" r="4" fill="#0" id="circle119"/>
	<circle cx="157.497" cy="152.914" r="4" fill="#0" id="circle120"/>
	<circle cx="180.407" cy="155.205" r="4" fill="#0" id="circle121"/>
	<circle cx="187.28" cy="180.405" r="4" fill="#0" id="circle122"/>
	<circle cx="189.572" cy="203.315" r="4" fill="#0" id="circle123"/>
	<circle cx="194.154" cy="223.935" r="4" fill="#0" id="circle124"/>
	<circle cx="194.154" cy="246.846" r="4" fill="#0" id="circle125"/>
	<circle cx="201.024" cy="276.627" r="4" fill="#0" id="circle126"/>
	<circle cx="191.863" cy="294.956" r="4" fill="#0" id="circle127"/>
	<circle cx="168.952" cy="304.12" r="4" fill="#0" id="circle128"/>
	<circle cx="141.459" cy="308.702" r="4" fill="#0" id="circle129"/>
	<circle cx="139.168" cy="196.442" r="4" fill="#0" id="circle130"/>
	<circle cx="134.586" cy="223.935" r="4" fill="#0" id="circle131"/>
	<circle cx="136.877" cy="253.719" r="4" fill="#0" id="circle132"/>
	<circle cx="139.168" cy="278.918" r="4" fill="#0" id="circle133"/>
	</g>
</svg>